<?xml version="1.0" encoding="UTF-8" standalone="no"?><!DOCTYPE svg PUBLIC "-//W3C//DTD SVG 1.1//EN" "http://www.w3.org/Graphics/SVG/1.1/DTD/svg11.dtd"><svg width="100%" height="100%" viewBox="0 0 250 100" version="1.1" xmlns="http://www.w3.org/2000/svg" xmlns:xlink="http://www.w3.org/1999/xlink" xml:space="preserve" xmlns:serif="http://www.serif.com/" style="fill-rule:evenodd;clip-rule:evenodd;stroke-linejoin:round;stroke-miterlimit:2;"><path d="M236.741,17.157c0.072,-1.106 0.155,-1.974 0.191,-2.854c0.178,-4.733 2.164,-6.659 6.671,-6.505c4.102,0.143 5.767,2.01 5.767,6.564c0.012,7.325 0.047,14.662 -0.012,21.987c-0.095,10.31 -4.876,15.221 -15.233,15.78c-3.591,0.19 -7.194,0.475 -10.785,0.57c-3.555,0.095 -7.123,0.024 -10.726,0.024c-1.011,4.566 -0.737,4.864 3.9,4.971c7.421,0.178 14.912,-0.107 22.237,0.856c7.515,0.987 10.678,4.97 11.19,12.557c0.225,3.436 -0.072,7.004 -0.761,10.381c-1.023,5.006 -4.626,7.991 -9.454,9.061c-9.893,2.2 -19.894,2.235 -29.799,0.047c-6.16,-1.355 -9.549,-5.505 -9.608,-11.796c-0.143,-16.457 -0.143,-32.914 0.012,-49.372c0.071,-7.099 4.007,-11.558 11.094,-12.057c7.373,-0.524 14.805,-0.179 22.213,-0.214l3.103,0Zm-12.604,23.794l0,0.059c1.236,0 2.473,0.024 3.71,0c8.014,-0.142 9.275,-1.581 9.108,-9.584c-0.047,-2.259 -0.951,-2.937 -2.984,-2.997c-2.581,-0.071 -5.161,-0.535 -7.718,-0.44c-3.448,0.131 -6.956,0.322 -10.297,1.071c-3.152,0.713 -4.186,3.294 -3.746,7.253c0.345,3.128 2.259,4.495 5.208,4.614c2.224,0.095 4.471,0.024 6.719,0.024Zm-1.855,27.124c-0.012,0.095 -0.012,0.202 -0.024,0.297c-2.485,0 -4.971,-0.06 -7.444,0.036c-0.82,0.035 -1.986,0.237 -2.366,0.796c-2.105,3.092 0.249,10.203 3.841,10.524c5.755,0.511 11.605,0.369 17.384,0.012c2.735,-0.167 4.364,-2.426 4.281,-5.244c-0.083,-2.89 -1.629,-5.006 -4.614,-5.423c-3.662,-0.499 -7.372,-0.677 -11.058,-0.998Z" style="fill:#0e1e25;fill-opacity:0.54;fill-rule:nonzero;"/><path d="M101.812,51.284c0,4.852 0.048,9.703 -0.012,14.543c-0.047,3.996 -2.211,5.898 -6.54,5.91c-4.4,0.012 -6.588,-1.843 -6.611,-5.827c-0.06,-9.465 0.012,-18.942 -0.036,-28.408c-0.036,-6.504 -1.926,-8.359 -8.478,-8.526c-8.954,-0.226 -10.762,1.499 -10.786,10.393c-0.023,8.681 0.012,17.361 -0.012,26.042c-0.011,4.352 -1.807,6.207 -6.04,6.314c-4.65,0.119 -7.099,-1.843 -7.064,-6.159c0.095,-11.606 0.155,-23.212 0.654,-34.806c0.393,-9.144 5.613,-13.699 15.578,-14.127c7.313,-0.309 14.638,-0.416 21.57,2.688c0.761,0.345 1.962,0.119 2.807,-0.202c8.585,-3.33 17.432,-3.235 26.267,-1.689c6.422,1.13 10.179,5.993 10.453,13.497c0.416,11.475 0.547,22.973 0.642,34.46c0.035,4.436 -2.307,6.398 -6.897,6.338c-4.4,-0.071 -6.195,-1.926 -6.207,-6.492c-0.012,-8.574 0.035,-17.136 -0.036,-25.709c-0.012,-2.01 -0.333,-4.031 -0.678,-6.017c-0.142,-0.844 -0.499,-1.855 -1.106,-2.402c-3.971,-3.52 -8.74,-2.343 -13.163,-1.605c-3.449,0.582 -4.15,3.864 -4.233,6.885c-0.143,4.958 -0.036,9.917 -0.036,14.887c-0.024,0.012 -0.024,0.012 -0.036,0.012Z" style="fill:#0e1e25;fill-opacity:0.54;fill-rule:nonzero;"/><path d="M33.319,38.252c1.415,-7.575 -0.25,-9.894 -7.218,-9.751c-5.494,0.119 -10.964,0.939 -16.457,1.236c-4.043,0.214 -5.827,-1.212 -6.279,-4.494c-0.559,-4.103 0.678,-6.481 4.614,-7.325c9.442,-1.998 18.978,-2.129 28.456,-0.203c7.099,1.439 10.119,6.648 10.285,13.235c0.262,10.12 0.179,20.263 -0.416,30.359c-0.357,6.076 -3.52,9.667 -9.489,10.095c-9.025,0.666 -18.17,0.535 -27.207,-0.047c-5.161,-0.333 -8.502,-3.948 -9.013,-9.383c-0.333,-3.567 -0.785,-7.206 -0.488,-10.749c0.737,-8.954 5.125,-12.688 14.828,-12.938c6.077,-0.154 12.153,-0.035 18.384,-0.035Zm-0.119,11.142c-4.78,0 -9.62,-0.06 -14.448,0.011c-4.173,0.06 -5.838,1.594 -5.945,5.244c-0.107,3.52 1.724,5.53 5.517,5.887c2.129,0.202 4.281,0.368 6.41,0.237c9.287,-0.547 9.905,-1.331 8.918,-10.618c-0.012,-0.096 -0.107,-0.179 -0.452,-0.761Z" style="fill:#0e1e25;fill-opacity:0.54;fill-rule:nonzero;"/><path d="M176.869,38.228c1.451,-7.539 -0.178,-9.81 -7.123,-9.727c-4.471,0.059 -8.977,0.499 -13.413,1.129c-6.266,0.892 -9.215,-0.618 -9.441,-5.386c-0.155,-3.163 1.022,-5.625 4.34,-6.291c9.905,-1.986 19.894,-2.414 29.752,0.036c6.135,1.534 9.31,6.279 9.441,13.568c0.167,9.12 0.202,18.253 0,27.373c-0.19,8.431 -4.019,12.272 -14.234,13.223c-6.563,0.607 -13.318,0.464 -19.858,-0.345c-9.584,-1.177 -11.998,-4.054 -12.7,-13.77c-0.249,-3.543 0.084,-7.229 0.785,-10.725c1.178,-5.851 5.982,-8.812 14.068,-9.05c4.958,-0.142 9.917,-0.047 14.875,-0.059c1.19,0.024 2.391,0.024 3.508,0.024Zm-8.656,11.154l0,0.023c-2.141,0 -4.269,-0.059 -6.41,0.012c-3.888,0.131 -5.577,1.665 -5.767,5.114c-0.202,3.436 1.689,5.672 5.399,5.993c2.782,0.238 5.612,0.261 8.395,0.119c6.79,-0.357 7.515,-1.32 7.467,-8.158c-0.012,-2.247 -0.57,-3.341 -3.02,-3.127c-1.998,0.166 -4.031,0.024 -6.064,0.024Z" style="fill:#0e1e25;fill-opacity:0.54;fill-rule:nonzero;"/></svg>