<?xml version="1.0" encoding="UTF-8" standalone="no"?><!DOCTYPE svg PUBLIC "-//W3C//DTD SVG 1.1//EN" "http://www.w3.org/Graphics/SVG/1.1/DTD/svg11.dtd"><svg width="100%" height="100%" viewBox="0 0 250 100" version="1.1" xmlns="http://www.w3.org/2000/svg" xmlns:xlink="http://www.w3.org/1999/xlink" xml:space="preserve" xmlns:serif="http://www.serif.com/" style="fill-rule:evenodd;clip-rule:evenodd;stroke-linejoin:round;stroke-miterlimit:2;"><g><path d="M0.114,71.683c0.376,-2.272 0.688,-4.55 1.142,-6.807c1.803,-8.886 10.029,-13.733 18.312,-10.795c3.563,1.263 5.685,3.953 7.26,7.467c-2.221,0.986 -4.244,1.895 -6.26,2.796c-0.163,-0.085 -0.383,-0.121 -0.447,-0.241c-1.228,-2.229 -2.967,-3.606 -5.642,-3.166c-2.335,0.383 -4.259,2.364 -4.394,5.408c-0.241,5.572 -0.262,11.179 0.071,16.75c0.199,3.365 2.47,5.181 5.146,5.089c2.725,-0.092 4.493,-1.923 4.897,-5.365c0.199,-1.69 0.036,-3.421 0.036,-5.359c-1.136,-0.071 -2.3,-0.135 -3.677,-0.22l0,-7.396l12.627,0c-0.05,5.976 0.745,11.903 -1.59,17.595c-2.357,5.728 -6.743,8.467 -13.258,8.24c-6.367,-0.227 -10.774,-3.385 -12.534,-9.269c-0.632,-2.122 -0.788,-4.386 -1.171,-6.587c-0.171,-0.986 -0.348,-1.966 -0.518,-2.952l0,-5.188Z" style="fill:#0e1e25;fill-opacity:0.54;fill-rule:nonzero;"/><path d="M35.445,54.372c4.776,0 9.368,-0.348 13.882,0.092c5.004,0.49 8.382,3.577 9.624,8.496c1.455,5.749 -0.362,10.369 -4.961,13.577c-0.135,0.093 -0.213,0.263 -0.419,0.533c3.194,5.784 6.417,11.632 9.859,17.864c-3.286,0 -6.253,0.078 -9.206,-0.071c-0.525,-0.029 -1.164,-0.88 -1.483,-1.491c-2.2,-4.201 -4.287,-8.46 -6.515,-12.64c-0.419,-0.788 -1.321,-1.32 -2.002,-1.966c-0.227,0.149 -0.454,0.298 -0.681,0.447l0,15.572l-8.098,0l0,-40.413Zm8.084,17.566c5.926,0.036 7.998,-1.604 7.651,-5.798c-0.298,-3.641 -2.612,-4.891 -7.651,-4.039l0,9.837Z" style="fill:#0e1e25;fill-opacity:0.54;fill-rule:nonzero;"/><path d="M99.116,54.223l8.687,0l0,2.867c0,8.191 -0.014,16.374 0.007,24.565c0.007,4.109 1.625,6.401 4.429,6.423c2.803,0.021 4.315,-2.229 4.315,-6.438l0,-27.339l8.467,0c0.057,0.561 0.185,1.214 0.185,1.867c0.007,8.275 0.028,16.551 -0.029,24.819c-0.007,1.533 -0.22,3.102 -0.553,4.6c-2.463,11.043 -12.463,11.504 -18.957,8.587c-4.188,-1.88 -5.785,-5.862 -6.204,-10.113c-0.411,-4.188 -0.305,-8.432 -0.34,-12.648c-0.043,-5.657 -0.007,-11.32 -0.007,-17.19Z" style="fill:#0e1e25;fill-opacity:0.54;fill-rule:nonzero;"/><path d="M132.729,54.152c4.542,0 8.95,-0.263 13.308,0.064c6.416,0.483 10.738,5.5 10.83,12.009c0.1,6.835 -4.017,11.661 -10.816,12.605c-1.604,0.22 -3.236,0.255 -5.16,0.404l0,15.544l-8.162,0l0,-40.626Zm8.254,7.75l0,10.093c2.733,0.078 5.742,0.703 6.935,-2.214c0.709,-1.754 0.695,-4.365 -0.121,-6.04c-1.285,-2.634 -4.209,-1.981 -6.814,-1.839Z" style="fill:#0e1e25;fill-opacity:0.54;fill-rule:nonzero;"/><path d="M0.114,22.512c0.234,-2.548 0.837,-5.061 1.426,-7.552c1.938,-8.183 9.83,-12.591 17.73,-9.979c3.435,1.136 5.961,3.698 7.36,7.552c-2.016,0.887 -4.046,1.788 -6.232,2.746c-0.419,-0.589 -0.774,-1.164 -1.207,-1.668c-2.377,-2.817 -6.607,-2.505 -8.133,0.831c-0.902,1.98 -1.42,4.294 -1.462,6.466c-0.1,4.294 0.12,8.616 0.461,12.903c0.241,2.995 1.973,4.876 4.216,5.238c2.534,0.411 4.805,-0.724 5.437,-3.251c0.589,-2.356 0.61,-4.855 0.908,-7.466c-1.583,-0.086 -2.676,-0.142 -3.96,-0.213l0,-7.247l12.42,0c-0.021,6.636 1.058,13.379 -2.562,19.554c-2.782,4.762 -7.197,6.579 -12.463,6.238c-5.132,-0.326 -9.425,-2.484 -11.441,-7.502c-1.043,-2.59 -1.484,-3.215 -2.193,-8.183c-0.156,-1.086 -0.206,-2.215 -0.298,-3.308c-0.149,-1.703 -0.164,-3.442 -0.007,-5.159Z" style="fill:#0e1e25;fill-opacity:0.38;fill-rule:nonzero;"/><path d="M241.49,20.255l0,-15.033l8.51,0l0,40.498l-8.439,0c0,-5.415 0.156,-11.072 0.156,-16.856l-8.517,0c0,0 0.071,1.98 0.064,2.349c-0.128,4.734 -0.064,9.482 -0.064,14.472l-8.651,0l0,-40.441l8.666,0c0,2.789 0.007,5.67 0,8.552c-0.008,2.896 -0.008,6.558 -0.008,6.558c0,0 8.517,-0.007 8.283,-0.099Z" style="fill:#0e1e25;fill-opacity:0.38;fill-rule:nonzero;"/><path d="M96.483,45.855l0,-40.335c5.252,0 10.44,-0.482 15.5,0.135c5.338,0.653 8.368,4.621 9.504,9.688c1.533,6.807 1.575,13.691 -0.412,20.441c-1.966,6.686 -6.352,9.929 -13.286,10.064c-3.684,0.071 -7.382,0.007 -11.306,0.007Zm8.871,-7.935c4.763,0.391 7.211,-1.178 7.58,-5.6c0.391,-4.691 0.362,-9.475 -0.064,-14.166c-0.376,-4.152 -3.101,-5.657 -7.516,-4.812l0,24.578Z" style="fill:#0e1e25;fill-opacity:0.38;fill-rule:nonzero;"/><path d="M129.266,46.182l0,-41.35c5.316,0.291 10.745,-0.128 15.82,1.036c8.63,1.973 10.731,11.761 4.138,18.056c3.57,2.513 5.344,5.898 4.932,10.32c-0.518,5.585 -3.733,9.865 -9.39,10.859c-5.018,0.88 -10.213,0.752 -15.5,1.079Zm8.176,-7.964c3.087,-0.17 6.522,0.973 8.048,-2.342c0.767,-1.668 0.746,-4.464 -0.184,-5.983c-1.739,-2.839 -5.004,-1.661 -7.871,-1.774c0.007,3.428 0.007,6.572 0.007,10.099Zm-0.014,-16.743c2.81,0.029 5.741,0.646 7.062,-2.214c0.638,-1.384 0.596,-3.726 -0.185,-4.975c-1.554,-2.477 -4.337,-1.583 -6.87,-1.469c-0.007,2.909 -0.007,5.621 -0.007,8.658Z" style="fill:#0e1e25;fill-opacity:0.38;fill-rule:nonzero;"/><path d="M168.493,5.166l11.093,0c3.741,13.407 7.495,26.877 11.363,40.732c-3.009,0 -5.805,0.035 -8.602,-0.036c-0.376,-0.007 -0.802,-0.482 -1.093,-0.83c-0.206,-0.242 -0.241,-0.639 -0.333,-0.965c-0.639,-2.293 -1.278,-4.592 -1.917,-6.885c-3.264,-0.043 -6.536,-0.149 -9.801,-0.057c-0.469,0.014 -1.157,0.916 -1.327,1.526c-0.653,2.307 -1.136,4.67 -1.704,7.119l-9.141,0c3.839,-13.592 7.622,-26.985 11.462,-40.604Zm5.813,9.169l-0.582,0c-1.2,5.061 -2.399,10.121 -3.627,15.302l7.367,0c-1.079,-5.237 -2.122,-10.27 -3.158,-15.302Z" style="fill:#0e1e25;fill-opacity:0.38;fill-rule:nonzero;"/><path d="M219.183,12.696c-2.307,0.894 -4.443,1.725 -6.054,2.349c-1.789,-1.228 -3.095,-2.583 -4.67,-3.094c-2.612,-0.845 -5.6,1.249 -5.813,4.421c-0.39,5.728 -0.334,11.491 -0.227,17.233c0.049,2.548 1.256,4.713 4.01,5.401c2.739,0.681 4.642,-0.617 6.061,-3.066c2.271,0.901 4.471,1.781 6.672,2.654c-1.924,5.153 -6.232,8.127 -11.576,8.134c-6.459,0.007 -11.448,-2.995 -13.244,-8.765c-2.541,-8.162 -2.534,-16.53 0.014,-24.699c1.746,-5.593 6.26,-8.68 11.796,-8.851c6.338,-0.184 10.227,2.222 13.031,8.283Z" style="fill:#0e1e25;fill-opacity:0.38;fill-rule:nonzero;"/><path d="M69.661,45.713l0,-40.569l8.531,0l0,32.514l13.173,0l0,8.062c-7.204,-0.007 -14.372,-0.007 -21.704,-0.007Z" style="fill:#0e1e25;fill-opacity:0.38;fill-rule:nonzero;"/><g><path d="M82.657,83.28c0.269,-5.912 0.262,-11.853 0.035,-17.765c-0.113,-2.818 -2.108,-4.557 -4.308,-4.649c-2.2,0.092 -4.195,1.824 -4.308,4.649c-0.234,5.912 -0.241,11.853 0.035,17.765c0.135,2.967 2.059,4.684 4.273,4.776c2.214,-0.092 4.138,-1.817 4.273,-4.776Z" style="fill:#0e1e25;fill-opacity:0;fill-rule:nonzero;"/><path d="M65.708,61.512c-0.007,0.014 -0.007,0.021 -0.014,0.036c0.064,-0.157 0.121,-0.32 0.184,-0.476c-0.056,0.149 -0.12,0.291 -0.17,0.44Z" style="fill:#0e1e25;fill-opacity:0.54;fill-rule:nonzero;"/><path d="M80.4,53.393c-0.689,-0.043 -1.356,-0.05 -2.016,-0.043c3.272,0.071 6.161,0.873 8.418,2.449c-1.839,-1.391 -4.032,-2.25 -6.402,-2.406Z" style="fill:#0e1e25;fill-opacity:0.54;fill-rule:nonzero;"/><path d="M91.074,61.548c0.128,0.354 0.242,0.695 0.355,1.022c-0.106,-0.348 -0.227,-0.689 -0.355,-1.022Z" style="fill:#0e1e25;fill-opacity:0.54;fill-rule:nonzero;"/><path d="M69.967,55.799c-1.796,1.249 -3.187,2.988 -4.067,5.223c0.929,-2.136 2.342,-3.91 4.067,-5.223Z" style="fill:#0e1e25;fill-opacity:0.54;fill-rule:nonzero;"/><path d="M93.062,73.407l0,0.235c-0.022,1.192 -0.05,2.214 -0.071,3.108c0.071,-1.114 0.092,-2.228 0.071,-3.343Z" style="fill:#0e1e25;fill-opacity:0.54;fill-rule:nonzero;"/><path d="M90.868,61.029c0.008,0.015 0.015,0.029 0.022,0.05c-0.007,-0.021 -0.014,-0.035 -0.022,-0.05Z" style="fill:#0e1e25;fill-opacity:0.54;fill-rule:nonzero;"/><path d="M78.647,95.764c5.387,-0.035 9.517,-2.491 11.753,-7.083c-2.314,3.776 -6.707,6.955 -11.753,7.083Z" style="fill:#0e1e25;fill-opacity:0.54;fill-rule:nonzero;"/><path d="M74.111,83.28c-0.269,-5.912 -0.262,-11.853 -0.035,-17.765c0.113,-2.818 2.108,-4.557 4.308,-4.649c-0.014,0 -0.035,0 -0.05,-0.007c-2.32,-0.064 -4.251,1.711 -4.677,4.656c-0.419,2.889 -0.326,5.962 -0.333,8.772c-0.008,3.159 -0.142,4.273 0.333,8.993c0.376,3.783 2.172,4.762 4.528,4.784c0.071,0 0.142,-0.008 0.213,-0.008c-2.228,-0.092 -4.152,-1.817 -4.287,-4.776Z" style="fill:#0e1e25;fill-opacity:0.54;fill-rule:nonzero;"/><path d="M65.339,62.57c0.114,-0.327 0.227,-0.661 0.355,-1.022c-0.128,0.333 -0.249,0.674 -0.355,1.022Z" style="fill:#0e1e25;fill-opacity:0.54;fill-rule:nonzero;"/><path d="M76.368,53.393c-2.37,0.156 -4.57,1.015 -6.409,2.413c2.264,-1.576 5.153,-2.385 8.418,-2.449c-0.653,-0.021 -1.32,-0.014 -2.009,0.036Z" style="fill:#0e1e25;fill-opacity:0.54;fill-rule:nonzero;"/><path d="M65.878,61.072c0.007,-0.014 0.015,-0.028 0.022,-0.05c-0.007,0.022 -0.015,0.036 -0.022,0.05Z" style="fill:#0e1e25;fill-opacity:0.54;fill-rule:nonzero;"/><path d="M66.368,88.681c2.236,4.585 6.374,7.048 11.753,7.083c-5.046,-0.128 -9.439,-3.307 -11.753,-7.083Z" style="fill:#0e1e25;fill-opacity:0.54;fill-rule:nonzero;"/><path d="M83.118,65.515c-0.426,-2.938 -2.356,-4.72 -4.677,-4.656c-0.014,0 -0.036,0 -0.05,0.007c2.2,0.092 4.195,1.824 4.308,4.649c0.235,5.912 0.242,11.853 -0.035,17.765c-0.135,2.967 -2.058,4.684 -4.273,4.776c0.071,0 0.142,0.008 0.213,0.008c2.356,-0.022 4.145,-1.001 4.528,-4.784c0.469,-4.72 0.341,-5.827 0.334,-8.993c-0.021,-2.81 0.071,-5.883 -0.348,-8.772Z" style="fill:#0e1e25;fill-opacity:0.54;fill-rule:nonzero;"/><path d="M63.707,73.4c-0.022,1.115 0.007,2.229 0.071,3.35c-0.022,-0.894 -0.05,-1.916 -0.071,-3.108l0,-0.242Z" style="fill:#0e1e25;fill-opacity:0.54;fill-rule:nonzero;"/><path d="M91.06,61.512c-0.05,-0.149 -0.113,-0.291 -0.17,-0.433c0.064,0.156 0.127,0.312 0.184,0.476c-0.007,-0.022 -0.007,-0.029 -0.014,-0.043Z" style="fill:#0e1e25;fill-opacity:0.54;fill-rule:nonzero;"/><path d="M90.868,61.029c-0.88,-2.235 -2.271,-3.974 -4.066,-5.223c1.724,1.306 3.137,3.08 4.066,5.223Z" style="fill:#0e1e25;fill-opacity:0.54;fill-rule:nonzero;"/><path d="M93.062,73.407c-0.064,-3.463 -0.547,-6.934 -1.498,-10.39c-0.043,-0.149 -0.092,-0.298 -0.142,-0.447c-0.114,-0.327 -0.227,-0.661 -0.355,-1.022c-0.064,-0.157 -0.12,-0.32 -0.184,-0.476c-0.007,-0.014 -0.015,-0.028 -0.022,-0.05c-0.929,-2.136 -2.342,-3.917 -4.066,-5.223c-2.265,-1.576 -5.153,-2.385 -8.418,-2.449c-3.272,0.071 -6.161,0.873 -8.418,2.449c-1.724,1.306 -3.13,3.087 -4.066,5.223c-0.008,0.015 -0.015,0.029 -0.022,0.05c-0.064,0.156 -0.127,0.312 -0.184,0.476c-0.128,0.354 -0.242,0.695 -0.355,1.022c-0.043,0.149 -0.099,0.298 -0.142,0.447c-0.944,3.456 -1.434,6.927 -1.498,10.39l0,0.235c0.022,1.199 0.05,2.221 0.071,3.108c0.185,3.002 0.682,5.998 1.484,8.978c0.291,1.072 0.66,2.045 1.107,2.953c2.314,3.769 6.707,6.948 11.753,7.083c0.085,0 0.171,0.007 0.263,0.007c0.085,0 0.17,-0.007 0.262,-0.007c5.047,-0.128 9.44,-3.307 11.754,-7.083c0.44,-0.908 0.816,-1.881 1.107,-2.953c0.802,-2.988 1.299,-5.983 1.483,-8.978c0.022,-0.894 0.05,-1.916 0.071,-3.108c0.015,-0.086 0.015,-0.157 0.015,-0.235Zm-9.944,9.873c-0.376,3.783 -2.172,4.762 -4.528,4.784c-0.071,0 -0.142,-0.008 -0.213,-0.008c-0.071,0 -0.142,0.008 -0.213,0.008c-2.356,-0.022 -4.145,-1.001 -4.528,-4.784c-0.469,-4.72 -0.341,-5.827 -0.334,-8.993c0.007,-2.81 -0.085,-5.883 0.334,-8.772c0.426,-2.938 2.356,-4.72 4.677,-4.656c0.014,0 0.036,0 0.05,0.007c0.014,0 0.035,0 0.049,-0.007c2.321,-0.064 4.252,1.711 4.678,4.656c0.418,2.889 0.326,5.962 0.333,8.772c0.036,3.159 0.163,4.266 -0.305,8.993Z" style="fill:#0e1e25;fill-opacity:0.54;fill-rule:nonzero;"/></g><g opacity="0.71"><path d="M52.847,34.308c0.27,-5.913 0.263,-11.853 0.036,-17.765c-0.114,-2.818 -2.108,-4.557 -4.308,-4.649c-2.2,0.092 -4.195,1.824 -4.308,4.649c-0.235,5.912 -0.242,11.852 0.035,17.765c0.135,2.966 2.058,4.684 4.273,4.776c2.214,-0.092 4.138,-1.817 4.272,-4.776Z" style="fill:#0e1e25;fill-opacity:0;fill-rule:nonzero;"/><path d="M35.899,12.54c-0.007,0.014 -0.007,0.021 -0.014,0.035c0.064,-0.156 0.12,-0.319 0.184,-0.475c-0.057,0.149 -0.12,0.291 -0.17,0.44Z" style="fill:#0e1e25;fill-opacity:0.54;fill-rule:nonzero;"/><path d="M50.591,4.42c-0.689,-0.042 -1.356,-0.049 -2.016,-0.042c3.272,0.071 6.16,0.873 8.417,2.448c-1.838,-1.391 -4.031,-2.25 -6.401,-2.406Z" style="fill:#0e1e25;fill-opacity:0.54;fill-rule:nonzero;"/><path d="M61.265,12.575c0.128,0.355 0.241,0.696 0.355,1.022c-0.107,-0.348 -0.227,-0.688 -0.355,-1.022Z" style="fill:#0e1e25;fill-opacity:0.54;fill-rule:nonzero;"/><path d="M40.157,6.826c-1.795,1.249 -3.186,2.988 -4.067,5.224c0.93,-2.136 2.343,-3.911 4.067,-5.224Z" style="fill:#0e1e25;fill-opacity:0.54;fill-rule:nonzero;"/><path d="M63.252,24.435l0,0.234c-0.021,1.193 -0.049,2.215 -0.071,3.109c0.071,-1.114 0.093,-2.229 0.071,-3.343Z" style="fill:#0e1e25;fill-opacity:0.54;fill-rule:nonzero;"/><path d="M61.059,12.057c0.007,0.014 0.014,0.029 0.022,0.05c-0.008,-0.021 -0.015,-0.036 -0.022,-0.05Z" style="fill:#0e1e25;fill-opacity:0.54;fill-rule:nonzero;"/><path d="M48.837,46.792c5.387,-0.036 9.518,-2.491 11.754,-7.083c-2.314,3.776 -6.707,6.955 -11.754,7.083Z" style="fill:#0e1e25;fill-opacity:0.54;fill-rule:nonzero;"/><path d="M44.302,34.308c-0.27,-5.913 -0.262,-11.853 -0.035,-17.765c0.113,-2.818 2.108,-4.557 4.308,-4.649c-0.014,0 -0.036,0 -0.05,-0.007c-2.321,-0.064 -4.251,1.71 -4.677,4.656c-0.419,2.888 -0.327,5.962 -0.334,8.772c-0.007,3.158 -0.142,4.273 0.334,8.993c0.376,3.783 2.172,4.762 4.528,4.783c0.071,0 0.142,-0.007 0.213,-0.007c-2.229,-0.092 -4.152,-1.817 -4.287,-4.776Z" style="fill:#0e1e25;fill-opacity:0.54;fill-rule:nonzero;"/><path d="M35.53,13.597c0.113,-0.326 0.227,-0.66 0.355,-1.022c-0.128,0.334 -0.249,0.674 -0.355,1.022Z" style="fill:#0e1e25;fill-opacity:0.54;fill-rule:nonzero;"/><path d="M46.559,4.42c-2.37,0.156 -4.571,1.015 -6.409,2.413c2.264,-1.575 5.153,-2.384 8.418,-2.448c-0.653,-0.021 -1.32,-0.014 -2.009,0.035Z" style="fill:#0e1e25;fill-opacity:0.54;fill-rule:nonzero;"/><path d="M36.069,12.1c0.007,-0.014 0.014,-0.029 0.021,-0.05c-0.007,0.021 -0.014,0.036 -0.021,0.05Z" style="fill:#0e1e25;fill-opacity:0.54;fill-rule:nonzero;"/><path d="M36.559,39.709c2.236,4.585 6.373,7.047 11.753,7.083c-5.046,-0.128 -9.439,-3.307 -11.753,-7.083Z" style="fill:#0e1e25;fill-opacity:0.54;fill-rule:nonzero;"/><path d="M53.309,16.543c-0.426,-2.939 -2.357,-4.72 -4.677,-4.656c-0.015,0 -0.036,0 -0.05,0.007c2.2,0.092 4.195,1.824 4.308,4.649c0.234,5.912 0.241,11.852 -0.035,17.765c-0.135,2.966 -2.059,4.684 -4.273,4.776c0.071,0 0.142,0.007 0.213,0.007c2.356,-0.021 4.145,-1 4.528,-4.783c0.468,-4.72 0.341,-5.827 0.334,-8.993c-0.022,-2.81 0.071,-5.884 -0.348,-8.772Z" style="fill:#0e1e25;fill-opacity:0.54;fill-rule:nonzero;"/><path d="M33.897,24.428c-0.021,1.114 0.007,2.229 0.071,3.35c-0.021,-0.894 -0.049,-1.916 -0.071,-3.109l0,-0.241Z" style="fill:#0e1e25;fill-opacity:0.54;fill-rule:nonzero;"/><path d="M61.251,12.54c-0.05,-0.149 -0.114,-0.291 -0.17,-0.433c0.063,0.156 0.127,0.312 0.184,0.475c-0.007,-0.021 -0.007,-0.028 -0.014,-0.042Z" style="fill:#0e1e25;fill-opacity:0.54;fill-rule:nonzero;"/><path d="M61.059,12.057c-0.88,-2.236 -2.271,-3.974 -4.067,-5.224c1.725,1.306 3.137,3.081 4.067,5.224Z" style="fill:#0e1e25;fill-opacity:0.54;fill-rule:nonzero;"/><path d="M63.252,24.435c-0.064,-3.464 -0.546,-6.934 -1.497,-10.391c-0.043,-0.149 -0.092,-0.298 -0.142,-0.447c-0.114,-0.326 -0.227,-0.66 -0.355,-1.022c-0.064,-0.156 -0.121,-0.319 -0.185,-0.475c-0.007,-0.014 -0.014,-0.029 -0.021,-0.05c-0.93,-2.136 -2.342,-3.918 -4.067,-5.224c-2.264,-1.575 -5.152,-2.384 -8.417,-2.448c-3.272,0.071 -6.161,0.873 -8.418,2.448c-1.724,1.306 -3.13,3.088 -4.067,5.224c-0.007,0.014 -0.014,0.028 -0.021,0.05c-0.064,0.156 -0.128,0.312 -0.184,0.475c-0.128,0.355 -0.242,0.696 -0.355,1.022c-0.043,0.149 -0.1,0.298 -0.142,0.447c-0.944,3.457 -1.434,6.927 -1.498,10.391l0,0.234c0.021,1.2 0.05,2.222 0.071,3.109c0.185,3.002 0.681,5.997 1.483,8.978c0.291,1.072 0.661,2.044 1.108,2.953c2.313,3.768 6.707,6.948 11.753,7.083c0.085,0 0.17,0.007 0.263,0.007c0.085,0 0.17,-0.007 0.262,-0.007c5.047,-0.128 9.44,-3.307 11.754,-7.083c0.44,-0.909 0.816,-1.881 1.107,-2.953c0.802,-2.988 1.299,-5.983 1.483,-8.978c0.021,-0.894 0.05,-1.916 0.071,-3.109c0.014,-0.085 0.014,-0.156 0.014,-0.234Zm-9.943,9.873c-0.376,3.783 -2.172,4.762 -4.528,4.783c-0.071,0 -0.142,-0.007 -0.213,-0.007c-0.071,0 -0.142,0.007 -0.213,0.007c-2.357,-0.021 -4.145,-1 -4.528,-4.783c-0.469,-4.72 -0.341,-5.827 -0.334,-8.993c0.007,-2.81 -0.085,-5.884 0.334,-8.772c0.425,-2.939 2.356,-4.72 4.677,-4.656c0.014,0 0.035,0 0.05,0.007c0.014,0 0.035,0 0.049,-0.007c2.321,-0.064 4.252,1.71 4.677,4.656c0.419,2.888 0.327,5.962 0.334,8.772c0.036,3.158 0.163,4.266 -0.305,8.993Z" style="fill:#0e1e25;fill-opacity:0.54;fill-rule:nonzero;"/></g></g></svg>