<?xml version="1.0" encoding="UTF-8" standalone="no"?><!DOCTYPE svg PUBLIC "-//W3C//DTD SVG 1.1//EN" "http://www.w3.org/Graphics/SVG/1.1/DTD/svg11.dtd"><svg width="100%" height="100%" viewBox="0 0 169 39" version="1.1" xmlns="http://www.w3.org/2000/svg" xmlns:xlink="http://www.w3.org/1999/xlink" xml:space="preserve" xmlns:serif="http://www.serif.com/" style="fill-rule:evenodd;clip-rule:evenodd;stroke-linejoin:round;stroke-miterlimit:2;"><path d="M6.01,9.5l0,10.05l0.07,0c1.39,-1.85 3.08,-2.71 5.42,-2.71c4.3,0 6.38,2.84 6.38,7.14l0,10.38l-6.02,0l0,-8.69c0,-1.99 -0.3,-4.03 -2.71,-4.03c-2.38,0 -3.14,2.05 -3.14,4.03l0,8.69l-6.01,0l0,-24.86l6.01,0Z" style="fill:#0e1e25;fill-opacity:0.55;fill-rule:nonzero;"/><path d="M38.28,26.9l-12.66,0c0,2.44 1.29,3.77 3.77,3.77c1.29,0 2.21,-0.43 2.88,-1.55l5.78,0c-0.96,4 -4.76,5.82 -8.63,5.82c-5.62,0 -9.82,-3.17 -9.82,-9.02c0,-5.66 3.87,-9.06 9.39,-9.06c5.89,0 9.29,3.64 9.29,9.42l0,0.62Zm-5.58,-3.48c-0.3,-1.62 -1.79,-2.68 -3.41,-2.68c-1.75,0 -3.21,0.93 -3.57,2.68l6.98,0Z" style="fill:#0e1e25;fill-opacity:0.55;fill-rule:nonzero;"/><rect x="40.04" y="9.5" width="6.01" height="24.87" style="fill:#0e1e25;fill-opacity:0.55;fill-rule:nonzero;"/><path d="M57.47,26.1l4.03,-8.7l6.75,0l-8.86,16.96l-3.83,0l-8.89,-16.96l6.74,0l4.06,8.7Z" style="fill:#0e1e25;fill-opacity:0.55;fill-rule:nonzero;"/><path d="M85.44,26.9l-12.66,0c0,2.44 1.29,3.77 3.77,3.77c1.29,0 2.21,-0.43 2.88,-1.55l5.79,0c-0.96,4 -4.76,5.82 -8.63,5.82c-5.62,0 -9.82,-3.17 -9.82,-9.02c0,-5.66 3.87,-9.06 9.39,-9.06c5.88,0 9.29,3.64 9.29,9.42l-0.01,0.62Zm-5.59,-3.48c-0.3,-1.62 -1.78,-2.68 -3.4,-2.68c-1.75,0 -3.21,0.93 -3.57,2.68l6.97,0Z" style="fill:#0e1e25;fill-opacity:0.55;fill-rule:nonzero;"/><path d="M94.31,34.37l-6.02,0l0,-12l-1.95,0l0,-4.97l1.95,0l0,-5.09l6.02,0l0,5.09l3.4,0l0,4.96l-3.4,0l0,12.01Z" style="fill:#0e1e25;fill-opacity:0.55;fill-rule:nonzero;"/><path d="M105.24,12.05c0,1.85 -1.52,3.37 -3.37,3.37c-1.85,0 -3.37,-1.52 -3.37,-3.37c0,-1.85 1.52,-3.37 3.37,-3.37c1.85,0 3.37,1.52 3.37,3.37Zm-0.36,22.32l-6.02,0l0,-16.97l6.02,0l0,16.97Z" style="fill:#0e1e25;fill-opacity:0.55;fill-rule:nonzero;"/><path d="M126.4,34.37l-6.02,0l0,-1.89l-0.06,0c-1.06,1.69 -3.14,2.45 -5.12,2.45c-5.03,0 -8.56,-4.2 -8.56,-9.06c0,-4.86 3.47,-9.03 8.5,-9.03c1.95,0 4,0.73 5.25,2.22l0,-1.66l6.02,0l-0.01,16.97Zm-13.56,-8.47c0,2.15 1.42,3.8 3.87,3.8c2.45,0 3.87,-1.65 3.87,-3.8c0,-2.08 -1.42,-3.84 -3.87,-3.84c-2.45,0 -3.87,1.76 -3.87,3.84Z" style="fill:#0e1e25;fill-opacity:0.55;fill-rule:nonzero;"/><path d="M147.83,27.24l-7.72,1.98l6,-13.87l7.75,-1.84l-6.03,13.73Z" style="fill:#636262;fill-opacity:0.76;fill-rule:nonzero;"/><path d="M145.73,1.7l7.78,-1.7l3.13,7.18l-7.76,1.79l-3.15,-7.27Z" style="fill:#727070;fill-opacity:0.76;fill-rule:nonzero;"/><path d="M134.38,28.24l11.35,-26.54l3.15,7.27l-8.77,20.25l-5.73,-0.98Z" style="fill:#757474;fill-opacity:0.76;fill-rule:nonzero;"/><path d="M140.11,29.22l7.72,-1.98l12.94,2.16l-7.7,2.04l-12.96,-2.22Z" style="fill:#a5a5a5;fill-opacity:0.76;fill-rule:nonzero;"/><path d="M156.24,38.76l-24.48,-4.39l2.62,-6.13l18.69,3.2l3.17,7.32Z" style="fill:#a09f9f;fill-opacity:0.76;fill-rule:nonzero;"/><path d="M148.88,8.97l7.76,-1.79l13.3,30.51l-7.66,2.16l-13.4,-30.88Z" style="fill:#8e8b8a;fill-rule:nonzero;"/><path d="M146.11,15.35l2.77,-6.38l13.4,30.88l-6.04,-1.09l-10.13,-23.41Z" style="fill:#999796;fill-rule:nonzero;"/></svg>