<?xml version="1.0" encoding="UTF-8" standalone="no"?>
<!DOCTYPE svg PUBLIC "-//W3C//DTD SVG 1.1//EN" "http://www.w3.org/Graphics/SVG/1.1/DTD/svg11.dtd">
<svg width="100%" height="100%" viewBox="0 0 250 100" version="1.1" xmlns="http://www.w3.org/2000/svg" xmlns:xlink="http://www.w3.org/1999/xlink" xml:space="preserve" xmlns:serif="http://www.serif.com/" style="fill-rule:evenodd;clip-rule:evenodd;stroke-linejoin:round;stroke-miterlimit:2;">
    <g>
        <g transform="matrix(1.08485,0,0,1.52983,6.95035,-23.0091)">
            <path d="M0,56.782C0.31,56.688 0.515,56.608 0.724,56.57C1.274,56.465 1.831,56.399 2.378,56.284C3.029,56.145 3.38,55.727 3.38,55.048C3.377,51.615 3.384,48.186 3.349,44.753C3.335,43.601 2.921,43.215 1.758,43.037C1.225,42.957 0.693,42.88 0.157,42.804C0.157,42.741 0.16,42.682 0.16,42.619C0.313,42.581 0.463,42.515 0.609,42.515C5.762,42.574 10.918,42.591 16.07,42.748C17.056,42.779 18.093,43.225 18.988,43.706C20.979,44.781 21.066,47.016 19.155,48.238C18.208,48.844 17.08,49.161 16.036,49.607C15.9,49.666 15.761,49.711 15.545,49.795C15.701,49.972 15.806,50.118 15.942,50.233C17.853,51.88 19.768,53.527 21.686,55.166C22.522,55.88 23.465,56.368 24.586,56.472C24.809,56.493 25.021,56.636 25.237,56.719C25.227,56.785 25.22,56.855 25.209,56.921C24.976,56.963 24.739,57.036 24.506,57.036C22.563,57.05 20.621,57.064 18.682,57.04C18.389,57.036 18.03,56.921 17.811,56.733C15.677,54.881 13.536,53.039 11.468,51.114C10.834,50.522 10.235,50.226 9.372,50.254C8.007,50.299 7.997,50.254 8.021,51.622C8.042,52.743 8.084,53.864 8.133,54.985C8.167,55.786 8.404,56.103 9.201,56.305C9.741,56.444 10.305,56.476 10.855,56.563C11.116,56.604 11.374,56.664 11.726,56.733C11.123,57.123 0.762,57.154 0,56.782ZM8.014,43.242L8.014,47.761C8.014,49.554 8.014,49.575 9.79,49.54C11.165,49.513 12.551,49.516 13.846,48.928C14.58,48.593 15.162,48.127 15.43,47.33C15.973,45.697 15.2,44.224 13.379,43.601C11.663,43.006 9.887,42.943 8.014,43.242Z" style="fill:rgb(14,30,37);fill-opacity:0.55;fill-rule:nonzero;"/>
        </g>
        <g transform="matrix(1.08485,0,0,1.52983,-17.7191,-23.2586)">
            <path d="M136.985,56.803C137.465,56.726 137.942,56.643 138.423,56.58C139.129,56.489 139.568,56.113 139.693,55.407C140.118,52.991 140.553,50.574 140.94,48.151C141.076,47.302 140.776,46.912 139.941,46.689C139.411,46.546 138.861,46.473 138.322,46.23C138.472,46.205 138.621,46.163 138.771,46.16C140.369,46.139 141.963,46.108 143.561,46.132C143.829,46.136 144.178,46.324 144.348,46.536C146.27,48.949 148.167,51.382 150.072,53.809C150.214,53.99 150.368,54.164 150.563,54.394C151.057,53.781 151.52,53.217 151.973,52.646C153.581,50.616 155.193,48.59 156.784,46.55C157.038,46.223 157.299,46.104 157.71,46.115C159.155,46.15 160.6,46.146 162.048,46.156C162.281,46.16 162.511,46.181 162.765,46.317C162.647,46.358 162.532,46.421 162.413,46.438C162.159,46.48 161.902,46.505 161.644,46.529C160.14,46.668 159.97,46.828 160.164,48.298C160.478,50.648 160.836,52.991 161.198,55.334C161.355,56.35 161.655,56.587 162.695,56.681C162.984,56.709 163.273,56.747 163.562,56.782C163.559,56.838 163.555,56.893 163.552,56.949L155.374,56.949C155.37,56.897 155.367,56.848 155.364,56.796C155.844,56.719 156.324,56.65 156.801,56.563C157.393,56.455 157.7,56.148 157.616,55.487C157.331,53.22 157.073,50.95 156.801,48.681C156.798,48.649 156.753,48.621 156.666,48.52C156.453,48.764 156.237,48.99 156.042,49.231C154.041,51.716 152.049,54.213 150.037,56.691C149.344,57.544 149.212,57.541 148.533,56.677C146.656,54.282 144.801,51.873 142.935,49.471C142.726,49.203 142.507,48.942 142.204,48.569C142.131,48.896 142.064,49.109 142.033,49.325C141.786,51.118 141.549,52.914 141.295,54.707C141.079,56.242 141.406,56.636 142.983,56.705C143.255,56.716 143.523,56.754 143.791,56.778C143.788,56.834 143.784,56.89 143.781,56.946L136.999,56.946C136.992,56.9 136.988,56.852 136.985,56.803Z" style="fill:rgb(14,30,37);fill-opacity:0.55;fill-rule:nonzero;"/>
        </g>
        <g transform="matrix(1.08485,0,0,1.52983,-8.45715,-23.1354)">
            <path d="M93.752,46.233L102.073,46.233C102.076,46.285 102.08,46.338 102.083,46.386C101.669,46.438 101.251,46.48 100.84,46.55C100.026,46.693 99.817,46.926 99.813,47.761C99.803,50.285 99.803,52.81 99.81,55.334C99.813,56.301 100.019,56.524 101.001,56.67C101.377,56.726 101.76,56.74 102.216,56.782C101.693,57.116 94.316,57.144 93.533,56.789C94.076,56.751 94.452,56.73 94.828,56.695C96.005,56.587 96.328,56.242 96.346,55.062C96.36,54.136 96.342,53.206 96.36,52.28C96.367,51.915 96.283,51.73 95.862,51.734C92.736,51.769 89.606,51.786 86.479,51.81C86.396,51.81 86.316,51.838 86.204,51.859C86.204,53.199 86.152,54.526 86.225,55.845C86.264,56.514 86.915,56.597 87.454,56.67C87.872,56.73 88.3,56.74 88.721,56.771C88.718,56.831 88.718,56.886 88.715,56.946L80.45,56.946C80.446,56.893 80.439,56.838 80.436,56.785C80.812,56.747 81.188,56.716 81.56,56.667C82.368,56.559 82.625,56.308 82.632,55.49C82.65,52.904 82.65,50.313 82.632,47.727C82.625,46.877 82.35,46.62 81.518,46.532C81.163,46.498 80.808,46.452 80.453,46.414C80.456,46.358 80.46,46.303 80.467,46.244L88.676,46.244C88.68,46.296 88.687,46.351 88.69,46.404C88.258,46.449 87.827,46.491 87.395,46.539C86.5,46.64 86.166,46.961 86.131,47.859C86.1,48.719 86.135,49.586 86.128,50.446C86.124,50.797 86.257,50.947 86.622,50.947C89.707,50.94 92.791,50.947 95.876,50.923C96.029,50.923 96.304,50.641 96.311,50.48C96.356,49.554 96.36,48.625 96.335,47.699C96.318,47.016 95.966,46.686 95.173,46.55C94.703,46.47 94.222,46.435 93.749,46.379C93.742,46.334 93.745,46.282 93.752,46.233Z" style="fill:rgb(14,30,37);fill-opacity:0.55;fill-rule:nonzero;"/>
        </g>
        <g transform="matrix(1.08485,0,0,1.52983,-19.9691,-22.9866)">
            <path d="M182.341,57.322C179.57,57.276 176.879,56.879 174.459,55.407C173.098,54.578 172.162,53.443 172.085,51.779C172.015,50.282 172.802,49.196 173.906,48.311C175.504,47.037 177.384,46.414 179.365,46.111C182.192,45.68 185.015,45.794 187.755,46.644C188.89,46.996 190.025,47.511 191.007,48.179C193.197,49.676 193.405,52.256 191.609,54.223C190.464,55.476 188.998,56.228 187.386,56.608C185.736,56.994 184.047,57.2 182.373,57.485C182.362,57.429 182.352,57.377 182.341,57.322ZM182.79,56.719C183.361,56.67 184.051,56.629 184.737,56.545C186.839,56.281 188.361,55.027 188.824,53.203C189.471,50.651 188.302,48.332 185.767,47.204C183.776,46.317 181.718,46.324 179.622,46.783C175.295,47.73 175.086,52.204 177.14,54.533C178.609,56.197 180.555,56.674 182.79,56.719Z" style="fill:rgb(14,30,37);fill-opacity:0.55;fill-rule:nonzero;"/>
        </g>
        <g transform="matrix(1.08485,0,0,1.52983,-23.7732,-23.0789)">
            <path d="M220.578,57.468C220,57.252 219.495,57.147 219.088,56.89C215.648,54.742 212.23,52.569 208.804,50.4C207.697,49.701 206.59,48.994 205.406,48.242C205.375,48.479 205.336,48.632 205.336,48.788C205.336,50.815 205.333,52.844 205.347,54.871C205.354,56.047 205.657,56.395 206.816,56.594C207.289,56.677 207.766,56.737 208.226,56.959L201.214,56.959C201.211,56.904 201.204,56.845 201.2,56.789C201.462,56.758 201.719,56.716 201.984,56.691C203.39,56.556 203.951,55.974 203.961,54.575C203.975,52.503 203.975,50.435 203.965,48.364C203.961,47.347 203.777,47.107 202.812,46.755C202.551,46.661 202.276,46.595 202.005,46.536C201.74,46.477 201.472,46.442 201.204,46.4C201.207,46.344 201.207,46.285 201.211,46.23C201.406,46.205 201.601,46.16 201.796,46.156C203.282,46.136 204.772,46.101 206.259,46.125C206.597,46.129 206.973,46.278 207.262,46.463C210.987,48.841 214.701,51.236 218.42,53.628C218.611,53.753 218.813,53.864 219.106,54.038C219.137,53.436 219.182,52.949 219.186,52.461C219.2,51.058 219.2,49.659 219.196,48.256C219.193,47.424 218.785,46.881 217.971,46.668C217.455,46.536 216.926,46.459 216.411,46.226L223.102,46.226C223.109,46.282 223.116,46.338 223.123,46.397C222.82,46.442 222.521,46.487 222.218,46.529C221.073,46.689 220.571,47.204 220.568,48.346C220.557,51.128 220.575,53.91 220.582,56.695C220.578,56.865 220.578,57.036 220.578,57.468Z" style="fill:rgb(14,30,37);fill-opacity:0.55;fill-rule:nonzero;"/>
        </g>
        <g transform="matrix(1.08485,0,0,1.52983,-13.2075,-23.1369)">
            <path d="M112.43,56.806C112.914,56.73 113.398,56.664 113.882,56.576C114.429,56.479 114.711,56.148 114.711,55.591C114.714,52.98 114.728,50.369 114.707,47.758C114.7,46.989 114.324,46.64 113.555,46.536C113.175,46.487 112.792,46.445 112.413,46.404C112.416,46.344 112.416,46.285 112.42,46.226L126.084,46.226C126.13,46.926 126.182,47.667 126.248,48.663C125.862,48.423 125.503,48.329 125.42,48.123C125.106,47.344 124.493,46.902 123.752,46.867C121.928,46.787 120.1,46.839 118.175,46.839C118.175,48.071 118.164,49.377 118.192,50.682C118.195,50.787 118.439,50.978 118.568,50.978C119.86,50.954 121.155,50.919 122.446,50.846C123.003,50.815 123.379,50.48 123.63,49.965C123.721,49.784 123.999,49.694 124.191,49.561C124.271,49.753 124.417,49.944 124.424,50.139C124.445,50.937 124.441,51.737 124.399,52.535C124.389,52.747 124.211,52.952 124.107,53.161C123.943,53.008 123.693,52.879 123.634,52.695C123.425,52.026 122.923,51.779 122.311,51.741C121.085,51.668 119.853,51.647 118.624,51.598C118.3,51.584 118.154,51.706 118.157,52.044C118.175,53.144 118.129,54.247 118.209,55.344C118.23,55.654 118.551,56.006 118.833,56.207C119.073,56.378 119.449,56.42 119.762,56.416C121.378,56.399 122.993,56.368 124.608,56.305C125.538,56.27 126.307,55.873 126.882,55.118C127,54.965 127.122,54.801 127.282,54.703C127.387,54.637 127.575,54.644 127.696,54.693C127.756,54.717 127.79,54.926 127.756,55.027C127.561,55.619 127.383,56.225 127.108,56.782C127.028,56.946 126.659,57.04 126.422,57.04C122.927,57.05 119.431,57.04 115.936,57.033C114.965,57.029 113.993,57.026 113.022,57.015C112.817,57.012 112.615,56.98 112.409,56.963C112.423,56.914 112.427,56.862 112.43,56.806Z" style="fill:rgb(14,30,37);fill-opacity:0.55;fill-rule:nonzero;"/>
        </g>
        <g transform="matrix(1.08485,0,0,1.52983,-2.94153,-23.2586)">
            <path d="M70.211,54.192C70.023,54.909 69.862,55.64 69.622,56.34C69.56,56.524 69.25,56.705 69.03,56.747C65.11,57.45 61.183,57.687 57.315,56.5C56.226,56.166 55.129,55.626 54.234,54.93C51.818,53.057 51.909,49.997 54.356,48.172C56.104,46.87 58.161,46.393 60.268,46.076C63.213,45.634 66.116,46.035 69.013,46.515C69.225,46.55 69.455,46.529 69.65,46.606C69.796,46.665 69.988,46.825 70.002,46.957C70.085,47.681 70.124,48.409 70.19,49.321C69.852,49.189 69.497,49.168 69.385,48.99C68.393,47.438 66.9,46.776 65.159,46.578C63.168,46.351 61.194,46.411 59.307,47.18C57.681,47.845 56.521,48.98 56.333,50.776C56.135,52.709 56.873,54.348 58.576,55.33C61.423,56.97 64.456,57.224 67.516,55.981C68.212,55.699 68.741,55.01 69.354,54.515C69.573,54.338 69.814,54.188 70.043,54.028C70.099,54.084 70.155,54.139 70.211,54.192Z" style="fill:rgb(14,30,37);fill-opacity:0.55;fill-rule:nonzero;"/>
        </g>
        <g transform="matrix(1.08485,0,0,1.52983,-27.1105,-22.0832)">
            <path d="M244.994,56.952L236.189,56.952C236.182,56.9 236.179,56.852 236.172,56.799C236.555,56.761 236.941,56.723 237.324,56.688C238.494,56.587 238.79,56.336 238.807,55.187C238.845,52.535 238.835,49.885 238.842,47.232C238.842,47.107 238.804,46.982 238.793,46.933C236.781,46.933 234.803,46.919 232.826,46.943C232.328,46.95 232.004,47.274 231.834,47.744C231.701,48.11 231.489,48.339 230.963,48.106C231.117,47.413 231.249,46.703 231.433,46.007C231.527,45.645 231.785,45.683 232.105,45.78C232.568,45.923 233.059,46.066 233.54,46.069C238.177,46.087 242.811,46.087 247.448,46.052C248.162,46.045 248.872,45.829 249.586,45.714C249.704,45.697 249.829,45.711 250.003,45.711C249.916,46.456 249.85,47.156 249.735,47.848C249.711,47.988 249.499,48.176 249.356,48.197C249.224,48.214 248.983,48.068 248.931,47.935C248.597,47.072 247.922,46.811 247.083,46.811C245.533,46.808 243.984,46.811 242.369,46.811C242.351,46.982 242.316,47.166 242.316,47.351C242.327,49.916 242.334,52.482 242.358,55.048C242.369,56.228 242.678,56.549 243.873,56.691C244.249,56.737 244.628,56.758 245.004,56.792C245.001,56.841 244.997,56.897 244.994,56.952Z" style="fill:rgb(14,30,37);fill-opacity:0.55;fill-rule:nonzero;"/>
        </g>
        <g transform="matrix(1.08485,0,0,1.52983,2.21598,-23.5081)">
            <path d="M33.199,46.219L41.283,46.219C41.29,46.268 41.301,46.317 41.307,46.365C40.977,46.414 40.646,46.47 40.315,46.515C39.156,46.672 38.978,46.839 38.971,47.981C38.958,50.376 38.958,52.771 38.971,55.166C38.978,56.361 39.243,56.608 40.462,56.705C40.75,56.73 41.043,56.761 41.332,56.789C41.328,56.845 41.328,56.9 41.325,56.956L33.206,56.956C33.199,56.911 33.189,56.865 33.182,56.82C33.495,56.778 33.808,56.726 34.122,56.695C35.135,56.59 35.49,56.225 35.493,55.201C35.504,52.827 35.504,50.453 35.493,48.082C35.49,46.926 35.229,46.651 34.073,46.519C33.777,46.484 33.481,46.438 33.189,46.397C33.192,46.334 33.196,46.275 33.199,46.219Z" style="fill:rgb(14,30,37);fill-opacity:0.55;fill-rule:nonzero;"/>
        </g>
    </g>
</svg>
