<?xml version="1.0" encoding="UTF-8" standalone="no"?><!DOCTYPE svg PUBLIC "-//W3C//DTD SVG 1.1//EN" "http://www.w3.org/Graphics/SVG/1.1/DTD/svg11.dtd"><svg width="100%" height="100%" viewBox="0 0 250 100" version="1.1" xmlns="http://www.w3.org/2000/svg" xmlns:xlink="http://www.w3.org/1999/xlink" xml:space="preserve" xmlns:serif="http://www.serif.com/" style="fill-rule:evenodd;clip-rule:evenodd;stroke-linejoin:round;stroke-miterlimit:2;"><g><path d="M250,94.758c-0.108,0.168 -0.251,0.323 -0.335,0.503c-0.755,1.652 -2.012,2.55 -3.844,2.55c-5.963,0 -11.926,0.048 -17.889,-0.012c-3.807,-0.036 -7.483,-0.73 -10.644,-3.089c-2.85,-2.131 -4.443,-4.969 -4.455,-8.573c-0.023,-13.327 0,-26.642 -0.012,-39.969c0,-2.263 0.408,-4.418 1.713,-6.31c1.664,-2.418 4.035,-3.772 6.897,-4.191c1.389,-0.203 2.825,-0.191 4.238,-0.203c6.61,-0.036 13.219,-0.06 19.829,-0.072c2.203,0 3.688,1.161 4.119,3.197c0.563,2.622 -1.353,4.778 -4.275,4.778c-5.963,0.012 -11.926,0 -17.889,0c-1.221,0 -2.454,-0.048 -3.676,0.023c-1.664,0.096 -2.514,0.982 -2.694,2.647c-0.012,0.143 -0.024,0.287 -0.024,0.431l0,13.829c0,0.168 0.024,0.324 0.048,0.575l23.984,0c2.323,0 4.095,1.784 4.107,4.119c0.012,2.383 -1.76,4.191 -4.107,4.191l-24.032,0l0,15.925c0,2.574 0.946,3.748 3.497,4.215c0.994,0.179 2.011,0.287 3.017,0.287c5.963,0.024 11.926,0.012 17.889,0.012c2.347,0 3.424,0.719 4.31,2.874c0.036,0.096 0.144,0.167 0.216,0.251c0.012,0.671 0.012,1.341 0.012,2.012Z" style="fill:#0e1e25;fill-opacity:0.54;fill-rule:nonzero;"/><path d="M77.219,99.404c-0.204,-0.084 -0.407,-0.204 -0.611,-0.228c-5.604,-0.515 -10.932,-2.023 -15.937,-4.586c-7.065,-3.616 -12.704,-8.8 -16.775,-15.637c-0.539,-0.91 -0.359,-1.246 0.67,-1.294c0.36,-0.012 0.719,-0.048 1.078,-0.131c2.155,-0.491 4.322,-0.096 6.49,-0.096c0.359,0 0.718,0.718 1.101,1.125c-1.329,0.108 -2.478,0.132 -3.604,0.312c-1.053,0.179 -1.293,0.658 -0.898,1.652c0.264,0.671 0.647,1.293 0.958,1.94c0.335,0.694 0.874,1.03 1.652,1.089c0.228,0.024 0.467,0.252 0.647,0.432c0.455,0.466 0.826,1.017 1.317,1.436c0.802,0.683 1.76,0.683 2.742,0.407c0.754,-0.215 1.581,-0.73 2.251,-0.574c0.683,0.155 1.198,0.982 1.784,1.508c4.706,4.119 10.13,6.802 16.261,8.023c7.519,1.497 14.751,0.551 21.732,-2.586c3.664,-1.653 6.957,-3.82 9.663,-6.814c1.64,-1.808 3.041,-3.783 4.191,-5.939c0.227,-0.419 0.538,-0.79 0.862,-1.149c0.455,-0.503 1.006,-0.635 1.64,-0.335c0.623,0.299 1.054,0.766 0.922,1.472c-0.096,0.575 -0.275,1.174 -0.551,1.689c-1.448,2.826 -3.292,5.364 -5.579,7.579c-3.197,3.113 -6.933,5.4 -11.028,7.137c-4.263,1.808 -8.705,2.933 -13.327,3.34c-0.192,0.012 -0.359,0.144 -0.539,0.228l-7.112,0Z" style="fill:#0e1e25;fill-opacity:0.54;fill-rule:nonzero;"/><path d="M159.359,57.567c0,5.844 0.012,11.687 0,17.518c-0.012,4.574 -0.862,8.98 -2.85,13.099c-3.293,6.825 -8.813,10.322 -16.356,10.561c-4.909,0.156 -9.328,-1.317 -13.111,-4.454c-3.413,-2.826 -5.604,-6.502 -6.55,-10.812c-1.209,-5.532 -2.251,-11.1 -3.317,-16.656c-0.778,-4.047 -1.664,-8.058 -3.388,-11.842c-1.21,-2.67 -2.73,-5.137 -4.718,-7.304c-4.814,-5.22 -10.872,-8.07 -17.757,-9.351c-4.478,-0.839 -8.957,-0.946 -13.423,0.143c-4.538,1.114 -8.633,3.149 -12.189,6.179c-1.604,1.365 -3.017,2.969 -4.514,4.454c-0.24,0.239 -0.503,0.443 -0.766,0.647c-0.587,0.443 -1.198,0.479 -1.808,0.035c-0.671,-0.478 -0.982,-1.125 -0.611,-1.82c0.467,-0.886 1.054,-1.724 1.712,-2.466c5.927,-6.705 13.518,-10.094 22.307,-11.04c6.334,-0.682 12.585,-0.084 18.655,1.784c4.371,1.353 8.358,3.568 11.962,6.418c6.179,4.885 9.519,11.471 11.267,19.002c1.449,6.263 2.898,12.537 4.395,18.787c0.586,2.455 1.473,4.79 3.305,6.646c1.999,2.023 4.502,2.933 7.268,3.137c2.634,0.203 5.148,-0.264 7.292,-1.928c1.58,-1.233 2.562,-2.934 3.268,-4.777c1.09,-2.838 1.581,-5.808 1.581,-8.849c0.012,-11.998 0,-23.995 0.012,-35.993c0,-1.688 0.754,-2.97 2.239,-3.76c1.449,-0.778 2.898,-0.682 4.239,0.24c1.269,0.862 1.868,2.107 1.868,3.628c-0.012,6.274 -0.012,12.524 -0.012,18.774Z" style="fill:#0e1e25;fill-opacity:0.54;fill-rule:nonzero;"/><path d="M89.432,91.824c7.22,-1.88 13.063,-5.723 17.302,-11.854c-0.072,-0.072 -0.144,-0.143 -0.215,-0.215c-1.102,1.329 -2.216,2.658 -3.317,3.987c-0.036,-0.024 -0.072,-0.048 -0.096,-0.072c0.096,-0.155 0.204,-0.311 0.311,-0.479c-0.084,-0.048 -0.143,-0.131 -0.191,-0.119c-0.18,0.059 -0.359,0.119 -0.515,0.227c-1.736,1.209 -3.532,2.347 -5.197,3.664c-2.945,2.347 -6.298,3.712 -9.986,4.251c-4.514,0.67 -9.04,1.029 -13.41,-0.815c-0.264,-0.107 -0.515,-0.227 -0.743,-0.443c0.311,0.084 0.635,0.18 0.946,0.252c0.323,0.072 0.647,0.132 0.97,0.203c0.024,-0.059 0.048,-0.131 0.072,-0.191c-1.09,-0.431 -2.179,-0.85 -3.257,-1.281c0.012,-0.036 0.012,-0.084 0.024,-0.12c0.898,0.048 1.808,0.096 2.706,0.144c0.012,-0.072 0.036,-0.144 0.048,-0.216c-3.053,-0.515 -6.023,-1.221 -8.37,-3.424c0.108,-0.108 0.192,-0.18 0.264,-0.252c-0.922,-0.694 -1.82,-1.341 -2.682,-2.035c-0.144,-0.108 -0.144,-0.396 -0.132,-0.623c6.537,4.921 13.602,4.586 20.87,2.359c-1.066,0 -2.119,0.036 -3.185,-0.012c-0.838,-0.036 -1.688,-0.12 -2.502,-0.3c-0.396,-0.083 -0.707,-0.467 -1.066,-0.706c-0.156,-0.108 -0.311,-0.204 -0.491,-0.275c-0.766,-0.288 -1.533,-0.575 -2.167,-0.803c-0.132,-0.383 -0.24,-0.658 -0.348,-0.97c0.288,-0.395 0.587,-0.287 0.982,0.024c1.198,0.982 2.599,1.449 4.131,1.545c1.305,0.084 1.605,-0.156 1.976,-1.377c0.06,-0.203 0.407,-0.347 0.646,-0.443c0.851,-0.359 1.054,-0.838 0.611,-1.664c4.191,-1.09 8.07,-2.778 11.267,-5.843c-0.407,0.071 -0.802,0.167 -1.209,0.191c-0.587,0.024 -0.79,-0.299 -0.407,-0.742c0.563,-0.659 1.185,-1.27 1.856,-1.82c2.742,-2.239 5.029,-4.85 6.478,-8.13c0.06,-0.132 0.119,-0.264 0.167,-0.396c0.024,-0.059 0.036,-0.143 0.06,-0.263c-2.418,-0.335 -4.801,-0.407 -7.148,0.287c-2.072,0.611 -4.131,1.294 -6.203,1.904c-0.538,0.156 -1.113,0.192 -1.676,0.276c-0.048,-0.084 -0.096,-0.168 -0.144,-0.252c0.192,-0.191 0.348,-0.467 0.575,-0.575c0.91,-0.419 1.82,-0.874 2.778,-1.173c2.096,-0.671 4.119,-1.557 6.394,-1.581c1.174,-0.012 2.335,-0.323 3.353,-0.993c0.143,-0.096 0.275,-0.228 0.575,-0.455c-2.766,-0.551 -5.233,0.502 -7.795,0.646c0.119,-0.299 0.215,-0.539 0.275,-0.67c-0.144,-0.479 -0.922,0.263 -0.766,-0.671c-2.215,1.078 -4.502,0.731 -6.801,0.527c1.64,-1.485 3.676,-1.988 5.783,-2.538c-0.036,0.215 -0.048,0.347 -0.096,0.61c2.06,-0.431 4.059,-0.838 6.059,-1.257c0,-0.024 0,-0.048 0.012,-0.06l-1.138,0l0,-0.072c0.838,-0.239 1.677,-0.479 2.635,-0.754c-2.036,-1.054 -3.892,-0.335 -5.7,0.024c-6.071,1.209 -11.866,3.281 -17.458,5.903c-0.515,0.239 -0.802,0.168 -1.113,-0.287c-2.036,-2.958 -4.91,-5.017 -7.687,-7.173c-1.126,-0.874 -2.395,-1.413 -3.868,-1.592c1.138,-1.892 2.467,-3.545 3.975,-5.053c4.67,-4.682 10.669,-6.418 16.919,-7.161c7.077,-0.838 13.459,1.294 18.895,5.916c4.478,3.795 7.328,8.645 8.477,14.44c0.862,4.334 0.551,8.585 -0.778,12.836c-0.886,2.849 -2.072,5.484 -3.892,7.819c-3.963,5.1 -9.1,8.465 -15.326,10.165c-0.395,0.108 -0.802,0.144 -1.209,0.216c-0.048,-0.06 -0.084,-0.144 -0.108,-0.216Z" style="fill:#0e1e25;fill-opacity:0.54;fill-rule:nonzero;"/><path d="M179.427,97.883c-3.808,0 -7.628,0.012 -11.435,0c-2.634,-0.012 -4.478,-1.892 -4.383,-4.418c0.072,-1.988 1.784,-3.772 3.76,-3.928c0.359,-0.024 0.719,-0.024 1.09,-0.024c7.124,0 14.237,0.012 21.361,-0.012c2.179,-0.012 4.287,-0.419 5.987,-1.915c0.694,-0.611 1.329,-1.353 1.784,-2.156c1.449,-2.586 1.916,-5.388 1.365,-8.309c-0.659,-3.485 -2.934,-5.508 -6.203,-6.418c-1.508,-0.419 -3.125,-0.563 -4.693,-0.647c-2.67,-0.156 -5.376,0.06 -8.011,-0.299c-6.465,-0.874 -10.932,-4.49 -13.314,-10.561c-1.761,-4.478 -1.916,-9.04 -0.204,-13.566c2.036,-5.401 6.178,-8.454 11.638,-9.831c1.413,-0.359 2.898,-0.539 4.359,-0.563c4.873,-0.071 9.747,-0.048 14.62,-0.024c2.981,0.012 4.921,2.575 4.143,5.413c-0.407,1.508 -1.94,2.777 -3.509,2.921c-0.383,0.036 -0.766,0.048 -1.161,0.048c-4.73,0 -9.459,-0.012 -14.189,0.012c-1.988,0.012 -3.855,0.575 -5.52,1.676c-2.179,1.449 -2.993,3.64 -3.149,6.119c-0.156,2.61 0.491,5.029 2.048,7.148c1.472,1.988 3.592,2.898 5.986,3.018c2.335,0.119 4.682,0.083 7.017,0.107c3.281,0.024 6.418,0.719 9.34,2.192c6.07,3.065 9.1,8.106 9.363,14.835c0.168,4.203 -0.862,8.13 -3.149,11.674c-2.826,4.371 -6.933,6.754 -12.046,7.316c-2.263,0.252 -4.574,0.18 -6.861,0.204c-2.035,0.012 -4.035,-0.012 -6.034,-0.012Z" style="fill:#0e1e25;fill-opacity:0.54;fill-rule:nonzero;"/><path d="M28.905,82.964c0.167,-0.144 0.347,-0.276 0.515,-0.431c1.448,-1.425 3.22,-2.072 5.232,-2.108c0.898,-0.024 1.784,-0.012 2.682,-0.06c1.629,-0.083 2.886,-0.862 3.808,-2.191c0.347,-0.491 0.682,-0.97 1.042,-1.473c0.61,0.264 0.718,0.647 0.431,1.174c-0.324,0.599 -0.563,1.233 -0.958,1.772c-0.312,0.419 -0.779,0.742 -1.21,1.054c-0.347,0.251 -0.79,0.383 -1.125,0.646c-0.958,0.731 -2.024,0.803 -3.161,0.611c-0.635,-0.108 -1.293,-0.18 -1.94,-0.228c-0.79,-0.059 -1.425,0.276 -2.036,0.779c-0.646,0.527 -1.353,1.006 -2.107,1.353c-0.383,0.179 -0.934,0.131 -1.389,0.048c-0.67,-0.132 -1.245,-0.036 -1.533,0.598c-0.969,2.132 -2.263,1.892 -4.226,1.353c0.251,-0.73 0.491,-1.46 0.742,-2.191c0.024,-0.06 0.084,-0.143 0.144,-0.155c1.508,-0.3 1.963,-1.988 3.328,-2.515c0.743,-0.287 1.03,-1.09 1.282,-1.844c0.479,-1.497 0.598,-1.437 2.131,-1.664c0.874,-0.132 1.712,-0.683 2.503,-1.138c0.179,-0.096 0.263,-0.658 0.155,-0.898c-0.622,-1.473 -0.922,-2.981 -0.862,-4.574c0.024,-0.563 -0.251,-0.634 -0.73,-0.503c-1.569,0.407 -3.125,0.527 -4.658,-0.203c-3.006,-1.425 -3.796,-5.113 -1.557,-7.568c0.886,-0.97 1.964,-1.784 2.91,-2.706c0.263,-0.251 0.371,-0.658 0.551,-0.994c-0.371,-0.167 -0.755,-0.478 -1.126,-0.455c-1.664,0.084 -2.909,-0.55 -3.76,-1.963c-0.55,-0.922 -0.682,-1.892 -0.083,-2.97c0.251,0.156 0.503,0.276 0.718,0.443c0.934,0.731 2.012,1.09 3.173,1.305c0.73,0.132 1.461,0.36 2.119,0.683c1.377,0.682 1.82,2.347 0.982,3.628c-0.371,0.575 -0.898,1.066 -1.413,1.533c-0.766,0.73 -1.616,1.377 -2.37,2.119c-1.138,1.114 -1.437,2.766 -0.767,3.975c0.719,1.305 2.156,1.892 3.796,1.533c1.604,-0.359 2.993,-1.185 4.287,-2.167c1.436,-1.102 2.837,-2.263 4.705,-2.563c0.671,-0.107 1.341,-0.131 2.012,-0.239c1.269,-0.228 2.347,-0.838 3.245,-1.76c1.269,-1.317 2.778,-1.988 4.646,-1.964c0.538,0.012 1.221,-0.371 1.616,-0.79c1.185,-1.27 2.634,-1.952 4.239,-2.491c1.329,-0.455 2.682,-0.994 3.855,-1.76c2.311,-1.521 4.562,-1.425 6.658,0.156c3.304,2.502 6.489,5.148 8.932,8.597c1.15,1.628 1.724,3.364 2.06,5.304c0.359,2.096 1.077,4.131 1.652,6.203c0.048,0.179 0.156,0.359 0.263,0.503c0.671,0.898 1.305,1.832 2.036,2.682c0.539,0.622 1.221,1.137 1.832,1.688c0.144,0.132 0.311,0.227 0.467,0.335c-0.024,0.108 -0.06,0.204 -0.084,0.312c-0.587,-0.084 -1.209,-0.06 -1.748,-0.264c-0.958,-0.359 -1.617,-1.101 -2.119,-1.988c-0.515,-0.91 -1.078,-1.76 -2.299,-2.227c0.143,0.288 0.215,0.443 0.287,0.587c0.407,0.742 0.946,1.437 1.197,2.215c0.395,1.222 1.246,1.904 2.275,2.491c0.324,0.179 0.635,0.371 0.958,0.563c-0.012,0.071 -0.024,0.143 -0.036,0.215c-0.179,0.036 -0.371,0.12 -0.551,0.12c-1.544,-0.012 -2.861,-0.551 -3.975,-1.629c-0.886,-0.874 -0.898,-0.874 -1.88,-0.095c-0.73,0.574 -1.496,0.814 -2.466,0.754c-0.91,-0.048 -1.844,0.191 -2.754,0.371c-0.707,0.144 -1.377,0.491 -2.084,0.551c-0.467,0.048 -1.197,-0.096 -1.401,-0.407c-0.359,-0.575 -0.574,-1.341 -0.155,-2.048c0.179,-0.299 0.383,-0.586 0.658,-1.006l-1.233,0c0.251,-0.502 0.359,-1.065 0.694,-1.305c1.138,-0.826 1.27,-2.203 1.964,-3.376c-0.982,0.167 -1.952,0.323 -2.933,0.503c-0.491,0.083 -0.982,0.263 -1.473,0.287c-0.707,0.024 -0.826,-0.204 -0.455,-0.814c0.634,-1.042 0.922,-2.179 0.814,-3.389c-0.024,-0.251 -0.263,-0.479 -0.407,-0.718c-0.132,0.227 -0.323,0.443 -0.395,0.682c-0.192,0.695 -0.3,1.413 -0.491,2.108c-0.276,1.017 -0.946,1.544 -1.988,1.712c-1.257,0.191 -1.365,0.479 -0.754,1.556c0.431,0.779 0.814,1.593 1.317,2.323c0.587,0.851 0.587,1.701 0.287,2.611c-0.083,0.263 -0.155,0.538 -0.251,0.862c1.137,-0.491 1.784,-2.024 1.305,-3.03c-0.431,-0.91 -0.91,-1.808 -1.365,-2.706c-0.108,-0.215 -0.192,-0.431 -0.287,-0.646c0.922,-0.431 1.532,-0.192 1.904,0.634c0.335,0.743 0.73,1.461 1.137,2.168c0.383,0.67 0.491,1.353 0.132,2.059c-0.156,0.299 -0.347,0.587 -0.479,0.886c-0.515,1.198 -1.377,1.82 -2.718,1.677c-0.18,-0.024 -0.371,0.071 -0.551,0.143c-1.389,0.527 -2.778,1.102 -4.179,1.593c-1.389,0.491 -2.323,0.131 -3.029,-1.15c-0.383,-0.694 -0.755,-1.281 -1.701,-1.101c-0.155,0.036 -0.419,-0.132 -0.526,-0.288c-0.372,-0.563 -0.731,-1.137 -1.042,-1.736c-0.24,-0.431 -0.096,-0.754 0.419,-0.814c0.599,-0.084 1.197,-0.192 1.796,-0.192c0.635,-0.012 1.162,0.252 1.509,0.826c0.299,0.491 0.598,0.994 0.946,1.461c0.658,0.886 1.185,1.042 2.263,0.743c0.119,-0.036 0.227,-0.06 0.347,-0.108c2,-0.731 2.383,-1.772 0.79,-3.556c-0.335,-0.372 -0.79,-0.623 -1.209,-0.898c-1.233,-0.779 -2.443,-1.581 -2.778,-3.161c-0.036,-0.156 -0.323,-0.252 -0.503,-0.372c-0.072,0.204 -0.215,0.407 -0.192,0.599c0.204,1.173 -0.059,1.545 -1.245,1.485c-2.263,-0.12 -4.526,-0.24 -6.777,0.167c-0.251,0.048 -0.527,0.024 -0.79,0c-1.078,-0.095 -1.7,-0.694 -1.7,-1.772c0,-0.838 0.131,-1.676 0.203,-2.514c0.036,-0.371 0.371,-0.898 -0.251,-1.018c-0.611,-0.12 -0.551,0.503 -0.623,0.862c-0.18,0.647 -0.311,1.365 -0.383,2.084c-0.24,2.299 -1.533,3.783 -3.652,4.466c-1.102,0.359 -2.311,0.479 -3.473,0.575c-2.011,0.167 -3.867,0.598 -5.208,2.263c-0.264,0.335 -0.419,0.754 -0.635,1.125c0.096,0.048 0.192,0.12 0.288,0.18Z" style="fill:#0e1e25;fill-opacity:0.54;fill-rule:nonzero;"/><path d="M8.441,60.848l17.099,0c-2.85,2.443 -3.053,5.257 -1.64,8.406l-15.47,0l0,24.917c0,2.515 -1.892,4.442 -4.311,4.371c-1.557,-0.048 -2.742,-0.803 -3.52,-2.156c-0.407,-0.718 -0.599,-1.46 -0.599,-2.323c0.024,-18.295 0.024,-36.579 0,-54.875c0,-2.156 2,-4.263 4.215,-4.275c2.275,-0.012 4.203,1.904 4.215,4.263c0.011,4.945 0,9.89 0,14.835c0.011,2.251 0.011,4.502 0.011,6.837Z" style="fill:#0e1e25;fill-opacity:0.54;fill-rule:nonzero;"/><path d="M80.356,14.366c0.383,0.216 0.682,0.395 1.006,0.563c4.657,2.395 4.442,8.489 1.568,11.375c-1.628,1.628 -3.568,2.562 -5.867,2.586c-3.832,0.048 -7.675,0.012 -11.507,0.012c-0.119,0 -0.239,-0.024 -0.407,-0.048l0,-26.378c0.048,-0.024 0.084,-0.072 0.12,-0.072c3.688,0.036 7.376,-0.048 11.064,0.156c3.688,0.192 5.999,2.562 6.31,6.214c0.179,2.168 -0.683,3.988 -2.287,5.592Zm-9.591,9.926l4.49,0c0.335,0 0.683,-0.012 1.006,-0.06c1.317,-0.215 2.275,-0.898 2.706,-2.203c0.79,-2.406 -0.766,-4.586 -3.305,-4.622c-1.054,-0.012 -2.107,0 -3.173,0l0,-4.765c0.683,0 1.329,0.024 1.964,0c1.425,-0.072 2.562,-1.186 2.658,-2.574c0.108,-1.473 -0.814,-2.838 -2.239,-2.994c-1.353,-0.144 -2.718,-0.036 -4.119,-0.036c0.012,5.736 0.012,11.447 0.012,17.254Z" style="fill:#0e1e25;fill-opacity:0.54;fill-rule:nonzero;"/><path d="M0.072,2.261c0.275,-0.012 0.503,-0.036 0.742,-0.036c3.209,0 6.418,-0.024 9.627,0c5.831,0.048 9.627,6.118 7.089,11.303c-1.066,2.179 -2.862,3.532 -5.293,4.239c2.587,3.688 5.137,7.328 7.783,11.099l-2.035,0c-1.353,0 -2.706,0.024 -4.06,-0.024c-0.299,-0.012 -0.706,-0.203 -0.862,-0.443c-1.724,-2.586 -3.4,-5.208 -5.088,-7.819c-0.12,-0.179 -0.264,-0.383 -0.264,-0.574c-0.024,-2.048 -0.012,-4.095 -0.012,-6.227c0.491,0 0.922,0.012 1.353,0c2.12,-0.047 3.772,-1.604 3.748,-3.52c-0.024,-2 -1.676,-3.472 -3.856,-3.436c-1.029,0.012 -2.059,0 -3.185,0l0,22.019l-5.687,0l0,-26.581Z" style="fill:#0e1e25;fill-opacity:0.54;fill-rule:nonzero;"/><path d="M57.749,28.866l-5.244,0l0,-1.736c-1.185,0.587 -2.287,1.353 -3.496,1.676c-2.97,0.791 -5.532,-0.107 -7.58,-2.37c-3.269,-3.616 -2.945,-9.567 0.659,-12.788c2.814,-2.527 6.765,-2.658 9.746,-0.324c0.18,0.144 0.36,0.288 0.647,0.515l0,-13.099l5.28,0c-0.012,9.34 -0.012,18.691 -0.012,28.126Zm-13.003,-8.309c0,2.203 1.473,3.987 3.46,4.238c2,0.252 3.844,-1.221 4.263,-3.376c0.431,-2.263 -0.838,-4.491 -2.862,-5.029c-2.514,-0.683 -4.861,1.329 -4.861,4.167Z" style="fill:#0e1e25;fill-opacity:0.54;fill-rule:nonzero;"/><path d="M183.917,14.809l0,-11.95c0,-1.401 0.575,-1.975 1.964,-1.975l13.111,0c5.424,0 9.651,3.448 10.716,8.788c0.767,3.868 0.707,7.735 -0.479,11.507c-1.448,4.622 -5.795,7.747 -10.656,7.759c-4.251,0.012 -8.502,0 -12.74,0c-1.317,0 -1.904,-0.587 -1.904,-1.892c-0.012,-4.071 -0.012,-8.154 -0.012,-12.237Zm3.305,10.836c0.155,0.024 0.263,0.048 0.383,0.048c3.664,0 7.34,0.06 11.004,-0.012c3.927,-0.084 6.932,-2.586 7.771,-6.358c0.622,-2.79 0.706,-5.591 0.239,-8.405c-0.718,-4.419 -3.532,-6.801 -8.034,-6.801l-11.375,0c0.012,7.244 0.012,14.368 0.012,21.528Z" style="fill:#0e1e25;fill-opacity:0.54;fill-rule:nonzero;"/><path d="M131.28,6.236l0,20.762c0,0.24 0.012,0.479 -0.012,0.719c-0.084,0.826 -0.718,1.425 -1.52,1.473c-0.743,0.048 -1.449,-0.491 -1.641,-1.258c-0.048,-0.203 -0.072,-0.431 -0.072,-0.646c0,-8.25 -0.012,-16.512 0.012,-24.762c0,-0.371 0.06,-0.814 0.264,-1.09c0.634,-0.874 1.52,-1.245 2.55,-0.215c3.089,3.089 6.179,6.178 9.268,9.268c0.287,0.287 0.61,0.562 0.862,0.874c0.383,0.467 0.67,0.431 1.102,0c3.208,-3.245 6.441,-6.454 9.662,-9.687c0.156,-0.156 0.3,-0.323 0.467,-0.455c0.503,-0.359 1.042,-0.491 1.641,-0.24c0.61,0.252 0.934,0.731 1.006,1.377c0.023,0.192 0.012,0.384 0.012,0.575l0,24.175c0,0.683 -0.084,1.293 -0.683,1.724c-0.97,0.695 -2.227,0.24 -2.503,-0.922c-0.071,-0.275 -0.071,-0.574 -0.071,-0.862l0,-20.595c-0.312,0.264 -0.539,0.408 -0.731,0.599c-2.634,2.622 -5.256,5.257 -7.89,7.879c-1.126,1.125 -1.832,1.125 -2.946,0.012c-2.694,-2.694 -5.388,-5.388 -8.094,-8.082c-0.144,-0.144 -0.336,-0.312 -0.683,-0.623Z" style="fill:#0e1e25;fill-opacity:0.54;fill-rule:nonzero;"/><path d="M39.765,60.86l0,-21.505c0,-2.299 1.413,-3.999 3.616,-4.37c2.275,-0.383 4.706,1.485 4.73,3.784c0.047,6.705 0.023,13.41 0.023,20.175c-0.167,0.06 -0.335,0.156 -0.514,0.168c-1.425,0.036 -2.539,0.754 -3.473,1.712c-1.221,1.269 -2.658,1.904 -4.418,1.976c-2.191,0.096 -3.927,1.305 -5.64,2.526c-1.017,0.719 -2.071,1.389 -3.161,2c-0.419,0.239 -0.958,0.323 -1.449,0.371c-0.91,0.084 -1.664,-0.215 -2.119,-1.065c-0.455,-0.851 -0.287,-1.701 0.275,-2.359c0.683,-0.791 1.533,-1.437 2.311,-2.156c0.072,-0.059 0.18,-0.095 0.228,-0.179c0.742,-1.054 1.796,-1.15 2.981,-1.114c2.156,0.096 4.335,0.036 6.61,0.036Z" style="fill:#0e1e25;fill-opacity:0.54;fill-rule:nonzero;"/><path d="M162.256,12.618l15.937,0c1.186,0 1.892,0.599 1.904,1.604c0,0.994 -0.718,1.629 -1.88,1.629l-15.961,0l0,8.202c0,1.329 0.252,1.616 1.605,1.616c4.849,0.012 9.699,-0.012 14.548,0.024c0.491,0 1.03,0.216 1.437,0.491c0.539,0.371 0.658,0.982 0.431,1.617c-0.228,0.67 -0.719,1.005 -1.389,1.089c-0.311,0.036 -0.623,0.012 -0.946,0.012l-14.261,0c-2.838,0 -4.682,-1.796 -4.682,-4.634c-0.012,-6.202 -0.012,-12.404 0,-18.607c0,-2.802 1.976,-4.753 4.802,-4.753c4.849,-0.012 9.699,-0.012 14.548,0.012c0.431,0 0.934,0.107 1.293,0.335c0.587,0.383 0.826,0.994 0.623,1.7c-0.192,0.671 -0.838,1.162 -1.569,1.174c-1.472,0.012 -2.945,0 -4.418,0l-9.842,0c-0.408,0 -0.815,0.035 -1.222,0.107c-0.598,0.096 -0.946,0.491 -0.958,1.102l0,7.28Z" style="fill:#0e1e25;fill-opacity:0.54;fill-rule:nonzero;"/><path d="M86.822,12.63l5.304,0l0,9.339c0,1.808 1.245,3.102 2.993,3.114c1.785,0.012 3.078,-1.282 3.09,-3.102l0,-9.315l5.232,0l0,0.742c0,3.018 -0.072,6.035 0.024,9.052c0.096,3.054 -1.353,5.089 -3.975,6.287c-3.64,1.652 -7.184,1.377 -10.417,-1.102c-1.521,-1.161 -2.263,-2.778 -2.251,-4.718c0.012,-3.161 0,-6.322 0,-9.483l0,-0.814Z" style="fill:#0e1e25;fill-opacity:0.54;fill-rule:nonzero;"/><path d="M234.434,5.913c-0.563,1.053 -1.066,1.975 -1.556,2.909c-3.15,6.035 -6.299,12.07 -9.448,18.117c-0.179,0.335 -0.359,0.682 -0.551,1.005c-0.455,0.791 -1.317,1.066 -2.107,0.683c-0.802,-0.395 -1.137,-1.317 -0.718,-2.143c1.508,-2.958 3.053,-5.904 4.586,-8.849c1.484,-2.838 2.969,-5.664 4.454,-8.501c1.305,-2.491 2.622,-4.982 3.927,-7.484c0.324,-0.623 0.85,-0.934 1.521,-0.91c0.646,0.024 1.101,0.395 1.413,0.982c2.287,4.37 4.574,8.741 6.861,13.111c2.035,3.88 4.071,7.759 6.094,11.639c0.491,0.934 0.407,1.568 -0.227,2.155c-0.611,0.575 -1.473,0.599 -2.084,0.024c-0.227,-0.216 -0.419,-0.467 -0.562,-0.743c-2.563,-4.885 -5.101,-9.77 -7.652,-14.655c-1.209,-2.299 -2.418,-4.598 -3.628,-6.897c-0.095,-0.096 -0.179,-0.204 -0.323,-0.443Z" style="fill:#0e1e25;fill-opacity:0.54;fill-rule:nonzero;"/><rect x="106.435" y="0.932" width="5.209" height="27.971" style="fill:#0e1e25;fill-opacity:0.54;fill-rule:nonzero;"/><rect x="115.451" y="0.932" width="5.197" height="27.983" style="fill:#0e1e25;fill-opacity:0.54;fill-rule:nonzero;"/><path d="M213.708,14.809l0,-12.225c0,-0.826 0.419,-1.413 1.173,-1.628c0.706,-0.204 1.305,0.035 1.712,0.61c0.192,0.276 0.312,0.671 0.312,1.006c0.012,8.226 0.012,16.452 0.012,24.678c0,0.958 -0.719,1.7 -1.593,1.7c-0.91,0 -1.604,-0.742 -1.604,-1.76c-0.012,-4.131 -0.012,-8.262 -0.012,-12.381Z" style="fill:#0e1e25;fill-opacity:0.54;fill-rule:nonzero;"/><path d="M85.552,65.913c-2.586,1.617 -5.16,3.221 -7.759,4.849c-0.371,-1.173 -0.371,-1.149 0.587,-1.616c2.036,-0.97 4.071,-1.964 6.107,-2.946c0.323,-0.155 0.658,-0.263 0.994,-0.383c0.024,0.036 0.048,0.06 0.071,0.096Z" style="fill:#0e1e25;fill-opacity:0.54;fill-rule:nonzero;"/><path d="M54.169,79.276c0.791,-0.06 1.557,-0.132 2.311,-0.144c0.156,0 0.383,0.24 0.479,0.431c0.192,0.383 0.323,0.802 0.467,1.198c0.036,0.083 0.084,0.239 0.048,0.263c-0.371,0.239 -0.742,0.539 -1.161,0.647c-0.264,0.071 -0.731,-0.036 -0.875,-0.24c-0.455,-0.623 -0.802,-1.353 -1.269,-2.155Z" style="fill:#0e1e25;fill-opacity:0.54;fill-rule:nonzero;"/><path d="M20.475,85.658c0.156,-0.802 0.287,-1.497 0.431,-2.179c0.108,-0.527 0.647,-1.042 1.006,-0.946c0.515,0.155 0.826,0.814 0.647,1.377c-0.216,0.682 -0.408,1.377 -0.647,2.155c-0.539,-0.156 -1.042,-0.299 -1.437,-0.407Z" style="fill:#0e1e25;fill-opacity:0.54;fill-rule:nonzero;"/><path d="M23.516,82.521c-0.203,-0.18 -0.574,-0.348 -0.646,-0.599c-0.072,-0.251 0.084,-0.659 0.275,-0.862c0.348,-0.347 0.779,-0.647 1.222,-0.862c0.203,-0.108 0.598,-0.06 0.778,0.084c0.144,0.107 0.191,0.526 0.096,0.706c-0.348,0.659 -0.743,1.329 -1.725,1.533Z" style="fill:#0e1e25;fill-opacity:0.54;fill-rule:nonzero;"/><path d="M63.76,75.911c0.862,-0.155 1.533,-0.287 2.203,-0.407c0.048,0.048 0.084,0.096 0.132,0.144c-0.467,0.563 -0.934,1.137 -1.533,1.868c-0.299,-0.587 -0.526,-1.054 -0.802,-1.605Z" style="fill:#0e1e25;fill-opacity:0.54;fill-rule:nonzero;"/><path d="M25.791,21.718l9.256,0c1.605,0 1.629,0 1.593,-1.604c-0.06,-2.515 -0.803,-4.742 -2.754,-6.442c-2.754,-2.383 -7.22,-2.682 -10.405,-0.707c-3.257,2.012 -4.886,5.987 -3.976,9.699c1.365,5.52 7.184,8.489 13.016,5.867c1.544,-0.694 2.766,-1.808 3.628,-3.353c-0.755,-0.347 -1.449,-0.67 -2.144,-0.981c-0.718,-0.336 -1.424,-0.659 -2.131,-0.982c-1.257,1.82 -2.898,2.418 -4.706,1.76c-1.46,-0.539 -2.346,-1.796 -2.203,-3.257l0.826,0Zm-0.886,-2.778c0.084,-1.102 0.467,-1.94 1.138,-2.514c0.67,-0.575 1.521,-0.863 2.538,-0.863c0.982,0 1.796,0.288 2.467,0.851c0.658,0.562 0.982,1.413 0.958,2.538l-7.101,0l0,-0.012Z" style="fill:#0e1e25;fill-opacity:0.54;fill-rule:nonzero;"/></g></svg>