<?xml version="1.0" encoding="UTF-8" standalone="no"?><!DOCTYPE svg PUBLIC "-//W3C//DTD SVG 1.1//EN" "http://www.w3.org/Graphics/SVG/1.1/DTD/svg11.dtd"><svg width="100%" height="100%" viewBox="0 0 250 100" version="1.1" xmlns="http://www.w3.org/2000/svg" xmlns:xlink="http://www.w3.org/1999/xlink" xml:space="preserve" xmlns:serif="http://www.serif.com/" style="fill-rule:evenodd;clip-rule:evenodd;stroke-linejoin:round;stroke-miterlimit:2;"><g><path d="M23.592,34.955l-8.152,8.152c-0.041,0.041 -0.105,0.041 -0.145,0l-8.153,-8.152c-0.04,-0.041 -0.104,-0.041 -0.145,0l-6.376,6.376c-0.04,0.04 -0.04,0.104 0,0.145l8.153,8.152c0.041,0.041 0.041,0.105 0,0.146l-8.745,8.744c-0.041,0.041 -0.041,0.105 0,0.146l6.376,6.375c0.04,0.041 0.104,0.041 0.145,0l8.745,-8.745c0.04,-0.04 0.104,-0.04 0.145,0l8.745,8.745c0.04,0.041 0.104,0.041 0.145,0l6.376,-6.375c0.04,-0.041 0.04,-0.105 0,-0.146l-8.745,-8.744c-0.041,-0.041 -0.041,-0.105 0,-0.146l8.152,-8.152c0.041,-0.041 0.041,-0.105 0,-0.145l-6.375,-6.376c-0.035,-0.041 -0.105,-0.041 -0.146,0Z" style="fill:#0e1e25;fill-opacity:0.55;fill-rule:nonzero;"/><g><path d="M44.276,51.051l4.262,0c0,1.254 0.447,2.207 1.347,2.863c0.767,0.563 1.794,0.842 3.083,0.842c1.011,0 1.853,-0.157 2.526,-0.476c0.918,-0.43 1.376,-1.104 1.376,-2.021c0,-1.138 -1.027,-2.004 -3.083,-2.578c-3.554,-1.011 -5.47,-1.591 -5.748,-1.742c-2.056,-0.993 -3.084,-2.549 -3.084,-4.686c0,-1.928 0.796,-3.449 2.387,-4.57c1.422,-0.993 3.124,-1.487 5.104,-1.487c2.299,0 4.157,0.494 5.58,1.487c1.626,1.138 2.439,2.793 2.439,4.965l-4.262,0c-0.111,-2.021 -1.429,-3.032 -3.955,-3.032c-0.807,0 -1.486,0.169 -2.049,0.506c-0.657,0.412 -0.982,0.998 -0.982,1.765c0,0.731 0.366,1.26 1.092,1.597c0.563,0.261 2.189,0.737 4.883,1.428c1.568,0.395 2.741,0.842 3.508,1.347c1.625,1.045 2.438,2.544 2.438,4.489c0,1.904 -0.708,3.443 -2.131,4.599c-1.498,1.213 -3.559,1.823 -6.195,1.823c-2.41,0 -4.396,-0.569 -5.946,-1.713c-1.748,-1.283 -2.608,-3.089 -2.59,-5.406Z" style="fill:#0e1e25;fill-opacity:0.55;fill-rule:nonzero;"/><path d="M68.368,38.851l0,4.349l2.915,0l0,2.666l-2.915,0l0,7.177c0,0.673 0.11,1.12 0.336,1.347c0.227,0.226 0.674,0.337 1.348,0.337c0.447,0 0.859,-0.035 1.236,-0.111l0,3.113c-0.563,0.093 -1.335,0.139 -2.328,0.139c-3.049,0 -4.57,-1.15 -4.57,-3.449l0,-8.559l-2.41,0l0,-2.665l2.41,0l0,-4.344l3.978,0Z" style="fill:#0e1e25;fill-opacity:0.55;fill-rule:nonzero;"/><path d="M77.008,47.654l-3.983,0c0.11,-1.719 0.871,-2.99 2.27,-3.815c1.161,-0.691 2.671,-1.039 4.541,-1.039c4.244,0 6.364,1.376 6.364,4.122l0,7.543c0,1.609 0.168,2.683 0.505,3.223l-4.041,0c-0.169,-0.523 -0.262,-0.993 -0.279,-1.399c-1.138,1.196 -2.77,1.794 -4.878,1.794c-1.457,0 -2.624,-0.354 -3.507,-1.069c-0.952,-0.766 -1.428,-1.858 -1.428,-3.28c0,-1.475 0.516,-2.578 1.544,-3.31c0.749,-0.505 1.882,-0.871 3.391,-1.092c2.149,-0.302 3.246,-0.458 3.281,-0.476c0.952,-0.244 1.429,-0.72 1.429,-1.428c0,-0.784 -0.262,-1.33 -0.784,-1.626c-0.378,-0.227 -0.97,-0.337 -1.795,-0.337c-1.62,0.006 -2.502,0.732 -2.63,2.189Zm5.214,4.436l0,-1.486c-0.319,0.279 -1.01,0.493 -2.073,0.644c-1.213,0.186 -2.02,0.366 -2.409,0.535c-0.784,0.354 -1.179,0.952 -1.179,1.794c0,1.237 0.813,1.852 2.439,1.852c2.148,-0.006 3.222,-1.115 3.222,-3.339Z" style="fill:#0e1e25;fill-opacity:0.55;fill-rule:nonzero;"/><path d="M89.289,57.7l0,-14.505l3.786,0l0,2.694l0.058,0c0.354,-0.9 0.97,-1.638 1.852,-2.218c0.877,-0.581 1.806,-0.871 2.776,-0.871c0.296,0 0.586,0.046 0.871,0.139l0,3.705c-0.412,-0.093 -0.888,-0.14 -1.428,-0.14c-2.619,0 -3.926,1.551 -3.926,4.657l0,6.533l-3.989,0l0,0.006Z" style="fill:#0e1e25;fill-opacity:0.55;fill-rule:nonzero;"/><path d="M105.252,38.851l0,4.349l2.914,0l0,2.666l-2.914,0l0,7.177c0,0.673 0.11,1.12 0.336,1.347c0.227,0.226 0.674,0.337 1.347,0.337c0.448,0 0.86,-0.035 1.237,-0.111l0,3.113c-0.563,0.093 -1.335,0.139 -2.328,0.139c-3.049,0 -4.57,-1.15 -4.57,-3.449l0,-8.559l-2.41,0l0,-2.665l2.41,0l0,-4.344l3.978,0Z" style="fill:#0e1e25;fill-opacity:0.55;fill-rule:nonzero;"/><path d="M123.676,43.195l0,14.499l-3.786,0l0,-2.021l-0.087,0c-0.993,1.609 -2.468,2.41 -4.43,2.41c-2.004,0 -3.415,-0.552 -4.234,-1.655c-0.708,-0.917 -1.068,-2.358 -1.068,-4.32l0,-8.913l3.983,0l0,8.187c0,2.375 0.848,3.559 2.555,3.559c1.086,0 1.87,-0.325 2.358,-0.981c0.488,-0.656 0.732,-1.713 0.732,-3.17l0,-7.595l3.977,0Z" style="fill:#0e1e25;fill-opacity:0.55;fill-rule:nonzero;"/><path d="M126.707,62.804l0,-19.609l3.786,0l0,1.852l0.058,0c0.918,-1.498 2.358,-2.241 4.32,-2.241c2.149,0 3.815,0.783 4.994,2.357c1.068,1.399 1.597,3.217 1.597,5.441c0,2.073 -0.534,3.803 -1.597,5.191c-1.161,1.533 -2.746,2.299 -4.767,2.299c-1.928,0 -3.374,-0.731 -4.349,-2.189l-0.058,0l0,6.899l-3.984,0Zm7.317,-7.717c2.299,0 3.449,-1.533 3.449,-4.599c0,-1.307 -0.262,-2.375 -0.784,-3.2c-0.616,-0.993 -1.516,-1.486 -2.694,-1.486c-1.214,0 -2.114,0.488 -2.695,1.457c-0.505,0.825 -0.755,1.899 -0.755,3.223c0,1.306 0.262,2.363 0.784,3.17c0.604,0.958 1.498,1.435 2.695,1.435Z" style="fill:#0e1e25;fill-opacity:0.55;fill-rule:nonzero;"/><rect x="152.059" y="37.672" width="4.401" height="20.027" style="fill:#0e1e25;fill-opacity:0.55;fill-rule:nonzero;"/><path d="M160.334,57.7l0,-20.028l4.395,0l8.397,13.437l0,-13.437l4.122,0l0,20.028l-4.424,0l-8.368,-13.408l0,13.408l-4.122,0Z" style="fill:#0e1e25;fill-opacity:0.55;fill-rule:nonzero;"/><path d="M197.072,37.672l-6.648,20.028l-4.965,0l-6.504,-20.028l4.541,0l4.46,14.082l0.058,0l4.517,-14.082l4.541,0Z" style="fill:#0e1e25;fill-opacity:0.55;fill-rule:nonzero;"/><path d="M198.785,57.7l0,-20.028l14.976,0l0,3.705l-10.574,0l0,4.291l9.703,0l0,3.42l-9.703,0l0,4.907l10.8,0l0,3.705l-15.202,0Z" style="fill:#0e1e25;fill-opacity:0.55;fill-rule:nonzero;"/><path d="M215.7,51.051l4.262,0c0,1.254 0.447,2.207 1.347,2.863c0.767,0.563 1.795,0.842 3.084,0.842c1.01,0 1.852,-0.157 2.526,-0.476c0.917,-0.43 1.376,-1.104 1.376,-2.021c0,-1.138 -1.028,-2.004 -3.084,-2.578c-3.553,-1.011 -5.47,-1.591 -5.748,-1.742c-2.056,-0.993 -3.084,-2.549 -3.084,-4.686c0,-1.928 0.796,-3.449 2.387,-4.57c1.423,-0.993 3.124,-1.487 5.104,-1.487c2.299,0 4.158,0.494 5.58,1.487c1.626,1.138 2.439,2.793 2.439,4.965l-4.262,0c-0.11,-2.021 -1.429,-3.032 -3.954,-3.032c-0.808,0 -1.487,0.169 -2.05,0.506c-0.656,0.412 -0.981,0.998 -0.981,1.765c0,0.731 0.365,1.26 1.091,1.597c0.563,0.261 2.189,0.737 4.878,1.428c1.568,0.395 2.741,0.842 3.507,1.347c1.626,1.045 2.439,2.544 2.439,4.489c0,1.904 -0.709,3.443 -2.131,4.599c-1.498,1.213 -3.56,1.823 -6.196,1.823c-2.41,0 -4.396,-0.569 -5.946,-1.713c-1.748,-1.283 -2.607,-3.089 -2.584,-5.406Z" style="fill:#0e1e25;fill-opacity:0.55;fill-rule:nonzero;"/><path d="M239.594,57.7l0,-16.323l-6.004,0l0,-3.705l16.41,0l0,3.705l-6.004,0l0,16.323l-4.402,0Z" style="fill:#0e1e25;fill-opacity:0.55;fill-rule:nonzero;"/></g></g></svg>