<?xml version="1.0" encoding="UTF-8" standalone="no"?><!DOCTYPE svg PUBLIC "-//W3C//DTD SVG 1.1//EN" "http://www.w3.org/Graphics/SVG/1.1/DTD/svg11.dtd"><svg width="100%" height="100%" viewBox="0 0 250 100" version="1.1" xmlns="http://www.w3.org/2000/svg" xmlns:xlink="http://www.w3.org/1999/xlink" xml:space="preserve" xmlns:serif="http://www.serif.com/" style="fill-rule:evenodd;clip-rule:evenodd;stroke-linejoin:round;stroke-miterlimit:2;"><g><rect x="233.43" y="27.62" width="6.019" height="34.553" style="fill:#0e1e25;fill-opacity:0.54;fill-rule:nonzero;"/><path d="M11.685,62.132c-4.927,0.526 -4.976,0.534 -6.241,-3.925c-1.831,-6.47 -3.588,-12.965 -5.444,-19.666l5.575,0c1.273,5.715 2.546,11.389 3.95,17.679c1.667,-6.241 3.153,-11.832 4.705,-17.63l4.795,0c1.437,5.576 2.915,11.299 4.566,17.688c1.462,-6.323 2.751,-11.931 4.089,-17.72l5.001,0c-2.25,7.989 -4.467,15.831 -6.692,23.714l-5.017,0c-1.52,-5.543 -3.03,-11.053 -4.615,-16.809c-1.61,5.74 -3.153,11.233 -4.672,16.669Z" style="fill:#0e1e25;fill-opacity:0.54;fill-rule:nonzero;"/><path d="M82.063,71.091c0.854,-1.717 1.388,-2.776 1.905,-3.819c8.524,2.365 11.094,1.207 11.061,-4.861c-0.173,-0.115 -0.378,-0.345 -0.526,-0.312c-4.581,1.101 -8.662,0.592 -11.463,-3.687c-2.939,-4.491 -2.832,-11.898 0.378,-16.053c3.162,-4.089 7.464,-5.271 12.457,-4.163c4.746,1.06 4.713,1.06 4.68,5.953c-0.041,6.003 0.066,12.005 -0.041,18.008c-0.131,7.209 -3.613,10.51 -10.822,10.198c-2.415,-0.098 -4.779,-0.772 -7.629,-1.264Zm12.843,-29.134c-5.297,-1.125 -7.702,0.616 -8.023,5.764c-0.098,1.659 -0.115,3.334 -0.049,4.993c0.23,5.477 2.439,7.144 8.072,6.002l0,-16.759Z" style="fill:#0e1e25;fill-opacity:0.54;fill-rule:nonzero;"/><path d="M63.572,62.222l-5.371,0c0,-7.135 -0.032,-14.106 0.058,-21.086c0.008,-0.673 0.706,-1.774 1.289,-1.938c4.056,-1.158 8.137,-2.176 12.383,-0.723c3.317,1.134 5.197,3.236 5.189,6.849c-0.016,5.55 -0.008,11.093 -0.008,16.841l-5.51,0c0,-5.255 0.017,-10.445 -0.008,-15.642c-0.016,-4.254 -2.365,-6.069 -6.462,-4.738c-0.731,0.238 -1.478,1.749 -1.495,2.685c-0.139,5.871 -0.065,11.734 -0.065,17.752Z" style="fill:#0e1e25;fill-opacity:0.54;fill-rule:nonzero;"/><path d="M152.762,49.06c-3.843,-3.342 -4.393,-5.551 -2.291,-8.376c2.455,-3.292 7.916,-3.818 12.03,-1.108c-0.411,1.946 -0.969,3.243 -3.547,2.266c-1.881,-0.714 -4.081,-0.222 -4.385,2.16c-0.32,2.504 1.683,3.145 3.769,3.021c1.642,-0.098 3.301,-0.353 4.885,-0.796c1.462,-0.411 2.825,-1.158 4.361,-1.815c0.55,1.084 1.026,2.045 1.765,3.49c-4.664,0 -4.262,3.071 -4.073,6.019c0.033,0.558 0,1.117 0,1.667c-0.008,6.7 -0.156,6.889 -6.946,7.078c-1.651,0.049 -3.367,-0.099 -4.96,-0.509c-2.874,-0.739 -5.001,-2.529 -5.444,-5.609c-0.517,-3.555 1.519,-5.797 4.836,-7.488Zm7.62,1.322c-4.976,0.304 -7.513,2.241 -7.242,5.321c0.255,2.816 2.414,3.76 7.242,3.063l0,-8.384Z" style="fill:#0e1e25;fill-opacity:0.54;fill-rule:nonzero;"/><path d="M229.406,50.267c-5.009,0.788 -9.706,1.519 -14.402,2.258c0.911,6.421 3.736,7.661 12.415,5.304c0.435,1.019 0.895,2.078 1.347,3.129c-7.243,3.514 -14.107,2.299 -17.375,-2.931c-3.934,-6.299 -1.84,-16.333 3.99,-19.092c6.783,-3.21 13.631,0.863 14.025,8.343c0.033,0.879 0,1.757 0,2.989Zm-4.565,-2.307c-0.994,-2.16 -1.437,-4.467 -2.833,-5.707c-0.928,-0.821 -3.523,-0.657 -4.82,0.057c-2.644,1.445 -2.718,4.262 -2.447,7.144c3.145,-0.46 6.15,-0.911 10.1,-1.494Z" style="fill:#0e1e25;fill-opacity:0.54;fill-rule:nonzero;"/><path d="M124.36,50.25c-4.911,0.764 -9.599,1.503 -14.288,2.234c0.443,6.273 3.818,7.784 12.235,5.304c0.427,1.019 0.87,2.07 1.297,3.096c-6.027,3.235 -12.998,2.529 -16.431,-1.535c-3.514,-4.155 -3.719,-13.106 -0.402,-17.63c2.168,-2.956 6.684,-4.451 10.428,-3.449c4.27,1.142 6.701,4.024 7.144,8.556c0.099,0.986 0.017,1.987 0.017,3.424Zm-14.781,-0.771c3.137,-0.46 6.233,-0.92 9.32,-1.38c0.353,-4.442 -0.887,-6.438 -4.023,-6.577c-3.613,-0.164 -5.247,2.233 -5.297,7.957Z" style="fill:#0e1e25;fill-opacity:0.54;fill-rule:nonzero;"/><path d="M54.17,50.152c-5.067,0.805 -9.846,1.568 -14.625,2.332c-0.139,5.994 3.121,7.439 12.268,5.354c0.345,0.993 0.698,2.003 1.141,3.243c-4.606,2.25 -9.204,2.866 -13.663,0.394c-4.073,-2.25 -5.428,-6.191 -5.428,-10.724c0,-7.029 2.299,-10.847 7.637,-12.456c5.107,-1.536 10.009,0.985 11.545,6.06c0.542,1.773 0.722,3.646 1.125,5.797Zm-5.666,-2.127c-0.189,-4.951 -1.815,-6.897 -5.214,-6.462c-3.235,0.41 -4.952,3.736 -4.098,7.957c3.022,-0.493 6.052,-0.977 9.312,-1.495Z" style="fill:#0e1e25;fill-opacity:0.54;fill-rule:nonzero;"/><path d="M176.214,38.492l5.969,0c1.552,5.805 3.088,11.537 4.738,17.671c1.314,-4.738 2.792,-9.016 3.621,-13.426c0.69,-3.67 2.209,-5.321 6.413,-4.056c-2.521,7.817 -5.058,15.708 -7.562,23.5c-5.28,0.419 -5.272,0.419 -6.734,-4.064c-2.126,-6.503 -4.269,-12.999 -6.445,-19.625Z" style="fill:#0e1e25;fill-opacity:0.54;fill-rule:nonzero;"/><path d="M140.133,37.301c-0.501,2.143 -0.813,3.465 -1.125,4.787c-4.877,-0.985 -5.173,-0.689 -5.115,3.893c0.074,5.312 0.016,10.625 0.016,16.151l-5.485,0c0,-7.094 -0.033,-14.263 0.058,-21.431c0.008,-0.542 0.804,-1.421 1.363,-1.544c3.202,-0.673 6.429,-1.182 10.288,-1.856Z" style="fill:#0e1e25;fill-opacity:0.54;fill-rule:nonzero;"/><rect x="244.425" y="38.541" width="5.526" height="23.657" style="fill:#0e1e25;fill-opacity:0.54;fill-rule:nonzero;"/><rect x="200.182" y="38.623" width="4.984" height="23.632" style="fill:#0e1e25;fill-opacity:0.54;fill-rule:nonzero;"/><circle cx="202.785" cy="33.294" r="2.874" style="fill:#0e1e25;fill-opacity:0.54;"/><circle cx="247.126" cy="33.294" r="2.874" style="fill:#0e1e25;fill-opacity:0.54;"/></g></svg>