<?xml version="1.0" encoding="UTF-8" standalone="no"?>
<!DOCTYPE svg PUBLIC "-//W3C//DTD SVG 1.1//EN" "http://www.w3.org/Graphics/SVG/1.1/DTD/svg11.dtd">
<svg width="100%" height="100%" viewBox="0 0 250 100" version="1.1" xmlns="http://www.w3.org/2000/svg" xmlns:xlink="http://www.w3.org/1999/xlink" xml:space="preserve" xmlns:serif="http://www.serif.com/" style="fill-rule:evenodd;clip-rule:evenodd;stroke-linejoin:round;stroke-miterlimit:2;">
    <g>
        <g transform="matrix(0.822956,0,0,0.822956,19.6845,9.3335)">
            <path d="M139.906,26.786C142.771,27.972 143.678,30.16 143.479,33.16C143.288,36.017 143.439,38.898 143.439,41.588C146.225,40.593 148.93,39.089 151.779,38.731C160.016,37.681 164.688,41.763 164.895,50.032C165.078,57.425 164.934,64.826 164.934,72.49C163.47,72.49 162.308,72.506 161.146,72.49C156.92,72.426 155.464,70.962 155.448,66.728C155.424,61.969 155.488,57.218 155.432,52.459C155.377,48.042 152.886,46.387 148.755,48.034C144.943,49.554 143.543,52.698 143.479,56.518C143.384,61.738 143.455,66.967 143.455,72.331L133.889,72.331L133.889,35.771C132.521,35.643 131.383,35.54 129.807,35.397L129.807,26.786L139.906,26.786Z" style="fill:rgb(14,30,37);fill-opacity:0.21;fill-rule:nonzero;"/>
        </g>
        <g transform="matrix(0.822956,0,0,0.822956,19.6845,9.3335)">
            <path d="M250,67.842C244.453,72.259 238.293,74.153 231.219,72.53C224.82,71.057 219.91,65.821 218.66,59.001C217.395,52.109 220.3,44.724 225.656,41.23C231.115,37.673 238.787,37.657 243.872,41.047C247.541,43.49 248.774,47.31 250.008,51.178L250.008,57.727C248.846,57.879 247.692,58.149 246.53,58.157C240.617,58.205 234.696,58.181 228.72,58.181C229.476,61.468 230.558,62.948 233.144,63.895C237.935,65.662 241.946,63.815 245.591,60.815C247.143,63.075 248.575,65.16 250.008,67.245C250,67.452 250,67.651 250,67.842ZM228.974,50.501L239.901,50.501C239.296,47.963 237.888,46.586 235.596,46.403C232.683,46.188 230.502,47.437 228.974,50.501Z" style="fill:rgb(14,30,37);fill-opacity:0.21;fill-rule:nonzero;"/>
        </g>
        <g transform="matrix(0.822956,0,0,0.822956,19.6845,9.3335)">
            <path d="M179.777,26.786C179.928,29.714 180.071,32.643 180.23,35.834L171.444,35.834L171.444,26.786L179.777,26.786Z" style="fill:rgb(14,30,37);fill-opacity:0.21;fill-rule:nonzero;"/>
        </g>
        <g id="XMLID_1_" transform="matrix(0.822956,0,0,0.822956,19.6845,9.3335)">
            <path d="M48.306,39.686C49.381,39.662 50.455,39.686 51.689,39.686C51.689,41.628 51.331,45.114 51.156,45.01C50.272,46.284 49.039,47.453 48.537,48.87C46.15,55.77 43.874,62.717 41.733,69.697C41.351,70.93 41.319,71.654 40.659,72.06C40.117,72.387 39.178,72.498 37.332,72.498C35.677,72.498 33.393,72.506 33.194,72.498C31.706,72.379 28.387,58.189 25.976,50.724C23.827,57.377 21.646,63.648 19.848,70.023C19.219,72.219 18.248,72.904 16.187,72.617C15.598,72.538 14.977,72.522 14.396,72.617C11.866,73.063 10.847,71.901 10.123,69.506C7.99,62.391 5.611,55.348 3.199,48.321C2.809,47.207 1.759,46.307 1.019,45.313C0.74,45.456 0.183,42.034 0.183,39.941C2.443,39.941 4.751,39.583 6.852,40.084C7.942,40.339 9.112,41.962 9.51,43.204C11.46,49.228 13.163,55.332 14.954,61.404C15.049,61.746 15.256,62.049 15.638,62.829C17.874,55.626 20.15,48.95 21.949,42.153C22.625,39.575 24.113,39.837 25.872,39.877C27.663,39.917 29.358,39.376 30.066,42.209C31.666,48.536 33.822,54.719 35.764,60.958C35.931,61.492 36.25,61.977 36.624,62.749C38.422,56.478 40.117,50.517 41.844,44.572C43.094,40.331 43.818,39.798 48.306,39.686Z" style="fill:rgb(14,30,37);fill-opacity:0.53;fill-rule:nonzero;"/>
        </g>
        <g transform="matrix(0.822956,0,0,0.822956,19.6845,9.3335)">
            <path d="M201.049,59.574C202.728,54.847 204.383,50.215 206.031,45.583C208.179,39.543 208.585,39.256 214.96,39.28L217.514,39.28L217.514,46.077C216.066,48.154 214.761,49.475 214.124,51.058C211.538,57.457 209.095,63.911 206.739,70.397C206.174,71.949 205.482,72.506 203.794,72.522C195.486,72.593 195.486,72.649 192.542,64.874C190.87,60.449 189.295,55.985 187.504,51.608C186.859,50.032 186.987,47.684 184.36,47.477C184.169,47.461 183.939,46.49 183.923,45.957C183.875,43.888 183.899,41.811 183.899,39.392C186.366,39.392 188.849,38.882 190.966,39.559C192.542,40.06 194.157,41.867 194.834,43.482C196.966,48.56 198.661,53.828 200.54,59.017C200.603,59.16 200.786,59.287 201.049,59.574Z" style="fill:rgb(14,30,37);fill-opacity:0.21;fill-rule:nonzero;"/>
        </g>
        <g transform="matrix(0.822956,0,0,0.822956,19.6845,9.3335)">
            <path d="M82.185,57.337L59.154,57.337C60.554,67.126 68.377,69.434 78.818,63.067C79.797,64.707 80.776,66.354 81.723,67.93C77.394,73.127 67.844,74.758 61.231,71.63C54.657,68.519 51.132,62.112 51.713,54.6C52.453,44.986 58.047,39.726 66.618,38.851C74.441,38.047 80.959,42.655 82.161,52.181C82.36,53.812 82.185,55.499 82.185,57.337ZM74.409,51.695C74.282,47.422 71.847,44.867 67.947,44.819C63.761,44.771 60.268,47.724 59.87,51.695L74.409,51.695Z" style="fill:rgb(14,30,37);fill-opacity:0.53;fill-rule:nonzero;"/>
        </g>
        <g transform="matrix(0.822956,0,0,0.822956,19.6845,9.3335)">
            <path d="M86.872,62.884C90.151,64.373 92.896,65.749 95.746,66.848C96.645,67.19 98.507,67.102 99.398,66.704C100.513,66.203 100.847,64.993 101.054,64.221C101.308,63.258 101.054,61.738 99.621,60.887C97.465,59.598 94.83,59.072 92.729,57.719C90.159,56.064 87.262,54.297 85.718,51.822C82.981,47.437 85.607,41.835 90.612,39.957C94.393,38.54 98.26,38.357 102.152,39.471C107.054,40.872 108.741,43.713 107.866,49.236L101.547,49.236C100.91,45.456 96.764,43.737 93.477,45.766C91.758,46.825 91.52,48.926 93.294,50.151C95.029,51.353 97.122,52.021 99.024,52.992C101.269,54.138 103.568,55.205 105.685,56.566C111.224,60.131 109.848,68.877 104.181,71.67C98.626,74.408 89.992,73.294 85.408,69.06C83.84,67.612 85.28,64.985 85.28,64.985C85.28,64.985 86.586,63.274 86.872,62.884Z" style="fill:rgb(14,30,37);fill-opacity:0.53;fill-rule:nonzero;"/>
        </g>
        <g transform="matrix(0.822956,0,0,0.822956,19.6845,9.3335)">
            <path d="M129.091,39.487L129.091,45.75L121.976,45.75C121.976,49.92 122,53.764 121.968,57.6C121.92,64.969 122.39,65.527 129.624,66.283L129.624,72.315C119.827,73.676 114.312,68.964 114.304,59.351L114.304,45.941C112.84,45.862 111.686,45.806 110.341,45.734L110.341,39.877L114.256,39.877L114.256,31.107L121.753,31.107L121.753,39.479C124.141,39.487 126.472,39.487 129.091,39.487Z" style="fill:rgb(14,30,37);fill-opacity:0.53;fill-rule:nonzero;"/>
        </g>
        <g transform="matrix(0.822956,0,0,0.822956,19.6845,9.3335)">
            <path d="M171.007,47.804C169.542,47.684 168.579,47.605 167.481,47.517L167.481,39.344C170.752,39.344 173.903,39.145 177.023,39.4C180.047,39.646 180.684,42.082 180.716,44.596C180.787,49.833 180.732,55.077 180.732,60.314L180.732,72.458C179.275,72.458 178.129,72.466 176.975,72.458C172.582,72.426 171.054,70.962 171.022,66.625C170.983,61.388 171.015,56.144 171.015,50.907C171.007,49.944 171.007,48.981 171.007,47.804Z" style="fill:rgb(14,30,37);fill-opacity:0.21;fill-rule:nonzero;"/>
        </g>
    </g>
</svg>
