<?xml version="1.0" encoding="UTF-8"?>
<svg width="79px" height="98px" viewBox="0 0 79 98" version="1.1" xmlns="http://www.w3.org/2000/svg" xmlns:xlink="http://www.w3.org/1999/xlink">
   
    <g id="Page-1" stroke="none" stroke-width="1" fill="none" fill-rule="evenodd">
        <g id="About-us" transform="translate(-571.000000, -2673.000000)">
            <g id="Group-13" transform="translate(571.000000, 2673.000000)">
                <g id="Group-6">
                    <path d="M39.503876,10 C54.4055742,10 66.503876,22.0981139 66.503876,37 C66.503876,51.901694 54.4055742,64 39.503876,64 C24.6021969,64 12.503876,51.901694 12.503876,37 C12.503876,22.0981139 24.6021969,10 39.503876,10 Z M39.5038856,13.4421637 C52.5057742,13.4421637 63.0615213,23.9981068 63.0615213,37 C63.0615213,50.0017011 52.5057742,60.5576441 39.5038856,60.5576441 C26.501997,60.5576441 15.9462114,50.0017011 15.9462114,37 C15.9462114,23.9981068 26.501997,13.4421637 39.5038856,13.4421637 Z" id="Fill-1" fill="#797979"></path>
                    <path d="M39.503876,10 C54.4055742,10 66.503876,22.0981139 66.503876,37 C66.503876,51.901694 54.4055742,64 39.503876,64 C24.6021969,64 12.503876,51.901694 12.503876,37 C12.503876,22.0981139 24.6021969,10 39.503876,10 Z M39.5038856,13.4421637 C52.5057742,13.4421637 63.0615213,23.9981068 63.0615213,37 C63.0615213,50.0017011 52.5057742,60.5576441 39.5038856,60.5576441 C26.501997,60.5576441 15.9462114,50.0017011 15.9462114,37 C15.9462114,23.9981068 26.501997,13.4421637 39.5038856,13.4421637 Z" id="Stroke-2"></path>
                    <path d="M78.1415971,82.1322615 L65.3049766,61.9020002 C66.7499275,61.6003445 68.0527771,60.7780649 68.9500297,59.5810125 C69.9844443,58.2009762 70.3970704,56.4342999 70.0819016,54.7344243 C69.8151765,53.295435 70.537272,51.8344339 71.8378418,51.1815485 C73.3741708,50.4105656 74.5246603,49.0142597 74.9944688,47.3509427 C75.4640874,45.6876256 75.2155999,43.890133 74.3122681,42.4195617 C73.5476181,41.1748493 73.6971286,39.5498134 74.6756906,38.467796 C75.8316893,37.1895875 76.4040844,35.4688487 76.2456451,33.7469614 C76.0872059,32.0248828 75.2110405,30.4394679 73.8413197,29.3968801 C72.6819014,28.514499 72.2386894,26.9447794 72.7634007,25.5794813 C73.3830997,23.9666954 73.2997006,22.1540817 72.5346707,20.6057996 C71.7696408,19.0577089 70.3839621,17.8983635 68.7330781,17.4246339 C67.3356209,17.0236386 66.3593386,15.721313 66.3591487,14.2574409 C66.3587687,12.5280888 65.6309739,10.8680256 64.3625099,9.70293808 C63.0940459,8.53785051 61.3859793,7.96114461 59.6771529,8.12020289 C58.2299223,8.25533544 56.8531724,7.39573165 56.3278911,6.03081635 C55.7074323,4.41822184 54.4336489,3.13522825 52.8331084,2.51047947 C51.2325678,1.8859221 49.4333132,1.96937506 47.8967942,2.73997512 C46.5960344,3.39209494 45.0034728,3.09235334 44.0245308,2.01071873 C42.8681521,0.7328931 41.2203077,0 39.503876,0 C37.7874569,0 36.1398025,0.7328931 34.9830438,2.01052732 C34.0041019,3.09197052 32.4113503,3.39209494 31.1107804,2.73978371 C29.5740715,1.96918365 27.7750069,1.88573069 26.1744663,2.51028807 C24.5739257,3.13503685 23.3001423,4.41803043 22.6796835,6.03062494 C22.1545922,7.39554024 20.7755627,8.25476122 19.3305737,8.12001148 C17.6209874,7.9607618 15.9136808,8.5374677 14.6452167,9.70274667 C13.3767527,10.8678342 12.6489579,12.5278974 12.648578,14.2572495 C12.648388,15.7211216 11.6721057,17.0236386 10.2746486,17.4244425 C8.62376456,17.8979807 7.23808585,19.0575175 6.47305595,20.6056082 C5.70802604,22.1536989 5.62462695,23.966504 6.24432587,25.5792899 C6.76884725,26.9443966 6.32563523,28.5143076 5.1664069,29.3966887 C3.79687609,30.4392765 2.92052075,32.0246914 2.76208148,33.74677 C2.60383218,35.4686573 3.17603732,37.1893961 4.33203607,38.4676046 C5.31059804,39.549622 5.46010848,41.1746579 4.69545852,42.4195617 C3.79212671,43.890133 3.54363922,45.6876256 4.01325778,47.3509427 C4.48306631,49.0142597 5.63355578,50.4105656 7.16988478,51.1815485 C8.47045461,51.8344339 9.19255014,53.295435 8.92582503,54.7344243 C8.61065627,56.4344913 9.02328228,58.2009762 10.0576969,59.5810125 C10.9549496,60.7778735 12.2577991,61.6003445 13.70275,61.9020002 L0.866129537,82.1322615 C0.393661353,82.8770217 0.382642795,83.8091683 0.837253315,84.5650301 C1.29186384,85.320892 2.11882564,85.7419849 2.99100153,85.6648483 L15.5194823,84.55412 L19.7774332,96.4773663 C20.0745544,97.3090248 20.8004494,97.8868791 21.6722453,97.9852617 C21.7594439,97.9950234 21.8462626,98 21.9325113,98 C22.7074199,98 23.4262858,97.6078094 23.8514502,96.9378888 L39.503876,72.2698823 L55.1561244,96.937506 C55.5812888,97.607618 56.2999648,98 57.0750634,98 C57.1613121,98 57.2483207,97.994832 57.3355193,97.9848789 C58.2073152,97.8863049 58.9332102,97.308642 59.2303314,96.476792 L63.4884343,84.5535458 L76.0167251,85.6642741 C76.8908007,85.7414107 77.7160528,85.3203177 78.1706633,84.5646473 C78.6250838,83.8089769 78.6140653,82.8768303 78.1415971,82.1322615 Z M3.88559448,82.7034166 L16.400777,62.9796153 C16.8460788,63.4357355 17.1637172,64.0206718 17.2858712,64.6779596 C17.5159311,65.9167384 18.120432,67.0466073 18.9956475,67.9215236 L10.0829636,82.1538903 L3.88559448,82.7034166 Z M18.59442,84.6848502 L18.0531808,83.1691071 C17.7022968,82.1866207 16.7362731,81.5634032 15.7033783,81.6556608 L13.6501269,81.8376878 L21.4317368,69.4114269 C22.5710177,69.7787348 23.8050963,69.8082113 24.9734434,69.4734424 C25.9594144,69.1909274 27.0004782,69.4030051 27.7974239,69.9885156 L18.59442,84.6848502 Z M22.0696733,94.4161164 L19.8180879,88.1110154 L29.7564476,72.2405972 C30.5853092,72.991291 31.6100351,73.510958 32.7236694,73.7207388 C33.5639295,73.8788401 34.4207174,73.8551058 35.2381804,73.6629343 L22.0696733,94.4161164 Z M40.3916362,69.1191502 C40.3004481,69.0988611 40.2073603,69.087951 40.1138925,69.0858455 C39.910999,69.0655565 39.7077256,69.0517753 39.5038823,69.0517753 C39.300229,69.0517753 39.0971455,69.0655565 38.8942521,69.0858455 C38.8002144,69.0877596 38.7069366,69.0988611 38.6153686,69.1191502 C37.6206587,69.2646186 36.6546351,69.6531726 35.8174146,70.2899799 C35.0748018,70.8546272 34.1617813,71.0705331 33.2470509,70.8986506 C32.3323206,70.7263853 31.5587418,70.1925543 31.068606,69.3953488 C30.9648795,69.2267203 30.8518443,69.0663221 30.7340597,68.9107092 C30.7160121,68.8869748 30.6977745,68.8634319 30.6780171,68.840846 C29.1622054,66.8980764 26.5907018,66.025457 24.1937854,66.7120299 C23.2988125,66.9685137 22.370024,66.8379749 21.5787776,66.3443392 C20.7875311,65.8507034 20.2575004,65.0712987 20.0863328,64.1496794 C19.7213906,62.1848981 18.4280018,60.5619677 16.7047373,59.727438 C16.6165888,59.675567 16.5254007,59.6342234 16.431933,59.6032156 C15.8692266,59.3641497 15.2670054,59.2041344 14.6378077,59.1453728 C13.7112989,59.0586659 12.8921261,58.598909 12.3313195,57.8507034 C11.7705128,57.1024978 11.555651,56.1827926 11.7266286,55.2609819 C12.2256933,52.5677098 10.8744001,49.8334769 8.44024857,48.6117332 C7.60739753,48.1937027 7.0084059,47.4667432 6.75364923,46.5650301 C6.49908254,45.6631257 6.62845561,44.7273423 7.11821154,43.9301369 C8.54948427,41.6005359 8.26965089,38.5589052 6.43791054,36.5336396 C5.81099257,35.8407503 5.51330152,34.9447794 5.59898031,34.0112929 C5.68484907,33.0776151 6.14097939,32.2522729 6.88359223,31.6870514 C9.05329836,30.0354101 9.88310979,27.0975213 8.90112827,24.5424443 C8.56506224,23.6681022 8.60856654,22.7244712 9.02347226,21.8851565 C9.438188,21.0458417 10.1595236,20.4421476 11.0546865,20.1854723 C13.6700743,19.4349699 15.4970653,16.997416 15.4976352,14.2576323 C15.4978252,13.3199349 15.8766356,12.4559288 16.5643456,11.824098 C17.2520557,11.1924586 18.1411393,10.89176 19.0678381,10.9784668 C21.7767317,11.231314 24.3531746,9.62273902 25.336106,7.06804479 C25.672552,6.19389415 26.3357552,5.52569624 27.2035616,5.18709924 C28.0711781,4.84850225 29.0081355,4.89195138 29.8409866,5.30979041 C32.275708,6.53038568 35.2556581,5.96918365 37.0881584,3.94487511 C37.7152663,3.25217724 38.5730041,2.87070533 39.5036923,2.87070533 C40.4343806,2.87070533 41.2921183,3.25217724 41.9192263,3.94487511 C43.7515366,5.96918365 46.7318666,6.53038568 49.1663981,5.30979041 C49.9994391,4.89214279 50.9360166,4.84850225 51.803823,5.18709924 C52.6716295,5.52569624 53.3348327,6.19389415 53.6710887,7.06804479 C54.6540201,9.62254761 57.2300831,11.2309312 59.9395086,10.9784668 C60.8656374,10.89176 61.7549111,11.1924586 62.4428111,11.824098 C63.1305211,12.4559288 63.5093315,13.3199349 63.5095215,14.2576323 C63.5099014,16.997416 65.3368924,19.4349699 67.9524702,20.1854723 C68.8474431,20.4421476 69.5687787,21.0458417 69.9834945,21.8851565 C70.3984002,22.7244712 70.4417145,23.6681022 70.1056485,24.5424443 C69.123667,27.0975213 69.9534784,30.0354101 72.1231845,31.6870514 C72.8657974,32.2522729 73.3219277,33.0776151 73.4077964,34.0112929 C73.4936652,34.9449708 73.1957842,35.8407503 72.5688662,36.5336396 C70.7371259,38.5589052 70.4574824,41.6003445 71.8885652,43.9299454 C72.3783211,44.7273423 72.5076942,45.6629343 72.2529375,46.5648387 C71.9983708,47.4667432 71.3993792,48.1935113 70.5663382,48.6115418 C68.1323767,49.8332855 66.7810835,52.5677098 67.2801482,55.2607905 C67.4509358,56.1826012 67.2362639,57.102115 66.6754573,57.850512 C66.1146506,58.5987176 65.2954778,59.0584745 64.3687791,59.1451814 C63.7390115,59.2041344 63.1364103,59.3643411 62.573134,59.6037898 C62.4804261,59.6346062 62.389808,59.6757584 62.3024194,59.7270552 C60.5789649,60.5613934 59.2852342,62.1845153 58.9202919,64.149488 C58.7491243,65.0711073 58.2190937,65.850512 57.4278472,66.3441478 C56.6366007,66.8377835 55.7076223,66.9681309 54.8128393,66.7120299 C52.415353,66.0250742 49.8434695,66.8982678 48.3278478,68.841803 C48.3088503,68.8636233 48.2913726,68.8864006 48.2738949,68.9091779 C48.1557303,69.0651737 48.0423152,69.2259546 47.9382088,69.3951574 C47.4482629,70.1923629 46.6744941,70.7261939 45.7597638,70.8984592 C44.8454134,71.0703417 43.9322029,70.8546272 43.1894001,70.2897885 C42.3525596,69.6529811 41.386726,69.2646186 40.3916362,69.1191502 Z M56.9380913,94.4161164 L43.7680644,73.6602546 C44.2247646,73.7678247 44.6930534,73.825055 45.1643817,73.825055 C45.5374929,73.825055 45.9125038,73.790602 46.2840952,73.7207388 C47.3977295,73.510958 48.4222655,72.9914824 49.251127,72.2407886 L59.1896767,88.1115896 L56.9380913,94.4161164 Z M63.3043483,81.6556608 C62.2705036,81.5639774 61.3054299,82.1864293 60.9545458,83.1692985 L60.4131166,84.6856158 L51.2099607,69.9890899 C52.0070964,69.4033879 53.0481602,69.1911188 54.0345112,69.4738252 C55.2024784,69.8084027 56.4365569,69.7789262 57.5758378,69.4118097 L65.3570298,81.8376878 L63.3043483,81.6556608 Z M68.9241931,82.1538903 L60.0118891,67.9219064 C60.8872946,67.0469901 61.4917955,65.9169298 61.7220454,64.6779596 C61.8441994,64.0206718 62.1616478,63.4357355 62.6069496,62.9798067 L75.1221321,82.7034166 L68.9241931,82.1538903 Z" id="Fill-3" fill="#797979"></path>
                </g>
                <path d="M38.4444444,51 L46.2222222,51 L46.2222222,43.2222222 L54,43.2222222 L54,30.7777778 L46.2222222,30.7777778 L46.2222222,23 L41.5555556,23 L38.4444444,23 L33.7777778,23 L33.7777778,30.7777778 L26,30.7777778 L26,43.2222222 L33.7777778,43.2222222 L33.7777778,51 L38.4444444,51 Z M29,40.1428571 L29,33.8571429 L36.8571429,33.8571429 L36.8571429,26 L43.1428571,26 L43.1428571,33.8571429 L51,33.8571429 L51,40.1428571 L43.1428571,40.1428571 L43.1428571,48 L36.8571429,48 L36.8571429,40.1428571 L29,40.1428571 Z" id="Fill-1" fill="#797979"></path>
            </g>
        </g>
    </g>
</svg>