<?xml version="1.0" encoding="UTF-8"?>
<svg width="94px" height="94px" viewBox="0 0 94 94" version="1.1" xmlns="http://www.w3.org/2000/svg" xmlns:xlink="http://www.w3.org/1999/xlink">
    
    <g id="Page-1" stroke="none" stroke-width="1" fill="none" fill-rule="evenodd">
        <g id="About-us" transform="translate(-323.000000, -2675.000000)" fill="#DB8E53">
            <path d="M405.534836,2745.06036 C403.797862,2740.38153 399.665509,2736.94652 394.710858,2735.8005 L387.244341,2711.66679 C385.594478,2706.33206 380.630306,2702.4799 374.862069,2701.86295 L374.862069,2695.20399 L400.365039,2686.61627 L371.62069,2675 L371.62069,2701.86295 C370.641793,2701.9682 369.684168,2702.16054 368.763211,2702.44494 C365.985552,2700.4587 362.289164,2699.74625 358.940009,2700.60806 C356.584134,2695.75981 351.448371,2692.59851 345.689655,2692.59851 C337.646355,2692.59851 331.103448,2698.76736 331.103448,2706.35078 C331.103448,2706.90373 331.143803,2707.45344 331.213453,2708.00124 C326.569002,2708.68828 323,2712.47627 323,2717.04699 C323,2722.10343 327.361134,2726.21517 332.724138,2726.21517 L354.737966,2726.21517 L353.793103,2729.27123 C347.35228,2729.27123 341.594416,2733.34342 339.791702,2739.17133 L331.508621,2765.94394 L327.862069,2765.94394 L327.862069,2769 L417,2769 L417,2765.94394 L413.288621,2765.94394 L405.534836,2745.06036 Z M374,2680 L391,2686.54456 L374,2692 L374,2680 Z M377.231204,2753.31983 C378.168509,2754.25146 379.427539,2755 381.154197,2755 C384.624316,2755 386.241137,2752.04468 387.537872,2749.67013 C388.783583,2747.38713 389.640764,2746 390.988729,2746 C392.337514,2746 393.194901,2747.38713 394.442865,2749.67013 C395.742879,2752.04468 397.357241,2755 400.831458,2755 C402.564469,2755 403.825138,2754.24854 404.765722,2753.31396 L410,2767 L372,2767 L377.231204,2753.31983 Z M403.110492,2747.11302 L404.083333,2749.64497 C403.035503,2751.34143 402.233395,2752 401.251849,2752 C399.781986,2752 398.848201,2750.49647 397.489928,2748.02322 C396.07586,2745.45084 394.31497,2742.25 390.53207,2742.25 C386.750286,2742.25 384.990065,2745.45084 383.577783,2748.02322 C382.220402,2750.49647 381.288403,2752 379.821218,2752 C378.842127,2752 378.044482,2751.3446 377,2749.6537 L377.976412,2747.11302 C379.843982,2742.26117 384.894991,2739 390.544345,2739 C396.193476,2739 401.244708,2742.26117 403.110492,2747.11302 Z M390.860464,2735.22088 C384.194104,2735.22088 378.235597,2739.07835 376.031888,2744.8203 L372.128003,2755 L367.00671,2738.9785 C365.478669,2734.19736 361.175695,2730.61576 356,2729.51531 L358.604459,2721.368 C359.571242,2722.33981 360.853642,2723.09466 362.611335,2723.09466 C366.127552,2723.09466 367.765851,2720.1082 369.079812,2717.70873 C370.34207,2715.40172 371.210638,2714 372.57651,2714 C373.943213,2714 374.811989,2715.40172 376.076531,2717.70873 C377.393815,2720.1082 379.029622,2723.09466 382.549991,2723.09466 C384.31246,2723.09466 385.597975,2722.33374 386.56808,2721.36062 L391,2735.22676 C390.953696,2735.22524 390.906769,2735.22088 390.860464,2735.22088 Z M383.363799,2712.56 L385,2717.53681 C383.904409,2719.33419 383.123504,2720 382.141192,2720 C380.749301,2720 379.865051,2718.61213 378.57883,2716.32913 C377.239774,2713.95462 375.572295,2711 371.990067,2711 C368.408896,2711 366.74205,2713.95462 365.404685,2716.32913 C364.11931,2718.61213 363.236751,2720 361.847396,2720 C360.868253,2720 360.09073,2719.33719 359,2717.54713 L360.639583,2712.56 C362.104175,2708.10763 366.775865,2705 372.001691,2705 C377.227517,2705 381.899207,2708.10763 383.363799,2712.56 Z M332.308559,2723 C328.82931,2723 326,2720.20933 326,2716.77778 C326,2713.34622 328.82931,2710.55556 332.308559,2710.55556 C335.787808,2710.55556 338.617118,2713.34622 338.617118,2716.77778 L341.771398,2716.77778 C341.771398,2712.21514 338.432297,2708.41356 334.038938,2707.60778 C333.947306,2707.04117 333.885699,2706.46775 333.885699,2705.88889 C333.885699,2699.88619 338.839672,2695 344.925677,2695 C349.702439,2695 353.917148,2698.01156 355.408925,2702.49136 L355.951856,2704.11692 L357.541218,2703.43092 C359.608849,2702.53783 361.985401,2702.61153 364,2703.51375 C361.222263,2705.30244 359.079127,2708.02778 358.111946,2711.30067 L354.650321,2723 L332.308559,2723 Z M354.001562,2733 C359.082574,2733 363.624806,2736.10763 365.048813,2740.56 L366,2743.53731 C365.086416,2744.80369 364.43236,2745 363.860086,2745 C362.506766,2745 361.647019,2743.61213 360.396441,2741.32913 C359.094492,2738.95462 357.47322,2736 353.99026,2736 C350.508327,2736 348.887672,2738.95462 347.587367,2741.32913 C346.337611,2743.61213 345.479508,2745 344.128654,2745 C343.559668,2745 342.908611,2744.80144 342,2743.54612 L342.954372,2740.56 C344.378317,2736.10763 348.920549,2733 354.001562,2733 Z M340.998419,2747.22597 C341.833333,2747.88067 342.855454,2748.33333 344.157963,2748.33333 C347.582223,2748.33333 349.177676,2745.2685 350.457274,2742.80606 C351.686521,2740.4385 352.532374,2739 353.862526,2739 C355.193486,2739 356.039541,2740.4385 357.271013,2742.80606 C358.553846,2745.2685 360.146873,2748.33333 363.575177,2748.33333 C364.899666,2748.33333 365.932161,2747.84042 366.744042,2747.20847 L371,2761.23807 L368.90205,2767 L335,2767 L340.998419,2747.22597 Z" id="Fill-1"></path>
        </g>
    </g>
</svg>