<?xml version="1.0" encoding="UTF-8"?>
<svg width="85px" height="114px" viewBox="0 0 85 114" version="1.1" xmlns="http://www.w3.org/2000/svg" xmlns:xlink="http://www.w3.org/1999/xlink">

    <g id="Page-1" stroke="none" stroke-width="1" fill="none" fill-rule="evenodd">
        <g id="About-us" transform="translate(-803.000000, -2657.000000)" fill="#797979">
            <g id="Group-12" transform="translate(803.000000, 2657.000000)">
                <g id="Group-4" transform="translate(0.000000, 28.000000)">
                    <path d="M80.3002299,48.8983121 C81.4989832,47.3062909 82.0151248,45.2089134 81.5138087,43.1229923 C80.6691748,39.6081983 78.0365771,38.6038502 77.8438447,38.508592 C77.9728271,38.3352603 79.9783032,36.1292587 79.0517051,32.7339087 C78.1714898,29.5116782 75.5727791,28.2139179 75.3783523,28.1169625 C76.575623,26.5249413 77.0843519,24.4307461 76.5896014,22.344825 C75.708539,18.6272096 71.9714362,16.3200094 68.271821,17.2000339 C68.1682539,17.2233711 57.8591876,19.5942181 51.0428139,21.2153047 C50.5580178,21.3313542 50.2634125,21.0445189 50.1592099,20.9161643 C50.0541602,20.7861124 49.832412,20.4337208 50.0484417,19.9754631 C51.6616756,16.5453194 52.6833692,12.8334322 52.8513217,9.79111032 C53.1476213,4.43267773 50.8964643,2.00030534 48.9555854,0.902184142 C47.3412926,-0.0103002601 45.5569293,-0.239853416 43.9303524,0.255743786 C42.7108433,0.627017374 40.997431,1.58829773 39.7582251,4.05631239 C36.5531486,10.4400965 33.1710124,14.2033256 30.8976171,16.2362077 C28.2271082,18.6255123 26.2589079,21.6587115 25.2065042,25.0067506 L23.4839847,30.4922648 L7.13701427,34.3789689 C2.27318939,35.5358574 -0.744851978,40.4402754 0.410081135,45.3132943 L8.42266655,79.1264742 C9.39558402,83.2295353 13.0647433,86 17.1028898,86 C20.6901483,86 29.3943042,83.3248359 29.3943042,83.3248359 C31.7125998,82.7737386 33.6782587,81.350806 34.9282661,79.3187302 C36.1791206,77.2866756 36.5647972,74.8883331 36.0137096,72.5653697 L26.3745473,31.8910115 L28.2368508,25.9623027 C29.1172779,23.160354 30.76927,20.6178725 33.0130142,18.6106614 C35.4924849,16.3938398 39.1666848,12.3172558 42.5966865,5.48667041 C43.1774252,4.32978191 43.958521,3.57408104 44.8552562,3.30061152 C45.6420704,3.06108702 46.5438887,3.19368473 47.3936056,3.67358236 C49.9846918,5.13873402 51.0212109,10.4409452 47.1741872,18.6197841 C46.5017417,20.0484449 46.7001925,21.6968996 47.6930822,22.9208295 C48.6825831,24.1424257 50.2460454,24.6753624 51.7766796,24.3115143 C58.5814047,22.6938222 68.8798812,20.3253089 68.9940381,20.2987893 C71.0018439,19.8214376 73.0098616,21.071887 73.4986818,23.0790981 C74.2291588,26.0800495 71.695257,27.360413 70.7231232,27.5916634 C69.9926462,27.764783 69.3837388,28.524727 69.5440668,29.5067986 C69.6855451,30.3745181 70.6030361,30.891543 71.456989,30.6876608 C72.428911,30.4566226 73.4334493,30.6189222 74.2838016,31.1435848 C75.1343658,31.6688839 75.7299301,32.4943842 75.9607854,33.4690304 C76.1916408,34.442828 76.0302538,35.4480247 75.5058522,36.300681 C74.9812388,37.1527008 74.1573607,37.7494966 73.1852269,37.9805349 C72.4547498,38.1547152 71.8259339,38.834252 72.0061704,39.8967309 C72.1544261,40.7627531 73.0659869,41.279778 73.9190926,41.0767444 C74.8918618,40.845494 75.8955529,41.0080058 76.7459053,41.5333049 C77.5964694,42.0579675 78.1920338,42.8843164 78.4228891,43.8579018 C78.6537444,44.8316994 78.4923575,45.8379569 77.9679559,46.6897646 C77.4433425,47.5417845 76.6194644,48.1383681 75.6473305,48.3696185 C74.9168535,48.5435867 74.2888847,49.2729802 74.4682741,50.2856024 C74.6222482,51.1507759 75.5289378,51.6688617 76.3811963,51.4658281 C78.3881549,50.9884763 80.4084566,52.236592 80.8849928,54.2469855 C81.3615289,56.2575911 80.1163928,58.2813504 78.1094342,58.7587021 L40.177577,67.7786136 C39.3238359,67.9816472 38.7960456,68.8393953 38.9987323,69.6946399 C39.1724033,70.4264096 39.816892,71.1233855 40.9114427,70.8755869 L78.8432999,61.8555482 C82.5545638,60.9729778 84.8569749,57.2296914 83.9759124,53.5118638 C83.4811619,51.4244576 82.0854404,49.7808824 80.3002299,48.8983121 Z M32.2247174,77.6488477 C31.4196889,78.9574068 30.153797,79.8731584 28.6604385,80.22869 L18.4307314,82.6610199 C15.3473093,83.3944656 12.245694,81.4784181 11.5135226,78.3913949 L3.50093723,44.5781726 C2.75055157,41.4132244 4.7112968,38.2268484 7.87083764,37.4758149 L23.5502762,33.7473795 L32.92279,73.3004702 C33.2777565,74.7963421 33.0295341,76.3402674 32.2247174,77.6488477 Z" id="Fill-1"></path>
                    <path d="M21.163771,79 C17.3037271,79 14.1637931,75.8600341 14.1637931,72 C14.1637931,68.1399439 17.3037271,65 21.163771,65 C25.0228878,65 28.1637931,68.1399439 28.1637931,72 C28.1637931,75.8600341 25.0228878,79 21.163771,79 Z M21.163771,68.3115495 C19.1293907,68.3115495 17.4753542,69.9664743 17.4753542,72 C17.4753542,74.0335036 19.1293907,75.6884284 21.163771,75.6884284 C23.1973345,75.6884284 24.852232,74.0335036 24.852232,72 C24.852232,69.9664743 23.1973345,68.3115495 21.163771,68.3115495 Z" id="Fill-3"></path>
                </g>
                <path d="M83.7197642,9.57166495 L75.3041461,8.19279077 L71.3604454,0.805572676 C71.0961614,0.310495431 70.5719864,0 70.0000154,0 C69.4280444,0 68.9038694,0.310495431 68.6395854,0.805572676 L64.6957089,8.19279077 L56.2802666,9.57166495 C55.7163787,9.66395586 55.2517731,10.0547341 55.0751737,10.5858357 C54.8983987,11.1165942 55.0387995,11.6993306 55.4394428,12.0974852 L61.4176384,18.0420146 L60.1603564,26.281637 C60.0761862,26.8338386 60.3134092,27.3858686 60.7760819,27.7138615 C61.2384032,28.0421976 61.8497357,28.0917739 62.3616102,27.8428629 L70.0000154,24.1294405 L77.6384206,27.8428629 C77.8549085,27.9478481 78.0891443,28 78.3219743,28 C78.640556,28 78.957029,27.9032466 79.2239489,27.71369 C79.6866216,27.385697 79.9238446,26.833667 79.8394986,26.2812939 L78.5823924,18.0418431 L84.5605879,12.0973137 C84.9610555,11.6991591 85.1016321,11.1162511 84.9248571,10.5854926 C84.7482577,10.0547341 84.2836521,9.66395586 83.7197642,9.57166495 Z M75.68207,16.6506318 C75.3553105,16.9831616 75.2032659,17.4496908 75.2721291,17.9109418 L76.1801353,24 L70.6632349,21.2556501 C70.4544292,21.1517878 70.2272146,21.0998566 70,21.0998566 C69.7727854,21.0998566 69.5454003,21.1517878 69.3367651,21.2556501 L63.8198647,24 L64.7277004,17.9109418 C64.7965637,17.4496908 64.64486,16.9829913 64.31793,16.6506318 L60,12.2574245 L66.0782041,11.2383816 C66.5384288,11.1610807 66.9359265,10.8726499 67.1515503,10.4592437 L70,5 L72.8484497,10.4594139 C73.0640735,10.8728201 73.4614008,11.161251 73.9217959,11.2385518 L80,12.2575948 L75.68207,16.6506318 Z" id="Fill-4"></path>
            </g>
        </g>
    </g>
</svg>