
<svg width="93px" height="105px" viewBox="0 0 93 105" version="1.1" xmlns="http://www.w3.org/2000/svg" xmlns:xlink="http://www.w3.org/1999/xlink">
  
    <g id="Page-1" stroke="none" stroke-width="1" fill="none" fill-rule="evenodd">
        <g id="About-us" transform="translate(-1053.000000, -2666.000000)" fill="#797979">
            <g id="Group-3" transform="translate(1053.000000, 2666.000000)">
                <path d="M3.05680304,81.136084 C5.94476437,85.5825879 11.5209386,87.9329883 19.1823965,87.9329883 C20.6882869,87.9329883 22.2786201,87.8388574 23.9234749,87.6557227 C24.8516093,89.688252 26.8990308,91.1047266 29.2716575,91.1047266 C29.566573,91.1047266 29.856372,91.082373 30.1396218,91.040127 C34.6660934,100.053516 40.6106562,105 46.969656,105 C53.7750199,105 60.0699611,99.3786035 64.6946696,89.1714551 C65.0188515,88.4561426 65.3309584,87.7217578 65.633651,86.9734277 C68.8494781,87.6038379 71.9152892,87.9344238 74.7557694,87.9344238 L74.7561787,87.9344238 C82.4172273,87.9344238 87.9942202,85.5836133 90.8823861,81.1362891 C94.5943098,75.4207617 93.3258253,67.0677246 87.3108595,57.616084 C86.2247273,55.9094238 85.0057706,54.2005078 83.6658597,52.5002051 C85.0057706,50.7999023 86.2247273,49.0909863 87.3108595,47.3843262 C93.32603,37.9326855 94.5943098,29.5796484 90.8823861,23.8643262 C87.9946295,19.4176172 82.4184553,17.0674219 74.7567927,17.0674219 C73.2527442,17.0674219 71.6645804,17.1613477 70.0221816,17.3440723 C69.0938425,15.3121582 67.0468303,13.8962988 64.6746129,13.8962988 C64.3774462,13.8962988 64.0856006,13.9190625 63.8000995,13.9619238 C59.2738325,4.94709961 53.3290651,0 46.969656,0 C40.1642921,0 33.8693509,5.62139648 29.2446424,15.82875 C28.9204605,16.5440625 28.6083535,17.2782422 28.305661,18.0267773 C25.0898339,17.3963672 22.0240227,17.0657813 19.1836245,17.0657813 C11.5217572,17.0657813 5.94517369,19.4165918 3.05680304,23.863916 C-0.655120613,29.5794434 0.613159195,37.9324805 6.62832974,47.383916 C7.71446189,49.0905762 8.93341857,50.7994922 10.2733295,52.4997949 C8.93341857,54.2000977 7.71446189,55.9090137 6.62832974,57.6156738 C0.613159195,67.0675195 -0.655120613,75.4205566 3.05680304,81.136084 Z M28.9319215,79.3320117 C27.9292907,75.8448633 27.1335715,72.1243359 26.5541782,68.2452832 C28.7837474,69.951123 31.1160561,71.6024121 33.5380059,73.1817188 C36.7820761,75.2970996 40.091433,77.2147852 43.4057017,78.9183691 C40.3617893,80.2468652 37.3358869,81.3754102 34.3701546,82.283291 C33.8818352,81.4231934 33.1698221,80.7066504 32.3327615,80.1855469 C32.3268263,80.1818555 32.3210958,80.177959 32.3151607,80.1742676 C31.3065948,79.5629297 30.1201791,79.267207 28.9433824,79.3316016 C28.9394939,79.3318066 28.9356053,79.3318066 28.9319215,79.3320117 Z M25.4142204,52.5 C25.4142204,48.6125391 25.6135595,44.795625 25.9993442,41.1040137 C28.8768678,38.7665332 31.9608937,36.5170313 35.2123317,34.3965234 C39.0718155,31.8795996 43.0203264,29.6450684 46.9661768,27.7292285 C50.9015895,29.6383008 54.8580822,31.8734473 58.7271849,34.3965234 C61.976167,36.5153906 65.0579416,38.7628418 67.9336233,41.0984766 C68.3230919,44.8052637 68.5252962,48.6242285 68.5252962,52.5 C68.5252962,56.3874609 68.3257524,60.204375 67.9401725,63.8961914 C65.0626488,66.2336719 61.9788276,68.4831738 58.7271849,70.6034766 C54.8674965,73.1204004 50.9191902,75.3549316 46.9733399,77.2707715 C43.0379272,75.3614941 39.0812298,73.1265527 35.2123317,70.6034766 C31.9633497,68.4846094 28.881575,66.2369531 26.0058933,63.9015234 C25.6164248,60.1947363 25.4142204,56.3757715 25.4142204,52.5 Z M22.6693166,61.0710352 C19.5374821,58.2912012 16.7074396,55.4135449 14.2408738,52.5 C16.7064163,49.5878906 19.5346169,46.7114648 22.6648141,43.9328613 C22.4536047,46.7387402 22.3445208,49.6014258 22.3445208,52.5 C22.3443161,55.3934473 22.4562653,58.2569531 22.6693166,61.0710352 Z M26.5466058,36.7602539 C27.3609491,31.2883594 28.6036464,26.1640723 30.2354028,21.5871387 C34.4364646,22.5955078 38.8747276,24.113291 43.385645,26.0812207 C40.0734229,27.788291 36.7736851,29.7080273 33.5378013,31.8182813 C31.1131908,33.3992285 28.7784262,35.0523633 26.5466058,36.7602539 Z M59.5752971,22.7150684 C59.9234243,23.3255859 60.3859565,23.8727344 60.9256457,24.3214453 C61.720137,24.9809766 62.6877708,25.431123 63.7071837,25.5978516 C64.1345144,25.6677832 64.5681895,25.6925977 65.0006367,25.6692188 C65.0030927,25.6692188 65.0055486,25.6692188 65.0080045,25.6690137 C66.0104306,29.155752 66.8059451,32.8756641 67.3855431,36.7545117 C65.1559739,35.0486719 62.8236652,33.3973828 60.4017154,31.8180762 C57.1576452,29.7026953 53.8482883,27.7850098 50.5340196,26.0814258 C53.5799787,24.7525195 56.6079276,23.6231543 59.5752971,22.7150684 Z M71.2699954,43.9289648 C74.4019118,46.7087988 77.2319542,49.5864551 79.6987247,52.5 C77.2331822,55.4121094 74.4049817,58.2885352 71.2747025,61.0671387 C71.485912,58.2612598 71.5949959,55.3985742 71.5949959,52.5 C71.5949959,49.6065527 71.4830467,46.7430469 71.2699954,43.9289648 Z M67.3927062,68.2397461 C66.5783629,73.7118457 65.3356656,78.8359277 63.7039091,83.4128613 C59.5028474,82.4044922 55.0645844,80.886709 50.5538716,78.9187793 C53.8660937,77.2115039 57.1658316,75.2917676 60.4017154,73.1815137 C62.8261212,71.6007715 65.1608857,69.9476367 67.3927062,68.2397461 Z M26.519386,85.7466504 C26.1614351,84.0467578 27.5557857,82.3981348 29.2716575,82.3981348 C30.5354348,82.3981348 31.6837837,83.299248 31.9915928,84.5254102 C31.9936394,84.5340234 31.9969139,84.5420215 31.9991652,84.5506348 C32.4680419,86.2868262 31.0274382,88.0285547 29.2716575,88.0285547 C27.9550779,88.0285547 26.786877,87.0164941 26.519386,85.7466504 Z M61.8994194,87.8997656 C59.8630495,92.3942578 57.5119121,95.9039648 54.9110892,98.3316797 C52.3577474,100.715303 49.6859073,101.923828 46.969656,101.923828 C41.8611305,101.923828 36.91531,97.6344141 32.9551334,89.8076074 C33.8529781,89.0859375 34.5156681,88.1155078 34.8670698,87.0203906 C35.0203604,86.5425586 35.1151181,86.0368359 35.1419286,85.5354199 C35.1468404,85.4433398 35.1492964,85.3506445 35.1499103,85.257334 C39.0274042,84.0769043 43.0002697,82.5369727 46.9821403,80.674248 C52.3127221,83.1618457 57.5990974,85.0649707 62.5926038,86.2983105 C62.3670681,86.8409473 62.1366207,87.3759961 61.8994194,87.8997656 Z M84.7227254,59.269834 C90.0520794,67.6439941 91.325885,74.8137305 88.3096017,79.4581348 C85.4107933,83.9214551 79.3391366,84.8580469 74.7557694,84.8580469 C72.2521601,84.8580469 69.5578074,84.5830371 66.7304255,84.0582422 C68.673061,78.4981641 70.0674115,72.1967285 70.8518744,65.4783691 C74.9094693,62.0992969 78.5516038,58.5465234 81.6632588,54.9285352 C82.778248,56.3737207 83.8019588,57.8232129 84.7227254,59.269834 Z M88.3096017,25.5418652 C89.7911375,27.8231543 90.2377062,30.7264453 89.636619,34.1709375 C89.02448,37.679209 87.3712342,41.5683105 84.7227254,45.730166 C83.8019588,47.1769922 82.778248,48.6262793 81.6634634,50.0712598 C78.5503758,46.4518359 74.9063994,42.897627 70.8469625,39.5171191 C70.2348236,34.2945996 69.2516356,29.3025879 67.9195018,24.6971484 C68.4984857,24.3122168 69.0119784,23.8253613 69.4192524,23.2607813 C70.02914,22.4156543 70.4208598,21.4212305 70.5246226,20.3816895 C71.9961301,20.2233691 73.4150398,20.1431836 74.7569974,20.1431836 C79.3401599,20.1431836 85.4118166,21.0797754 88.3096017,25.5418652 Z M67.4326149,19.2566309 C67.624791,20.2608984 67.247602,21.3080273 66.4608879,21.9589453 C65.9654053,22.3688965 65.3176555,22.6018652 64.6748176,22.6024805 C63.9296494,22.6024805 63.1922584,22.2885059 62.6711933,21.756123 C61.8822279,20.950166 61.6487105,19.7092383 62.0963026,18.6725684 C62.5373455,17.6506641 63.5643308,16.9720605 64.6750222,16.9720605 C66.0429716,16.9722656 67.1841574,17.9574609 67.4326149,19.2566309 Z M32.0398926,17.1002344 C34.0762625,12.6057422 36.4273999,9.09603516 39.0282228,6.66832031 C41.5815646,4.28469727 44.2534046,3.07617188 46.969656,3.07617188 C52.0796141,3.07617188 57.0260486,7.36681641 60.9868392,15.1973145 C60.1591929,15.8642285 59.5314998,16.7431934 59.1641346,17.7357715 C58.9821916,18.2273438 58.8657399,18.7433203 58.819282,19.2656543 C58.8160075,19.3025684 58.809049,19.7367188 58.7969741,19.7404102 C54.917229,20.9210449 50.9419075,22.4617969 46.9573764,24.325752 C41.6267945,21.8381543 36.3402146,19.9348242 31.3469129,18.7016895 C31.5722438,18.1590527 31.8026913,17.6240039 32.0398926,17.1002344 Z M9.21666841,45.730166 C6.56815961,41.5683105 4.91470914,37.679209 4.30277488,34.1709375 C3.70168761,30.7264453 4.14825636,27.8231543 5.62979219,25.5418652 C8.52839586,21.07875 14.6002573,20.1419531 19.1836245,20.1419531 C21.6871519,20.1419531 24.3815046,20.4169629 27.2086818,20.9415527 C25.2660464,26.5016309 23.8716958,32.8030664 23.0870283,39.5214258 C19.0297199,42.900498 15.3875854,46.4532715 12.2757257,50.0712598 C11.1611458,48.6262793 10.137435,47.1767871 9.21666841,45.730166 Z M12.2759304,54.9287402 C15.389018,58.5481641 19.0329945,62.102373 23.0923494,65.4826758 C23.704693,70.7068359 24.688495,75.7006934 26.0212428,80.3073633 C24.9979414,80.9871973 24.1971057,81.9939258 23.7665004,83.146875 C23.5982697,83.5972266 23.4243084,84.5978027 23.4222618,84.6174902 C21.9478891,84.7764258 20.5270146,84.8568164 19.1826012,84.8568164 C14.5994387,84.8568164 8.52798654,83.9202246 5.62999685,79.4583398 C2.61371352,74.8139355 3.88751915,67.6441992 9.21687307,59.2700391 C10.137435,57.8232129 11.1611458,56.3737207 12.2759304,54.9287402 Z" id="Fill-1"></path>
                <path d="M49.9813171,34.1399464 C49.2206462,33.8181393 48.362697,34.0647081 47.8942741,34.7420568 C47.8942741,34.7420568 34.3537951,54.3598153 34.3380984,54.3825094 C33.3729571,55.7809593 34.4205061,57.7342913 36.1254581,57.7342913 L44.2689534,57.7342913 C44.2689534,57.7342913 41.9590583,69.9502832 41.9524492,69.9858578 C41.6191006,71.747823 44.0095446,72.7749886 45.0455275,71.2781973 L50.6928325,63.0962429 C51.019572,62.6229371 50.8970963,61.9764606 50.4185532,61.653018 C49.9398035,61.328962 49.2873573,61.4506107 48.9599982,61.9245299 L44.3482631,68.6064219 C44.3482631,68.6064219 46.5604667,56.9083063 46.5641843,56.8866344 C46.683975,56.2559008 46.180028,55.6570616 45.5329517,55.6570616 C45.5329517,55.6570616 36.1659391,55.6570616 36.1254581,55.6570616 C36.0713458,55.6570616 36.0407785,55.5975661 36.0703131,55.5542224 L48.5915386,37.4138322 C48.5915386,37.4138322 46.3795415,49.1125612 46.3752042,49.1336197 C46.2560331,49.7649667 46.7597736,50.3631925 47.4068499,50.3631925 L56.8137239,50.3631925 C56.8684558,50.3631925 56.8990231,50.4222791 56.8690755,50.4660317 L51.3014932,58.5322665 C50.9747537,59.0055723 51.0976425,59.6520487 51.5757726,59.9754914 C52.0545223,60.2989341 52.7075881,60.1772853 53.0343275,59.7039795 C53.0343275,59.7039795 58.5936484,51.6489895 58.6019098,51.6377447 C59.5658118,50.2415437 58.5176432,48.2859628 56.8143435,48.2859628 L48.6708483,48.2859628 L50.9873524,36.0350096 C51.1501025,35.2380567 50.7380639,34.4601178 49.9813171,34.1399464 Z" id="Fill-2" stroke="#979797"></path>
            </g>
        </g>
    </g>
</svg>