
<svg width="14px" height="10px" viewBox="0 0 14 10" version="1.1" >
  
    <g id="Page-1" stroke="none" stroke-width="1" fill="none" fill-rule="evenodd">
        <g id="Landing-page" transform="translate(-428.000000, -2277.000000)" fill="#9F9F9F" fill-rule="nonzero">
            <path d="M428.724747,2282.75478 L439.531145,2282.75478 L436.702862,2285.71226 C436.420034,2286.00801 436.420034,2286.48244 436.702862,2286.77819 C436.844276,2286.92606 437.026936,2287 437.215488,2287 C437.40404,2287 437.5867,2286.92606 437.728114,2286.77819 L441.787879,2282.53296 C442.070707,2282.23722 442.070707,2281.76278 441.787879,2281.46704 L437.728114,2277.22181 C437.445286,2276.92606 436.991582,2276.92606 436.708754,2277.22181 C436.425926,2277.51756 436.425926,2277.99199 436.708754,2278.28774 L439.537037,2281.24522 L428.724747,2281.24522 C428.324074,2281.24522 428,2281.5841 428,2282.00308 C428,2282.42206 428.324074,2282.75478 428.724747,2282.75478 Z" id="Path-2"></path>
        </g>
    </g>
</svg>