<?xml version="1.0" encoding="UTF-8"?>
<svg width="368px" height="455px" viewBox="0 0 368 455" version="1.1" xmlns="http://www.w3.org/2000/svg" xmlns:xlink="http://www.w3.org/1999/xlink">
    <!-- Generator: Sketch 58 (84663) - https://sketch.com -->
    <title>Cross_Background</title>
    <desc>Created with Sketch.</desc>
    <g id="Page-1" stroke="none" stroke-width="1" fill="none" fill-rule="evenodd">
        <g id="Landing-page" transform="translate(-268.000000, -1270.000000)" fill="#DB8E53">
            <g id="Cross_Background" transform="translate(268.000000, 1270.000000)">
                <path d="M58.5622642,152.4 L58.5622642,146 L55.3622642,146 L55.3622642,152.4 L48.9622642,152.4 L48.9622642,155.6 L55.3622642,155.6 L55.3622642,162 L58.5622642,162 L58.5622642,155.6 L64.9622642,155.6 L64.9622642,152.4 L58.5622642,152.4 Z M58.5622642,104.4 L58.5622642,98 L55.3622642,98 L55.3622642,104.4 L48.9622642,104.4 L48.9622642,107.6 L55.3622642,107.6 L55.3622642,114 L58.5622642,114 L58.5622642,107.6 L64.9622642,107.6 L64.9622642,104.4 L58.5622642,104.4 Z M10.5622642,152.4 L10.5622642,146 L7.36226415,146 L7.36226415,152.4 L0.962264151,152.4 L0.962264151,155.6 L7.36226415,155.6 L7.36226415,162 L10.5622642,162 L10.5622642,155.6 L16.9622642,155.6 L16.9622642,152.4 L10.5622642,152.4 Z M10.5622642,104.4 L10.5622642,98 L7.36226415,98 L7.36226415,104.4 L0.962264151,104.4 L0.962264151,107.6 L7.36226415,107.6 L7.36226415,114 L10.5622642,114 L10.5622642,107.6 L16.9622642,107.6 L16.9622642,104.4 L10.5622642,104.4 Z" id="Fill-1"></path>
                <path d="M160.562264,152.4 L160.562264,146 L157.362264,146 L157.362264,152.4 L150.962264,152.4 L150.962264,155.6 L157.362264,155.6 L157.362264,162 L160.562264,162 L160.562264,155.6 L166.962264,155.6 L166.962264,152.4 L160.562264,152.4 Z M160.562264,104.4 L160.562264,98 L157.362264,98 L157.362264,104.4 L150.962264,104.4 L150.962264,107.6 L157.362264,107.6 L157.362264,114 L160.562264,114 L160.562264,107.6 L166.962264,107.6 L166.962264,104.4 L160.562264,104.4 Z M112.562264,152.4 L112.562264,146 L109.362264,146 L109.362264,152.4 L102.962264,152.4 L102.962264,155.6 L109.362264,155.6 L109.362264,162 L112.562264,162 L112.562264,155.6 L118.962264,155.6 L118.962264,152.4 L112.562264,152.4 Z M112.562264,104.4 L112.562264,98 L109.362264,98 L109.362264,104.4 L102.962264,104.4 L102.962264,107.6 L109.362264,107.6 L109.362264,114 L112.562264,114 L112.562264,107.6 L118.962264,107.6 L118.962264,104.4 L112.562264,104.4 Z" id="Fill-1"></path>
                <path d="M58.5622642,249.4 L58.5622642,243 L55.3622642,243 L55.3622642,249.4 L48.9622642,249.4 L48.9622642,252.6 L55.3622642,252.6 L55.3622642,259 L58.5622642,259 L58.5622642,252.6 L64.9622642,252.6 L64.9622642,249.4 L58.5622642,249.4 Z M58.5622642,201.4 L58.5622642,195 L55.3622642,195 L55.3622642,201.4 L48.9622642,201.4 L48.9622642,204.6 L55.3622642,204.6 L55.3622642,211 L58.5622642,211 L58.5622642,204.6 L64.9622642,204.6 L64.9622642,201.4 L58.5622642,201.4 Z M10.5622642,249.4 L10.5622642,243 L7.36226415,243 L7.36226415,249.4 L0.962264151,249.4 L0.962264151,252.6 L7.36226415,252.6 L7.36226415,259 L10.5622642,259 L10.5622642,252.6 L16.9622642,252.6 L16.9622642,249.4 L10.5622642,249.4 Z M10.5622642,201.4 L10.5622642,195 L7.36226415,195 L7.36226415,201.4 L0.962264151,201.4 L0.962264151,204.6 L7.36226415,204.6 L7.36226415,211 L10.5622642,211 L10.5622642,204.6 L16.9622642,204.6 L16.9622642,201.4 L10.5622642,201.4 Z" id="Fill-1"></path>
                <path d="M160.562264,249.4 L160.562264,243 L157.362264,243 L157.362264,249.4 L150.962264,249.4 L150.962264,252.6 L157.362264,252.6 L157.362264,259 L160.562264,259 L160.562264,252.6 L166.962264,252.6 L166.962264,249.4 L160.562264,249.4 Z M160.562264,201.4 L160.562264,195 L157.362264,195 L157.362264,201.4 L150.962264,201.4 L150.962264,204.6 L157.362264,204.6 L157.362264,211 L160.562264,211 L160.562264,204.6 L166.962264,204.6 L166.962264,201.4 L160.562264,201.4 Z M112.562264,249.4 L112.562264,243 L109.362264,243 L109.362264,249.4 L102.962264,249.4 L102.962264,252.6 L109.362264,252.6 L109.362264,259 L112.562264,259 L112.562264,252.6 L118.962264,252.6 L118.962264,249.4 L112.562264,249.4 Z M112.562264,201.4 L112.562264,195 L109.362264,195 L109.362264,201.4 L102.962264,201.4 L102.962264,204.6 L109.362264,204.6 L109.362264,211 L112.562264,211 L112.562264,204.6 L118.962264,204.6 L118.962264,201.4 L112.562264,201.4 Z" id="Fill-1"></path>
                <path d="M58.5622642,348.4 L58.5622642,342 L55.3622642,342 L55.3622642,348.4 L48.9622642,348.4 L48.9622642,351.6 L55.3622642,351.6 L55.3622642,358 L58.5622642,358 L58.5622642,351.6 L64.9622642,351.6 L64.9622642,348.4 L58.5622642,348.4 Z M58.5622642,300.4 L58.5622642,294 L55.3622642,294 L55.3622642,300.4 L48.9622642,300.4 L48.9622642,303.6 L55.3622642,303.6 L55.3622642,310 L58.5622642,310 L58.5622642,303.6 L64.9622642,303.6 L64.9622642,300.4 L58.5622642,300.4 Z M10.5622642,348.4 L10.5622642,342 L7.36226415,342 L7.36226415,348.4 L0.962264151,348.4 L0.962264151,351.6 L7.36226415,351.6 L7.36226415,358 L10.5622642,358 L10.5622642,351.6 L16.9622642,351.6 L16.9622642,348.4 L10.5622642,348.4 Z M10.5622642,300.4 L10.5622642,294 L7.36226415,294 L7.36226415,300.4 L0.962264151,300.4 L0.962264151,303.6 L7.36226415,303.6 L7.36226415,310 L10.5622642,310 L10.5622642,303.6 L16.9622642,303.6 L16.9622642,300.4 L10.5622642,300.4 Z" id="Fill-1"></path>
                <path d="M160.562264,348.4 L160.562264,342 L157.362264,342 L157.362264,348.4 L150.962264,348.4 L150.962264,351.6 L157.362264,351.6 L157.362264,358 L160.562264,358 L160.562264,351.6 L166.962264,351.6 L166.962264,348.4 L160.562264,348.4 Z M160.562264,300.4 L160.562264,294 L157.362264,294 L157.362264,300.4 L150.962264,300.4 L150.962264,303.6 L157.362264,303.6 L157.362264,310 L160.562264,310 L160.562264,303.6 L166.962264,303.6 L166.962264,300.4 L160.562264,300.4 Z M112.562264,348.4 L112.562264,342 L109.362264,342 L109.362264,348.4 L102.962264,348.4 L102.962264,351.6 L109.362264,351.6 L109.362264,358 L112.562264,358 L112.562264,351.6 L118.962264,351.6 L118.962264,348.4 L112.562264,348.4 Z M112.562264,300.4 L112.562264,294 L109.362264,294 L109.362264,300.4 L102.962264,300.4 L102.962264,303.6 L109.362264,303.6 L109.362264,310 L112.562264,310 L112.562264,303.6 L118.962264,303.6 L118.962264,300.4 L112.562264,300.4 Z" id="Fill-1"></path>
                <path d="M58.5622642,445.4 L58.5622642,439 L55.3622642,439 L55.3622642,445.4 L48.9622642,445.4 L48.9622642,448.6 L55.3622642,448.6 L55.3622642,455 L58.5622642,455 L58.5622642,448.6 L64.9622642,448.6 L64.9622642,445.4 L58.5622642,445.4 Z M58.5622642,397.4 L58.5622642,391 L55.3622642,391 L55.3622642,397.4 L48.9622642,397.4 L48.9622642,400.6 L55.3622642,400.6 L55.3622642,407 L58.5622642,407 L58.5622642,400.6 L64.9622642,400.6 L64.9622642,397.4 L58.5622642,397.4 Z M10.5622642,445.4 L10.5622642,439 L7.36226415,439 L7.36226415,445.4 L0.962264151,445.4 L0.962264151,448.6 L7.36226415,448.6 L7.36226415,455 L10.5622642,455 L10.5622642,448.6 L16.9622642,448.6 L16.9622642,445.4 L10.5622642,445.4 Z M10.5622642,397.4 L10.5622642,391 L7.36226415,391 L7.36226415,397.4 L0.962264151,397.4 L0.962264151,400.6 L7.36226415,400.6 L7.36226415,407 L10.5622642,407 L10.5622642,400.6 L16.9622642,400.6 L16.9622642,397.4 L10.5622642,397.4 Z" id="Fill-1"></path>
                <path d="M160.562264,445.4 L160.562264,439 L157.362264,439 L157.362264,445.4 L150.962264,445.4 L150.962264,448.6 L157.362264,448.6 L157.362264,455 L160.562264,455 L160.562264,448.6 L166.962264,448.6 L166.962264,445.4 L160.562264,445.4 Z M160.562264,397.4 L160.562264,391 L157.362264,391 L157.362264,397.4 L150.962264,397.4 L150.962264,400.6 L157.362264,400.6 L157.362264,407 L160.562264,407 L160.562264,400.6 L166.962264,400.6 L166.962264,397.4 L160.562264,397.4 Z M112.562264,445.4 L112.562264,439 L109.362264,439 L109.362264,445.4 L102.962264,445.4 L102.962264,448.6 L109.362264,448.6 L109.362264,455 L112.562264,455 L112.562264,448.6 L118.962264,448.6 L118.962264,445.4 L112.562264,445.4 Z M112.562264,397.4 L112.562264,391 L109.362264,391 L109.362264,397.4 L102.962264,397.4 L102.962264,400.6 L109.362264,400.6 L109.362264,407 L112.562264,407 L112.562264,400.6 L118.962264,400.6 L118.962264,397.4 L112.562264,397.4 Z" id="Fill-1"></path>
                <path d="M259.562264,152.4 L259.562264,146 L256.362264,146 L256.362264,152.4 L249.962264,152.4 L249.962264,155.6 L256.362264,155.6 L256.362264,162 L259.562264,162 L259.562264,155.6 L265.962264,155.6 L265.962264,152.4 L259.562264,152.4 Z M259.562264,104.4 L259.562264,98 L256.362264,98 L256.362264,104.4 L249.962264,104.4 L249.962264,107.6 L256.362264,107.6 L256.362264,114 L259.562264,114 L259.562264,107.6 L265.962264,107.6 L265.962264,104.4 L259.562264,104.4 Z M211.562264,152.4 L211.562264,146 L208.362264,146 L208.362264,152.4 L201.962264,152.4 L201.962264,155.6 L208.362264,155.6 L208.362264,162 L211.562264,162 L211.562264,155.6 L217.962264,155.6 L217.962264,152.4 L211.562264,152.4 Z M211.562264,104.4 L211.562264,98 L208.362264,98 L208.362264,104.4 L201.962264,104.4 L201.962264,107.6 L208.362264,107.6 L208.362264,114 L211.562264,114 L211.562264,107.6 L217.962264,107.6 L217.962264,104.4 L211.562264,104.4 Z" id="Fill-1"></path>
                <path d="M361.562264,152.4 L361.562264,146 L358.362264,146 L358.362264,152.4 L351.962264,152.4 L351.962264,155.6 L358.362264,155.6 L358.362264,162 L361.562264,162 L361.562264,155.6 L367.962264,155.6 L367.962264,152.4 L361.562264,152.4 Z M361.562264,104.4 L361.562264,98 L358.362264,98 L358.362264,104.4 L351.962264,104.4 L351.962264,107.6 L358.362264,107.6 L358.362264,114 L361.562264,114 L361.562264,107.6 L367.962264,107.6 L367.962264,104.4 L361.562264,104.4 Z M313.562264,152.4 L313.562264,146 L310.362264,146 L310.362264,152.4 L303.962264,152.4 L303.962264,155.6 L310.362264,155.6 L310.362264,162 L313.562264,162 L313.562264,155.6 L319.962264,155.6 L319.962264,152.4 L313.562264,152.4 Z M313.562264,104.4 L313.562264,98 L310.362264,98 L310.362264,104.4 L303.962264,104.4 L303.962264,107.6 L310.362264,107.6 L310.362264,114 L313.562264,114 L313.562264,107.6 L319.962264,107.6 L319.962264,104.4 L313.562264,104.4 Z" id="Fill-1"></path>
                <path d="M58.5622642,54.4 L58.5622642,48 L55.3622642,48 L55.3622642,54.4 L48.9622642,54.4 L48.9622642,57.6 L55.3622642,57.6 L55.3622642,64 L58.5622642,64 L58.5622642,57.6 L64.9622642,57.6 L64.9622642,54.4 L58.5622642,54.4 Z M58.5622642,6.4 L58.5622642,0 L55.3622642,0 L55.3622642,6.4 L48.9622642,6.4 L48.9622642,9.6 L55.3622642,9.6 L55.3622642,16 L58.5622642,16 L58.5622642,9.6 L64.9622642,9.6 L64.9622642,6.4 L58.5622642,6.4 Z M10.5622642,54.4 L10.5622642,48 L7.36226415,48 L7.36226415,54.4 L0.962264151,54.4 L0.962264151,57.6 L7.36226415,57.6 L7.36226415,64 L10.5622642,64 L10.5622642,57.6 L16.9622642,57.6 L16.9622642,54.4 L10.5622642,54.4 Z M10.5622642,6.4 L10.5622642,0 L7.36226415,0 L7.36226415,6.4 L0.962264151,6.4 L0.962264151,9.6 L7.36226415,9.6 L7.36226415,16 L10.5622642,16 L10.5622642,9.6 L16.9622642,9.6 L16.9622642,6.4 L10.5622642,6.4 Z" id="Fill-1"></path>
                <path d="M160.562264,54.4 L160.562264,48 L157.362264,48 L157.362264,54.4 L150.962264,54.4 L150.962264,57.6 L157.362264,57.6 L157.362264,64 L160.562264,64 L160.562264,57.6 L166.962264,57.6 L166.962264,54.4 L160.562264,54.4 Z M160.562264,6.4 L160.562264,0 L157.362264,0 L157.362264,6.4 L150.962264,6.4 L150.962264,9.6 L157.362264,9.6 L157.362264,16 L160.562264,16 L160.562264,9.6 L166.962264,9.6 L166.962264,6.4 L160.562264,6.4 Z M112.562264,54.4 L112.562264,48 L109.362264,48 L109.362264,54.4 L102.962264,54.4 L102.962264,57.6 L109.362264,57.6 L109.362264,64 L112.562264,64 L112.562264,57.6 L118.962264,57.6 L118.962264,54.4 L112.562264,54.4 Z M112.562264,6.4 L112.562264,0 L109.362264,0 L109.362264,6.4 L102.962264,6.4 L102.962264,9.6 L109.362264,9.6 L109.362264,16 L112.562264,16 L112.562264,9.6 L118.962264,9.6 L118.962264,6.4 L112.562264,6.4 Z" id="Fill-1"></path>
                <path d="M259.562264,54.4 L259.562264,48 L256.362264,48 L256.362264,54.4 L249.962264,54.4 L249.962264,57.6 L256.362264,57.6 L256.362264,64 L259.562264,64 L259.562264,57.6 L265.962264,57.6 L265.962264,54.4 L259.562264,54.4 Z M259.562264,6.4 L259.562264,0 L256.362264,0 L256.362264,6.4 L249.962264,6.4 L249.962264,9.6 L256.362264,9.6 L256.362264,16 L259.562264,16 L259.562264,9.6 L265.962264,9.6 L265.962264,6.4 L259.562264,6.4 Z M211.562264,54.4 L211.562264,48 L208.362264,48 L208.362264,54.4 L201.962264,54.4 L201.962264,57.6 L208.362264,57.6 L208.362264,64 L211.562264,64 L211.562264,57.6 L217.962264,57.6 L217.962264,54.4 L211.562264,54.4 Z M211.562264,6.4 L211.562264,0 L208.362264,0 L208.362264,6.4 L201.962264,6.4 L201.962264,9.6 L208.362264,9.6 L208.362264,16 L211.562264,16 L211.562264,9.6 L217.962264,9.6 L217.962264,6.4 L211.562264,6.4 Z" id="Fill-1"></path>
                <path d="M361.562264,54.4 L361.562264,48 L358.362264,48 L358.362264,54.4 L351.962264,54.4 L351.962264,57.6 L358.362264,57.6 L358.362264,64 L361.562264,64 L361.562264,57.6 L367.962264,57.6 L367.962264,54.4 L361.562264,54.4 Z M361.562264,6.4 L361.562264,0 L358.362264,0 L358.362264,6.4 L351.962264,6.4 L351.962264,9.6 L358.362264,9.6 L358.362264,16 L361.562264,16 L361.562264,9.6 L367.962264,9.6 L367.962264,6.4 L361.562264,6.4 Z M313.562264,54.4 L313.562264,48 L310.362264,48 L310.362264,54.4 L303.962264,54.4 L303.962264,57.6 L310.362264,57.6 L310.362264,64 L313.562264,64 L313.562264,57.6 L319.962264,57.6 L319.962264,54.4 L313.562264,54.4 Z M313.562264,6.4 L313.562264,0 L310.362264,0 L310.362264,6.4 L303.962264,6.4 L303.962264,9.6 L310.362264,9.6 L310.362264,16 L313.562264,16 L313.562264,9.6 L319.962264,9.6 L319.962264,6.4 L313.562264,6.4 Z" id="Fill-1"></path>
                <path d="M58.5622642,54.4 L58.5622642,48 L55.3622642,48 L55.3622642,54.4 L48.9622642,54.4 L48.9622642,57.6 L55.3622642,57.6 L55.3622642,64 L58.5622642,64 L58.5622642,57.6 L64.9622642,57.6 L64.9622642,54.4 L58.5622642,54.4 Z M58.5622642,6.4 L58.5622642,0 L55.3622642,0 L55.3622642,6.4 L48.9622642,6.4 L48.9622642,9.6 L55.3622642,9.6 L55.3622642,16 L58.5622642,16 L58.5622642,9.6 L64.9622642,9.6 L64.9622642,6.4 L58.5622642,6.4 Z M10.5622642,54.4 L10.5622642,48 L7.36226415,48 L7.36226415,54.4 L0.962264151,54.4 L0.962264151,57.6 L7.36226415,57.6 L7.36226415,64 L10.5622642,64 L10.5622642,57.6 L16.9622642,57.6 L16.9622642,54.4 L10.5622642,54.4 Z M10.5622642,6.4 L10.5622642,0 L7.36226415,0 L7.36226415,6.4 L0.962264151,6.4 L0.962264151,9.6 L7.36226415,9.6 L7.36226415,16 L10.5622642,16 L10.5622642,9.6 L16.9622642,9.6 L16.9622642,6.4 L10.5622642,6.4 Z" id="Fill-1"></path>
                <path d="M160.562264,54.4 L160.562264,48 L157.362264,48 L157.362264,54.4 L150.962264,54.4 L150.962264,57.6 L157.362264,57.6 L157.362264,64 L160.562264,64 L160.562264,57.6 L166.962264,57.6 L166.962264,54.4 L160.562264,54.4 Z M160.562264,6.4 L160.562264,0 L157.362264,0 L157.362264,6.4 L150.962264,6.4 L150.962264,9.6 L157.362264,9.6 L157.362264,16 L160.562264,16 L160.562264,9.6 L166.962264,9.6 L166.962264,6.4 L160.562264,6.4 Z M112.562264,54.4 L112.562264,48 L109.362264,48 L109.362264,54.4 L102.962264,54.4 L102.962264,57.6 L109.362264,57.6 L109.362264,64 L112.562264,64 L112.562264,57.6 L118.962264,57.6 L118.962264,54.4 L112.562264,54.4 Z M112.562264,6.4 L112.562264,0 L109.362264,0 L109.362264,6.4 L102.962264,6.4 L102.962264,9.6 L109.362264,9.6 L109.362264,16 L112.562264,16 L112.562264,9.6 L118.962264,9.6 L118.962264,6.4 L112.562264,6.4 Z" id="Fill-1"></path>
                <path d="M259.562264,54.4 L259.562264,48 L256.362264,48 L256.362264,54.4 L249.962264,54.4 L249.962264,57.6 L256.362264,57.6 L256.362264,64 L259.562264,64 L259.562264,57.6 L265.962264,57.6 L265.962264,54.4 L259.562264,54.4 Z M259.562264,6.4 L259.562264,0 L256.362264,0 L256.362264,6.4 L249.962264,6.4 L249.962264,9.6 L256.362264,9.6 L256.362264,16 L259.562264,16 L259.562264,9.6 L265.962264,9.6 L265.962264,6.4 L259.562264,6.4 Z M211.562264,54.4 L211.562264,48 L208.362264,48 L208.362264,54.4 L201.962264,54.4 L201.962264,57.6 L208.362264,57.6 L208.362264,64 L211.562264,64 L211.562264,57.6 L217.962264,57.6 L217.962264,54.4 L211.562264,54.4 Z M211.562264,6.4 L211.562264,0 L208.362264,0 L208.362264,6.4 L201.962264,6.4 L201.962264,9.6 L208.362264,9.6 L208.362264,16 L211.562264,16 L211.562264,9.6 L217.962264,9.6 L217.962264,6.4 L211.562264,6.4 Z" id="Fill-1"></path>
                <path d="M361.562264,54.4 L361.562264,48 L358.362264,48 L358.362264,54.4 L351.962264,54.4 L351.962264,57.6 L358.362264,57.6 L358.362264,64 L361.562264,64 L361.562264,57.6 L367.962264,57.6 L367.962264,54.4 L361.562264,54.4 Z M361.562264,6.4 L361.562264,0 L358.362264,0 L358.362264,6.4 L351.962264,6.4 L351.962264,9.6 L358.362264,9.6 L358.362264,16 L361.562264,16 L361.562264,9.6 L367.962264,9.6 L367.962264,6.4 L361.562264,6.4 Z M313.562264,54.4 L313.562264,48 L310.362264,48 L310.362264,54.4 L303.962264,54.4 L303.962264,57.6 L310.362264,57.6 L310.362264,64 L313.562264,64 L313.562264,57.6 L319.962264,57.6 L319.962264,54.4 L313.562264,54.4 Z M313.562264,6.4 L313.562264,0 L310.362264,0 L310.362264,6.4 L303.962264,6.4 L303.962264,9.6 L310.362264,9.6 L310.362264,16 L313.562264,16 L313.562264,9.6 L319.962264,9.6 L319.962264,6.4 L313.562264,6.4 Z" id="Fill-1"></path>
                <path d="M259.562264,249.4 L259.562264,243 L256.362264,243 L256.362264,249.4 L249.962264,249.4 L249.962264,252.6 L256.362264,252.6 L256.362264,259 L259.562264,259 L259.562264,252.6 L265.962264,252.6 L265.962264,249.4 L259.562264,249.4 Z M259.562264,201.4 L259.562264,195 L256.362264,195 L256.362264,201.4 L249.962264,201.4 L249.962264,204.6 L256.362264,204.6 L256.362264,211 L259.562264,211 L259.562264,204.6 L265.962264,204.6 L265.962264,201.4 L259.562264,201.4 Z M211.562264,249.4 L211.562264,243 L208.362264,243 L208.362264,249.4 L201.962264,249.4 L201.962264,252.6 L208.362264,252.6 L208.362264,259 L211.562264,259 L211.562264,252.6 L217.962264,252.6 L217.962264,249.4 L211.562264,249.4 Z M211.562264,201.4 L211.562264,195 L208.362264,195 L208.362264,201.4 L201.962264,201.4 L201.962264,204.6 L208.362264,204.6 L208.362264,211 L211.562264,211 L211.562264,204.6 L217.962264,204.6 L217.962264,201.4 L211.562264,201.4 Z" id="Fill-1"></path>
                <path d="M361.562264,249.4 L361.562264,243 L358.362264,243 L358.362264,249.4 L351.962264,249.4 L351.962264,252.6 L358.362264,252.6 L358.362264,259 L361.562264,259 L361.562264,252.6 L367.962264,252.6 L367.962264,249.4 L361.562264,249.4 Z M361.562264,201.4 L361.562264,195 L358.362264,195 L358.362264,201.4 L351.962264,201.4 L351.962264,204.6 L358.362264,204.6 L358.362264,211 L361.562264,211 L361.562264,204.6 L367.962264,204.6 L367.962264,201.4 L361.562264,201.4 Z M313.562264,249.4 L313.562264,243 L310.362264,243 L310.362264,249.4 L303.962264,249.4 L303.962264,252.6 L310.362264,252.6 L310.362264,259 L313.562264,259 L313.562264,252.6 L319.962264,252.6 L319.962264,249.4 L313.562264,249.4 Z M313.562264,201.4 L313.562264,195 L310.362264,195 L310.362264,201.4 L303.962264,201.4 L303.962264,204.6 L310.362264,204.6 L310.362264,211 L313.562264,211 L313.562264,204.6 L319.962264,204.6 L319.962264,201.4 L313.562264,201.4 Z" id="Fill-1"></path>
                <path d="M259.562264,348.4 L259.562264,342 L256.362264,342 L256.362264,348.4 L249.962264,348.4 L249.962264,351.6 L256.362264,351.6 L256.362264,358 L259.562264,358 L259.562264,351.6 L265.962264,351.6 L265.962264,348.4 L259.562264,348.4 Z M259.562264,300.4 L259.562264,294 L256.362264,294 L256.362264,300.4 L249.962264,300.4 L249.962264,303.6 L256.362264,303.6 L256.362264,310 L259.562264,310 L259.562264,303.6 L265.962264,303.6 L265.962264,300.4 L259.562264,300.4 Z M211.562264,348.4 L211.562264,342 L208.362264,342 L208.362264,348.4 L201.962264,348.4 L201.962264,351.6 L208.362264,351.6 L208.362264,358 L211.562264,358 L211.562264,351.6 L217.962264,351.6 L217.962264,348.4 L211.562264,348.4 Z M211.562264,300.4 L211.562264,294 L208.362264,294 L208.362264,300.4 L201.962264,300.4 L201.962264,303.6 L208.362264,303.6 L208.362264,310 L211.562264,310 L211.562264,303.6 L217.962264,303.6 L217.962264,300.4 L211.562264,300.4 Z" id="Fill-1"></path>
                <path d="M361.562264,348.4 L361.562264,342 L358.362264,342 L358.362264,348.4 L351.962264,348.4 L351.962264,351.6 L358.362264,351.6 L358.362264,358 L361.562264,358 L361.562264,351.6 L367.962264,351.6 L367.962264,348.4 L361.562264,348.4 Z M361.562264,300.4 L361.562264,294 L358.362264,294 L358.362264,300.4 L351.962264,300.4 L351.962264,303.6 L358.362264,303.6 L358.362264,310 L361.562264,310 L361.562264,303.6 L367.962264,303.6 L367.962264,300.4 L361.562264,300.4 Z M313.562264,348.4 L313.562264,342 L310.362264,342 L310.362264,348.4 L303.962264,348.4 L303.962264,351.6 L310.362264,351.6 L310.362264,358 L313.562264,358 L313.562264,351.6 L319.962264,351.6 L319.962264,348.4 L313.562264,348.4 Z M313.562264,300.4 L313.562264,294 L310.362264,294 L310.362264,300.4 L303.962264,300.4 L303.962264,303.6 L310.362264,303.6 L310.362264,310 L313.562264,310 L313.562264,303.6 L319.962264,303.6 L319.962264,300.4 L313.562264,300.4 Z" id="Fill-1"></path>
                <path d="M259.562264,445.4 L259.562264,439 L256.362264,439 L256.362264,445.4 L249.962264,445.4 L249.962264,448.6 L256.362264,448.6 L256.362264,455 L259.562264,455 L259.562264,448.6 L265.962264,448.6 L265.962264,445.4 L259.562264,445.4 Z M259.562264,397.4 L259.562264,391 L256.362264,391 L256.362264,397.4 L249.962264,397.4 L249.962264,400.6 L256.362264,400.6 L256.362264,407 L259.562264,407 L259.562264,400.6 L265.962264,400.6 L265.962264,397.4 L259.562264,397.4 Z M211.562264,445.4 L211.562264,439 L208.362264,439 L208.362264,445.4 L201.962264,445.4 L201.962264,448.6 L208.362264,448.6 L208.362264,455 L211.562264,455 L211.562264,448.6 L217.962264,448.6 L217.962264,445.4 L211.562264,445.4 Z M211.562264,397.4 L211.562264,391 L208.362264,391 L208.362264,397.4 L201.962264,397.4 L201.962264,400.6 L208.362264,400.6 L208.362264,407 L211.562264,407 L211.562264,400.6 L217.962264,400.6 L217.962264,397.4 L211.562264,397.4 Z" id="Fill-1"></path>
                <path d="M361.562264,445.4 L361.562264,439 L358.362264,439 L358.362264,445.4 L351.962264,445.4 L351.962264,448.6 L358.362264,448.6 L358.362264,455 L361.562264,455 L361.562264,448.6 L367.962264,448.6 L367.962264,445.4 L361.562264,445.4 Z M361.562264,397.4 L361.562264,391 L358.362264,391 L358.362264,397.4 L351.962264,397.4 L351.962264,400.6 L358.362264,400.6 L358.362264,407 L361.562264,407 L361.562264,400.6 L367.962264,400.6 L367.962264,397.4 L361.562264,397.4 Z M313.562264,445.4 L313.562264,439 L310.362264,439 L310.362264,445.4 L303.962264,445.4 L303.962264,448.6 L310.362264,448.6 L310.362264,455 L313.562264,455 L313.562264,448.6 L319.962264,448.6 L319.962264,445.4 L313.562264,445.4 Z M313.562264,397.4 L313.562264,391 L310.362264,391 L310.362264,397.4 L303.962264,397.4 L303.962264,400.6 L310.362264,400.6 L310.362264,407 L313.562264,407 L313.562264,400.6 L319.962264,400.6 L319.962264,397.4 L313.562264,397.4 Z" id="Fill-1"></path>
            </g>
        </g>
    </g>
</svg>