<?xml version="1.0" encoding="UTF-8"?>
<svg width="300px" height="371px" viewBox="0 0 300 371" version="1.1" xmlns="http://www.w3.org/2000/svg" xmlns:xlink="http://www.w3.org/1999/xlink">
    <!-- Generator: Sketch 58 (84663) - https://sketch.com -->
    <title>Cross_white</title>
    <desc>Created with Sketch.</desc>
    <g id="Page-1" stroke="none" stroke-width="1" fill="none" fill-rule="evenodd">
        <g id="Services" transform="translate(-809.000000, -2253.000000)" fill="#FFFFFF">
            <g id="Cross_white" transform="translate(809.000000, 2253.000000)">
                <path d="M47.5210682,124.2 L47.5210682,119 L44.9210682,119 L44.9210682,124.2 L39.7210682,124.2 L39.7210682,126.8 L44.9210682,126.8 L44.9210682,132 L47.5210682,132 L47.5210682,126.8 L52.7210682,126.8 L52.7210682,124.2 L47.5210682,124.2 Z M47.5210682,85.2 L47.5210682,80 L44.9210682,80 L44.9210682,85.2 L39.7210682,85.2 L39.7210682,87.8 L44.9210682,87.8 L44.9210682,93 L47.5210682,93 L47.5210682,87.8 L52.7210682,87.8 L52.7210682,85.2 L47.5210682,85.2 Z M8.52106825,124.2 L8.52106825,119 L5.92106825,119 L5.92106825,124.2 L0.721068249,124.2 L0.721068249,126.8 L5.92106825,126.8 L5.92106825,132 L8.52106825,132 L8.52106825,126.8 L13.7210682,126.8 L13.7210682,124.2 L8.52106825,124.2 Z M8.52106825,85.2 L8.52106825,80 L5.92106825,80 L5.92106825,85.2 L0.721068249,85.2 L0.721068249,87.8 L5.92106825,87.8 L5.92106825,93 L8.52106825,93 L8.52106825,87.8 L13.7210682,87.8 L13.7210682,85.2 L8.52106825,85.2 Z" id="Fill-1"></path>
                <path d="M130.521068,124.2 L130.521068,119 L127.921068,119 L127.921068,124.2 L122.721068,124.2 L122.721068,126.8 L127.921068,126.8 L127.921068,132 L130.521068,132 L130.521068,126.8 L135.721068,126.8 L135.721068,124.2 L130.521068,124.2 Z M130.521068,85.2 L130.521068,80 L127.921068,80 L127.921068,85.2 L122.721068,85.2 L122.721068,87.8 L127.921068,87.8 L127.921068,93 L130.521068,93 L130.521068,87.8 L135.721068,87.8 L135.721068,85.2 L130.521068,85.2 Z M91.5210682,124.2 L91.5210682,119 L88.9210682,119 L88.9210682,124.2 L83.7210682,124.2 L83.7210682,126.8 L88.9210682,126.8 L88.9210682,132 L91.5210682,132 L91.5210682,126.8 L96.7210682,126.8 L96.7210682,124.2 L91.5210682,124.2 Z M91.5210682,85.2 L91.5210682,80 L88.9210682,80 L88.9210682,85.2 L83.7210682,85.2 L83.7210682,87.8 L88.9210682,87.8 L88.9210682,93 L91.5210682,93 L91.5210682,87.8 L96.7210682,87.8 L96.7210682,85.2 L91.5210682,85.2 Z" id="Fill-1"></path>
                <path d="M47.5210682,203.2 L47.5210682,198 L44.9210682,198 L44.9210682,203.2 L39.7210682,203.2 L39.7210682,205.8 L44.9210682,205.8 L44.9210682,211 L47.5210682,211 L47.5210682,205.8 L52.7210682,205.8 L52.7210682,203.2 L47.5210682,203.2 Z M47.5210682,164.2 L47.5210682,159 L44.9210682,159 L44.9210682,164.2 L39.7210682,164.2 L39.7210682,166.8 L44.9210682,166.8 L44.9210682,172 L47.5210682,172 L47.5210682,166.8 L52.7210682,166.8 L52.7210682,164.2 L47.5210682,164.2 Z M8.52106825,203.2 L8.52106825,198 L5.92106825,198 L5.92106825,203.2 L0.721068249,203.2 L0.721068249,205.8 L5.92106825,205.8 L5.92106825,211 L8.52106825,211 L8.52106825,205.8 L13.7210682,205.8 L13.7210682,203.2 L8.52106825,203.2 Z M8.52106825,164.2 L8.52106825,159 L5.92106825,159 L5.92106825,164.2 L0.721068249,164.2 L0.721068249,166.8 L5.92106825,166.8 L5.92106825,172 L8.52106825,172 L8.52106825,166.8 L13.7210682,166.8 L13.7210682,164.2 L8.52106825,164.2 Z" id="Fill-1"></path>
                <path d="M130.521068,203.2 L130.521068,198 L127.921068,198 L127.921068,203.2 L122.721068,203.2 L122.721068,205.8 L127.921068,205.8 L127.921068,211 L130.521068,211 L130.521068,205.8 L135.721068,205.8 L135.721068,203.2 L130.521068,203.2 Z M130.521068,164.2 L130.521068,159 L127.921068,159 L127.921068,164.2 L122.721068,164.2 L122.721068,166.8 L127.921068,166.8 L127.921068,172 L130.521068,172 L130.521068,166.8 L135.721068,166.8 L135.721068,164.2 L130.521068,164.2 Z M91.5210682,203.2 L91.5210682,198 L88.9210682,198 L88.9210682,203.2 L83.7210682,203.2 L83.7210682,205.8 L88.9210682,205.8 L88.9210682,211 L91.5210682,211 L91.5210682,205.8 L96.7210682,205.8 L96.7210682,203.2 L91.5210682,203.2 Z M91.5210682,164.2 L91.5210682,159 L88.9210682,159 L88.9210682,164.2 L83.7210682,164.2 L83.7210682,166.8 L88.9210682,166.8 L88.9210682,172 L91.5210682,172 L91.5210682,166.8 L96.7210682,166.8 L96.7210682,164.2 L91.5210682,164.2 Z" id="Fill-1"></path>
                <path d="M47.5210682,284.2 L47.5210682,279 L44.9210682,279 L44.9210682,284.2 L39.7210682,284.2 L39.7210682,286.8 L44.9210682,286.8 L44.9210682,292 L47.5210682,292 L47.5210682,286.8 L52.7210682,286.8 L52.7210682,284.2 L47.5210682,284.2 Z M47.5210682,245.2 L47.5210682,240 L44.9210682,240 L44.9210682,245.2 L39.7210682,245.2 L39.7210682,247.8 L44.9210682,247.8 L44.9210682,253 L47.5210682,253 L47.5210682,247.8 L52.7210682,247.8 L52.7210682,245.2 L47.5210682,245.2 Z M8.52106825,284.2 L8.52106825,279 L5.92106825,279 L5.92106825,284.2 L0.721068249,284.2 L0.721068249,286.8 L5.92106825,286.8 L5.92106825,292 L8.52106825,292 L8.52106825,286.8 L13.7210682,286.8 L13.7210682,284.2 L8.52106825,284.2 Z M8.52106825,245.2 L8.52106825,240 L5.92106825,240 L5.92106825,245.2 L0.721068249,245.2 L0.721068249,247.8 L5.92106825,247.8 L5.92106825,253 L8.52106825,253 L8.52106825,247.8 L13.7210682,247.8 L13.7210682,245.2 L8.52106825,245.2 Z" id="Fill-1"></path>
                <path d="M130.521068,284.2 L130.521068,279 L127.921068,279 L127.921068,284.2 L122.721068,284.2 L122.721068,286.8 L127.921068,286.8 L127.921068,292 L130.521068,292 L130.521068,286.8 L135.721068,286.8 L135.721068,284.2 L130.521068,284.2 Z M130.521068,245.2 L130.521068,240 L127.921068,240 L127.921068,245.2 L122.721068,245.2 L122.721068,247.8 L127.921068,247.8 L127.921068,253 L130.521068,253 L130.521068,247.8 L135.721068,247.8 L135.721068,245.2 L130.521068,245.2 Z M91.5210682,284.2 L91.5210682,279 L88.9210682,279 L88.9210682,284.2 L83.7210682,284.2 L83.7210682,286.8 L88.9210682,286.8 L88.9210682,292 L91.5210682,292 L91.5210682,286.8 L96.7210682,286.8 L96.7210682,284.2 L91.5210682,284.2 Z M91.5210682,245.2 L91.5210682,240 L88.9210682,240 L88.9210682,245.2 L83.7210682,245.2 L83.7210682,247.8 L88.9210682,247.8 L88.9210682,253 L91.5210682,253 L91.5210682,247.8 L96.7210682,247.8 L96.7210682,245.2 L91.5210682,245.2 Z" id="Fill-1"></path>
                <path d="M47.5210682,363.2 L47.5210682,358 L44.9210682,358 L44.9210682,363.2 L39.7210682,363.2 L39.7210682,365.8 L44.9210682,365.8 L44.9210682,371 L47.5210682,371 L47.5210682,365.8 L52.7210682,365.8 L52.7210682,363.2 L47.5210682,363.2 Z M47.5210682,324.2 L47.5210682,319 L44.9210682,319 L44.9210682,324.2 L39.7210682,324.2 L39.7210682,326.8 L44.9210682,326.8 L44.9210682,332 L47.5210682,332 L47.5210682,326.8 L52.7210682,326.8 L52.7210682,324.2 L47.5210682,324.2 Z M8.52106825,363.2 L8.52106825,358 L5.92106825,358 L5.92106825,363.2 L0.721068249,363.2 L0.721068249,365.8 L5.92106825,365.8 L5.92106825,371 L8.52106825,371 L8.52106825,365.8 L13.7210682,365.8 L13.7210682,363.2 L8.52106825,363.2 Z M8.52106825,324.2 L8.52106825,319 L5.92106825,319 L5.92106825,324.2 L0.721068249,324.2 L0.721068249,326.8 L5.92106825,326.8 L5.92106825,332 L8.52106825,332 L8.52106825,326.8 L13.7210682,326.8 L13.7210682,324.2 L8.52106825,324.2 Z" id="Fill-1"></path>
                <path d="M130.521068,363.2 L130.521068,358 L127.921068,358 L127.921068,363.2 L122.721068,363.2 L122.721068,365.8 L127.921068,365.8 L127.921068,371 L130.521068,371 L130.521068,365.8 L135.721068,365.8 L135.721068,363.2 L130.521068,363.2 Z M130.521068,324.2 L130.521068,319 L127.921068,319 L127.921068,324.2 L122.721068,324.2 L122.721068,326.8 L127.921068,326.8 L127.921068,332 L130.521068,332 L130.521068,326.8 L135.721068,326.8 L135.721068,324.2 L130.521068,324.2 Z M91.5210682,363.2 L91.5210682,358 L88.9210682,358 L88.9210682,363.2 L83.7210682,363.2 L83.7210682,365.8 L88.9210682,365.8 L88.9210682,371 L91.5210682,371 L91.5210682,365.8 L96.7210682,365.8 L96.7210682,363.2 L91.5210682,363.2 Z M91.5210682,324.2 L91.5210682,319 L88.9210682,319 L88.9210682,324.2 L83.7210682,324.2 L83.7210682,326.8 L88.9210682,326.8 L88.9210682,332 L91.5210682,332 L91.5210682,326.8 L96.7210682,326.8 L96.7210682,324.2 L91.5210682,324.2 Z" id="Fill-1"></path>
                <path d="M211.521068,124.2 L211.521068,119 L208.921068,119 L208.921068,124.2 L203.721068,124.2 L203.721068,126.8 L208.921068,126.8 L208.921068,132 L211.521068,132 L211.521068,126.8 L216.721068,126.8 L216.721068,124.2 L211.521068,124.2 Z M211.521068,85.2 L211.521068,80 L208.921068,80 L208.921068,85.2 L203.721068,85.2 L203.721068,87.8 L208.921068,87.8 L208.921068,93 L211.521068,93 L211.521068,87.8 L216.721068,87.8 L216.721068,85.2 L211.521068,85.2 Z M172.521068,124.2 L172.521068,119 L169.921068,119 L169.921068,124.2 L164.721068,124.2 L164.721068,126.8 L169.921068,126.8 L169.921068,132 L172.521068,132 L172.521068,126.8 L177.721068,126.8 L177.721068,124.2 L172.521068,124.2 Z M172.521068,85.2 L172.521068,80 L169.921068,80 L169.921068,85.2 L164.721068,85.2 L164.721068,87.8 L169.921068,87.8 L169.921068,93 L172.521068,93 L172.521068,87.8 L177.721068,87.8 L177.721068,85.2 L172.521068,85.2 Z" id="Fill-1"></path>
                <path d="M294.521068,124.2 L294.521068,119 L291.921068,119 L291.921068,124.2 L286.721068,124.2 L286.721068,126.8 L291.921068,126.8 L291.921068,132 L294.521068,132 L294.521068,126.8 L299.721068,126.8 L299.721068,124.2 L294.521068,124.2 Z M294.521068,85.2 L294.521068,80 L291.921068,80 L291.921068,85.2 L286.721068,85.2 L286.721068,87.8 L291.921068,87.8 L291.921068,93 L294.521068,93 L294.521068,87.8 L299.721068,87.8 L299.721068,85.2 L294.521068,85.2 Z M255.521068,124.2 L255.521068,119 L252.921068,119 L252.921068,124.2 L247.721068,124.2 L247.721068,126.8 L252.921068,126.8 L252.921068,132 L255.521068,132 L255.521068,126.8 L260.721068,126.8 L260.721068,124.2 L255.521068,124.2 Z M255.521068,85.2 L255.521068,80 L252.921068,80 L252.921068,85.2 L247.721068,85.2 L247.721068,87.8 L252.921068,87.8 L252.921068,93 L255.521068,93 L255.521068,87.8 L260.721068,87.8 L260.721068,85.2 L255.521068,85.2 Z" id="Fill-1"></path>
                <path d="M47.5210682,44.2 L47.5210682,39 L44.9210682,39 L44.9210682,44.2 L39.7210682,44.2 L39.7210682,46.8 L44.9210682,46.8 L44.9210682,52 L47.5210682,52 L47.5210682,46.8 L52.7210682,46.8 L52.7210682,44.2 L47.5210682,44.2 Z M47.5210682,5.2 L47.5210682,0 L44.9210682,0 L44.9210682,5.2 L39.7210682,5.2 L39.7210682,7.8 L44.9210682,7.8 L44.9210682,13 L47.5210682,13 L47.5210682,7.8 L52.7210682,7.8 L52.7210682,5.2 L47.5210682,5.2 Z M8.52106825,44.2 L8.52106825,39 L5.92106825,39 L5.92106825,44.2 L0.721068249,44.2 L0.721068249,46.8 L5.92106825,46.8 L5.92106825,52 L8.52106825,52 L8.52106825,46.8 L13.7210682,46.8 L13.7210682,44.2 L8.52106825,44.2 Z M8.52106825,5.2 L8.52106825,0 L5.92106825,0 L5.92106825,5.2 L0.721068249,5.2 L0.721068249,7.8 L5.92106825,7.8 L5.92106825,13 L8.52106825,13 L8.52106825,7.8 L13.7210682,7.8 L13.7210682,5.2 L8.52106825,5.2 Z" id="Fill-1"></path>
                <path d="M130.521068,44.2 L130.521068,39 L127.921068,39 L127.921068,44.2 L122.721068,44.2 L122.721068,46.8 L127.921068,46.8 L127.921068,52 L130.521068,52 L130.521068,46.8 L135.721068,46.8 L135.721068,44.2 L130.521068,44.2 Z M130.521068,5.2 L130.521068,0 L127.921068,0 L127.921068,5.2 L122.721068,5.2 L122.721068,7.8 L127.921068,7.8 L127.921068,13 L130.521068,13 L130.521068,7.8 L135.721068,7.8 L135.721068,5.2 L130.521068,5.2 Z M91.5210682,44.2 L91.5210682,39 L88.9210682,39 L88.9210682,44.2 L83.7210682,44.2 L83.7210682,46.8 L88.9210682,46.8 L88.9210682,52 L91.5210682,52 L91.5210682,46.8 L96.7210682,46.8 L96.7210682,44.2 L91.5210682,44.2 Z M91.5210682,5.2 L91.5210682,0 L88.9210682,0 L88.9210682,5.2 L83.7210682,5.2 L83.7210682,7.8 L88.9210682,7.8 L88.9210682,13 L91.5210682,13 L91.5210682,7.8 L96.7210682,7.8 L96.7210682,5.2 L91.5210682,5.2 Z" id="Fill-1"></path>
                <path d="M211.521068,44.2 L211.521068,39 L208.921068,39 L208.921068,44.2 L203.721068,44.2 L203.721068,46.8 L208.921068,46.8 L208.921068,52 L211.521068,52 L211.521068,46.8 L216.721068,46.8 L216.721068,44.2 L211.521068,44.2 Z M211.521068,5.2 L211.521068,0 L208.921068,0 L208.921068,5.2 L203.721068,5.2 L203.721068,7.8 L208.921068,7.8 L208.921068,13 L211.521068,13 L211.521068,7.8 L216.721068,7.8 L216.721068,5.2 L211.521068,5.2 Z M172.521068,44.2 L172.521068,39 L169.921068,39 L169.921068,44.2 L164.721068,44.2 L164.721068,46.8 L169.921068,46.8 L169.921068,52 L172.521068,52 L172.521068,46.8 L177.721068,46.8 L177.721068,44.2 L172.521068,44.2 Z M172.521068,5.2 L172.521068,0 L169.921068,0 L169.921068,5.2 L164.721068,5.2 L164.721068,7.8 L169.921068,7.8 L169.921068,13 L172.521068,13 L172.521068,7.8 L177.721068,7.8 L177.721068,5.2 L172.521068,5.2 Z" id="Fill-1"></path>
                <path d="M294.521068,44.2 L294.521068,39 L291.921068,39 L291.921068,44.2 L286.721068,44.2 L286.721068,46.8 L291.921068,46.8 L291.921068,52 L294.521068,52 L294.521068,46.8 L299.721068,46.8 L299.721068,44.2 L294.521068,44.2 Z M294.521068,5.2 L294.521068,0 L291.921068,0 L291.921068,5.2 L286.721068,5.2 L286.721068,7.8 L291.921068,7.8 L291.921068,13 L294.521068,13 L294.521068,7.8 L299.721068,7.8 L299.721068,5.2 L294.521068,5.2 Z M255.521068,44.2 L255.521068,39 L252.921068,39 L252.921068,44.2 L247.721068,44.2 L247.721068,46.8 L252.921068,46.8 L252.921068,52 L255.521068,52 L255.521068,46.8 L260.721068,46.8 L260.721068,44.2 L255.521068,44.2 Z M255.521068,5.2 L255.521068,0 L252.921068,0 L252.921068,5.2 L247.721068,5.2 L247.721068,7.8 L252.921068,7.8 L252.921068,13 L255.521068,13 L255.521068,7.8 L260.721068,7.8 L260.721068,5.2 L255.521068,5.2 Z" id="Fill-1"></path>
                <path d="M47.5210682,44.2 L47.5210682,39 L44.9210682,39 L44.9210682,44.2 L39.7210682,44.2 L39.7210682,46.8 L44.9210682,46.8 L44.9210682,52 L47.5210682,52 L47.5210682,46.8 L52.7210682,46.8 L52.7210682,44.2 L47.5210682,44.2 Z M47.5210682,5.2 L47.5210682,0 L44.9210682,0 L44.9210682,5.2 L39.7210682,5.2 L39.7210682,7.8 L44.9210682,7.8 L44.9210682,13 L47.5210682,13 L47.5210682,7.8 L52.7210682,7.8 L52.7210682,5.2 L47.5210682,5.2 Z M8.52106825,44.2 L8.52106825,39 L5.92106825,39 L5.92106825,44.2 L0.721068249,44.2 L0.721068249,46.8 L5.92106825,46.8 L5.92106825,52 L8.52106825,52 L8.52106825,46.8 L13.7210682,46.8 L13.7210682,44.2 L8.52106825,44.2 Z M8.52106825,5.2 L8.52106825,0 L5.92106825,0 L5.92106825,5.2 L0.721068249,5.2 L0.721068249,7.8 L5.92106825,7.8 L5.92106825,13 L8.52106825,13 L8.52106825,7.8 L13.7210682,7.8 L13.7210682,5.2 L8.52106825,5.2 Z" id="Fill-1"></path>
                <path d="M130.521068,44.2 L130.521068,39 L127.921068,39 L127.921068,44.2 L122.721068,44.2 L122.721068,46.8 L127.921068,46.8 L127.921068,52 L130.521068,52 L130.521068,46.8 L135.721068,46.8 L135.721068,44.2 L130.521068,44.2 Z M130.521068,5.2 L130.521068,0 L127.921068,0 L127.921068,5.2 L122.721068,5.2 L122.721068,7.8 L127.921068,7.8 L127.921068,13 L130.521068,13 L130.521068,7.8 L135.721068,7.8 L135.721068,5.2 L130.521068,5.2 Z M91.5210682,44.2 L91.5210682,39 L88.9210682,39 L88.9210682,44.2 L83.7210682,44.2 L83.7210682,46.8 L88.9210682,46.8 L88.9210682,52 L91.5210682,52 L91.5210682,46.8 L96.7210682,46.8 L96.7210682,44.2 L91.5210682,44.2 Z M91.5210682,5.2 L91.5210682,0 L88.9210682,0 L88.9210682,5.2 L83.7210682,5.2 L83.7210682,7.8 L88.9210682,7.8 L88.9210682,13 L91.5210682,13 L91.5210682,7.8 L96.7210682,7.8 L96.7210682,5.2 L91.5210682,5.2 Z" id="Fill-1"></path>
                <path d="M211.521068,44.2 L211.521068,39 L208.921068,39 L208.921068,44.2 L203.721068,44.2 L203.721068,46.8 L208.921068,46.8 L208.921068,52 L211.521068,52 L211.521068,46.8 L216.721068,46.8 L216.721068,44.2 L211.521068,44.2 Z M211.521068,5.2 L211.521068,0 L208.921068,0 L208.921068,5.2 L203.721068,5.2 L203.721068,7.8 L208.921068,7.8 L208.921068,13 L211.521068,13 L211.521068,7.8 L216.721068,7.8 L216.721068,5.2 L211.521068,5.2 Z M172.521068,44.2 L172.521068,39 L169.921068,39 L169.921068,44.2 L164.721068,44.2 L164.721068,46.8 L169.921068,46.8 L169.921068,52 L172.521068,52 L172.521068,46.8 L177.721068,46.8 L177.721068,44.2 L172.521068,44.2 Z M172.521068,5.2 L172.521068,0 L169.921068,0 L169.921068,5.2 L164.721068,5.2 L164.721068,7.8 L169.921068,7.8 L169.921068,13 L172.521068,13 L172.521068,7.8 L177.721068,7.8 L177.721068,5.2 L172.521068,5.2 Z" id="Fill-1"></path>
                <path d="M294.521068,44.2 L294.521068,39 L291.921068,39 L291.921068,44.2 L286.721068,44.2 L286.721068,46.8 L291.921068,46.8 L291.921068,52 L294.521068,52 L294.521068,46.8 L299.721068,46.8 L299.721068,44.2 L294.521068,44.2 Z M294.521068,5.2 L294.521068,0 L291.921068,0 L291.921068,5.2 L286.721068,5.2 L286.721068,7.8 L291.921068,7.8 L291.921068,13 L294.521068,13 L294.521068,7.8 L299.721068,7.8 L299.721068,5.2 L294.521068,5.2 Z M255.521068,44.2 L255.521068,39 L252.921068,39 L252.921068,44.2 L247.721068,44.2 L247.721068,46.8 L252.921068,46.8 L252.921068,52 L255.521068,52 L255.521068,46.8 L260.721068,46.8 L260.721068,44.2 L255.521068,44.2 Z M255.521068,5.2 L255.521068,0 L252.921068,0 L252.921068,5.2 L247.721068,5.2 L247.721068,7.8 L252.921068,7.8 L252.921068,13 L255.521068,13 L255.521068,7.8 L260.721068,7.8 L260.721068,5.2 L255.521068,5.2 Z" id="Fill-1"></path>
                <path d="M211.521068,203.2 L211.521068,198 L208.921068,198 L208.921068,203.2 L203.721068,203.2 L203.721068,205.8 L208.921068,205.8 L208.921068,211 L211.521068,211 L211.521068,205.8 L216.721068,205.8 L216.721068,203.2 L211.521068,203.2 Z M211.521068,164.2 L211.521068,159 L208.921068,159 L208.921068,164.2 L203.721068,164.2 L203.721068,166.8 L208.921068,166.8 L208.921068,172 L211.521068,172 L211.521068,166.8 L216.721068,166.8 L216.721068,164.2 L211.521068,164.2 Z M172.521068,203.2 L172.521068,198 L169.921068,198 L169.921068,203.2 L164.721068,203.2 L164.721068,205.8 L169.921068,205.8 L169.921068,211 L172.521068,211 L172.521068,205.8 L177.721068,205.8 L177.721068,203.2 L172.521068,203.2 Z M172.521068,164.2 L172.521068,159 L169.921068,159 L169.921068,164.2 L164.721068,164.2 L164.721068,166.8 L169.921068,166.8 L169.921068,172 L172.521068,172 L172.521068,166.8 L177.721068,166.8 L177.721068,164.2 L172.521068,164.2 Z" id="Fill-1"></path>
                <path d="M294.521068,203.2 L294.521068,198 L291.921068,198 L291.921068,203.2 L286.721068,203.2 L286.721068,205.8 L291.921068,205.8 L291.921068,211 L294.521068,211 L294.521068,205.8 L299.721068,205.8 L299.721068,203.2 L294.521068,203.2 Z M294.521068,164.2 L294.521068,159 L291.921068,159 L291.921068,164.2 L286.721068,164.2 L286.721068,166.8 L291.921068,166.8 L291.921068,172 L294.521068,172 L294.521068,166.8 L299.721068,166.8 L299.721068,164.2 L294.521068,164.2 Z M255.521068,203.2 L255.521068,198 L252.921068,198 L252.921068,203.2 L247.721068,203.2 L247.721068,205.8 L252.921068,205.8 L252.921068,211 L255.521068,211 L255.521068,205.8 L260.721068,205.8 L260.721068,203.2 L255.521068,203.2 Z M255.521068,164.2 L255.521068,159 L252.921068,159 L252.921068,164.2 L247.721068,164.2 L247.721068,166.8 L252.921068,166.8 L252.921068,172 L255.521068,172 L255.521068,166.8 L260.721068,166.8 L260.721068,164.2 L255.521068,164.2 Z" id="Fill-1"></path>
                <path d="M211.521068,284.2 L211.521068,279 L208.921068,279 L208.921068,284.2 L203.721068,284.2 L203.721068,286.8 L208.921068,286.8 L208.921068,292 L211.521068,292 L211.521068,286.8 L216.721068,286.8 L216.721068,284.2 L211.521068,284.2 Z M211.521068,245.2 L211.521068,240 L208.921068,240 L208.921068,245.2 L203.721068,245.2 L203.721068,247.8 L208.921068,247.8 L208.921068,253 L211.521068,253 L211.521068,247.8 L216.721068,247.8 L216.721068,245.2 L211.521068,245.2 Z M172.521068,284.2 L172.521068,279 L169.921068,279 L169.921068,284.2 L164.721068,284.2 L164.721068,286.8 L169.921068,286.8 L169.921068,292 L172.521068,292 L172.521068,286.8 L177.721068,286.8 L177.721068,284.2 L172.521068,284.2 Z M172.521068,245.2 L172.521068,240 L169.921068,240 L169.921068,245.2 L164.721068,245.2 L164.721068,247.8 L169.921068,247.8 L169.921068,253 L172.521068,253 L172.521068,247.8 L177.721068,247.8 L177.721068,245.2 L172.521068,245.2 Z" id="Fill-1"></path>
                <path d="M294.521068,284.2 L294.521068,279 L291.921068,279 L291.921068,284.2 L286.721068,284.2 L286.721068,286.8 L291.921068,286.8 L291.921068,292 L294.521068,292 L294.521068,286.8 L299.721068,286.8 L299.721068,284.2 L294.521068,284.2 Z M294.521068,245.2 L294.521068,240 L291.921068,240 L291.921068,245.2 L286.721068,245.2 L286.721068,247.8 L291.921068,247.8 L291.921068,253 L294.521068,253 L294.521068,247.8 L299.721068,247.8 L299.721068,245.2 L294.521068,245.2 Z M255.521068,284.2 L255.521068,279 L252.921068,279 L252.921068,284.2 L247.721068,284.2 L247.721068,286.8 L252.921068,286.8 L252.921068,292 L255.521068,292 L255.521068,286.8 L260.721068,286.8 L260.721068,284.2 L255.521068,284.2 Z M255.521068,245.2 L255.521068,240 L252.921068,240 L252.921068,245.2 L247.721068,245.2 L247.721068,247.8 L252.921068,247.8 L252.921068,253 L255.521068,253 L255.521068,247.8 L260.721068,247.8 L260.721068,245.2 L255.521068,245.2 Z" id="Fill-1"></path>
                <path d="M211.521068,363.2 L211.521068,358 L208.921068,358 L208.921068,363.2 L203.721068,363.2 L203.721068,365.8 L208.921068,365.8 L208.921068,371 L211.521068,371 L211.521068,365.8 L216.721068,365.8 L216.721068,363.2 L211.521068,363.2 Z M211.521068,324.2 L211.521068,319 L208.921068,319 L208.921068,324.2 L203.721068,324.2 L203.721068,326.8 L208.921068,326.8 L208.921068,332 L211.521068,332 L211.521068,326.8 L216.721068,326.8 L216.721068,324.2 L211.521068,324.2 Z M172.521068,363.2 L172.521068,358 L169.921068,358 L169.921068,363.2 L164.721068,363.2 L164.721068,365.8 L169.921068,365.8 L169.921068,371 L172.521068,371 L172.521068,365.8 L177.721068,365.8 L177.721068,363.2 L172.521068,363.2 Z M172.521068,324.2 L172.521068,319 L169.921068,319 L169.921068,324.2 L164.721068,324.2 L164.721068,326.8 L169.921068,326.8 L169.921068,332 L172.521068,332 L172.521068,326.8 L177.721068,326.8 L177.721068,324.2 L172.521068,324.2 Z" id="Fill-1"></path>
                <path d="M294.521068,363.2 L294.521068,358 L291.921068,358 L291.921068,363.2 L286.721068,363.2 L286.721068,365.8 L291.921068,365.8 L291.921068,371 L294.521068,371 L294.521068,365.8 L299.721068,365.8 L299.721068,363.2 L294.521068,363.2 Z M294.521068,324.2 L294.521068,319 L291.921068,319 L291.921068,324.2 L286.721068,324.2 L286.721068,326.8 L291.921068,326.8 L291.921068,332 L294.521068,332 L294.521068,326.8 L299.721068,326.8 L299.721068,324.2 L294.521068,324.2 Z M255.521068,363.2 L255.521068,358 L252.921068,358 L252.921068,363.2 L247.721068,363.2 L247.721068,365.8 L252.921068,365.8 L252.921068,371 L255.521068,371 L255.521068,365.8 L260.721068,365.8 L260.721068,363.2 L255.521068,363.2 Z M255.521068,324.2 L255.521068,319 L252.921068,319 L252.921068,324.2 L247.721068,324.2 L247.721068,326.8 L252.921068,326.8 L252.921068,332 L255.521068,332 L255.521068,326.8 L260.721068,326.8 L260.721068,324.2 L255.521068,324.2 Z" id="Fill-1"></path>
            </g>
        </g>
    </g>
</svg>