<?xml version="1.0" encoding="UTF-8"?>
<svg width="104px" height="105px" viewBox="0 0 104 105" version="1.1" xmlns="http://www.w3.org/2000/svg" >

    <defs>
        <path d="M66.7234,0 C46.2389,0 29.4509,16.6224 29.4509,37.1931 C29.4509,41.6952 30.2562,46.0138 31.7338,50.0073 L23.2858,50.0073 C22.9101,50.0073 22.5473,50.1324 22.2552,50.3618 C21.6497,50.8363 21.0987,51.3779 20.6023,51.9734 L20.6023,47.6879 C20.6023,47.3131 20.4729,46.951 20.243,46.6591 C18.006,43.8235 14.2915,42.1286 10.2971,42.1286 C6.3068,42.1286 2.5917,43.8235 0.3588,46.6591 C0.1294,46.951 0,47.3131 0,47.6879 L0,101.2144 C0,103.2801 1.686,104.9625 3.7563,104.9625 L16.8454,104.9625 C18.2731,104.9625 19.5167,104.1629 20.1512,102.9927 C20.6563,103.6049 21.2201,104.1588 21.8378,104.6418 C22.1298,104.875 22.4927,105 22.8683,105 L76.5149,105 C78.5852,105 80.2718,103.3175 80.2718,101.2519 L80.2718,87.7797 L85.2804,87.7797 C87.3502,87.7797 89.0368,86.0975 89.0368,84.0318 L89.0368,70.976 C89.0368,69.7682 88.4608,68.6937 87.572,68.0107 C98.1344,60.8375 104,49.1957 104,37.1931 C104,16.616 87.2091,0 66.7234,0 Z M91.0775,60.7436 C88.5566,58.5656 85.7896,56.7582 82.8385,55.3465 C85.18,50.2952 86.5948,44.6936 86.9124,38.8591 L100.619,38.8591 C100.206,47.342 96.6458,55.0175 91.0775,60.7436 Z M85.2804,70.5595 C85.5097,70.5595 85.6978,70.7466 85.6978,70.976 L85.6978,75.8361 L55.7708,75.8361 C53.5652,75.8361 53.5617,79.1676 55.7708,79.1676 L85.6978,79.1676 L85.6978,84.0318 C85.6978,84.2606 85.5097,84.4483 85.2804,84.4483 C83.0231,84.4483 34.3644,84.4483 32.2429,84.4483 C30.4524,82.8159 29.4004,80.263 29.4004,77.5056 C29.4004,74.7448 30.4524,72.1919 32.2429,70.5595 L50.2739,70.5595 C55.5461,73.161 61.1789,74.3827 66.7234,74.3827 C72.4566,74.3827 78.0522,73.0857 83.1764,70.5595 L85.2804,70.5595 Z M76.9323,93.0562 L48.7842,93.0562 C46.578,93.0562 46.5751,96.3878 48.7842,96.3878 L76.9323,96.3878 L76.9323,101.2519 C76.9323,101.4809 76.7448,101.6684 76.5149,101.6684 L23.4779,101.6684 C21.6874,100.0359 20.6354,97.4831 20.6354,94.7261 C20.6354,91.965 21.6874,89.4122 23.4779,87.7797 L76.9323,87.7797 L76.9323,93.0562 Z M8.6314,73.5457 L8.6314,101.6309 L3.7563,101.6309 C3.527,101.6309 3.3389,101.4435 3.3389,101.2144 L3.3389,48.2961 C4.9749,46.5137 7.5335,45.46 10.2971,45.46 C13.0641,45.46 15.6227,46.5137 17.2629,48.2961 L17.2629,101.2144 C17.2629,101.4435 17.0753,101.6309 16.8454,101.6309 L11.9703,101.6309 L11.9703,73.5457 C11.9703,71.3444 8.6314,71.341 8.6314,73.5457 Z M23.8954,53.3393 L33.1486,53.3393 C35.727,58.6484 39.7835,63.6122 44.7729,67.2281 C35.4018,67.2281 33.5713,67.2281 23.8954,67.2281 C22.1049,65.5951 21.0529,63.0428 21.0529,60.2854 C21.0529,57.5246 22.1049,54.9717 23.8954,53.3393 Z M42.3688,13.6431 C44.7143,15.6671 47.2816,17.3743 50.0069,18.7402 C47.8198,23.9253 46.5843,29.6347 46.4798,35.5277 L32.8316,35.5277 C33.245,27.0447 36.801,19.3693 42.3688,13.6431 Z M60.5043,3.902 C56.806,7.1923 53.7342,11.2154 51.4177,15.717 C49.0721,14.5341 46.8601,13.0726 44.8229,11.3527 C49.2306,7.621 54.6021,4.997 60.5043,3.902 Z M100.619,35.5277 L86.9745,35.5277 C86.8706,29.6347 85.6351,23.9253 83.4481,18.7362 C86.1693,17.3702 88.7319,15.6631 91.0775,13.6391 C96.6458,19.3653 100.206,27.0401 100.619,35.5277 Z M68.3926,68.1856 C68.3926,62.149 68.3926,60.9267 68.3926,55.076 C71.7994,55.2376 75.1766,55.9252 78.2183,57.0247 C75.8275,61.2534 72.5617,65.0344 68.3926,68.1856 Z M52.1312,58.3159 C54.9185,63.0828 58.3486,67.4719 63.0669,70.8549 C56.442,70.1558 50.0312,67.4453 44.8229,63.03 C47.1707,61.0414 49.925,59.3285 52.1312,58.3159 Z M49.8861,38.8591 L65.0537,38.8591 L65.0537,51.6733 L65.0537,51.7399 C60.9774,51.9218 57.0655,52.7676 53.6842,54.0431 C51.4171,49.1703 50.1857,44.0008 49.8861,38.8591 Z M68.3926,35.5277 L68.3926,22.6428 C72.5501,22.4592 76.6025,21.5932 80.4053,20.094 C82.4042,24.858 83.5358,30.1056 83.6356,35.5277 L68.3926,35.5277 Z M68.3926,19.3067 L68.3926,4.485 C72.7835,7.7502 76.386,12.0814 78.9858,17.0661 C75.6301,18.3701 72.0572,19.1318 68.3926,19.3067 Z M65.0537,19.3067 C61.3931,19.1318 57.8243,18.3701 54.4686,17.0702 C57.0649,12.0855 60.6628,7.7588 65.0537,4.489 L65.0537,19.3067 Z M65.0537,22.6428 L65.0537,35.5277 L49.8193,35.5277 C49.9192,30.1097 51.0501,24.862 53.0497,20.098 C56.8519,21.5932 60.8967,22.4592 65.0537,22.6428 Z M65.0537,68.1775 C61.2567,65.3738 57.8568,61.5888 55.2326,57.0247 C58.3631,55.9003 61.6689,55.2382 65.0537,55.076 L65.0537,68.1775 Z M79.7707,54.0431 C76.1659,52.7247 72.488,51.9218 68.3926,51.7399 L68.3926,51.6733 C68.3926,48.7717 68.3926,58.057 68.3926,38.8591 L83.5689,38.8591 C83.2641,44.0738 82.0025,49.2444 79.7707,54.0431 Z M82.0373,15.7129 C79.7208,11.2108 76.649,7.1964 72.9548,3.907 C78.8523,4.997 84.2156,7.621 88.6234,11.3486 C86.5908,13.0726 84.3788,14.53 82.0373,15.7129 Z M46.5425,38.8591 C46.8659,44.8199 48.3522,50.5223 50.6165,55.3465 C47.403,56.877 44.8356,58.6565 42.3688,60.7396 C36.6611,54.8895 33.2357,47.1295 32.8316,38.8591 L46.5425,38.8591 Z M20.6023,68.594 C21.0987,69.1895 21.6497,69.7265 22.2552,70.2015 C22.5473,70.4344 22.9101,70.5595 23.2858,70.5595 L27.9734,70.5595 C26.746,72.5586 26.0615,74.9782 26.0615,77.5056 C26.0615,80.0336 26.746,82.4492 27.9734,84.4483 L22.8683,84.4483 C22.4927,84.4483 22.1298,84.5728 21.8378,84.8022 C21.3995,85.148 20.9861,85.5269 20.6023,85.9388 L20.6023,68.594 Z M82.3752,67.2281 C79.0148,69.0059 74.772,70.5595 70.7758,70.5595 C75.0088,67.348 78.6642,63.0729 81.3191,58.3159 C83.9277,59.5567 86.3824,61.1352 88.6234,63.0341 C86.7121,64.6544 84.6168,66.062 82.3752,67.2281 Z" id="path-1"></path>
    </defs>
    <g id="Page-1" stroke="none" stroke-width="1" fill="none" fill-rule="evenodd">
        <g id="About-us" transform="translate(-680.000000, -5003.000000)">
            <g id="Group-3" transform="translate(680.000000, 5003.000000)">
                <mask id="mask-2" fill="white">
                    <use xlink:href="#path-1"></use>
                </mask>
                <g id="Clip-2"></g>
                <polygon id="Fill-1" fill="#797979" mask="url(#mask-2)" points="-5 110 109 110 109 -5 -5 -5"></polygon>
            </g>
        </g>
    </g>
</svg>