<?xml version="1.0" encoding="UTF-8"?>
<svg width="104px" height="103px" viewBox="0 0 104 103" version="1.1" xmlns="http://www.w3.org/2000/svg" >
   
    <g id="Page-1" stroke="none" stroke-width="1" fill="none" fill-rule="evenodd">
        <g id="About-us" transform="translate(-927.000000, -4678.000000)" fill="#797979" stroke="#FFFFFF" stroke-width="2">
            <g id="Group-4" transform="translate(928.000000, 4679.000000)">
                <path d="M6.04070235,39.6210408 C6.39881017,39.7667638 6.77774327,39.8394274 7.15667638,39.8394274 C7.54873416,39.8394274 7.94079195,39.761418 8.30893628,39.6063892 L17.1734608,35.8641172 C18.6807206,35.2273706 19.3876519,33.4889891 18.7509564,31.9806759 C18.1142411,30.4723626 16.3769926,29.7661204 14.8681887,30.4028669 L12.6995084,31.3175962 C19.427798,16.0000396 34.6501319,5.92831651 51.5873053,5.92831651 C70.9526438,5.92831651 87.8634887,19.0251798 92.7117023,37.7769308 C93.0567449,39.1129898 94.2599396,40 95.5789404,40 C95.8244095,40 96.0744317,39.969113 96.3228703,39.9049632 C97.9073341,39.495117 98.8605066,37.8781054 98.4507315,36.2933667 C92.9254981,14.9239458 73.654586,0 51.5873053,0 C32.1782179,0 14.747018,11.6079534 7.14663986,29.2287665 L6.14566021,26.8575982 C5.50973674,25.349285 3.77169638,24.6422508 2.26366457,25.2789974 C0.755632762,25.9159419 0.0487014036,27.6541254 0.685396911,29.1624387 L4.42616861,38.0277884 C4.7317777,38.75185 5.31215387,39.3252387 6.04070235,39.6210408 Z" id="Fill-1"></path>
                <path d="M101.314851,70.8252475 L97.5741749,61.8369977 C97.2685226,61.1028984 96.6873083,60.5213601 95.9596026,60.2208552 C95.2318969,59.9211531 94.4153065,59.9265731 93.6913621,60.2365127 L84.8266554,64.0306638 C83.3185863,64.6754346 82.6124584,66.4387182 83.2491019,67.9679412 C83.8851515,69.4971641 85.6240435,70.213197 87.1313208,69.5676232 L89.6133595,68.5055178 C83.0539121,84.4518726 67.6184742,94.9904027 50.4124705,94.9904027 C31.0469071,94.9904027 14.1358064,81.711978 9.28749683,62.6993686 C8.87767736,61.0926608 7.26003666,60.1277127 5.67634633,60.5426383 C4.09190374,60.9581662 3.13953176,62.5975944 3.54933143,64.2043023 C9.07371843,85.8691639 28.3449335,101 50.4124705,101 C69.9314539,101 87.4500385,89.098177 94.9808819,71.0639251 L95.8538912,73.1620399 C96.3315718,74.3092582 97.4298611,74.9995966 98.585955,74.9995966 C98.969604,74.9995966 99.3607755,74.9229146 99.736704,74.7617219 C101.244773,74.1167503 101.950901,72.3544704 101.314851,70.8252475 Z" id="Fill-2"></path>
                <path d="M58.5905545,20 L43.4094455,20 C41.7968902,20 40.489919,21.3344295 40.489919,22.9800666 L40.489919,28.3454608 L38.2273883,28.3454608 C35.6118856,28.3454608 33.4831333,30.5384489 33.4831333,33.2335904 L33.4831333,77.1118704 C33.4831333,79.8070119 35.6118856,82 38.2273883,82 L63.7726117,82 C66.3881144,82 68.5168667,79.8070119 68.5168667,77.1118704 L68.5168667,33.2335904 C68.5168667,30.5384489 66.3881144,28.3454608 63.7726117,28.3454608 L61.510081,28.3454608 L61.510081,22.9800666 C61.510081,21.3344295 60.2023297,20 58.5905545,20 Z M62.6778136,34.3069878 L62.6778136,76.0376766 L39.3221864,76.0376766 L39.3221864,34.3069878 L43.4094455,34.3069878 C45.0220008,34.3069878 46.328777,32.9727574 46.328777,31.3263238 L46.328777,25.9607305 L55.671223,25.9607305 L55.671223,31.3263238 C55.671223,32.9727574 56.9779992,34.3069878 58.5905545,34.3069878 L62.6778136,34.3069878 Z" id="Fill-3"></path>
            </g>
        </g>
    </g>
</svg>