<?xml version="1.0" encoding="UTF-8"?>
<svg width="100px" height="111px" viewBox="0 0 100 111" version="1.1" xmlns="http://www.w3.org/2000/svg" >
  
    <g id="Page-1" stroke="none" stroke-width="1" fill="none" fill-rule="evenodd">
        <g id="About-us" transform="translate(-434.000000, -4669.000000)" fill="#797979">
            <g id="Group-4" transform="translate(434.000000, 4669.000000)">
                <path d="M99.2024055,14.9217245 L94.4539464,10.7449077 L99.2024055,6.56917494 C99.9407509,5.91878304 100.193377,4.90503888 99.8467757,3.98538474 C99.4982212,3.06486341 98.6376864,2.47040522 97.6534429,2.47040522 L78.0035166,2.47040522 L78.0035166,1.62684693 C78.0035166,0.728222125 77.2745036,0 76.37512,0 C75.4755193,0 74.7465064,0.728222125 74.7465064,1.62684693 L74.7465064,23.5673839 L61.3709963,30.8225055 C61.2972051,30.234768 61.1209745,29.65722 60.8418705,29.1134924 L58.9573753,25.4381278 C57.6636432,22.9143905 54.5557345,21.9143045 52.0309927,23.205766 L50.5736179,23.9508983 C49.3493363,24.5776593 48.4432246,25.6412669 48.0208789,26.9487714 C47.5987503,28.2556255 47.7116073,29.6487649 48.3388319,30.8706345 L50.2235441,34.5468663 C50.6634695,35.4047332 51.3136995,36.0839591 52.0785229,36.5598292 C51.078002,37.90549 50.6033514,39.5603038 50.1150278,41.2795064 L49.7640858,42.5208877 C49.5190559,43.3856922 50.0225718,44.2849674 50.8880983,44.5288643 C51.0356806,44.5711398 51.1847821,44.5906515 51.3314962,44.5906515 C52.0420614,44.5906515 52.6946788,44.1232366 52.8982555,43.4058543 L53.2491974,42.1670745 C53.9630181,39.6526595 54.4014242,38.3061315 55.7967276,37.5490753 L58.2986809,36.1914906 L58.6073015,36.0340958 C58.7097409,35.981414 58.8056694,35.9222284 58.9031171,35.8636931 L76.7336581,26.1917152 C76.620801,28.4182235 75.4212611,30.5218077 73.4458292,31.7200463 L61.8508556,38.7575034 C61.8371826,38.7650913 61.8237265,38.7726792 61.8109216,38.7811343 L58.2018843,40.9712206 C57.4338055,41.4377684 57.1887755,42.4389384 57.656047,43.2068344 C58.0959724,43.9309374 59.0116334,44.1884926 59.7584431,43.8251403 L57.0201411,52.094006 L55.0184482,52.9137166 L49.5757014,55.1417425 L51.144197,49.6032219 C51.3883588,48.7386343 50.885494,47.8393591 50.0199674,47.5945949 C49.1535728,47.3489636 48.2541891,47.8528005 48.0091592,48.7173881 L45.5310795,57.4714462 C45.4987416,57.5841808 45.4776894,57.7077553 45.4724806,57.8254762 L44.8239868,69.7256967 C44.8044539,70.1794535 44.9010334,71.0373204 44.6909458,71.4802373 L37.4880635,86.6170246 L32.2538852,86.6170246 C29.1874297,86.6170246 26.6932896,89.108676 26.6932896,92.1708511 L26.6932896,96.8667023 C25.9914057,96.5457556 25.2122582,96.366204 24.3907893,96.366204 L11.0983159,96.366204 C8.0327286,96.366204 5.53856676,98.8568364 5.53856676,101.919944 L5.53856676,107.74635 L1.62859191,107.74635 C0.729099754,107.74635 0,108.474658 0,109.373175 C0,110.271691 0.729099754,111 1.62859191,111 L97.6519237,111 C98.5513073,111 99.2803203,110.271691 99.2803203,109.373175 C99.2803203,108.474658 98.5513073,107.74635 97.6519237,107.74635 L93.4163129,107.74635 L93.4163129,65.8140231 C93.4163129,62.7517612 90.9221728,60.2601099 87.8565855,60.2601099 L78.0035166,60.2601099 L78.0035166,31.8793923 C79.8094459,29.4343524 80.4783408,26.2298715 79.6399434,23.1845199 C79.5084215,22.7060483 79.1650757,22.3132115 78.7073537,22.119178 C78.4825078,22.0235704 78.2418185,21.9810781 78.0035166,21.9904004 L78.0035166,19.0204942 L97.6525748,19.0204942 C98.6376864,19.0204942 99.4982212,18.426036 99.8459076,17.5063818 C100.193377,16.5867277 99.9407509,15.5721164 99.2024055,14.9217245 Z M51.1211915,27.9482069 C51.2763699,27.4680009 51.608864,27.0766818 52.0581218,26.8473102 L53.5154966,26.1019611 C53.790043,25.9614765 54.0834712,25.8944861 54.373427,25.8944861 C55.0601185,25.8944861 55.7238046,26.2697622 56.057818,26.9210213 L57.9433983,30.5972531 C58.3833237,31.4557704 58.0985767,32.4966143 57.3159567,33.0225645 L56.7853117,33.3096041 L55.6654228,33.883033 C54.738693,34.3571687 53.597752,33.9896972 53.1228844,33.0633224 L51.237521,29.387741 C51.0076834,28.9389706 50.9662301,28.4275458 51.1211915,27.9482069 Z M47.848772,87.1176096 C47.2953385,86.8652575 46.6932897,86.700058 46.0608564,86.6417395 L47.848772,84.2695435 L47.848772,87.1176096 Z M55.5814311,74.008961 C56.3649193,73.0715294 56.5810839,71.9764863 56.7555782,71.0941213 C56.7996359,70.8840447 57.6035251,66.4991025 57.6035251,66.4991025 C57.6035251,66.4991025 58.3637907,66.972371 58.4436588,67.0064082 C58.4987851,67.0309063 58.537634,67.0851056 58.5437109,67.1486272 L59.4296385,76.1448479 L53.9714823,76.1448479 L55.5814311,74.008961 Z M65.2122585,65.0296504 L63.8371392,76.13726 L62.702058,76.13726 L61.7855288,66.830152 C61.6685481,65.6377669 60.9377989,64.596923 59.8669594,64.0796447 L58.2290134,63.0420528 L59.320254,57.0014297 C59.320254,57.0014297 63.9167902,62.4560497 64.0237873,62.5950168 C64.9748247,63.8305446 65.3003738,64.3250592 65.2122585,65.0296504 Z M47.6208876,72.9030779 C47.9496922,71.9138319 48.1022662,70.9070252 48.0768734,69.8830916 L48.6687216,59.0297852 L56.2012766,55.9462772 L54.8320171,63.5222588 C54.8278935,63.5426378 54.8235528,63.5638839 54.8209484,63.5840461 L53.6884717,69.848404 C53.5408894,70.4970615 53.411972,71.4811045 53.0067719,72.0155098 L42.0016932,86.6170246 L41.0944964,86.6170246 L47.6208876,72.9030779 Z M8.79575057,101.919098 C8.79575057,100.651333 9.8283489,99.6198545 11.0983159,99.6198545 L24.3907893,99.6198545 C25.6606478,99.6198545 26.6941577,100.651333 26.6941577,101.919098 L26.6941577,107.74635 L8.79575057,107.74635 L8.79575057,101.919098 Z M29.9505168,101.919098 L29.9505168,92.1708511 C29.9505168,90.9022617 30.9838096,89.8707835 32.2538852,89.8707835 L45.5462718,89.8707835 C46.8163473,89.8707835 47.848772,90.9022617 47.848772,92.1708511 L47.848772,107.74635 L29.9513849,107.74635 L29.9513849,101.919098 L29.9505168,101.919098 Z M90.1590857,65.8140231 L90.1590857,107.74635 L72.2614816,107.74635 L72.2614816,97.9921838 C72.2614816,97.0936674 71.5324687,96.3653585 70.6330851,96.3653585 C69.7326163,96.3653585 69.0036033,97.0936674 69.0036033,97.9921838 L69.0036033,107.74635 L51.1059992,107.74635 L51.1059992,81.6976771 C51.1059992,80.4298465 52.1386409,79.3985418 53.4084994,79.3985418 L66.700886,79.3985418 C67.9709616,79.3985418 69.0036033,80.4298465 69.0036033,81.6976771 L69.0036033,89.8529845 C69.0036033,90.7515009 69.7326163,91.4798097 70.6322169,91.4798097 C71.5324687,91.4798097 72.2608305,90.7515009 72.2608305,89.8529845 L72.2608305,65.8140231 C72.2608305,64.5453253 73.2941234,63.5138037 74.5641989,63.5138037 L76.3579744,63.5138037 C76.3631832,63.5138037 76.3690431,63.5146709 76.37512,63.5146709 C76.3801117,63.5146709 76.3859716,63.5138037 76.3911804,63.5138037 L87.8557174,63.5138037 C89.1255759,63.5138037 90.1590857,64.5461925 90.1590857,65.8140231 Z M74.5641989,60.2601099 C71.4986116,60.2601099 69.0044714,62.7517612 69.0044714,65.8140231 L69.0044714,76.6452161 C68.4210875,76.3794226 67.7853986,76.2109711 67.1162867,76.1617581 L68.4449611,65.4302919 C68.7060514,63.3386315 67.6378163,61.9522128 66.6051746,60.6108879 C66.4957901,60.4684521 60.1653794,52.960328 60.1653794,52.960328 L64.0491801,41.2311606 L74.7465064,34.7391655 L74.7465064,60.2601099 L74.5641989,60.2601099 Z M78.0035166,15.7661499 L78.0035166,5.72474946 L95.2330939,5.72474946 L91.5222683,8.98863279 C91.0170161,9.43328405 90.7270604,10.0734865 90.7270604,10.7457749 C90.7270604,11.4182801 91.0170161,12.0584825 91.5222683,12.5031338 L95.2330939,15.7668003 L78.0035166,15.7668003 L78.0035166,15.7661499 Z" id="Fill-1"></path>
            </g>
        </g>
    </g>
</svg>