<?xml version="1.0" encoding="UTF-8"?>
<svg width="122px" height="102px" viewBox="0 0 122 102" version="1.1" xmlns="http://www.w3.org/2000/svg" xmlns:xlink="http://www.w3.org/1999/xlink">
  
    <g id="Page-1" stroke="none" stroke-width="1" fill="none" fill-rule="evenodd">
        <g id="About-us" transform="translate(-906.000000, -4283.000000)" fill="#797979" stroke="#FFFFFF" stroke-width="1.5">
            <g id="Group-3" transform="translate(906.000000, 4284.000000)">
                <path d="M111.072738,10.7326767 C110.605051,10.2652235 109.962294,10 109.304281,10 C108.644017,10 108.00126,10.2652235 107.533322,10.7326767 C107.068386,11.1973803 106.80303,11.840066 106.80303,12.5 C106.80303,13.1574343 107.068386,13.8026197 107.533322,14.2675732 C108.001009,14.7325267 108.643767,15 109.304281,15 C109.962044,15 110.605051,14.7327767 111.072738,14.2675732 C111.537924,13.8026197 111.80303,13.1576842 111.80303,12.5 C111.80303,11.840066 111.537924,11.1973803 111.072738,10.7326767 Z" id="Fill-1"></path>
                <path d="M116.111725,18.3446305 C115.47188,17.2160122 114.040315,16.8216304 112.915548,17.4632647 C111.790312,18.104899 111.396795,19.5399976 112.036875,20.6683808 C118.999229,32.9459241 116.897351,48.5049686 106.925148,58.5048275 L105.14788,60.2870667 C104.718504,59.1572733 104.053347,58.097519 103.147017,57.1888896 L79.0635422,33.0382912 C80.6385446,32.2612791 82.0937813,31.2245579 83.3713614,29.9434046 L87.990431,25.3111809 C88.9056668,24.3933853 88.9056668,22.9049347 87.990431,21.9871391 C87.0749609,21.0693435 85.5911305,21.0693435 84.6754259,21.9871391 L80.0563562,26.6193628 C77.8862748,28.7952787 75.0013484,29.9937012 71.9326718,29.9937012 L62.6989856,29.9937012 C62.0774221,29.9937012 61.4814056,30.2414237 61.041483,30.6821066 L53.9727221,37.7706381 C51.8736563,39.8758097 48.4581042,39.8758097 46.3590384,37.7706381 C44.2597383,35.6657015 44.2597383,32.2405964 46.3590384,30.1356598 L62.4971884,13.9526084 C72.3594693,4.06250881 87.7562901,1.88753302 99.9379496,8.66347338 C101.069983,9.29265105 102.49686,8.88346229 103.124751,7.74802809 C103.752643,6.61282893 103.343892,5.18196091 102.211859,4.55231317 C95.4927864,0.815557164 87.5765242,-0.679944345 79.9199498,0.342675027 C72.7546262,1.29948575 66.1961004,4.30811609 60.8199983,9.08206338 C54.215535,3.21075689 45.8077875,0 36.9062113,0 C27.2626026,0 18.1964948,3.76589984 11.3773436,10.6038884 C4.55819237,17.4418769 0.803030303,26.5340466 0.803030303,36.2043923 C0.803030303,45.874973 4.55842675,54.9664376 11.3773436,61.8046611 L12.2607043,62.6904925 C12.4144545,62.8444378 12.5850798,62.9704143 12.7653145,63.0726527 C12.9221116,65.1061399 13.7717223,67.0954413 15.3193028,68.6471152 C17.0417273,70.3741222 19.3029808,71.2371556 21.5649375,71.2371556 C21.6823595,71.2371556 21.800016,71.2333951 21.917438,71.2286945 C21.9127505,71.3476201 21.9087661,71.4665457 21.9087661,71.5861764 C21.9087661,73.9519973 22.8275176,76.1763296 24.4958014,77.8492794 C26.2182259,79.5762863 28.4794794,80.4395548 30.7414361,80.4393197 C30.8588581,80.4393197 30.9765146,80.4355592 31.0939366,80.4308586 C31.0892491,80.5497842 31.0852647,80.6687099 31.0852647,80.7883406 C31.0852647,83.1541615 32.0040162,85.3784937 33.6725344,87.0514436 C35.3947245,88.7782155 37.6564468,89.6414839 39.918169,89.6414839 C40.0369974,89.6414839 40.1558257,89.6377234 40.274654,89.6330228 C40.1794976,92.0188213 41.0366083,94.4363489 42.849033,96.2540778 C44.5175512,97.9270276 46.7356796,98.8483487 49.0946676,98.8483487 C51.4541244,98.8483487 53.6722529,97.9270276 55.3403023,96.2540778 L58.6161668,92.9688161 L63.0409393,97.4054941 C64.7092231,99.0786789 66.9273515,100 69.2865739,100 C71.6457963,100 73.8639248,99.0786789 75.5322086,97.4057291 C77.3664302,95.5663774 78.2233065,93.11242 78.1037751,90.6986528 C78.2509628,90.7059388 78.3986193,90.7101693 78.5460414,90.7101693 C80.807998,90.7101693 83.070189,89.8469009 84.7921448,88.119894 C86.603632,86.3033403 87.4607427,83.8876928 87.3665238,81.5030695 C87.4851178,81.5077701 87.6037117,81.5117656 87.7230088,81.5117656 C90.0822312,81.5117656 92.3003596,80.5904446 93.9686434,78.9174948 C95.7801306,77.1009411 96.6372413,74.6852936 96.5430224,72.3006703 C96.6616164,72.3053709 96.7802103,72.3093665 96.8995073,72.3093665 C99.2587298,72.3093665 101.476858,71.3880454 103.145142,69.7150956 C103.992409,68.8654589 104.630379,67.88397 105.060692,66.8364373 C105.288739,66.7250327 105.503193,66.5767282 105.692802,66.3868232 L110.238278,61.8286343 C121.699468,50.3377394 124.114003,32.4561197 116.111725,18.3446305 Z M21.5651719,66.5402984 C20.4579826,66.5402984 19.4171216,66.1080766 18.6340736,65.3228384 C17.8512598,64.5378353 17.4200092,63.4940631 17.4200092,62.3837772 C17.4200092,61.2737264 17.8510255,60.2297192 18.6340736,59.444716 L22.6732986,55.3941938 C23.4561123,54.6089556 24.4972076,54.1767338 25.6043969,54.1767338 C26.7113517,54.1767338 27.7524471,54.6089556 28.5352608,55.3941938 C30.1515133,57.0149668 30.1515133,59.6517782 28.5352608,61.2723162 L24.4960358,65.3230735 C23.7132221,66.1078416 22.6725954,66.5402984 21.5651719,66.5402984 Z M27.8112753,74.5254726 C27.0282272,73.7404695 26.5972109,72.6964623 26.5972109,71.5864115 C26.5972109,70.4761256 27.0282272,69.4323534 27.8112753,68.6473503 L31.8507347,64.596593 L31.8507347,64.596358 C32.6335484,63.8113548 33.6744094,63.378898 34.7815986,63.378898 C35.8885534,63.378898 36.9296488,63.8111198 37.7124625,64.596358 C39.328715,66.2171309 39.328715,68.8539424 37.7124625,70.4744803 L33.6732375,74.5252376 C32.0567506,76.1457756 29.4265903,76.1457756 27.8112753,74.5254726 Z M36.9877739,83.7276368 C36.2047258,82.9426337 35.7737095,81.8986265 35.7737095,80.7885756 C35.7737095,79.6782897 36.2047258,78.6345176 36.9877739,77.8495144 L41.0272333,73.7987572 L41.0272333,73.7985221 C41.810047,73.013519 42.850908,72.5810622 43.9580972,72.5810622 C45.0652864,72.5810622 46.1061474,73.0132839 46.8889611,73.7985221 C48.5052136,75.4195301 48.5052136,78.0563416 46.8889611,79.6768795 L42.8495017,83.7276368 C41.2334836,85.3484098 38.6040264,85.3484098 36.9877739,83.7276368 Z M56.0656941,88.8795138 L52.0262347,92.9305061 C51.243421,93.7155092 50.20256,94.147966 49.0953708,94.147966 C47.9884159,94.147966 46.9473206,93.7157442 46.1645069,92.9305061 C44.5482543,91.3094981 44.5482543,88.6726866 46.1645069,87.0521487 L50.2039662,83.0013914 L50.2039662,83.0011564 C50.9867799,82.2161532 52.0276409,81.7836964 53.1348302,81.7836964 C54.241785,81.7836964 55.2828804,82.2159182 56.0656941,83.0011564 C56.8487422,83.7861595 57.2797585,84.8301667 57.2797585,85.9402175 C57.2799928,87.0509735 56.8487422,88.0945106 56.0656941,88.8795138 Z M99.8320119,66.3910538 C99.0491982,67.176292 98.0081028,67.6085138 96.901148,67.6085138 C95.7939588,67.6085138 94.7530978,67.176292 93.9702841,66.3910538 L84.2139408,56.6074232 C84.2134721,56.6069532 84.2132377,56.6067181 84.2127689,56.6062481 L75.0369735,47.404789 C74.1215033,46.4869934 72.6376729,46.4869934 71.7219683,47.404789 C70.8067325,48.3225846 70.8067325,49.8110352 71.7219683,50.7288308 L90.6552789,69.7146255 C92.2715314,71.3356335 92.2715314,73.972445 90.6552789,75.5929829 C89.8724652,76.3782211 88.8313698,76.8104429 87.724415,76.8104429 C86.6172258,76.8104429 85.5763648,76.3782211 84.7935511,75.5929829 L65.8602405,56.6069532 C64.9447703,55.6893926 63.4609399,55.6893926 62.5452354,56.6069532 C61.6299996,57.5247488 61.6299996,59.0131993 62.5452354,59.93123 L71.7200933,69.1315139 C71.7207965,69.132219 71.7214996,69.1331591 71.7222027,69.1338642 L81.4787803,78.9172597 C83.0950328,80.5382677 83.0950328,83.1753142 81.4790147,84.7958522 C79.8625278,86.4166251 77.2326019,86.4166251 75.6170525,84.7958522 L65.8604749,75.0119866 C65.6800058,74.8312478 65.4772712,74.6874089 65.2614114,74.5778845 L62.4786728,71.7873629 C61.5632026,70.8698023 60.0793722,70.8698023 59.1636676,71.7873629 C58.2484318,72.7051585 58.2484318,74.193609 59.1636676,75.1116397 L72.2188441,88.2028599 C73.8350966,89.8238679 73.8350966,92.4606793 72.2188441,94.0812173 C71.4360304,94.8664555 70.394935,95.2986772 69.2879802,95.2986772 C68.180791,95.2986772 67.13993,94.8664555 66.3571163,94.0812173 L61.3892961,89.0997377 C61.7678123,88.1039119 61.9679688,87.0375767 61.9679688,85.9399825 C61.9679688,83.5741616 61.0492174,81.3498294 59.3809336,79.6768795 C57.7124154,78.0039297 55.4942869,77.0826087 53.1352989,77.0826087 C53.0160018,77.0826087 52.8974079,77.0866042 52.778814,77.0913048 C52.8727985,74.7066815 52.0159222,72.291034 50.204435,70.4744803 C48.5359168,68.8015305 46.3177883,67.8802095 43.9588003,67.8802095 C43.8395032,67.8802095 43.7209093,67.884205 43.6023154,67.8889056 C43.6965343,65.5042823 42.8394236,63.0886348 41.0279364,61.2720812 C39.3594182,59.5991313 37.1412897,58.6778103 34.7823017,58.6778103 C34.6630047,58.6778103 34.5444107,58.6818058 34.4258168,58.6865064 C34.5200357,56.3018831 33.662925,53.8862357 31.8514378,52.069682 C28.4075262,48.6161382 22.8033769,48.6163732 19.3594653,52.069682 L15.3202403,56.1202042 C14.8107083,56.6311613 14.3787545,57.1902998 14.0196914,57.7821076 C8.51397975,51.917852 5.49194382,44.2941553 5.49194382,36.2039222 C5.49194382,27.7891115 8.75960513,19.8777369 14.6935206,13.9276951 C20.6269673,7.97765326 28.5165108,4.70061766 36.9076175,4.70061766 C44.5332543,4.70061766 51.7440467,7.40723331 57.4492118,12.366855 L43.0452051,26.811148 C41.1430147,28.7188937 40.0953568,31.2551119 40.0953568,33.9527964 C40.0953568,36.6507159 41.1430147,39.1869342 43.0452051,41.0946798 C45.0088019,43.0635335 47.5881028,44.0480779 50.1671693,44.0480779 C52.7462358,44.0480779 55.3255367,43.0637686 57.2891335,41.0946798 L63.6716434,34.6943188 L71.934078,34.6943188 C72.6163447,34.6943188 73.2911114,34.6475477 73.9576749,34.5645818 L99.8334181,60.5122263 C101.44803,62.1337044 101.44803,64.7707509 99.8320119,66.3910538 Z" id="Fill-2"></path>
            </g>
        </g>
    </g>
</svg>