<?xml version="1.0" encoding="UTF-8"?>
<svg width="100px" height="100px" viewBox="0 0 100 100" version="1.1" xmlns="http://www.w3.org/2000/svg" xmlns:xlink="http://www.w3.org/1999/xlink">
    
    <g id="Page-1" stroke="none" stroke-width="1" fill="none" fill-rule="evenodd">
        <g id="About-us" transform="translate(-444.000000, -4284.000000)" fill="#DB8E53">
            <g id="Group-5" transform="translate(444.000000, 4284.000000)">
                <path d="M85.8586434,48.8459223 C86.2175693,49.0300352 86.6282448,49.0500016 87.0004577,48.9012138 C87.3726706,48.7524259 87.6758257,48.4473629 87.8427883,48.0530271 C89.2335604,44.7806546 89.9671468,41.2183859 89.9942454,37.6073531 C90.0431978,34.1621947 89.7797291,30.7201081 89.2078604,27.3321611 C89.1082073,26.7571681 88.7368686,26.2841188 88.2333584,26.0913666 C87.730023,25.8986143 87.1712665,26.0155328 86.7675842,26.3977735 C86.3640768,26.7800143 86.1766591,27.36979 86.2763121,27.944975 C86.8114665,31.1140599 87.0574523,34.3338287 87.010423,37.5566692 C86.9901427,40.7086675 86.351489,43.8186213 85.1381693,46.6751558 C84.7935795,47.4932009 85.1156162,48.4631056 85.8586434,48.8459223 Z" id="Fill-1"></path>
                <path d="M2.45198534,62.5674588 C2.99909887,62.9456064 3.57682752,63.277965 4.17922375,63.5608481 C4.89807442,63.9267724 6.1044854,64.5392978 6.18934972,64.9680851 C6.29392861,65.5340454 6.22554185,66.1184377 5.99300349,66.6452057 C5.74506007,67.175078 5.4854751,67.6304462 5.26083427,68.0227573 C4.65180801,69.0939493 3.63177872,70.8886469 5.16932043,72.1387265 C5.52874576,72.4699209 6.14941357,72.9483776 6.71516917,73.3804632 C6.29868662,74.105133 6.11029642,74.9372906 6.17437366,75.7696422 C6.26266999,76.4250464 6.61991132,77.0148713 7.16113582,77.3986456 C7.5305452,77.657082 7.92491466,77.8821468 8.3126151,78.102361 C9.29771976,78.6586203 9.68210518,78.9186089 9.81022066,79.4385861 C9.90269,80.1048555 9.84586679,80.7833288 9.64382654,81.4252679 C9.54564368,81.8673261 9.45079533,82.311053 9.39422562,82.7497935 C9.228982,84.2586782 9.4163387,85.7851413 9.94169015,87.2101117 C10.6901809,89.8406921 13.0815918,91.6733403 15.8289375,91.7217486 C16.2875207,91.7204099 16.7447584,91.6721374 17.1934161,91.5777072 C21.9471437,90.4565353 26.6314511,89.0617934 31.2227432,87.4005049 C34.9716321,89.5892793 37.3395259,96.244988 37.9568982,98.7433623 C38.1411738,99.481924 38.8078813,100 39.5726742,100 L81.3392942,99.8841108 C81.8685262,99.8830825 82.365778,99.6315532 82.6785592,99.2066659 C82.9911454,98.7817591 83.0822107,98.2341532 82.9232851,97.7317543 C82.5118336,96.609981 81.9445765,95.55109 81.2376989,94.5860278 C80.8387274,94.0137036 80.478951,93.4152059 80.1610999,92.7946091 C79.4074221,91.2772845 78.7791297,89.7014236 78.2824629,88.0826452 C77.3318344,84.8831748 76.6729269,81.6049704 76.3139306,78.2878455 C75.7314634,73.3307937 76.4902112,68.3087448 78.5119787,63.741288 C78.843675,62.9653966 79.2375764,62.2174442 79.6901731,61.5044157 C80.0052943,61.0017064 80.0267444,60.3699728 79.7467233,59.8470853 C79.4667023,59.3241977 78.9275253,58.9897049 78.3323831,58.9695267 C77.7372409,58.9493484 77.1764188,59.2467832 76.8612976,59.7494925 C76.3221206,60.6059028 75.8504139,61.5026695 75.4502724,62.4316438 C73.198404,67.5388681 72.3561959,73.151324 73.0108133,78.6900517 C73.3957447,82.2065143 74.0973573,85.6813592 75.1074611,89.0727168 C75.6550231,90.8524165 76.3455207,92.5854153 77.1725188,94.2548915 C77.5521852,95.0046871 77.9831368,95.7276883 78.4620586,96.4188311 L78.573599,96.5843896 L40.8306238,96.6886955 C39.7259447,92.7612181 37.7211423,89.1420988 34.9733871,86.1157342 L36.4709926,85.5942048 C37.5858118,85.206783 38.4260699,84.9153823 38.8572165,84.777957 C45.985663,82.5345656 49.5500812,79.3043234 49.4535559,75.1751608 C49.4319108,74.2764538 48.693053,73.5589628 47.7894197,73.5593509 L47.7595846,73.5593509 C46.8411312,73.5808873 46.1141685,74.3391227 46.1354235,75.2529633 C46.1753987,76.9566649 44.7727585,79.4418845 37.8553028,81.6189788 C37.4044611,81.7630202 36.5359279,82.0643548 35.3826936,82.4650283 C34.146389,82.8954841 32.5739032,83.4418483 30.8399567,84.027948 L30.8282567,84.027948 C26.1455093,85.7358792 21.3674066,87.1731701 16.5178361,88.3326417 C14.9659423,88.6311048 13.4541602,87.6568071 13.0933114,86.1256681 C12.737825,85.183772 12.6040545,84.1733476 12.7022764,83.171984 C12.7455276,82.8242977 12.8253999,82.4799292 12.9019571,82.1338921 C13.2410244,80.9892631 13.2907496,79.7790936 13.0467257,78.610697 C12.5627339,77.0897636 11.4379697,75.8534595 9.96497324,75.2232781 L9.62052396,75.0278986 C9.80021712,74.6668248 10.0147764,74.3241831 10.2611793,74.0046299 C10.5403229,73.6526752 10.6641093,73.2031277 10.6042051,72.7588188 C10.5443009,72.3145098 10.3058345,71.9132737 9.94334765,71.6470764 C9.54398617,71.3556563 8.60215218,70.653687 7.91325362,70.1007261 C7.99312591,69.9565682 8.07966724,69.7976648 8.16285454,69.6537009 C8.42411651,69.1983328 8.72196062,68.6684604 9.0131747,68.055935 C9.53973516,66.8952992 9.69483873,65.6017588 9.45746435,64.3505151 C9.05810287,62.3307527 7.11287315,61.3406617 5.69513988,60.6187082 C5.2164131,60.3922853 4.7572449,60.1270581 4.32233478,59.8257429 C3.96852547,59.5876787 3.63663424,59.3189591 3.3305806,59.0226885 C3.3305806,58.7710428 3.60182661,58.1618157 4.86979932,56.6269128 C7.85015138,52.8093485 10.4054799,48.681544 12.4909346,44.3154814 C12.8808971,43.6315561 13.1005654,42.8645896 13.13159,42.0788031 C12.9597164,40.4146819 12.0733601,38.9055838 10.700477,37.9397454 C10.0348615,37.3254738 9.39422562,36.745932 9.31934534,36.2061646 C9.33038238,35.8154056 9.41858121,35.4306612 9.5789303,35.0736619 C9.85015681,34.3635437 10.1629965,33.6681712 10.4774936,32.9710524 C11.1598207,31.5711883 11.7048087,30.1090433 12.1048917,28.6051838 L12.2712858,27.8997221 C12.6225406,26.2445259 13.0754493,24.6124182 13.6274573,23.012324 C14.9391882,19.4101235 16.9701207,16.1092381 19.59797,13.3085397 C22.7811618,9.95759681 27.7915104,7.58665579 34.5106504,6.25722143 C36.2295818,5.91108732 37.9502681,5.58338524 39.6875296,5.26383206 C40.5422178,5.05506508 41.0856848,4.22038518 40.9279292,3.35893035 C40.7701736,2.49747551 39.9654056,1.90726253 39.0918024,2.01203406 C37.3367959,2.32770682 35.5917344,2.65890128 33.8568129,3.00542343 C26.3537701,4.49550747 20.9007698,7.11304965 17.17844,11.0270425 C14.2421581,14.1533087 11.9718427,17.8381624 10.5041112,21.8600312 C9.90465951,23.5922539 9.41230218,25.3594004 9.02980826,27.1513817 L8.86341415,27.8500526 C8.50825933,29.1486376 8.03195056,30.4113286 7.44068886,31.6216339 C7.10788113,32.376765 6.76177434,33.1317021 6.46391074,33.9130261 C6.08092931,34.7830179 5.92964775,35.7364389 6.02461311,36.6813229 C6.35942935,38.1651983 7.22008454,39.4793049 8.44907661,40.3834445 C9.26277563,41.1251881 9.79692161,41.6482697 9.80357114,42.1036378 C9.74403741,42.3552836 9.64877956,42.5972282 9.52068359,42.8220989 C7.52801019,46.9964685 5.08712762,50.9438331 2.24066306,54.5955091 C1.03425208,56.0557139 -0.230386119,57.7594154 0.0358483699,59.4646692 C0.38881918,60.780328 1.25982891,61.8988612 2.45198534,62.5674588 Z" id="Fill-2"></path>
                <path d="M64.2369918,2.09834546 C63.6689955,1.89076464 63.0386774,2.01680324 62.5834914,2.42906745 C62.1283055,2.84153862 61.9170819,3.47731956 62.0298922,4.09716459 C62.1425054,4.71700962 62.5615999,5.22675195 63.1295962,5.43433278 C66.0411691,6.5171472 68.8209983,7.9565536 71.4112982,9.72233583 C72.194857,10.2471862 73.2353947,10.0060779 73.735547,9.18382606 C74.2355021,8.36157421 74.0057397,7.26965355 73.2221809,6.74480313 C70.411388,4.83104454 67.3954853,3.27139442 64.2369918,2.09834546 Z" id="Fill-3"></path>
                <path d="M91.6399676,53.2535247 C89.9192109,53.2558663 88.2415613,53.7905443 86.8394052,54.7839916 L73.5518405,42.2633554 C77.3321364,37.3058759 77.6109609,30.5277592 74.2507632,25.2785484 L79.9557907,20.7326148 C83.841503,24.1623594 89.7173913,24.0562043 93.4755459,20.4881069 C97.2337004,16.9202047 97.6208805,11.079921 94.366687,7.05071267 C91.1122976,3.02150431 85.3014618,2.14670089 80.996631,5.03766959 C76.6916042,7.9286383 75.3280485,13.6217879 77.8590226,18.1366946 L72.1739811,22.6693589 C68.3574361,18.8475822 62.7629194,17.3820962 57.552056,18.8393864 L56.1009145,15.2426037 C59.5547722,12.9692466 60.8125195,8.51736949 59.0553178,4.78399026 C57.2983119,1.05061104 53.0579458,-0.835006959 49.0938569,0.354553974 C45.1295721,1.54391977 42.6409214,5.44843497 43.2469679,9.52701323 C43.8532104,13.6057866 47.3709449,16.624961 51.511185,16.6196922 C52.0077003,16.613643 52.5028441,16.5640779 52.9909339,16.4715825 L54.4405078,20.0650479 C48.0510572,23.4668877 45.0071088,30.9236941 47.2006719,37.8007457 L39.8068261,41.0745751 C36.8833816,36.6349916 31.0292428,35.171457 26.347029,37.7094211 C21.6648152,40.2473853 19.7206854,45.9381933 21.8770196,50.7934206 C24.0333539,55.6486479 29.5690881,58.0443564 34.6045841,56.3017746 C39.6400801,54.5589976 42.4910263,49.2608071 41.159605,44.120093 L48.5800988,40.8363116 C50.4017653,43.9237842 53.2693665,46.263098 56.6675768,47.4337305 L54.6211657,56.6073606 C51.2343199,56.7066858 48.4505816,59.299874 48.125319,62.6585884 C47.7998605,66.0173027 50.0343753,69.0926768 53.3397094,69.8349816 C56.6448476,70.5772863 59.9883903,68.754893 61.1420928,65.5821451 C62.2957953,62.4093972 60.8993215,58.8774003 57.8831968,57.3399085 L59.9247094,48.1682297 C60.4623724,48.2267711 61.0025826,48.2566272 61.5433807,48.2579932 C65.1050061,48.2593592 68.5506342,46.9960361 71.2610905,44.6945791 L84.5521822,57.2167764 C83.7260936,58.5236152 83.2850297,60.0351538 83.2797392,61.5794755 C83.2797392,66.1777061 87.0226104,69.9054264 91.6399676,69.9054264 C96.2571289,69.9054264 100,66.1777061 100,61.5794755 C100,56.9812449 96.2571289,53.2535247 91.6399676,53.2535247 Z M46.4950791,8.2937414 C46.4905806,5.77763269 48.3659349,3.6508242 50.8720244,3.33021255 C53.3781139,3.0096009 55.7323489,4.59529187 56.366611,7.03100374 C57.000873,9.46671561 55.7170655,11.9919958 53.3704722,12.9247552 L53.3602833,12.9247552 C52.7728512,13.1626283 52.1452511,13.2863458 51.511185,13.2892729 C50.1807435,13.2892729 48.9049695,12.7629858 47.9642552,11.8261285 C47.0235409,10.8892712 46.4950791,9.61872807 46.4950791,8.2937414 Z M31.4467937,53.2535247 C27.752908,53.2535247 24.7585327,50.2714266 24.7585327,46.5928811 C24.7585327,42.9143356 27.752908,39.9322375 31.4467937,39.9322375 C35.1404836,39.9322375 38.1348589,42.9143356 38.1348589,46.5928811 C38.1348589,50.2714266 35.1404836,53.2535247 31.4467937,53.2535247 Z M54.8551196,66.575007 C53.0083727,66.575007 51.511185,65.0839579 51.511185,63.2445876 C51.511185,61.4054125 53.0083727,59.9143634 54.8551196,59.9143634 C56.7020625,59.9143634 58.1992501,61.4054125 58.1992501,63.2445876 C58.1992501,65.0839579 56.7020625,66.575007 54.8551196,66.575007 Z M86.6238698,6.62862929 C90.3175596,6.62862929 93.3119349,9.61072741 93.3119349,13.2892729 C93.3119349,16.9680135 90.3175596,19.9501116 86.6238698,19.9501116 C82.929984,19.9501116 79.9356087,16.9680135 79.9356087,13.2892729 C79.9356087,9.61072741 82.929984,6.62862929 86.6238698,6.62862929 Z M49.8390218,33.2713988 C49.8390218,26.833993 55.0792765,21.6152237 61.5433807,21.6152237 C68.0072889,21.6152237 73.2475436,26.833993 73.2475436,33.2713988 C73.2475436,39.7089997 68.0072889,44.927769 61.5433807,44.927769 C55.0822156,44.9203537 49.8464676,39.7060726 49.8390218,33.2713988 Z M91.6399676,66.575007 C88.8695533,66.575007 86.6238698,64.338531 86.6238698,61.5794755 C86.6238698,58.8206152 88.8695533,56.583944 91.6399676,56.583944 C94.410186,56.583944 96.6560654,58.8206152 96.6560654,61.5794755 C96.6560654,64.338531 94.410186,66.575007 91.6399676,66.575007 Z" id="Fill-4"></path>
            </g>
        </g>
    </g>
</svg>