<?xml version="1.0" encoding="UTF-8"?>
<svg width="233px" height="258px" viewBox="0 0 233 258" version="1.1" xmlns="http://www.w3.org/2000/svg" xmlns:xlink="http://www.w3.org/1999/xlink">
    <!-- Generator: Sketch 58 (84663) - https://sketch.com -->
    <title>Group 4</title>
    <desc>Created with Sketch.</desc>
    <g id="Page-1" stroke="none" stroke-width="1" fill="none" fill-rule="evenodd">
        <g id="Products+Domains" transform="translate(-209.000000, -2261.000000)">
            <g id="Group-4" transform="translate(211.000000, 2263.000000)">
                <path d="M216.298559,165.701133 L216.298559,88.2988667 C223.781305,86.4086833 229.064583,79.6316458 229.064583,71.923275 C229.064583,62.6575667 221.429766,55.032275 212.15131,55.032275 C207.963791,55.032275 203.921455,56.5859083 200.8138,59.3894333 L131.295583,19.3251667 C131.428579,18.5345917 131.50382,17.7350208 131.520246,16.9333333 C131.520246,7.6438125 123.866354,0 114.564583,0 C105.262813,0 97.6089207,7.6438125 97.6089207,16.9333333 C97.631175,17.73555 97.7122443,18.5345917 97.8505389,19.3251667 L28.3324282,59.3894333 C25.2302837,56.6049583 21.2035258,55.0634958 17.0326978,55.0634958 C7.75901004,55.0634958 0.127902136,62.6845542 0.127902136,71.9460292 C0.127902136,79.629 5.37917682,86.3891042 12.8307137,88.2988667 L12.8307137,165.701133 C5.3479678,167.591317 0.0645833333,174.368354 0.0645833333,182.076725 C0.0645833333,191.342433 7.69950626,198.967725 16.9778568,198.967725 C21.1656935,198.967725 25.2078175,197.414092 28.3154725,194.610567 L97.8335833,234.674833 C97.7005873,235.46562 97.6258764,236.264979 97.6089207,237.066667 C97.6089207,246.356029 105.262813,254 114.564583,254 C123.866354,254 131.520246,246.356029 131.520246,237.066667 C131.497992,236.264609 131.417452,235.465197 131.278628,234.674833 L200.796844,194.610567 C203.899201,197.395042 207.925641,198.936504 212.096734,198.936504 C221.370422,198.936504 229.001529,191.315446 229.001529,182.053971 C229.001529,174.371 223.750043,167.610896 216.298559,165.701133 Z M154.482452,177.8 L164.85084,160.244367 L195.748296,177.668767 L195.705907,177.8 L154.482452,177.8 Z M33.4233659,177.8 L33.3809767,177.668767 L64.278327,160.244367 L74.6467146,177.8 L33.4233659,177.8 Z M74.6467146,76.2 L64.278327,93.7556333 L33.3809767,76.3312333 L33.4233659,76.2 L74.6467146,76.2 Z M195.705907,76.2 L195.748296,76.3312333 L164.85084,93.7556333 L154.482452,76.2 L195.705907,76.2 Z M207.418031,165.828133 L184.506692,127 L207.439225,88.1718667 C207.574871,88.2142 207.706277,88.265 207.841922,88.2988667 L207.841922,165.701133 C207.685082,165.735 207.553676,165.7858 207.418031,165.828133 Z M199.893955,170.285833 L169.157578,152.950333 L179.564116,135.3312 L200.076229,170.044533 C200.008406,170.1292 199.961778,170.213867 199.893955,170.285833 Z M161.773387,148.788967 L161.773387,105.211033 L174.642735,127 L161.773387,148.788967 Z M200.076229,83.9385333 L179.564116,118.651867 L169.157578,101.049667 L199.893955,83.693 C199.961778,83.7861333 200.008406,83.8708 200.076229,83.9385333 Z M157.466649,97.9085333 L118.803499,76.2 L144.660884,76.2 L157.466649,97.9085333 Z M118.803499,67.7333333 L118.803499,33.2655333 C118.939144,33.2316667 119.070551,33.1808667 119.206196,33.1385333 L139.637769,67.7333333 L118.803499,67.7333333 Z M110.325668,33.2655333 L110.325668,67.7333333 L89.4913973,67.7333333 L109.922971,33.1385333 C110.058616,33.1808667 110.190022,33.2316667 110.325668,33.2655333 Z M110.325668,76.2 L71.662518,97.8958333 L84.4894768,76.2 L110.325668,76.2 Z M29.0530439,170.061467 L49.5651567,135.348133 L59.9715887,152.967267 L29.2353172,170.285833 C29.1674946,170.213867 29.1208665,170.1292 29.0530439,170.061467 Z M54.4864318,127 L67.3557797,105.211033 L67.3557797,148.788967 L54.4864318,127 Z M29.2353172,83.7141667 L59.9715887,101.070833 L49.5651567,118.689967 L29.0530439,83.9766333 C29.1208665,83.8708 29.1674946,83.7861333 29.2353172,83.7141667 Z M21.7324365,88.1718667 L44.6437756,127 L21.7324365,165.828133 C21.5967912,165.7858 21.4653848,165.735 21.308545,165.701133 L21.308545,88.2988667 C21.4441903,88.265 21.5755966,88.2142 21.7324365,88.1718667 Z M71.662518,156.083 L110.325668,177.8 L84.4894768,177.8 L71.662518,156.083 Z M110.325668,186.266667 L110.325668,220.734467 C110.190022,220.768333 110.058616,220.819133 109.922971,220.861467 L89.4913973,186.266667 L110.325668,186.266667 Z M118.803499,220.734467 L118.803499,186.266667 L139.637769,186.266667 L119.227391,220.861467 C119.070551,220.819133 118.939144,220.768333 118.803499,220.734467 Z M118.803499,177.8 L157.466649,156.083 L144.660884,177.8 L118.803499,177.8 Z M212.059643,63.5 C216.710264,63.5 220.537475,67.3221708 220.537475,71.9666667 C220.537475,76.6111625 216.710264,80.4333333 212.059643,80.4333333 C207.409023,80.4333333 203.581812,76.6111625 203.581812,71.9666667 C203.581812,67.3221708 207.409023,63.5 212.059643,63.5 Z M196.104365,66.4633333 C195.956003,66.8866667 195.820357,67.31 195.705907,67.7333333 L149.501726,67.7333333 L126.543759,28.9052 C127.052959,28.3718 127.527187,27.8061208 127.963796,27.2118667 L196.104365,66.4633333 Z M114.564583,8.46666667 C119.215204,8.46666667 123.042415,12.2888375 123.042415,16.9333333 C123.042415,21.5778292 119.215204,25.4 114.564583,25.4 C109.913963,25.4 106.086752,21.5778292 106.086752,16.9333333 C106.086752,12.2888375 109.913963,8.46666667 114.564583,8.46666667 Z M102.585408,28.9052 L79.6486351,67.7333333 L33.4445605,67.7333333 C33.3301098,67.31 33.1944644,66.8866667 33.0461024,66.4633333 L101.165371,27.1907 C101.601449,27.7923625 102.075678,28.3649208 102.585408,28.9052 Z M8.591798,71.9666667 C8.591798,67.3221708 12.418797,63.5 17.0696293,63.5 C21.7204086,63.5 25.5474606,67.3221708 25.5474606,71.9666667 C25.5474606,76.6111625 21.7204086,80.4333333 17.0696293,80.4333333 C12.418797,80.4333333 8.591798,76.6111625 8.591798,71.9666667 Z M17.0696293,190.5 C12.418797,190.5 8.591798,186.677829 8.591798,182.033333 C8.591798,177.388837 12.418797,173.566667 17.0696293,173.566667 C21.7204086,173.566667 25.5474606,177.388837 25.5474606,182.033333 C25.5474606,186.677829 21.7204086,190.5 17.0696293,190.5 Z M33.0249078,187.536667 C33.1732699,187.113333 33.3089152,186.69 33.4233659,186.266667 L79.6486351,186.266667 L102.585408,225.0948 C102.075678,225.635132 101.601449,226.207849 101.165371,226.8093 L33.0249078,187.536667 Z M114.564583,245.533333 C109.913963,245.533333 106.086752,241.711321 106.086752,237.066667 C106.086752,232.422012 109.913963,228.6 114.564583,228.6 C119.215204,228.6 123.042415,232.422012 123.042415,237.066667 C123.042415,241.711321 119.215204,245.533333 114.564583,245.533333 Z M126.543759,225.0948 L149.480532,186.266667 L195.705907,186.266667 C195.820357,186.69 195.956003,187.113333 196.104365,187.536667 L127.963796,226.8093 C127.528247,226.207849 127.053489,225.635132 126.543759,225.0948 Z M212.059643,190.5 C207.409023,190.5 203.581812,186.677829 203.581812,182.033333 C203.581812,177.388837 207.409023,173.566667 212.059643,173.566667 C216.710264,173.566667 220.537475,177.388837 220.537475,182.033333 C220.537475,186.677829 216.710264,190.5 212.059643,190.5 Z" id="Fill-1" stroke="#DB8E53" stroke-width="3" fill="#FFFFFF"></path>
                <polygon id="Fill-2" fill="#DB8E53" points="114.564583 82 154.064583 104.75 154.064583 150.25 114.564583 173 75.0645833 150.25 75.0645833 104.75"></polygon>
                <path d="M139.744325,149.873145 C144.915212,144.045984 148.064583,136.385194 148.064583,128 C148.064583,119.275226 144.65547,111.337129 139.107212,105.430129 L139.107212,105.429065 C139.102422,105.422145 139.095503,105.420016 139.092309,105.414161 C133.312519,99.2708387 125.215277,95.3379839 116.208406,95.0298065 L116.207341,95.0282097 L115.564374,95.0111774 C115.398309,95.0058548 115.232245,95 115.064583,95 C114.897454,95 114.73139,95.0058548 114.565325,95.0111774 L113.924487,95.0282097 L113.923422,95.0298065 C104.916551,95.3379839 96.8193091,99.2708387 91.0395188,105.414161 C91.0352608,105.420016 91.0283414,105.422145 91.0246156,105.429065 C91.0246156,105.429065 91.0246156,105.430129 91.0235511,105.431194 C85.4742285,111.337129 82.0645833,119.275226 82.0645833,128 C82.0645833,136.385194 85.2144866,144.045984 90.3853737,149.873145 C90.392293,149.88379 90.392293,149.894968 90.4002769,149.905081 C90.4205027,149.933823 90.4503091,149.947129 90.4715995,149.97321 C96.2822608,156.468887 104.618487,160.652968 113.922358,160.97179 L113.923422,160.972855 L114.564261,160.989887 C114.73139,160.994145 114.897454,161 115.064583,161 C115.232245,161 115.398309,160.994145 115.564374,160.988823 L116.205212,160.97179 L116.206277,160.970194 C125.520261,160.650839 133.865535,156.458774 139.676196,149.94979 C139.690567,149.930097 139.714519,149.924774 139.728358,149.904016 C139.737406,149.894968 139.737406,149.88379 139.744325,149.873145 Z M84.3692608,129.137968 L98.0275349,129.137968 C98.1563414,133.961823 99.0984382,138.648887 100.775583,143.040016 C97.5394543,144.210984 94.4454382,145.781145 91.5462285,147.740919 C87.2823091,142.669032 84.6284704,136.204226 84.3692608,129.137968 Z M92.1673737,107.543194 C94.9984543,109.384806 98.0126317,110.859161 101.157212,111.960935 C99.2315027,116.634161 98.1664543,121.673048 98.0275349,126.862032 L84.3692608,126.862032 C84.6412446,119.45779 87.5404543,112.715145 92.1673737,107.543194 Z M145.760438,126.862032 L132.101632,126.862032 C131.963245,121.673048 130.898196,116.634161 128.972487,111.960935 C132.116535,110.859161 135.131245,109.384806 137.962325,107.543194 C142.589245,112.715145 145.488454,119.45779 145.760438,126.862032 Z M113.926616,112.026935 C110.637261,111.93379 107.407519,111.443048 104.287422,110.566952 C106.594228,105.835177 109.850583,101.564871 113.926616,98.0088548 L113.926616,112.026935 Z M113.926616,114.302871 L113.926616,126.862032 L100.30347,126.862032 C100.443454,121.914161 101.481358,117.115855 103.337341,112.666177 C106.757632,113.657774 110.30939,114.206 113.926616,114.302871 Z M116.202551,114.302871 C119.820309,114.206 123.371535,113.658839 126.793422,112.666177 C128.649406,117.115855 129.687309,121.914161 129.827293,126.862032 L116.202551,126.862032 L116.202551,114.302871 Z M116.202551,112.026935 L116.202551,98.0088548 C120.278583,101.564871 123.53547,105.835177 125.842277,110.566952 C122.721648,111.443048 119.492438,111.93379 116.202551,112.026935 Z M128.047422,109.875016 C125.861438,105.294935 122.827567,101.122032 119.071422,97.5457903 C125.735293,98.4170968 131.730648,101.43021 136.348519,105.872968 C133.726616,107.536806 130.945567,108.874903 128.047422,109.875016 Z M102.082277,109.875016 C99.1835995,108.874903 96.4025511,107.536806 93.7822446,105.872968 C98.3985188,101.43021 104.39547,98.4170968 111.059341,97.5457903 C107.301599,101.122032 104.268261,105.294935 102.082277,109.875016 Z M100.30347,129.137968 L113.926616,129.137968 L113.926616,140.560226 C110.163551,140.660823 106.476599,141.247903 102.933358,142.314016 C101.332325,138.154952 100.432277,133.711129 100.30347,129.137968 Z M113.926616,142.836161 L113.926616,157.991145 C109.564228,154.184968 106.143406,149.560177 103.817438,144.430806 C107.079648,143.469016 110.468535,142.934097 113.926616,142.836161 Z M116.202551,157.991145 L116.202551,142.836161 C119.660632,142.933032 123.049519,143.469016 126.312261,144.42921 C123.986293,149.560177 120.56547,154.184968 116.202551,157.991145 Z M116.202551,140.560226 L116.202551,129.137968 L129.826228,129.137968 C129.697422,133.711129 128.797374,138.154952 127.195277,142.315081 C123.652567,141.247903 119.965616,140.660823 116.202551,140.560226 Z M132.101632,129.137968 L145.760438,129.137968 C145.501228,136.204226 142.848454,142.669032 138.58347,147.740919 C135.684261,145.781145 132.590245,144.210984 129.353583,143.040016 C131.032325,138.648887 131.973358,133.961823 132.101632,129.137968 Z M93.0924382,149.44521 C95.7845995,147.656823 98.6513414,146.218129 101.646358,145.142968 C103.859487,150.104145 107.036535,154.625145 111.058277,158.45421 C104.058551,157.538194 97.7944059,154.261081 93.0924382,149.44521 Z M119.071422,158.45421 C123.092632,154.62621 126.270212,150.10521 128.483341,145.142968 C131.478358,146.218129 134.343503,147.656823 137.037261,149.44521 C132.335293,154.261081 126.070616,157.538194 119.071422,158.45421 Z" id="Fill-3" fill="#FFFFFF"></path>
            </g>
        </g>
    </g>
</svg>