<?xml version="1.0" encoding="UTF-8"?>
<svg width="210px" height="193px" viewBox="0 0 210 193" version="1.1" xmlns="http://www.w3.org/2000/svg" xmlns:xlink="http://www.w3.org/1999/xlink">
    <!-- Generator: Sketch 58 (84663) - https://sketch.com -->
    <title>Group 3</title>
    <desc>Created with Sketch.</desc>
    <g id="Page-1" stroke="none" stroke-width="1" fill="none" fill-rule="evenodd">
        <g id="Products+Domains" transform="translate(-1000.000000, -2814.000000)" fill="#FFFFFF" stroke="#DB8E53">
            <g id="Group-3" transform="translate(1001.000000, 2815.000000)">
                <path d="M204.975966,58.8272538 L197.170692,58.8272538 C194.850205,50.5928495 186.201118,26.5230523 160.042903,11.7433522 C155.612883,9.20968936 150.550002,7.09830363 145.487122,5.19805648 C140.213288,3.50894791 134.517548,2.0309779 128.610854,1.18642361 C77.5601445,-5.99228784 52.8786029,21.4557265 47.6047692,28.634438 L3.72647306,28.634438 C1.82789294,28.634438 0.351219512,30.112408 0.351219512,32.0126552 L0.351219512,124.913627 C0.351219512,126.813874 1.82789294,128.291844 3.72647306,128.291844 L36.2132885,128.291844 L30.9394548,139.482188 C30.7285015,139.693327 30.7285015,140.115604 30.7285015,140.326743 L30.7285015,140.537881 C30.7285015,140.960158 30.7285015,141.171297 30.7285015,141.593574 L30.7285015,141.804713 C30.7285015,142.22699 30.9394548,142.438128 31.1504082,142.860406 L44.2295157,161.4406 C43.807609,165.663371 43.1747489,178.331686 49.5033493,185.721536 C52.4566962,189.310891 56.6757631,191 61.7386434,191 C83.4668382,191 120.383674,181.709903 120.383674,146.6609 C120.383674,144.760653 118.907,143.282683 117.00842,143.282683 C115.10984,143.282683 113.633167,144.760653 113.633167,146.6609 C113.633167,183.61015 64.0591303,184.032427 61.9495968,184.032427 C58.9962499,184.032427 56.6757631,182.976734 54.9881363,181.076487 C50.5581161,175.798023 50.9800228,164.818817 51.4019295,161.018323 C51.6128828,160.173768 51.4019295,159.329214 50.7690694,158.48466 L40.8542621,144.338376 L49.5033493,144.338376 C51.4019295,144.338376 52.8786029,142.860406 52.8786029,140.960158 C52.8786029,139.059911 51.4019295,137.581941 49.5033493,137.581941 L39.588542,137.581941 L43.1747489,129.980953 C43.3857023,129.558675 43.5966556,128.92526 43.5966556,128.502983 L49.5033493,128.502983 C68.9110572,128.502983 85.1544649,123.224518 96.5459457,113.512144 C102.241686,108.655957 106.460753,102.532938 109.203146,95.9876425 L120.594627,95.9876425 C126.290368,103.166354 134.939455,107.389125 144.221402,107.389125 C153.503349,107.389125 162.152437,103.166354 167.848177,95.9876425 L191.053045,95.9876425 C188.943512,105.911155 179.450611,118.368331 175.442497,122.591103 C174.809637,123.224518 174.598684,124.069073 174.598684,124.913627 L174.598684,181.921041 C174.598684,183.821289 176.075357,185.299259 177.973938,185.299259 C179.872518,185.299259 181.349191,183.821289 181.349191,181.921041 L181.349191,126.180458 C184.724445,122.379964 195.904972,108.444818 197.803552,95.7765039 L204.975966,95.7765039 C206.874546,95.7765039 208.35122,94.2985339 208.35122,92.3982868 L208.35122,62.205471 C208.35122,60.3052238 206.874546,58.8272538 204.975966,58.8272538 Z M162.36339,21.0334494 C180.294424,33.4906252 187.888745,50.8039881 190.420185,58.8272538 L167.42627,58.8272538 C165.949597,56.9270067 164.26197,55.2378981 162.36339,53.7599281 L162.36339,21.0334494 Z M132.197061,8.99855078 C136.205175,9.84310507 140.213288,10.6876594 143.799495,11.9544908 C148.018562,13.2213222 151.815723,14.9104308 155.401929,17.0218165 L155.401929,49.7482952 C151.815723,48.2703252 147.807609,47.4257709 143.799495,47.4257709 C139.791382,47.4257709 135.783268,48.2703252 132.197061,49.7482952 L132.197061,8.99855078 Z M18.7041607,121.53541 L7.10172661,121.53541 L7.10172661,35.6020109 L18.7041607,35.6020109 L18.7041607,121.53541 Z M91.6940187,108.23368 C81.7792114,116.890361 67.0124771,121.324271 49.292396,121.324271 L25.6656211,121.324271 L25.6656211,35.6020109 L49.292396,35.6020109 C85.9982783,35.6020109 105.195033,57.771561 105.195033,79.5188339 C105.195033,90.4980396 100.343106,100.632691 91.6940187,108.23368 Z M106.88266,58.8272538 C99.0773858,43.414138 81.9901647,30.9569623 56.2538564,28.8455766 C64.9029437,19.9777565 86.420185,3.29780933 125.235601,7.94285792 L125.235601,53.7599281 C123.337021,55.2378981 121.649394,56.9270067 120.172721,58.8272538 L106.88266,58.8272538 Z M202.233572,89.0200696 L165.738643,89.0200696 C164.683877,89.0200696 163.62911,89.6534854 162.785297,90.4980396 C158.56623,96.8321968 151.393816,100.421553 143.799495,100.421553 C136.205175,100.421553 129.243714,96.6210582 124.813694,90.4980396 C124.180834,89.6534854 123.126067,89.0200696 121.860347,89.0200696 L111.101727,89.0200696 C111.734587,85.8529911 112.156493,82.6859125 112.156493,79.5188339 C112.156493,74.8737853 111.31268,70.2287367 110.04696,65.7948267 L122.071301,65.7948267 C123.126067,65.7948267 124.180834,65.161411 125.024648,64.3168567 C129.243714,57.9826995 136.416128,54.3933438 144.010449,54.3933438 C151.604769,54.3933438 158.56623,58.1938381 162.99625,64.3168567 C163.62911,65.161411 164.683877,65.7948267 165.949597,65.7948267 L202.233572,65.7948267 L202.233572,89.0200696 Z" id="Fill-1"></path>
                <path d="M143.35122,62 C135.111783,62 128.35122,68.5492958 128.35122,77 C128.35122,85.2394366 135.111783,92 143.35122,92 C151.590656,92 158.35122,85.2394366 158.35122,77 C158.35122,68.7605634 151.590656,62 143.35122,62 Z M143.35122,85.028169 C138.9146,85.028169 135.32305,81.4366197 135.32305,77 C135.32305,72.5633803 138.9146,68.971831 143.35122,68.971831 C147.787839,68.971831 151.379389,72.5633803 151.379389,77 C151.379389,81.4366197 147.787839,85.028169 143.35122,85.028169 Z" id="Fill-2"></path>
            </g>
        </g>
    </g>
</svg>