<?xml version="1.0" encoding="UTF-8"?>
<svg width="61px" height="61px" viewBox="0 0 61 61" version="1.1" xmlns="http://www.w3.org/2000/svg" xmlns:xlink="http://www.w3.org/1999/xlink">
    <!-- Generator: Sketch 58 (84663) - https://sketch.com -->
    <title>Group 41</title>
    <desc>Created with Sketch.</desc>
    <defs>
        <polygon id="path-1" points="0.2918 0.5644 32.2807 0.5644 32.2807 52.5644 0.2918 52.5644"></polygon>
        <polygon id="path-3" points="0.1266 0.2156 24.1266 0.2156 24.1266 2.2156 0.1266 2.2156"></polygon>
        <polygon id="path-5" points="0.1266 0.2156 18.1266 0.2156 18.1266 2.2156 0.1266 2.2156"></polygon>
        <path d="M2.8313,0.4205 L0.6731,2.637 C0.2519,3.0697 0.2519,3.7713 0.6731,4.204 L2.8313,6.4205 L4.3572,4.8535 L2.9619,3.4205 L4.3572,1.9875 L2.8313,0.4205 Z" id="path-7"></path>
        <polygon id="path-9" points="0.3572 6.7527 2.4105 0.4205 4.3572 1.0883 2.3039 7.4205"></polygon>
        <polygon id="path-11" points="0.3572 0.4205 21.3572 0.4205 21.3572 2.4205 0.3572 2.4205"></polygon>
        <path d="M4.0426,8.5243 C6.2517,8.5243 8.0426,6.7334 8.0426,4.5243 C8.0426,2.3152 6.2517,0.5243 4.0426,0.5243 C1.8335,0.5243 0.0426,2.3152 0.0426,4.5243 C0.0426,6.7334 1.8334,8.5243 4.0426,8.5243 Z M4.0426,2.5243 C5.1472,2.5243 6.0426,3.4197 6.0426,4.5243 C6.0426,5.6289 5.1472,6.5243 4.0426,6.5243 C2.938,6.5243 2.0426,5.6289 2.0426,4.5243 C2.0426,3.4197 2.938,2.5243 4.0426,2.5243 Z" id="path-13"></path>
        <polygon id="path-15" points="21.8026 58.5982 0.379 51.5404 0.379 0.1192 21.8026 7.1771"></polygon>
        <path d="M4.0426,8.5243 C6.2517,8.5243 8.0426,6.7334 8.0426,4.5243 C8.0426,2.3152 6.2517,0.5243 4.0426,0.5243 C1.8335,0.5243 0.0426,2.3152 0.0426,4.5243 C0.0426,6.7334 1.8334,8.5243 4.0426,8.5243 Z M4.0426,2.5243 C5.1472,2.5243 6.0426,3.4197 6.0426,4.5243 C6.0426,5.6289 5.1472,6.5243 4.0426,6.5243 C2.938,6.5243 2.0426,5.6289 2.0426,4.5243 C2.0426,3.4197 2.938,2.5243 4.0426,2.5243 Z" id="path-17"></path>
        <path d="M56.9332,4.0667 L37.6166,4.0667 L37.6166,1.0167 C37.6166,0.4553 37.1614,3.39533351e-05 36.5999,3.39533351e-05 L1.0167,3.39533351e-05 C0.4614,-0.0062 0.0062,0.439 0,0.9942 C0,1.0017 0,1.0092 0,1.0167 L0,52.8667 C0,53.3041 0.2805,53.6922 0.6955,53.8305 L22.0455,60.9471 C22.1489,60.9822 22.2575,61 22.3667,61 C22.9282,61 23.3834,60.5448 23.3834,59.9833 L23.3834,53.8833 L26.9987,53.8833 C27.7195,55.1373 29.0537,55.9121 30.5001,55.9167 L56.9333,55.9167 C59.1793,55.9167 61,54.096 61,51.85 L61,41.6834 C61,39.4374 59.1793,37.6167 56.9333,37.6167 L39.9549,37.6167 L37.6166,36.0561 L37.6166,27.994 L39.9549,26.4334 L56.9332,26.4334 C59.1792,26.4334 61,24.6126 61,22.3667 L61,8.1334 C61,5.8873 59.1793,4.0667 56.9332,4.0667 Z M58.9665,8.1334 L58.9665,12.2001 L28.4666,12.2001 L28.4666,8.1334 C28.4666,7.0104 29.3769,6.1001 30.4999,6.1001 L56.9332,6.1001 C58.0562,6.1001 58.9665,7.0104 58.9665,8.1334 Z M21.3501,58.5722 L2.0335,52.1337 L2.0335,2.4279 L21.3501,8.8664 L21.3501,58.5722 Z M39.6499,39.65 L56.9332,39.65 C58.0562,39.65 58.9665,40.5603 58.9665,41.6834 L58.9665,51.85 C58.9665,52.973 58.0562,53.8833 56.9332,53.8833 L30.4999,53.8833 C29.3769,53.8833 28.4666,52.973 28.4666,51.85 L28.4666,41.6834 C28.4666,40.5603 29.3769,39.65 30.4999,39.65 L33.5499,39.65 C34.1114,39.65 34.5666,39.1948 34.5666,38.6334 L34.5666,36.4658 L39.0857,39.4792 C39.2529,39.5903 39.4493,39.6496 39.6499,39.65 Z M35.5833,34.7009 L34.1142,33.7208 C33.6471,33.4092 33.0158,33.5352 32.7042,34.0023 C32.5927,34.1694 32.5333,34.3658 32.5333,34.5667 L32.5333,37.6167 L30.4999,37.6167 C28.254,37.6167 26.4333,39.4374 26.4333,41.6834 L26.4333,51.85 L23.3833,51.85 L23.3833,8.1334 C23.3829,7.696 23.1029,7.3079 22.6879,7.1696 L7.2805,2.0334 L35.5833,2.0334 L35.5833,4.0667 L30.4999,4.0667 C28.254,4.0667 26.4333,5.8874 26.4333,8.1334 L26.4333,22.3667 C26.4333,24.6126 28.254,26.4334 30.4999,26.4334 L32.5333,26.4334 L32.5333,29.4834 C32.5331,30.0448 32.9884,30.5002 33.5498,30.5002 C33.7507,30.5002 33.9471,30.4407 34.1142,30.3292 L35.5833,29.3492 L35.5833,34.7009 Z M56.9332,24.4 L39.6499,24.4 C39.4491,24.4004 39.2529,24.4598 39.0857,24.5708 L34.5666,27.5842 L34.5666,25.4167 C34.5666,24.8553 34.1114,24.4 33.5499,24.4 L30.4999,24.4 C29.3769,24.4 28.4666,23.4897 28.4666,22.3667 L28.4666,14.2334 L58.9665,14.2334 L58.9665,22.3667 C58.9665,23.4896 58.0562,24.4 56.9332,24.4 Z" id="path-19"></path>
    </defs>
    <g id="Page-1" stroke="none" stroke-width="1" fill="none" fill-rule="evenodd">
        <g id="Technology-Stack" transform="translate(-762.000000, -1936.000000)">
            <g id="Group-41" transform="translate(762.000000, 1936.000000)">
                <g id="Group-3" transform="translate(4.000000, 0.000000)">
                    <mask id="mask-2" fill="white">
                        <use xlink:href="#path-1"></use>
                    </mask>
                    <g id="Clip-2"></g>
                    <polygon id="Fill-1" fill="#808080" mask="url(#mask-2)" points="-4.1511 57.5644 36.7236 57.5644 36.7236 -4.4356 -4.1511 -4.4356"></polygon>
                </g>
                <path d="M60.2619,7.9607 C60.2619,6.1316 58.7791,4.6489 56.9501,4.6489 C50.6077,4.6489 36.8496,4.6489 30.9002,4.6489 C30.1481,4.6489 29.4268,4.9477 28.895,5.4795 C28.3632,6.0113 28.0645,6.7325 28.0645,7.4846 C28.0645,11.4894 28.0645,18.745 28.0645,22.6209 C28.0645,24.0602 29.2312,25.2269 30.6705,25.2269 C32.5618,25.2269 34.7901,25.2269 34.7901,25.2269 L34.7901,28.1942 L38.7803,25.2269 C38.7803,25.2269 53.3773,24.8012 58.5059,24.6517 C59.4839,24.6232 60.2619,23.8222 60.2619,22.8438 C60.2619,19.5137 60.2619,12.234 60.2619,7.9607 Z" id="Fill-4" fill="#FFFFFF"></path>
                <path d="M59.7902,50.6881 C59.7902,51.5664 59.4413,52.4088 58.8202,53.0299 C58.1991,53.651 57.3568,53.9999 56.4784,53.9999 C50.1862,53.9999 36.595,53.9999 30.5711,53.9999 C29.7949,53.9999 29.0526,53.6818 28.5174,53.1196 C27.9821,52.5575 27.7007,51.8005 27.7387,51.0252 C27.8915,47.9104 28.1282,43.0868 28.2667,40.262 C28.3307,38.9584 29.3492,37.9031 30.6498,37.793 C32.3266,37.6511 34.3184,37.4825 34.3184,37.4825 C35.07,38.4101 34.4885,36.2843 34.3184,35.1007 L38.3086,37.4825 C38.3086,37.4825 52.8859,37.8237 58.0239,37.9439 C59.006,37.9669 59.7902,38.7697 59.7902,39.7521 C59.7902,42.3807 59.7902,47.3674 59.7902,50.6881 Z" id="Fill-5" fill="#FFFFFF"></path>
                <g id="Group-8" transform="translate(32.000000, 19.000000)">
                    <mask id="mask-4" fill="white">
                        <use xlink:href="#path-3"></use>
                    </mask>
                    <g id="Clip-7"></g>
                    <polygon id="Fill-6" fill="#828282" mask="url(#mask-4)" points="-4.8734 7.2156 29.1266 7.2156 29.1266 -4.7844 -4.8734 -4.7844"></polygon>
                </g>
                <g id="Group-11" transform="translate(38.000000, 15.000000)">
                    <mask id="mask-6" fill="white">
                        <use xlink:href="#path-5"></use>
                    </mask>
                    <g id="Clip-10"></g>
                    <polygon id="Fill-9" fill="#828282" mask="url(#mask-6)" points="-4.8734 7.2156 23.1266 7.2156 23.1266 -4.7844 -4.8734 -4.7844"></polygon>
                </g>
                <g id="Group-14" transform="translate(30.000000, 40.000000)">
                    <mask id="mask-8" fill="white">
                        <use xlink:href="#path-7"></use>
                    </mask>
                    <g id="Clip-13"></g>
                    <polygon id="Fill-12" fill-opacity="0.8" fill="#3B3B3B" mask="url(#mask-8)" points="-4.6428 11.4205 9.3572 11.4205 9.3572 -4.5795 -4.6428 -4.5795"></polygon>
                </g>
                <path d="M40.5769,46.6337 L42.7351,44.4172 C43.1563,43.9845 43.1563,43.2829 42.7351,42.8502 L40.5769,40.6337 L39.051,42.2007 L40.4463,43.6337 L39.051,45.0667 L40.5769,46.6337 Z" id="Fill-15" fill="#828282"></path>
                <g id="Group-18" transform="translate(34.000000, 40.000000)">
                    <mask id="mask-10" fill="white">
                        <use xlink:href="#path-9"></use>
                    </mask>
                    <g id="Clip-17"></g>
                    <polygon id="Fill-16" fill-opacity="0.8" fill="#3B3B3B" mask="url(#mask-10)" points="-4.6428 12.4205 9.3572 12.4205 9.3572 -4.5795 -4.6428 -4.5795"></polygon>
                </g>
                <g id="Group-21" transform="translate(35.000000, 49.000000)">
                    <mask id="mask-12" fill="white">
                        <use xlink:href="#path-11"></use>
                    </mask>
                    <g id="Clip-20"></g>
                    <polygon id="Fill-19" fill-opacity="0.8" fill="#3B3B3B" mask="url(#mask-12)" points="-4.6428 7.4205 26.3572 7.4205 26.3572 -4.5795 -4.6428 -4.5795"></polygon>
                </g>
                <path d="M46.0279,42.5825 C45.4997,42.5825 45.07,43.0412 45.07,43.605 C45.07,44.1689 45.4998,44.6276 46.0279,44.6276 C46.556,44.6276 46.9857,44.1688 46.9857,43.605 C46.9857,43.0412 46.5561,42.5825 46.0279,42.5825 Z" id="Fill-22" fill="#828282"></path>
                <path d="M49.2725,42.5952 C48.7443,42.5952 48.3146,43.054 48.3146,43.6178 C48.3146,44.1817 48.7443,44.6403 49.2725,44.6403 C49.8006,44.6403 50.2303,44.1816 50.2303,43.6178 C50.2303,43.054 49.8006,42.5952 49.2725,42.5952 Z" id="Fill-23" fill="#828282"></path>
                <path d="M52.5269,42.6226 C51.9987,42.6226 51.569,43.0814 51.569,43.6452 C51.569,44.2091 51.9987,44.6678 52.5269,44.6678 C53.055,44.6678 53.4847,44.209 53.4847,43.6452 C53.4847,43.0814 53.0551,42.6226 52.5269,42.6226 Z" id="Fill-24" fill="#828282"></path>
                <path d="M32.0348,8.0248 C31.5066,8.0248 31.0769,8.4836 31.0769,9.0474 C31.0769,9.6113 31.5066,10.07 32.0348,10.07 C32.5629,10.07 32.9926,9.6112 32.9926,9.0474 C32.9926,8.4836 32.5629,8.0248 32.0348,8.0248 Z" id="Fill-25" fill="#828282"></path>
                <path d="M35.2793,8.0376 C34.7512,8.0376 34.3215,8.4963 34.3215,9.0602 C34.3215,9.624 34.7512,10.0827 35.2793,10.0827 C35.8075,10.0827 36.2372,9.624 36.2372,9.0602 C36.2372,8.4964 35.8075,8.0376 35.2793,8.0376 Z" id="Fill-26" fill="#828282"></path>
                <path d="M38.5338,8.065 C38.0056,8.065 37.5759,8.5237 37.5759,9.0876 C37.5759,9.6514 38.0056,10.1101 38.5338,10.1101 C39.0619,10.1101 39.4916,9.6514 39.4916,9.0876 C39.4916,8.5238 39.0619,8.065 38.5338,8.065 Z" id="Fill-27" fill="#828282"></path>
                <path d="M32.3944,49.4297 C31.8773,49.4297 31.4566,49.8788 31.4566,50.4309 C31.4566,50.9829 31.8773,51.432 32.3944,51.432 C32.9114,51.432 33.3322,50.9829 33.3322,50.4309 C33.3322,49.8789 32.9115,49.4297 32.3944,49.4297 Z" id="Fill-28" fill="#828282"></path>
                <g id="Group-31" transform="translate(11.000000, 28.000000)">
                    <mask id="mask-14" fill="white">
                        <use xlink:href="#path-13"></use>
                    </mask>
                    <g id="Clip-30"></g>
                    <polygon id="Fill-29" fill="#3B3B3B" mask="url(#mask-14)" points="-4.9574 13.5243 13.0426 13.5243 13.0426 -4.4757 -4.9574 -4.4757"></polygon>
                </g>
                <g id="Group-34" transform="translate(0.000000, 1.000000)">
                    <mask id="mask-16" fill="white">
                        <use xlink:href="#path-15"></use>
                    </mask>
                    <g id="Clip-33"></g>
                    <polygon id="Fill-32" fill="#FBB03B" mask="url(#mask-16)" points="-4.7219 63.5541 26.9035 63.5541 26.9035 -4.8366 -4.7219 -4.8366"></polygon>
                </g>
                <g id="Group-37" transform="translate(11.000000, 28.000000)">
                    <mask id="mask-18" fill="white">
                        <use xlink:href="#path-17"></use>
                    </mask>
                    <g id="Clip-36"></g>
                    <polygon id="Fill-35" fill="#3B3B3B" mask="url(#mask-18)" points="-4.9574 13.5243 13.0426 13.5243 13.0426 -4.4757 -4.9574 -4.4757"></polygon>
                </g>
                <g id="Group-40">
                    <mask id="mask-20" fill="white">
                        <use xlink:href="#path-19"></use>
                    </mask>
                    <g id="Clip-39"></g>
                    <polygon id="Fill-38" fill="#3B3B3B" mask="url(#mask-20)" points="-5 66 66 66 66 -5 -5 -5"></polygon>
                </g>
            </g>
        </g>
    </g>
</svg>