
<svg width="132px" height="133px" viewBox="0 0 132 133" version="1.1" >
   
    <defs>
        <path d="M1.39332061,22.2583969 L4.41828244,23.0153053 L2.81175573,25.6889313 C2.43851145,26.3101145 2.53736641,27.1057634 3.04900763,27.6176718 L7.51725191,32.0824427 C8.03209924,32.5959542 8.82774809,32.69 9.44759542,32.3199618 L12.1177481,30.7166412 L12.8733206,33.7416031 C13.0491221,34.4432061 13.6809924,34.9364122 14.4058397,34.9364122 L20.7205344,34.9364122 C21.4453817,34.9364122 22.0775191,34.4432061 22.2530534,33.7416031 L23.008626,30.7166412 L25.6787786,32.3199618 C26.298626,32.69 27.0942748,32.5959542 27.6091221,32.0824427 L32.0741603,27.6176718 C32.5860687,27.1057634 32.6846565,26.3101145 32.3116794,25.6889313 L30.7080916,23.0153053 L33.7330534,22.2583969 C34.4362595,22.0825954 34.9294656,21.4520611 34.9294656,20.7272137 L34.9294656,14.4125191 C34.9294656,13.6876718 34.4362595,13.0571374 33.7330534,12.8813359 L30.7080916,12.1244275 L32.3116794,9.45080153 C32.6846565,8.82961832 32.5860687,8.03396947 32.0741603,7.52206107 L27.6091221,3.05729008 C27.0942748,2.54057252 26.298626,2.44973282 25.6787786,2.81977099 L23.008626,4.4230916 L22.2530534,1.39812977 C22.0775191,0.696793893 21.4453817,0.203587786 20.7205344,0.203587786 L14.4055725,0.203587786 C13.6809924,0.203587786 13.048855,0.696793893 12.8730534,1.39839695 L12.1177481,4.42335878 L9.44732824,2.82003817 C8.82748092,2.45 8.03183206,2.54110687 7.51698473,3.05755725 L3.04900763,7.52232824 C2.53709924,8.03423664 2.43851145,8.8298855 2.81148855,9.4510687 L4.41801527,12.1246947 L1.39305344,12.8816031 C0.690114504,13.0574046 0.196641221,13.6879389 0.196641221,14.4127863 L0.196641221,20.7277481 C0.196641221,21.4520611 0.690381679,22.0825954 1.39332061,22.2583969 Z M3.35438931,15.6441985 L6.0648855,14.9658397 C6.58293893,14.8365267 6.99919847,14.4555344 7.175,13.951374 C7.3139313,13.5490076 7.46782443,13.1559924 7.65591603,12.775 C7.88729008,12.294084 7.86270992,11.7298092 7.58832061,11.2718702 L6.15438931,8.88385496 L8.87717557,6.1610687 L11.2635878,7.595 C11.7231298,7.86938931 12.2874046,7.89396947 12.7685878,7.66125954 C13.1506489,7.47477099 13.5455344,7.32061069 13.9495038,7.18034351 C14.4520611,7.00454198 14.8311832,6.58828244 14.9607634,6.07343511 L15.6391221,3.36133588 L19.4872519,3.36133588 L20.1656107,6.07343511 C20.2951908,6.58828244 20.6745802,7.00454198 21.1768702,7.18034351 C21.5808397,7.32061069 21.9757252,7.47477099 22.3577863,7.66125954 C22.8357634,7.89263359 23.4032443,7.86618321 23.8627863,7.595 L26.2491985,6.16267176 L28.9690458,8.88385496 L27.5380534,11.2718702 C27.2636641,11.7298092 27.239084,12.294084 27.470458,12.775 C27.6585496,13.1589313 27.8127099,13.5551527 27.9545802,13.9607252 C28.1303817,14.4600763 28.5466412,14.8378626 29.0614885,14.9658397 L31.7719847,15.6441985 L31.7719847,19.4955344 L29.0614885,20.1738931 C28.5466412,20.3018702 28.1301145,20.6796565 27.9545802,21.1792748 C27.8127099,21.5848473 27.6585496,21.9810687 27.470458,22.3647328 C27.239084,22.8456489 27.2636641,23.4101908 27.5380534,23.8678626 L28.9690458,26.256145 L26.2491985,28.9770611 L23.8627863,27.545 C23.4064504,27.2687405 22.8389695,27.2441603 22.3577863,27.4784733 C21.9757252,27.6649618 21.5808397,27.8193893 21.1768702,27.9596565 C20.674313,28.135458 20.2951908,28.5517176 20.1656107,29.0665649 L19.4872519,31.7783969 L15.6391221,31.7783969 L14.9607634,29.0665649 C14.8311832,28.5517176 14.4517939,28.1351908 13.9495038,27.9596565 C13.5455344,27.8193893 13.1506489,27.6649618 12.7685878,27.4784733 C12.2844656,27.2425573 11.7231298,27.2687405 11.2635878,27.545 L8.87717557,28.9786641 L6.15438931,26.256145 L7.58832061,23.8678626 C7.86270992,23.4099237 7.88729008,22.8456489 7.65591603,22.3647328 C7.46782443,21.9840076 7.31366412,21.5907252 7.175,21.1883588 C6.99919847,20.6841985 6.58293893,20.3034733 6.0648855,20.1738931 L3.35438931,19.4955344 L3.35438931,15.6441985 Z" id="path-1"></path>
        <path d="M7.9296,15.7645333 C12.2474667,15.7645333 15.7576,12.2525333 15.7576,7.93653333 C15.7576,3.62053333 12.2472,0.108533333 7.9296,0.108533333 C3.612,0.108533333 0.1016,3.62053333 0.1016,7.93653333 C0.1016,12.2525333 3.612,15.7645333 7.9296,15.7645333 Z M7.9296,3.23973333 C10.5197333,3.23973333 12.6264,5.3464 12.6264,7.93653333 C12.6264,10.5264 10.5197333,12.6333333 7.9296,12.6333333 C5.33973333,12.6333333 3.2328,10.5264 3.2328,7.93653333 C3.2328,5.3464 5.33973333,3.23973333 7.9296,3.23973333 Z" id="path-3"></path>
    </defs>
    <g id="Page-1" stroke="none" stroke-width="1" fill="none" fill-rule="evenodd">
        <g id="Landing-page" transform="translate(-982.000000, -2077.000000)">
            <g id="Digital_transformation_Icon" transform="translate(982.000000, 2078.000000)">
                <path d="M121.35831,55.3590712 C116.324666,55.3590712 112.14825,59.0497473 111.362479,63.8642195 L80.3237258,63.8642195 L75.1356573,58.6761299 L92.4731999,41.3385164 L95.5630245,44.4283537 C95.8823109,44.7476413 96.3008891,44.907419 96.719735,44.907419 C97.1383132,44.907419 97.5571591,44.7476413 97.8764454,44.4283537 L106.369516,35.9352489 C107.008624,35.2966736 107.008624,34.2611967 106.369516,33.6226214 L97.8764454,25.1295166 C97.2378727,24.4901384 96.2015972,24.4901384 95.5638274,25.1295166 L87.0704897,33.6226214 C86.4321846,34.2611967 86.4321846,35.2966736 87.0704897,35.9352489 L90.1605819,39.0250861 L72.8230393,56.3626996 L67.6349709,51.1748775 L67.6349709,20.1362646 C72.4494235,19.3507582 76.1398169,15.173523 76.1398169,10.1403936 C76.1398169,4.54871147 71.591124,0 65.9994647,0 C60.4078055,0 55.858845,4.54871147 55.858845,10.1403936 C55.858845,15.1740583 59.549506,19.3507582 64.3639586,20.1362646 L64.3639586,51.1754128 L59.1758901,56.3635025 L41.8383475,39.025889 L44.9281722,35.9357841 C45.5672801,35.2974765 45.5672801,34.261732 44.9281722,33.6231567 L36.435102,25.1300519 C35.7973322,24.4909413 34.7610567,24.4909413 34.122484,25.1300519 L25.6293336,33.6226214 C24.9901454,34.2611967 24.9901454,35.2966736 25.6293336,35.9352489 L34.122484,44.4283537 C34.4417704,44.7476413 34.8603486,44.907419 35.2791945,44.907419 C35.6977727,44.907419 36.1166186,44.7476413 36.435102,44.4283537 L39.5249267,41.3385164 L56.8624693,58.6761299 L51.6746684,63.8642195 L20.6362894,63.8642195 C19.850572,59.0497473 15.6733807,55.3590712 10.6404324,55.3590712 C5.04879994,55.3590712 0.5,59.9080503 0.5,65.4997324 C0.5,71.0914145 5.04879994,75.6401259 10.6404324,75.6401259 C15.674023,75.6401259 19.850572,71.9497175 20.6362894,67.1352452 L51.6752037,67.1352452 L56.8632722,72.3233348 L39.5257296,89.6609483 L36.4356373,86.5708434 C35.7978675,85.9317328 34.761592,85.9317328 34.1230193,86.5708434 L25.6293336,95.0642159 C24.9901454,95.7025235 24.9901454,96.738268 25.6293336,97.3768433 L34.122484,105.869921 C34.4417704,106.189182 34.8603486,106.348799 35.2791945,106.348799 C35.6977727,106.348799 36.1166186,106.189182 36.435102,105.869921 L44.9281722,97.3768433 C45.5672801,96.738268 45.5672801,95.7025235 44.9281722,95.0642159 L41.8383475,91.974111 L59.1758901,74.6364975 L64.3639586,79.8245872 L64.3639586,110.863628 C59.549506,111.649349 55.858845,115.826557 55.858845,120.859526 C55.858845,126.451181 60.4078055,131 65.9994647,131 C71.591124,131 76.1398169,126.451181 76.1398169,120.859526 C76.1398169,115.825915 72.4494235,111.649349 67.6349709,110.863628 L67.6349709,79.8245872 L72.8230393,74.6364975 L90.1605819,91.974111 L87.0704897,95.0642159 C86.4321846,95.7025235 86.4321846,96.738268 87.0704897,97.3768433 L95.5638274,105.869921 C95.8828461,106.189182 96.301692,106.348799 96.7202702,106.348799 C97.1391161,106.348799 97.5576944,106.189182 97.8769807,105.869921 L106.370051,97.3768433 C107.009426,96.738268 107.009426,95.7025235 106.370051,95.0642159 L97.8769807,86.5708434 C97.238408,85.9317328 96.2021325,85.9317328 95.5643627,86.5708434 L92.4745381,89.6609483 L75.1369955,72.3233348 L80.3247963,67.1352452 L111.363818,67.1352452 C112.149589,71.9497175 116.326807,75.6401259 121.359648,75.6401259 C126.951307,75.6401259 131.5,71.0914145 131.5,65.4997324 C131.5,59.9080503 126.949969,55.3590712 121.35831,55.3590712 Z M96.719735,28.5993945 L102.899384,34.7793366 L96.719735,40.9590111 L93.8491019,38.0883663 C93.7912931,38.0037939 93.7273288,37.9221654 93.6521239,37.8469602 C93.576919,37.771755 93.4950232,37.7069875 93.4107188,37.6494461 L90.5398181,34.7785337 L96.719735,28.5993945 Z M35.2791945,40.9590111 L29.0992776,34.7793366 L35.2791945,28.5993945 L41.4588437,34.7793366 L38.5882107,37.6499814 C38.5031033,37.7075228 38.4220105,37.7722903 38.3468056,37.8474955 C38.2716007,37.9227007 38.2068334,38.0037939 38.1498276,38.0889016 L35.2791945,40.9590111 Z M10.6404324,72.3691003 C6.85248674,72.3691003 3.77111932,69.2875597 3.77111932,65.4997324 C3.77111932,61.7116374 6.85248674,58.6303644 10.6404324,58.6303644 C14.4283781,58.6303644 17.5097723,61.7116374 17.5097723,65.4997324 C17.5097723,69.2875597 14.4277358,72.3691003 10.6404324,72.3691003 Z M35.2791945,102.399803 L29.0992776,96.2201281 L35.2791945,90.040186 L38.1498276,92.9110984 C38.2073687,92.9962061 38.2721359,93.0772993 38.3468056,93.1525045 C38.4220105,93.2277097 38.5031033,93.2924772 38.5882107,93.3500186 L41.4588437,96.2206634 L35.2791945,102.399803 Z M96.719735,90.040186 L102.899384,96.2201281 L96.719735,102.399803 L90.5398181,96.2201281 L93.4107188,93.3494833 C93.4958261,93.2916743 93.576919,93.2269068 93.6521239,93.1517016 C93.7273288,93.0764964 93.792096,92.9954032 93.8491019,92.9102955 L96.719735,90.040186 Z M59.1301249,10.1403936 C59.1301249,6.35256622 62.2113852,3.27102563 65.9994647,3.27102563 C69.7872766,3.27102563 72.8688046,6.35256622 72.8688046,10.1403936 C72.8688046,13.9284885 69.7872766,17.0097615 65.9994647,17.0097615 C62.2113852,17.0097615 59.1301249,13.9276856 59.1301249,10.1403936 Z M72.8688046,120.858857 C72.8688046,124.646818 69.7872766,127.728225 65.9994647,127.728225 C62.2113852,127.728225 59.1301249,124.646818 59.1301249,120.858857 C59.1301249,117.070896 62.2113852,113.989489 65.9994647,113.989489 C69.7872766,113.989489 72.8688046,117.071565 72.8688046,120.858857 Z M65.9994647,76.833507 L54.6657364,65.4997324 L65.9994647,54.1659577 L77.333193,65.4997324 L65.9994647,76.833507 Z M121.35831,72.3691003 C117.570498,72.3691003 114.48897,69.2875597 114.48897,65.4997324 C114.48897,61.7116374 117.570498,58.6303644 121.35831,58.6303644 C125.146389,58.6303644 128.22765,61.7116374 128.22765,65.4997324 C128.22765,69.2875597 125.146389,72.3691003 121.35831,72.3691003 Z" id="Fill-1" stroke="#979797" fill="#8A8A8A"></path>
                <path d="M121.35831,55.3590712 C116.324666,55.3590712 112.14825,59.0497473 111.362479,63.8642195 L80.3237258,63.8642195 L75.1356573,58.6761299 L92.4731999,41.3385164 L95.5630245,44.4283537 C95.8823109,44.7476413 96.3008891,44.907419 96.719735,44.907419 C97.1383132,44.907419 97.5571591,44.7476413 97.8764454,44.4283537 L106.369516,35.9352489 C107.008624,35.2966736 107.008624,34.2611967 106.369516,33.6226214 L97.8764454,25.1295166 C97.2378727,24.4901384 96.2015972,24.4901384 95.5638274,25.1295166 L87.0704897,33.6226214 C86.4321846,34.2611967 86.4321846,35.2966736 87.0704897,35.9352489 L90.1605819,39.0250861 L72.8230393,56.3626996 L67.6349709,51.1748775 L67.6349709,20.1362646 C72.4494235,19.3507582 76.1398169,15.173523 76.1398169,10.1403936 C76.1398169,4.54871147 71.591124,0 65.9994647,0 C60.4078055,0 55.858845,4.54871147 55.858845,10.1403936 C55.858845,15.1740583 59.549506,19.3507582 64.3639586,20.1362646 L64.3639586,51.1754128 L59.1758901,56.3635025 L41.8383475,39.025889 L44.9281722,35.9357841 C45.5672801,35.2974765 45.5672801,34.261732 44.9281722,33.6231567 L36.435102,25.1300519 C35.7973322,24.4909413 34.7610567,24.4909413 34.122484,25.1300519 L25.6293336,33.6226214 C24.9901454,34.2611967 24.9901454,35.2966736 25.6293336,35.9352489 L34.122484,44.4283537 C34.4417704,44.7476413 34.8603486,44.907419 35.2791945,44.907419 C35.6977727,44.907419 36.1166186,44.7476413 36.435102,44.4283537 L39.5249267,41.3385164 L56.8624693,58.6761299 L51.6746684,63.8642195 L20.6362894,63.8642195 C19.850572,59.0497473 15.6733807,55.3590712 10.6404324,55.3590712 C5.04879994,55.3590712 0.5,59.9080503 0.5,65.4997324 C0.5,71.0914145 5.04879994,75.6401259 10.6404324,75.6401259 C15.674023,75.6401259 19.850572,71.9497175 20.6362894,67.1352452 L51.6752037,67.1352452 L56.8632722,72.3233348 L39.5257296,89.6609483 L36.4356373,86.5708434 C35.7978675,85.9317328 34.761592,85.9317328 34.1230193,86.5708434 L25.6293336,95.0642159 C24.9901454,95.7025235 24.9901454,96.738268 25.6293336,97.3768433 L34.122484,105.869921 C34.4417704,106.189182 34.8603486,106.348799 35.2791945,106.348799 C35.6977727,106.348799 36.1166186,106.189182 36.435102,105.869921 L44.9281722,97.3768433 C45.5672801,96.738268 45.5672801,95.7025235 44.9281722,95.0642159 L41.8383475,91.974111 L59.1758901,74.6364975 L64.3639586,79.8245872 L64.3639586,110.863628 C59.549506,111.649349 55.858845,115.826557 55.858845,120.859526 C55.858845,126.451181 60.4078055,131 65.9994647,131 C71.591124,131 76.1398169,126.451181 76.1398169,120.859526 C76.1398169,115.825915 72.4494235,111.649349 67.6349709,110.863628 L67.6349709,79.8245872 L72.8230393,74.6364975 L90.1605819,91.974111 L87.0704897,95.0642159 C86.4321846,95.7025235 86.4321846,96.738268 87.0704897,97.3768433 L95.5638274,105.869921 C95.8828461,106.189182 96.301692,106.348799 96.7202702,106.348799 C97.1391161,106.348799 97.5576944,106.189182 97.8769807,105.869921 L106.370051,97.3768433 C107.009426,96.738268 107.009426,95.7025235 106.370051,95.0642159 L97.8769807,86.5708434 C97.238408,85.9317328 96.2021325,85.9317328 95.5643627,86.5708434 L92.4745381,89.6609483 L75.1369955,72.3233348 L80.3247963,67.1352452 L111.363818,67.1352452 C112.149589,71.9497175 116.326807,75.6401259 121.359648,75.6401259 C126.951307,75.6401259 131.5,71.0914145 131.5,65.4997324 C131.5,59.9080503 126.949969,55.3590712 121.35831,55.3590712 Z M96.719735,28.5993945 L102.899384,34.7793366 L96.719735,40.9590111 L93.8491019,38.0883663 C93.7912931,38.0037939 93.7273288,37.9221654 93.6521239,37.8469602 C93.576919,37.771755 93.4950232,37.7069875 93.4107188,37.6494461 L90.5398181,34.7785337 L96.719735,28.5993945 Z M35.2791945,40.9590111 L29.0992776,34.7793366 L35.2791945,28.5993945 L41.4588437,34.7793366 L38.5882107,37.6499814 C38.5031033,37.7075228 38.4220105,37.7722903 38.3468056,37.8474955 C38.2716007,37.9227007 38.2068334,38.0037939 38.1498276,38.0889016 L35.2791945,40.9590111 Z M10.6404324,72.3691003 C6.85248674,72.3691003 3.77111932,69.2875597 3.77111932,65.4997324 C3.77111932,61.7116374 6.85248674,58.6303644 10.6404324,58.6303644 C14.4283781,58.6303644 17.5097723,61.7116374 17.5097723,65.4997324 C17.5097723,69.2875597 14.4277358,72.3691003 10.6404324,72.3691003 Z M35.2791945,102.399803 L29.0992776,96.2201281 L35.2791945,90.040186 L38.1498276,92.9110984 C38.2073687,92.9962061 38.2721359,93.0772993 38.3468056,93.1525045 C38.4220105,93.2277097 38.5031033,93.2924772 38.5882107,93.3500186 L41.4588437,96.2206634 L35.2791945,102.399803 Z M96.719735,90.040186 L102.899384,96.2201281 L96.719735,102.399803 L90.5398181,96.2201281 L93.4107188,93.3494833 C93.4958261,93.2916743 93.576919,93.2269068 93.6521239,93.1517016 C93.7273288,93.0764964 93.792096,92.9954032 93.8491019,92.9102955 L96.719735,90.040186 Z M59.1301249,10.1403936 C59.1301249,6.35256622 62.2113852,3.27102563 65.9994647,3.27102563 C69.7872766,3.27102563 72.8688046,6.35256622 72.8688046,10.1403936 C72.8688046,13.9284885 69.7872766,17.0097615 65.9994647,17.0097615 C62.2113852,17.0097615 59.1301249,13.9276856 59.1301249,10.1403936 Z M72.8688046,120.858857 C72.8688046,124.646818 69.7872766,127.728225 65.9994647,127.728225 C62.2113852,127.728225 59.1301249,124.646818 59.1301249,120.858857 C59.1301249,117.070896 62.2113852,113.989489 65.9994647,113.989489 C69.7872766,113.989489 72.8688046,117.071565 72.8688046,120.858857 Z M65.9994647,76.833507 L54.6657364,65.4997324 L65.9994647,54.1659577 L77.333193,65.4997324 L65.9994647,76.833507 Z M121.35831,72.3691003 C117.570498,72.3691003 114.48897,69.2875597 114.48897,65.4997324 C114.48897,61.7116374 117.570498,58.6303644 121.35831,58.6303644 C125.146389,58.6303644 128.22765,61.7116374 128.22765,65.4997324 C128.22765,69.2875597 125.146389,72.3691003 121.35831,72.3691003 Z" id="Stroke-2" stroke="#8A8A8A" stroke-width="0.5" stroke-linejoin="round"></path>
                <path d="M66,43 C78.9700533,43 89.5,53.5299467 89.5,66.5 C89.5,79.4700533 78.9700533,90 66,90 C53.0299467,90 42.5,79.4700533 42.5,66.5 C42.5,53.5299467 53.0299467,43 66,43 Z" id="Fill-3" fill="#FFFFFF"></path>
                <g id="Group-6" transform="translate(48.500000, 48.000000)">
                    <mask id="mask-2" fill="white">
                        <use xlink:href="#path-1"></use>
                    </mask>
                    <g id="Clip-5"></g>
                    <polygon id="Fill-4" fill="#8A8A8A" mask="url(#mask-2)" points="-2.69767176 37.8307252 37.8240458 37.8307252 37.8240458 -2.69099237 -2.69767176 -2.69099237"></polygon>
                </g>
                <path d="M49.7058846,70.2244615 L52.7541154,70.9871923 L51.1352308,73.6813846 C50.7591154,74.3073462 50.8587308,75.1091154 51.3743077,75.6249615 L55.8769231,80.1240769 C56.3957308,80.6415385 57.1975,80.7363077 57.8221154,80.3634231 L60.5128077,78.7477692 L61.2741923,81.796 C61.4513462,82.503 62.0880769,83 62.8185,83 L69.1817692,83 C69.9121923,83 70.5491923,82.503 70.7260769,81.796 L71.4874615,78.7477692 L74.1781538,80.3634231 C74.8027692,80.7363077 75.6045385,80.6415385 76.1233462,80.1240769 L80.6227308,75.6249615 C81.1385769,75.1091154 81.2379231,74.3073462 80.8620769,73.6813846 L79.2461538,70.9871923 L82.2943846,70.2244615 C83.003,70.0473077 83.5,69.4119231 83.5,68.6815 L83.5,62.3182308 C83.5,61.5878077 83.003,60.9524231 82.2943846,60.7752692 L79.2461538,60.0125385 L80.8620769,57.3183462 C81.2379231,56.6923846 81.1385769,55.8906154 80.6227308,55.3747692 L76.1233462,50.8756538 C75.6045385,50.3549615 74.8027692,50.2634231 74.1781538,50.6363077 L71.4874615,52.2519615 L70.7260769,49.2037308 C70.5491923,48.497 69.9121923,48 69.1817692,48 L62.8182308,48 C62.0880769,48 61.4510769,48.497 61.2739231,49.204 L60.5128077,52.2522308 L57.8218462,50.6365769 C57.1972308,50.2636923 56.3954615,50.3555 55.8766538,50.8759231 L51.3743077,55.3750385 C50.8584615,55.8908846 50.7591154,56.6926538 51.1349615,57.3186154 L52.7538462,60.0128077 L49.7056154,60.7755385 C48.9972692,60.9526923 48.5,61.5880769 48.5,62.3185 L48.5,68.6820385 C48.5,69.4119231 48.9975385,70.0473077 49.7058846,70.2244615 Z M51.6820385,63.5593846 L54.4133846,62.8758077 C54.9354231,62.7455 55.3548846,62.3615769 55.5320385,61.8535385 C55.6720385,61.4480769 55.8271154,61.0520385 56.0166538,60.6681154 C56.2498077,60.1835 56.2250385,59.6148846 55.9485385,59.1534231 L54.5035769,56.7470385 L57.2473077,54.0033077 L59.6520769,55.4482692 C60.1151538,55.7247692 60.6837692,55.7495385 61.1686538,55.5150385 C61.5536538,55.3271154 61.9515769,55.1717692 62.3586538,55.0304231 C62.8650769,54.8532692 63.2471154,54.4338077 63.3776923,53.915 L64.0612692,51.1820385 L67.939,51.1820385 L68.6225769,53.915 C68.7531538,54.4338077 69.1354615,54.8532692 69.6416154,55.0304231 C70.0486923,55.1717692 70.4466154,55.3271154 70.8316154,55.5150385 C71.3132692,55.7481923 71.8851154,55.7215385 72.3481923,55.4482692 L74.7529615,54.0049231 L77.4937308,56.7470385 L76.0517308,59.1534231 C75.7752308,59.6148846 75.7504615,60.1835 75.9836154,60.6681154 C76.1731538,61.055 76.3285,61.4542692 76.4714615,61.8629615 C76.6486154,62.3661538 77.0680769,62.7468462 77.5868846,62.8758077 L80.3182308,63.5593846 L80.3182308,67.4403462 L77.5868846,68.1239231 C77.0680769,68.2528846 76.6483462,68.6335769 76.4714615,69.1370385 C76.3285,69.5457308 76.1731538,69.945 75.9836154,70.3316154 C75.7504615,70.8162308 75.7752308,71.3851154 76.0517308,71.8463077 L77.4937308,74.2529615 L74.7529615,76.9948077 L72.3481923,75.5517308 C71.8883462,75.2733462 71.3165,75.2485769 70.8316154,75.4846923 C70.4466154,75.6726154 70.0486923,75.8282308 69.6416154,75.9695769 C69.1351923,76.1467308 68.7531538,76.5661923 68.6225769,77.085 L67.939,79.8176923 L64.0612692,79.8176923 L63.3776923,77.085 C63.2471154,76.5661923 62.8648077,76.1464615 62.3586538,75.9695769 C61.9515769,75.8282308 61.5536538,75.6726154 61.1686538,75.4846923 C60.6808077,75.2469615 60.1151538,75.2733462 59.6520769,75.5517308 L57.2473077,76.9964231 L54.5035769,74.2529615 L55.9485385,71.8463077 C56.2250385,71.3848462 56.2498077,70.8162308 56.0166538,70.3316154 C55.8271154,69.9479615 55.6717692,69.5516538 55.5320385,69.1461923 C55.3548846,68.6381538 54.9354231,68.2545 54.4133846,68.1239231 L51.6820385,67.4403462 L51.6820385,63.5593846 Z" id="Fill-7" fill="#8A8A8A"></path>
                <g id="Group-11" transform="translate(57.500000, 58.000000)">
                    <mask id="mask-4" fill="white">
                        <use xlink:href="#path-3"></use>
                    </mask>
                    <g id="Clip-10"></g>
                    <polygon id="Fill-9" fill="#8A8A8A" mask="url(#mask-4)" points="-2.7872 18.6533333 18.6465067 18.6533333 18.6465067 -2.78037333 -2.7872 -2.78037333"></polygon>
                </g>
                <path d="M66,73 C70.1369443,73 73.5,69.6351559 73.5,65.5 C73.5,61.3648441 70.1366888,58 66,58 C61.8633112,58 58.5,61.3648441 58.5,65.5 C58.5,69.6351559 61.8633112,73 66,73 Z M66,61 C68.4816045,61 70.5,63.0183955 70.5,65.5 C70.5,67.981349 68.4816045,70 66,70 C63.518651,70 61.5,67.981349 61.5,65.5 C61.5,63.0183955 63.518651,61 66,61 Z" id="Fill-12" fill="#8A8A8A"></path>
            </g>
        </g>
    </g>
</svg>