<?xml version="1.0" encoding="UTF-8"?>
<svg width="249px" height="249px" viewBox="0 0 249 249" version="1.1" xmlns="http://www.w3.org/2000/svg" xmlns:xlink="http://www.w3.org/1999/xlink">
    <!-- Generator: Sketch 58 (84663) - https://sketch.com -->
    <title>Group 2</title>
    <desc>Created with Sketch.</desc>
    <g id="Page-1" stroke="none" stroke-width="1" fill="none" fill-rule="evenodd">
        <g id="Products+Domains" transform="translate(-970.000000, -1751.000000)" fill="#FFFFFF">
            <g id="Group-2" transform="translate(972.000000, 1753.000000)">
                <g id="Group-4" transform="translate(89.000000, 38.000000)">
                    <path d="M53.7626477,42.9939336 C53.4027869,42.3229648 52.6892096,41.9026133 51.9109106,41.9026133 L33.8306157,41.9026133 L44.7943905,3.37390625 C44.9684837,2.76210547 44.8386307,2.10647656 44.4437463,1.60145703 C44.0486572,1.0964375 43.4335962,0.8 42.7812588,0.8 L18.2615024,0.8 C17.3224233,0.8 16.4988601,1.40960938 16.2483707,2.28975781 L0.0757275133,59.123082 C-0.0983656795,59.7348828 0.0314873608,60.3905117 0.426371685,60.8955313 C0.821460825,61.40075 1.4361122,61.6971875 2.08885927,61.6971875 L20.1691542,61.6971875 L9.20537936,100.225895 C8.93379397,101.180551 9.40896598,102.186008 10.330431,102.606957 C10.6159438,102.737445 10.9184564,102.8 11.2176918,102.8 C11.8833423,102.8 12.5313786,102.490016 12.9330218,101.929215 L53.6254213,45.0958906 C54.0700758,44.4745273 54.1227134,43.6649023 53.7626477,42.9939336 Z M16.4945589,89.8436094 L24.9281043,60.2074297 C25.1021975,59.5956289 24.9723444,58.94 24.5774601,58.4349805 C24.1823709,57.9297617 23.5677196,57.6333242 22.9149725,57.6333242 L4.83461614,57.6333242 L19.8508709,4.86366406 L40.0359115,4.86366406 L29.0717271,43.3923711 C28.8976339,44.0041719 29.0274869,44.6598008 29.4223712,45.1648203 C29.8176652,45.6700391 30.4325214,45.9664766 31.0848588,45.9664766 L47.910249,45.9664766 L16.4945589,89.8436094 Z" id="Fill-1"></path>
                    <path d="M28.6329919,28.8741436 C27.6393485,28.5772233 26.6075867,29.1987163 26.3301289,30.2626479 L26.0693479,31.2614689 C25.7917068,32.3254006 26.3726455,33.4289477 27.3668387,33.725868 C27.5348895,33.7760738 27.7040398,33.8 27.8706244,33.8 C28.6881536,33.8 29.4389757,33.2212604 29.6698851,32.3371675 L29.9306661,31.3383466 C30.2083072,30.2748072 29.6271852,29.17126 28.6329919,28.8741436 Z" id="Fill-2"></path>
                    <path d="M35.4035895,7.87308862 C34.2434132,7.58008135 33.0382938,8.19423235 32.7142748,9.24692403 L28.0810603,24.2882873 C27.7566133,25.340979 28.4352554,26.4326737 29.5962878,26.7266512 C29.7925397,26.7763266 29.9900757,26.8 30.1846155,26.8 C31.1393372,26.8 32.0163713,26.2273745 32.2858164,25.3526217 L36.9190309,10.3112584 C37.2432639,9.25876075 36.5646218,8.16726016 35.4035895,7.87308862 Z" id="Fill-3"></path>
                </g>
                <g id="Group-4" transform="translate(177.000000, 126.000000)">
                    <path d="M35.8417652,27.301957 C35.6018579,26.8678008 35.1261397,26.5958086 34.6072737,26.5958086 L22.5537438,26.5958086 L29.862927,1.66546875 C29.9789891,1.26959766 29.8924204,0.845367187 29.6291642,0.518589844 C29.3657715,0.1918125 28.9557308,0 28.5208392,0 L12.174335,0 C11.5482822,0 10.99924,0.394453125 10.8322471,0.963960937 L0.0504850088,37.7384648 C-0.0655771196,38.1343359 0.0209915738,38.5585664 0.28424779,38.8853437 C0.54764055,39.21225 0.957408135,39.4040625 1.39257285,39.4040625 L13.4461028,39.4040625 L6.13691957,64.3344023 C5.95586265,64.9521211 6.27264399,65.6027109 6.88695401,65.8750898 C7.0772959,65.9595234 7.27897091,66 7.47846123,66 C7.92222819,66 8.3542524,65.7994219 8.62201456,65.4365508 L35.7502809,28.6620469 C36.0467172,28.2599883 36.0818089,27.7361133 35.8417652,27.301957 Z M10.9963726,57.6164531 L16.6187362,38.4401016 C16.7347983,38.0442305 16.6482296,37.62 16.3849734,37.2932227 C16.1215806,36.9663164 15.711813,36.7745039 15.2766483,36.7745039 L3.22307743,36.7745039 L13.2339139,2.62942969 L26.6906077,2.62942969 L19.3811514,27.5597695 C19.2650892,27.9556406 19.3516579,28.3798711 19.6149142,28.7066484 C19.8784435,29.0335547 20.2883476,29.2253672 20.7232392,29.2253672 L31.940166,29.2253672 L10.9963726,57.6164531 Z" id="Fill-1"></path>
                    <path d="M19.316496,18.0593149 C18.8196742,17.8217787 18.3037933,18.3189731 18.1650644,19.1701184 L18.0346739,19.9691751 C17.8958534,20.8203204 18.1863228,21.7031582 18.6834194,21.9406944 C18.7674447,21.980859 18.8520199,22 18.9353122,22 C19.3440768,22 19.7194878,21.5370083 19.8349425,20.829734 L19.965333,20.0306773 C20.1041536,19.1798457 19.8135926,18.297008 19.316496,18.0593149 Z" id="Fill-2"></path>
                    <path d="M23.9357263,5.04616123 C23.1622755,4.86110401 22.3588625,5.24898885 22.1428499,5.91384676 L19.0540402,15.4136552 C18.8377422,16.0785131 19.2901703,16.7680044 20.0641918,16.9536744 C20.1950264,16.9850484 20.3267171,17 20.4564103,17 C21.0928914,17 21.6775809,16.6383418 21.857211,16.0858663 L24.9460206,6.58605793 C25.1621759,5.92132258 24.7097479,5.23195378 23.9357263,5.04616123 Z" id="Fill-3"></path>
                </g>
                <g id="Group-4" transform="translate(135.000000, 173.000000)">
                    <path d="M21.9033009,16.5466406 C21.7566909,16.2835156 21.4659743,16.1186719 21.1488895,16.1186719 L13.7828434,16.1186719 L18.2495665,1.009375 C18.3204934,0.769453125 18.2675903,0.51234375 18.1067115,0.314296875 C17.9457492,0.11625 17.6951688,0 17.4294017,0 L7.43987136,0 C7.05728355,0 6.7217578,0.2390625 6.61970657,0.58421875 L0.0308519498,22.8717969 C-0.0400749064,23.1117187 0.012828184,23.3688281 0.173706983,23.566875 C0.334669225,23.765 0.585082749,23.88125 0.851016739,23.88125 L8.21706282,23.88125 L3.75033974,38.9905469 C3.63969384,39.3649219 3.83328244,39.7592187 4.20869412,39.9242969 C4.32501416,39.9754687 4.44826,40 4.57017075,40 C4.84136167,40 5.10537647,39.8784375 5.2690089,39.6585156 L21.8473939,17.3709375 C22.0285494,17.1272656 22.0499944,16.8097656 21.9033009,16.5466406 Z M6.72000549,34.9190625 L10.1558943,23.2970312 C10.2268212,23.0571094 10.1739181,22.8 10.0130393,22.6019531 C9.85207705,22.4038281 9.60166353,22.2875781 9.33572954,22.2875781 L1.96965843,22.2875781 L8.08739183,1.59359375 L16.3109269,1.59359375 L11.844037,16.7028906 C11.7731101,16.9428125 11.8260132,17.1999219 11.986892,17.3979687 C12.1479377,17.5960937 12.3984346,17.7123437 12.6642017,17.7123437 L19.5189903,17.7123437 L6.72000549,34.9190625 Z" id="Fill-1"></path>
                    <path d="M11.658248,11.0296574 C11.4098371,10.9108893 11.1518967,11.1594865 11.0825322,11.5850592 L11.017337,11.9845876 C10.9479267,12.4101602 11.0931614,12.8515791 11.3417097,12.9703472 C11.3837224,12.9904295 11.4260099,13 11.4676561,13 C11.6720384,13 11.8597439,12.7685042 11.9174713,12.414867 L11.9826665,12.0153386 C12.0520768,11.5899229 11.9067963,11.148504 11.658248,11.0296574 Z" id="Fill-2"></path>
                    <path d="M15.2904842,3.03077416 C14.7748503,2.90740267 14.2392417,3.16599257 14.0952333,3.60923117 L12.0360268,9.94243678 C11.8918281,10.3856754 12.1934469,10.8453363 12.7094612,10.9691163 C12.7966843,10.9900322 12.8844781,11 12.9709402,11 C13.395261,11 13.7850539,10.7588945 13.9048073,10.3905776 L15.9640137,4.05737195 C16.1081173,3.61421505 15.8064986,3.15463586 15.2904842,3.03077416 Z" id="Fill-3"></path>
                </g>
                <path d="M235.257385,85.6528902 L235.257385,19.2727804 C235.257385,8.64590056 227.500765,0 217.96692,0 L17.290465,0 C7.75608504,0 0,8.64590056 0,19.2727804 L0,154.498484 C0,165.125364 7.75662035,173.771264 17.290465,173.771264 L74.1632472,173.771264 L67.6528251,181.581812 L57.8989687,181.581812 C55.6817209,181.581812 53.8841549,183.585465 53.8841549,186.056916 C53.8841549,188.528367 55.6817209,190.53202 57.8989687,190.53202 L113.7643,190.53202 L113.7643,233.692308 C113.7643,239.927022 118.314958,245 123.908932,245 L167.069251,245 C172.66269,245 177.213883,239.927619 177.213883,233.692308 L177.213883,224.602477 L231.247924,224.602477 C238.831105,224.602477 245,217.723347 245,209.267788 L245,100.319894 C245,93.4204771 240.892042,87.5724114 235.257385,85.6528902 Z M237,99.8749706 L237,101 L145,101 L145,99.8749706 C145,96.6355008 147.560148,94 150.706998,94 L231.298336,94 C234.442518,94.0005491 237,96.6360499 237,99.8749706 Z M167.352762,138.447589 L145,138.447589 L145,111 L237,111 L237,199 L177.460548,199 L177.460548,149.6779 C177.460548,143.485524 172.925886,138.447589 167.352762,138.447589 Z M168.999469,155 L122,155 L122,149.288942 C122,148.027156 122.940754,147 124.097584,147 L166.902416,147 C168.058715,147 169,148.026577 169,149.288942 L169,155 L168.999469,155 Z M228,24 L228,84.9094578 L151.204528,84.9094578 C143.625527,84.9094578 137.459534,91.7517567 137.459534,100.162045 L137.459534,137.767686 L124.774563,137.767686 C119.190459,137.767686 114.647123,142.805194 114.64017,149 L9,149 L9,24 L228,24 Z M122,164 L169,164 L169,218 L122,218 L122,164 Z M18.3195332,8 L218.681001,8 C222.342109,8 225.503489,10.4563265 227,14 L10,14 C11.4970456,10.4563265 14.6584255,8 18.3195332,8 Z M9,159 L114,159 L114,165 L17.5740164,165 C13.6987215,164.999445 10.376658,162.513414 9,159 Z M79,181 L85.4824488,174 L114,174 L114,181 L79,181 Z M166.902923,236 L124.097608,236 C122.941295,236 122,234.973349 122,233.710892 L122,228 L169,228 L169,233.710892 C169.000531,234.972769 168.059235,236 166.902923,236 Z M231.254233,215 L177,215 L177,208 L237,208 L237,209.12549 C237,212.364157 234.422736,215 231.254233,215 Z" id="Fill-1" stroke="#DB8E53" stroke-width="3"></path>
            </g>
        </g>
    </g>
</svg>