<?xml version="1.0" encoding="UTF-8"?>
<svg width="61px" height="62px" viewBox="0 0 61 62" version="1.1" xmlns="http://www.w3.org/2000/svg" xmlns:xlink="http://www.w3.org/1999/xlink">
    <!-- Generator: Sketch 58 (84663) - https://sketch.com -->
    <title>Group 33</title>
    <desc>Created with Sketch.</desc>
    <defs>
        <path d="M46.4483,37.4991 L47.4655,37.4991 C54.2071,37.4973 59.6709,32.0149 59.6691004,25.2535 C59.6673,18.4922 54.2009,13.0124 47.4592,13.0142 C46.6209,13.0144 45.7847,13.1013 44.9642,13.2733 C42.8642,4.5123 34.0803,-0.8826 25.3448,1.2237 C18.0306,2.9872 12.8759,9.5503 12.8797,17.095 C12.8797,17.1644 12.8888,17.2317 12.8899,17.2991 C7.3842,16.1778 2.0148,19.7453 0.8968,25.267 C-0.2211,30.7887 3.3359,36.1739 8.8415,37.2951 C9.5011,37.4294 10.1722,37.4977 10.8452,37.4991 L46.4483,37.4991 Z" id="path-1"></path>
        <path d="M3.3025,0.5812 C4.9142,0.5812 6.2227,1.9038 6.2227,3.5328 C6.2227,5.1618 4.9142,6.4844 3.3025,6.4844 C1.6908,6.4844 0.3823,5.1618 0.3823,3.5328 C0.3823,1.9038 1.6908,0.5812 3.3025,0.5812 Z" id="path-3"></path>
        <path d="M3.1522,0.4845 C4.7639,0.4845 6.0724,1.8071 6.0724,3.4361 C6.0724,5.0651 4.7639,6.3877 3.1522,6.3877 C1.5405,6.3877 0.232,5.0651 0.232,3.4361 C0.232,1.8071 1.5405,0.4845 3.1522,0.4845 Z" id="path-5"></path>
        <path d="M3.1684,0.1702 C4.4684,0.1702 5.5238,1.237 5.5238,2.5509 C5.5238,3.8649 4.4684,4.9316 3.1684,4.9316 C1.8685,4.9316 0.8131,3.8649 0.8131,2.5509 C0.8131,1.237 1.8685,0.1702 3.1684,0.1702 Z" id="path-7"></path>
        <path d="M3.1264,0.2007 C4.4263,0.2007 5.4817,1.2675 5.4817,2.5814 C5.4817,3.8954 4.4263,4.9621 3.1264,4.9621 C1.8264,4.9621 0.771,3.8954 0.771,2.5814 C0.771,1.2675 1.8264,0.2007 3.1264,0.2007 Z" id="path-9"></path>
        <path d="M47.5257,13.1388 C46.9406,13.139 46.3562,13.1784 45.7763,13.2567 C43.0514,4.1174 33.4732,-1.0705 24.3829,1.669 C17.451,3.7582 12.5638,9.9898 12.1605,17.2541 C11.8157,17.2216 11.4689,17.2053 11.123,17.2053 C4.98,17.2053 0,22.2121 0,28.3882 C0,34.5644 4.98,39.5711 11.123,39.5711 L13.1454,39.5711 L13.1454,42.621 C13.1454,43.1825 13.5982,43.6377 14.1566,43.6377 L19.3561,43.6377 C19.7261,45.0603 20.831,46.1712 22.2461,46.5432 L22.2461,53.804 L12.1342,53.804 L12.1342,55.8372 L22.2461,55.8372 L22.2461,59.9037 L12.1342,59.9037 L12.1342,61.9370035 L23.2572,61.9370035 C23.8157,61.9370035 24.2684,61.4818 24.2684,60.9204 L24.2684,46.5432 C25.6834,46.1712 26.7884,45.0603 27.1584,43.6377 L33.5127,43.6377 C33.8826,45.0603 34.9876,46.1712 36.4026,46.5432 L36.4026,60.9204 C36.4026,61.4818 36.8554,61.9370035 37.4138,61.9370035 L48.5368,61.9370035 L48.5368,59.9037 L38.425,59.9037 L38.425,55.8372 L48.5368,55.8372 L48.5368,53.804 L38.425,53.804 L38.425,46.5432 C39.84,46.1712 40.945,45.0603 41.315,43.6377 L46.5145,43.6377 C47.0729,43.6377 47.5257,43.1825 47.5257,42.621 L47.5257,39.5711 C54.7857,39.5711 60.6711,33.6541 60.6711,26.355 C60.6711,19.0558 54.7856,13.1388 47.5257,13.1388 Z M23.2572,44.6543 C22.1403,44.6543 21.2349,43.744 21.2349,42.621 C21.2349,41.498 22.1403,40.5878 23.2572,40.5878 C24.3742,40.5878 25.2796,41.498 25.2796,42.621 C25.2796,43.744 24.3741,44.6543 23.2572,44.6543 Z M37.4138,44.6543 C36.2968,44.6543 35.3914,43.744 35.3914,42.621 C35.3914,41.498 36.2968,40.5878 37.4138,40.5878 C38.5308,40.5878 39.4362,41.498 39.4362,42.621 C39.4362,43.744 38.5307,44.6543 37.4138,44.6543 Z M45.5033,41.6044 L41.315,41.6044 C40.7666,39.4382 38.5754,38.1292 36.421,38.6805 C34.9922,39.0461 33.8764,40.1678 33.5127,41.6044 L27.1584,41.6044 C26.6101,39.4382 24.4188,38.1292 22.2644,38.6805 C20.8356,39.0461 19.7199,40.1678 19.3561,41.6044 L15.1678,41.6044 L15.1678,35.5046 L45.5033,35.5046 L45.5033,41.6044 Z M15.1678,29.4048 L45.5033,29.4048 L45.5033,23.305 L15.1678,23.305 L15.1678,29.4048 Z M18.2013,33.4714 L42.4697,33.4714 L42.4697,31.4381 L18.2013,31.4381 L18.2013,33.4714 Z M47.5257,37.5379 L47.5257,34.488 C47.5257,33.9266 47.0729,33.4714 46.5145,33.4714 L44.4921,33.4714 L44.4921,31.4381 L46.5145,31.4381 C47.0729,31.4381 47.5257,30.9829 47.5257,30.4215 L47.5257,22.2884 C47.5257,21.727 47.0729,21.2718 46.5145,21.2718 L14.1566,21.2718 C13.5982,21.2718 13.1454,21.727 13.1454,22.2884 L13.1454,30.4215 C13.1454,30.9829 13.5982,31.4381 14.1566,31.4381 L16.1789,31.4381 L16.1789,33.4714 L14.1566,33.4714 C13.5982,33.4714 13.1454,33.9266 13.1454,34.488 L13.1454,37.5379 L11.123,37.5379 C6.0969,37.5379 2.0224,33.4414 2.0224,28.3882 C2.0224,23.3351 6.0968,19.2385 11.123,19.2385 C11.7385,19.2391 12.3522,19.3013 12.9553,19.4246 C13.2551,19.4836 13.5654,19.4049 13.8016,19.2101 C14.037,19.0136 14.1712,18.7206 14.1667,18.413 C14.1667,18.3927 14.1576,18.2423 14.1566,18.2219 C14.151,9.8043 20.9337,2.976 29.3061,2.97039657 C36.3179,2.9657 42.4179,7.7961 44.0563,14.6505 C44.1837,15.1849 44.7103,15.5207 45.2454,15.4089 C51.2584,14.1445 57.1524,18.0201 58.41,24.0655 C59.6677,30.1109 55.8128,36.0366 49.7998,37.301 C49.0519,37.4583 48.2897,37.5379 47.5257,37.5379 Z" id="path-11"></path>
    </defs>
    <g id="Page-1" stroke="none" stroke-width="1" fill="none" fill-rule="evenodd">
        <g id="Technology-Stack" transform="translate(-370.000000, -2333.000000)">
            <g id="Group-33" transform="translate(370.000000, 2332.000000)">
                <path d="M50.2736,53.8467 C49.7454,53.8467 49.3158,54.3054 49.3158,54.8693 C49.3158,55.4331 49.7455,55.8918 50.2736,55.8918 C50.8017,55.8918 51.2314,55.4331 51.2314,54.8693 C51.2314,54.3055 50.8018,53.8467 50.2736,53.8467 Z" id="Fill-1" fill="#3B3B3B"></path>
                <path d="M50.1735,59.9876 C49.6453,59.9876 49.2156,60.4464 49.2156,61.0102 C49.2156,61.5741 49.6453,62.0328 50.1735,62.0328 C50.7016,62.0328 51.1313,61.574 51.1313,61.0102 C51.1313,60.4464 50.7016,59.9876 50.1735,59.9876 Z" id="Fill-2" fill="#3B3B3B"></path>
                <path d="M52.9796,53.8463 C52.4514,53.8463 52.0217,54.305 52.0217,54.8689 C52.0217,55.4327 52.4514,55.8914 52.9796,55.8914 C53.5077,55.8914 53.9374,55.4327 53.9374,54.8689 C53.9374,54.3051 53.5077,53.8463 52.9796,53.8463 Z" id="Fill-3" fill="#3B3B3B"></path>
                <path d="M52.9796,59.9872 C52.4514,59.9872 52.0217,60.446 52.0217,61.0098 C52.0217,61.5737 52.4514,62.0323 52.9796,62.0323 C53.5077,62.0323 53.9374,61.5736 53.9374,61.0098 C53.9374,60.446 53.5077,59.9872 52.9796,59.9872 Z" id="Fill-4" fill="#3B3B3B"></path>
                <path d="M55.7452,53.8339 C55.2171,53.8339 54.7874,54.2926 54.7874,54.8565 C54.7874,55.4203 55.2171,55.879 55.7452,55.879 C56.2734,55.879 56.7031,55.4203 56.7031,54.8565 C56.7031,54.2927 56.2734,53.8339 55.7452,53.8339 Z" id="Fill-5" fill="#3B3B3B"></path>
                <path d="M55.7452,59.9748 C55.2171,59.9748 54.7874,60.4336 54.7874,60.9974 C54.7874,61.5613 55.2171,62.02 55.7452,62.02 C56.2734,62.02 56.7031,61.5612 56.7031,60.9974 C56.7031,60.4336 56.2734,59.9748 55.7452,59.9748 Z" id="Fill-6" fill="#3B3B3B"></path>
                <path d="M4.7011,53.8769 C4.173,53.8769 3.7433,54.3357 3.7433,54.8995 C3.7433,55.4634 4.173,55.9221 4.7011,55.9221 C5.2293,55.9221 5.659,55.4633 5.659,54.8995 C5.659,54.3357 5.2293,53.8769 4.7011,53.8769 Z" id="Fill-7" fill="#3B3B3B"></path>
                <path d="M4.601,60.0179 C4.0728,60.0179 3.6432,60.4766 3.6432,61.0405 C3.6432,61.6043 4.0729,62.063 4.601,62.063 C5.1291,62.063 5.5589,61.6043 5.5589,61.0405 C5.5589,60.4766 5.1292,60.0179 4.601,60.0179 Z" id="Fill-8" fill="#3B3B3B"></path>
                <path d="M7.4071,53.8765 C6.8789,53.8765 6.4493,54.3352 6.4493,54.8991 C6.4493,55.4629 6.879,55.9216 7.4071,55.9216 C7.9352,55.9216 8.3649,55.4629 8.3649,54.8991 C8.3649,54.3353 7.9353,53.8765 7.4071,53.8765 Z" id="Fill-9" fill="#3B3B3B"></path>
                <path d="M7.4071,60.0174 C6.8789,60.0174 6.4493,60.4762 6.4493,61.04 C6.4493,61.6039 6.879,62.0626 7.4071,62.0626 C7.9352,62.0626 8.3649,61.6038 8.3649,61.04 C8.3649,60.4762 7.9353,60.0174 7.4071,60.0174 Z" id="Fill-10" fill="#3B3B3B"></path>
                <path d="M10.1728,53.8641 C9.6446,53.8641 9.2149,54.3229 9.2149,54.8867 C9.2149,55.4506 9.6446,55.9093 10.1728,55.9093 C10.7009,55.9093 11.1306,55.4505 11.1306,54.8867 C11.1306,54.3229 10.7009,53.8641 10.1728,53.8641 Z" id="Fill-11" fill="#3B3B3B"></path>
                <path d="M10.1728,60.0051 C9.6446,60.0051 9.2149,60.4638 9.2149,61.0277 C9.2149,61.5915 9.6446,62.0502 10.1728,62.0502 C10.7009,62.0502 11.1306,61.5915 11.1306,61.0277 C11.1306,60.4638 10.7009,60.0051 10.1728,60.0051 Z" id="Fill-12" fill="#3B3B3B"></path>
                <g id="Group-15" transform="translate(0.000000, 1.063000)">
                    <mask id="mask-2" fill="white">
                        <use xlink:href="#path-1"></use>
                    </mask>
                    <g id="Clip-14"></g>
                    <polygon id="Fill-13" fill="#E28E45" mask="url(#mask-2)" points="-4.3577 42.4991 64.7182 42.4991 64.7182 -4.2321 -4.3577 -4.2321"></polygon>
                </g>
                <polygon id="Fill-16" fill="#FFFFFF" points="14.7013 42.3736 46.0507 42.3736 46.0507 34.8444 14.7013 34.8444"></polygon>
                <g id="Group-19" transform="translate(20.000000, 39.063000)">
                    <mask id="mask-4" fill="white">
                        <use xlink:href="#path-3"></use>
                    </mask>
                    <g id="Clip-18"></g>
                    <polygon id="Fill-17" fill-opacity="0.3971" fill="#8C3C3F" mask="url(#mask-4)" points="-4.6177 11.4844 11.2227 11.4844 11.2227 -4.4188 -4.6177 -4.4188"></polygon>
                </g>
                <g id="Group-22" transform="translate(34.000000, 39.063000)">
                    <mask id="mask-6" fill="white">
                        <use xlink:href="#path-5"></use>
                    </mask>
                    <g id="Clip-21"></g>
                    <polygon id="Fill-20" fill-opacity="0.3971" fill="#8C3C3F" mask="url(#mask-6)" points="-4.768 11.3877 11.0724 11.3877 11.0724 -4.5155 -4.768 -4.5155"></polygon>
                </g>
                <g id="Group-25" transform="translate(35.000000, 40.063000)">
                    <mask id="mask-8" fill="white">
                        <use xlink:href="#path-7"></use>
                    </mask>
                    <g id="Clip-24"></g>
                    <polygon id="Fill-23" fill="#8C3C3F" mask="url(#mask-8)" points="-3.2198 8.9645 9.5567 8.9645 9.5567 -3.8627 -3.2198 -3.8627"></polygon>
                </g>
                <g id="Group-28" transform="translate(21.000000, 40.063000)">
                    <mask id="mask-10" fill="white">
                        <use xlink:href="#path-9"></use>
                    </mask>
                    <g id="Clip-27"></g>
                    <polygon id="Fill-26" fill="#8C3C3F" mask="url(#mask-10)" points="-3.2619 8.995 9.5146 8.995 9.5146 -3.8322 -3.2619 -3.8322"></polygon>
                </g>
                <polygon id="Fill-29" fill="#FFFFFF" points="14.7091 29.9787 46.0585 29.9787 46.0585 22.4495 14.7091 22.4495"></polygon>
                <g id="Group-32" transform="translate(0.000000, 0.063000)">
                    <mask id="mask-12" fill="white">
                        <use xlink:href="#path-11"></use>
                    </mask>
                    <g id="Clip-31"></g>
                    <polygon id="Fill-30" fill="#3B3B3B" mask="url(#mask-12)" points="-5.0265 66.937 65.6976 66.937 65.6976 -4.063 -5.0265 -4.063"></polygon>
                </g>
            </g>
        </g>
    </g>
</svg>