<?xml version="1.0" encoding="UTF-8"?>
<svg width="261px" height="260px" viewBox="0 0 261 260" version="1.1" xmlns="http://www.w3.org/2000/svg" xmlns:xlink="http://www.w3.org/1999/xlink">
    <!-- Generator: Sketch 58 (84663) - https://sketch.com -->
    <title>Group 4</title>
    <desc>Created with Sketch.</desc>
    <g id="Page-1" stroke="none" stroke-width="1" fill="none" fill-rule="evenodd">
        <g id="Products+Domains" transform="translate(-984.000000, -3830.000000)" fill="#FFFFFF" stroke="#DB8E53" stroke-width="2">
            <g id="Group-4" transform="translate(985.000000, 3831.000000)">
                <path d="M254.257687,125.048306 L193.268248,125.048306 L193.268248,116.461488 L209.723447,116.461488 C211.815385,116.461488 213.51136,114.7717 213.51136,112.687394 C213.51136,110.603088 211.815385,108.9133 209.723447,108.9133 L193.268248,108.9133 L193.268248,100.325979 L204.692594,100.325979 C208.948693,100.325979 212.950244,98.6749386 215.959362,95.6762954 L240.871708,70.8548357 C242.494955,71.6604789 244.294466,72.089216 246.161149,72.089216 C249.335926,72.089216 252.320296,70.8573518 254.565266,68.6210754 C256.810235,66.3842959 258.04661,63.4108132 258.04661,60.2476195 C258.04661,57.0844257 256.810235,54.1109431 254.565266,51.8741635 C252.320801,49.637384 249.335926,48.4055198 246.161149,48.4055198 C242.986373,48.4055198 240.002003,49.637384 237.757033,51.8736603 C235.512064,54.1104399 234.275689,57.0839225 234.275689,60.2471163 C234.275689,62.1069896 234.705996,63.8999358 235.514589,65.5172607 L210.602243,90.3387204 C209.023946,91.9112594 206.924937,92.7777914 204.692089,92.7777914 L193.267743,92.7777914 L193.267743,84.450631 C193.267743,73.4725471 184.303521,64.5415317 173.285745,64.5415317 L164.928094,64.5415317 L164.928094,31.1307379 C169.629146,29.5511539 173.025136,25.1193614 173.025136,19.9090992 C173.025136,13.3794139 167.69327,8.06750276 161.140181,8.06750276 C154.587091,8.06750276 149.255225,13.3799171 149.255225,19.9090992 C149.255225,25.1193614 152.651215,29.5506507 157.352268,31.1307379 L157.352268,64.5410285 L148.734008,64.5410285 L148.734008,48.1458621 C148.734008,46.061556 147.038033,44.3717684 144.946095,44.3717684 C142.854157,44.3717684 141.158182,46.061556 141.158182,48.1458621 L141.158182,64.5410285 L132.539418,64.5410285 L132.539418,3.77409373 C132.539418,1.68978757 130.843443,0 128.751505,0 C126.659567,0 124.963592,1.68978757 124.963592,3.77409373 L124.963592,64.5410285 L116.345332,64.5410285 L116.345332,48.1458621 C116.345332,46.061556 114.649357,44.3717684 112.557419,44.3717684 C110.465481,44.3717684 108.769506,46.061556 108.769506,48.1458621 L108.769506,64.5410285 L100.151247,64.5410285 L100.151247,53.158865 C100.151247,48.9182933 98.493656,44.9313407 95.4840329,41.9332006 L70.5631011,17.1031864 C72.7646361,12.6744132 72.0267507,7.15215923 68.3302527,3.46864375 C63.6958675,-1.14833092 56.1559005,-1.14782771 51.5220203,3.46864375 C46.8881401,8.08561841 46.8881401,15.5980778 51.5220203,20.2155557 C53.8392129,22.5237914 56.8826747,23.6781609 59.9261365,23.6781609 C61.7382741,23.6781609 63.5473813,23.2589848 65.2064872,22.4402581 L90.127419,47.2707756 C91.7062211,48.8433146 92.5754209,50.9346658 92.5754209,53.158865 L92.5754209,64.5410285 L84.2177697,64.5410285 C82.5283605,64.5410285 80.8480424,64.7523777 79.2237853,65.1685345 C77.1980094,65.6878498 75.9783015,67.7454857 76.4995183,69.7643742 C77.0207351,71.7832628 79.0864103,72.9985209 81.1121862,72.4787024 C82.119771,72.2205544 83.1642249,72.089216 84.2172647,72.089216 L173.285745,72.089216 C180.126716,72.089216 185.691917,77.6346177 185.691917,84.4501277 L185.691917,173.194168 C185.691917,174.242359 185.560603,175.2825 185.302015,176.285402 C184.781303,178.304291 186.001516,180.361423 188.027292,180.880235 C188.343456,180.961253 188.660631,181 188.97326,181 C190.660649,181 192.199552,179.868275 192.63895,178.164398 C193.056125,176.548079 193.267743,174.875401 193.267743,173.193665 L193.267743,164.866504 L226.800369,164.866504 C228.385737,169.550406 232.833757,172.934007 238.063097,172.934007 C244.616691,172.934007 249.948052,167.622096 249.948052,161.09241 C249.948052,154.562725 244.616186,149.250814 238.063097,149.250814 C232.833757,149.250814 228.386242,152.634415 226.800369,157.318317 L193.267743,157.318317 L193.267743,148.730995 L209.722942,148.730995 C211.81488,148.730995 213.510855,147.041208 213.510855,144.956902 C213.510855,142.872595 211.81488,141.182808 209.722942,141.182808 L193.267743,141.182808 L193.267743,132.596493 L254.257687,132.596493 C256.349625,132.596493 258.04661,130.906706 258.04661,128.822399 C258.04661,126.738093 256.349625,125.048306 254.257687,125.048306 Z M243.113647,57.2117385 C243.927796,56.4005599 245.009624,55.9542104 246.160644,55.9542104 C247.311665,55.9542104 248.393493,56.4005599 249.207642,57.2117385 C250.02179,58.022917 250.469774,59.1007982 250.469774,60.2476195 C250.469774,61.3944408 250.02179,62.4723219 249.207642,63.2835005 C248.393493,64.094679 247.311665,64.5410285 246.160644,64.5410285 C245.009624,64.5410285 243.927796,64.094679 243.113647,63.2835005 C242.299498,62.4723219 241.851515,61.3944408 241.851515,60.2476195 C241.851515,59.1007982 242.299498,58.0224138 243.113647,57.2117385 Z M161.140181,15.6156902 C163.516465,15.6156902 165.44931,17.5419877 165.44931,19.9090992 C165.44931,22.2762108 163.51596,24.2025083 161.140181,24.2025083 C158.764402,24.2025083 156.831051,22.2762108 156.831051,19.9090992 C156.831051,17.5419877 158.763897,15.6156902 161.140181,15.6156902 Z M56.8781292,14.8779807 C55.197811,13.2037927 55.197811,10.4799035 56.8781292,8.80621871 C57.7185408,7.96887311 58.8215811,7.55070352 59.9256314,7.55070352 C61.0291768,7.55070352 62.1327221,7.96937632 62.9726286,8.80621871 C64.6529468,10.4804067 64.6529468,13.2042959 62.9726286,14.8784839 C61.2928155,16.5516655 58.5589525,16.5521687 56.8781292,14.8779807 Z M238.063602,156.799505 C240.439886,156.799505 242.372731,158.725802 242.372731,161.092914 C242.372731,163.460528 240.439381,165.386323 238.063602,165.386323 C235.687823,165.386323 233.754472,163.460025 233.754472,161.092914 C233.753967,158.725299 235.687318,156.799505 238.063602,156.799505 Z" id="Fill-1"></path>
                <path d="M192.886692,235.5601 L167.9657,210.729979 C166.386894,209.157465 165.517692,207.066148 165.517692,204.841984 L165.517692,193.460002 L173.875364,193.460002 C175.564777,193.460002 177.244594,193.248656 178.86835,192.832506 C180.894131,192.313199 182.113842,190.255596 181.592624,188.23674 C181.071405,186.218387 179.00724,185.003148 176.979945,185.522455 C175.972862,185.780599 174.928406,185.911432 173.875364,185.911432 L84.8066694,185.911432 C77.9656821,185.911432 72.400467,180.366119 72.400467,173.550718 L72.400467,84.8085983 C72.400467,83.759417 72.5317817,82.7187902 72.7908755,81.7159037 C73.3125987,79.6975506 72.0928878,77.6399476 70.067107,77.1201374 C68.0408213,76.6003272 65.9756462,77.8155659 65.4544281,79.833919 C65.0362415,81.4512182 64.8246229,83.1248762 64.8246229,84.8085983 L64.8246229,93.1356257 L31.2914115,93.1356257 C29.7060399,88.4517986 25.2580093,85.0682518 20.0286566,85.0682518 C13.4750464,85.0682518 8.14367237,90.3800781 8.14367237,96.9096592 C8.14367237,103.43924 13.4755515,108.751067 20.0286566,108.751067 C25.2580093,108.751067 29.7055348,105.36752 31.2914115,100.683693 L64.8241178,100.683693 L64.8241178,109.270877 L48.3688794,109.270877 C46.2769363,109.270877 44.5809573,110.960637 44.5809573,113.04491 C44.5809573,115.129183 46.2769363,116.818944 48.3688794,116.818944 L64.8241178,116.818944 L64.8241178,125.405625 L3.83453223,125.405625 C1.74258914,125.405625 0.0466101695,127.095385 0.0466101695,129.179658 C0.0466101695,131.263931 1.74258914,132.953692 3.83453223,132.953692 L64.8241178,132.953692 L64.8241178,141.540372 L48.3688794,141.540372 C46.2769363,141.540372 44.5809573,143.230133 44.5809573,145.314406 C44.5809573,147.398679 46.2769363,149.088439 48.3688794,149.088439 L64.8241178,149.088439 L64.8241178,157.675623 L53.3997449,157.675623 C49.1436357,157.675623 45.1420748,159.326637 42.1329495,162.325233 L17.2205437,187.146296 C15.5972929,186.340666 13.7977774,185.911935 11.9310894,185.911935 C8.75630563,185.911935 5.7719281,187.14378 3.52695296,189.380021 C1.28298793,191.616764 0.0466101695,194.590703 0.0466101695,197.753343 C0.0466101695,200.915983 1.28298793,203.889921 3.52796307,206.126665 C5.77243316,208.363409 8.75731574,209.59475 11.9320995,209.59475 C15.1068832,209.59475 18.0912608,208.362906 20.3362359,206.126665 C22.581211,203.889921 23.8175888,200.916486 23.8175888,197.753343 C23.8175888,195.893499 23.3872808,194.100582 22.5786858,192.483282 L47.4910916,167.662219 C49.0693924,166.089705 51.1684063,165.223187 53.4012601,165.223187 L64.825633,165.223187 L64.825633,173.550215 C64.825633,184.528123 73.7898768,193.458996 84.8076795,193.458996 L93.1653507,193.458996 L93.1653507,226.868753 C88.4642869,228.448312 85.0682885,232.880033 85.0682885,238.090212 C85.0682885,244.619793 90.4001676,249.93162 96.9532728,249.93162 C103.506378,249.93162 108.838257,244.61929 108.838257,238.090212 C108.838257,232.880033 105.442259,228.448815 100.741195,226.868753 L100.741195,193.458996 L109.359475,193.458996 L109.359475,209.8539 C109.359475,211.938173 111.055454,213.627934 113.147397,213.627934 C115.23934,213.627934 116.935319,211.938173 116.935319,209.8539 L116.935319,193.458996 L125.553094,193.458996 L125.553094,254.225967 C125.553094,256.310239 127.249073,258 129.341016,258 C131.43296,258 133.128939,256.310239 133.128939,254.225967 L133.128939,193.460002 L141.747219,193.460002 L141.747219,209.854907 C141.747219,211.93918 143.443198,213.62894 145.535141,213.62894 C147.627084,213.62894 149.323063,211.93918 149.323063,209.854907 L149.323063,193.460002 L157.941343,193.460002 L157.941343,204.841984 C157.941343,209.082488 159.598938,213.069377 162.608568,216.067469 L187.52956,240.897087 C185.32802,245.325789 186.065907,250.847955 189.762919,254.531412 C192.079612,256.840114 195.123586,257.993962 198.167055,257.993962 C201.210524,257.993962 204.254499,256.840114 206.571192,254.531412 C211.205083,249.914511 211.205083,242.402171 206.571192,237.78527 C202.874685,234.101814 197.331692,233.366632 192.886692,235.5601 Z M20.0286566,101.203 C17.6523668,101.203 15.7195165,99.276733 15.7195165,96.9096592 C15.7195165,94.5420822 17.6528719,92.6163187 20.0286566,92.6163187 C22.4044413,92.6163187 24.3377969,94.5425854 24.3377969,96.9096592 C24.3383018,99.2772362 22.4049464,101.203 20.0286566,101.203 Z M14.9785989,200.789175 C14.1644482,201.600341 13.0826177,202.046683 11.9315944,202.046683 C10.7805712,202.046683 9.69874064,201.600341 8.88458992,200.789175 C8.07043921,199.97801 7.62245429,198.900146 7.62245429,197.753343 C7.62245429,196.60654 8.07043921,195.528676 8.88458992,194.71751 C9.69874064,193.906345 10.7805712,193.460002 11.9315944,193.460002 C13.0826177,193.460002 14.1644482,193.906345 14.9785989,194.71751 C15.7927496,195.528676 16.2407346,196.60654 16.2407346,197.753343 C16.2407346,198.900146 15.7927496,199.978513 14.9785989,200.789175 Z M96.9522627,242.384559 C94.5759729,242.384559 92.6431225,240.458292 92.6431225,238.091219 C92.6431225,235.724145 94.5764779,233.797878 96.9522627,233.797878 C99.3280474,233.797878 101.261403,235.724145 101.261403,238.091219 C101.261403,240.458292 99.3285524,242.384559 96.9522627,242.384559 Z M201.214565,249.194425 C199.534243,250.868586 196.800373,250.868083 195.120051,249.194425 C193.439729,247.520264 193.439729,244.796418 195.120051,243.12276 C195.960464,242.285931 197.064012,241.867265 198.16756,241.867265 C199.271108,241.867265 200.374656,242.285931 201.214565,243.12276 C202.894382,244.796418 202.894382,247.520264 201.214565,249.194425 Z" id="Fill-2"></path>
                <path d="M97.2176402,157.335603 C97.2176402,157.338581 97.2176402,157.341558 97.2176402,157.344536 C97.2176402,165.9769 105.100098,173 114.789303,173 C120.357519,173 125.325181,170.678154 128.54661,167.066614 C131.768039,170.678154 136.735702,173 142.303918,173 C151.628518,173 159.276044,166.494465 159.838459,158.310689 C165.501767,155.104071 169.04661,149.487278 169.04661,143.422392 C169.04661,138.961311 167.09748,134.705669 163.742821,131.489126 C167.096972,128.272583 169.04661,124.016444 169.04661,119.55586 C169.04661,111.596379 163.080737,104.854143 154.913512,102.663301 C155.155055,101.6902 155.289303,100.689311 155.289303,99.6665868 C155.289303,92.1308841 148.435058,86 140.011033,86 C135.447639,86 131.348516,87.8008077 128.54661,90.6471655 C125.744704,87.8008077 121.645073,86 117.082187,86 C108.657654,86 101.803918,92.1308841 101.803918,99.6665868 C101.803918,100.689311 101.938165,101.6902 102.179709,102.663301 C94.0124835,104.853647 88.0466102,111.595883 88.0466102,119.55586 C88.0466102,123.445783 89.4572251,127.115878 92.0633536,130.146832 C89.5151956,133.365856 88.0466102,137.273644 88.0466102,141.43401 C88.0455934,147.761897 91.5106001,153.670471 97.2176402,157.335603 Z M107.815049,109.356411 C107.849119,109.357403 107.883189,109.361869 107.916751,109.361869 C108.787325,109.361869 109.662476,109.072569 110.378971,108.48057 C111.840945,107.272754 112.134357,105.223336 111.152927,103.681559 C111.123942,103.635906 111.097499,103.589261 111.066989,103.545097 C111.051225,103.522767 111.03241,103.501429 111.016137,103.479099 C110.95715,103.398214 110.896637,103.318817 110.831039,103.242398 C110.829004,103.239917 110.827479,103.237436 110.825445,103.235451 C110.189295,102.501531 109.430086,101.286768 109.430086,99.6660906 C109.430086,96.2346811 112.862547,93.4429082 117.080662,93.4429082 C121.298776,93.4429082 124.731238,96.2346811 124.731238,99.6660906 C124.731238,101.721463 126.438824,103.387793 128.545085,103.387793 C130.651345,103.387793 132.358931,101.721463 132.358931,99.6660906 C132.358931,96.2346811 135.791393,93.4429082 140.009508,93.4429082 C144.227622,93.4429082 147.660084,96.2346811 147.660084,99.6660906 C147.660084,100.583118 147.413964,101.365172 147.088007,102.008282 C144.918691,102.208261 142.820567,102.719871 140.828722,103.539638 C138.887728,104.338067 137.977999,106.52097 138.796196,108.415068 C139.614393,110.30867 141.851341,111.197413 143.792335,110.398487 C145.440934,109.720145 147.214627,109.371298 149.064597,109.357403 C149.101209,109.358396 149.137314,109.361869 149.173927,109.361869 C149.207997,109.361869 149.241559,109.357403 149.275629,109.356411 C155.979355,109.399086 161.417391,113.956931 161.417391,119.554867 C161.417391,123.073613 159.223667,126.30405 155.548644,128.197156 C154.297703,128.841259 153.514593,130.108126 153.514593,131.48863 C153.514593,132.869133 154.297703,134.136 155.548644,134.780103 C159.223667,136.672713 161.417391,139.903646 161.417391,143.422392 C161.417391,146.045944 160.167975,148.548416 158.057647,150.419688 C156.052581,146.796735 152.508754,143.912664 148.031298,142.5401 C146.022672,141.924283 143.881325,143.014493 143.249752,144.975086 C142.618179,146.936175 143.73589,149.02529 145.745024,149.641108 C149.633114,150.833542 152.245853,153.929502 152.245853,157.345032 C152.245853,161.873103 147.785178,165.557092 142.301884,165.557092 C136.819098,165.557092 132.358423,161.873103 132.358423,157.345032 L132.358423,133.478003 C132.358423,128.949932 136.819098,125.26644 142.301884,125.26644 C144.408144,125.26644 146.11573,123.60011 146.11573,121.544737 C146.11573,119.489365 144.408144,117.823035 142.301884,117.823035 C138.613131,117.823035 135.187789,118.843278 132.358423,120.580568 L132.358423,115.826714 C132.358423,113.771342 130.650837,112.105012 128.544576,112.105012 C126.438316,112.105012 124.73073,113.771342 124.73073,115.826714 L124.73073,136.488116 C123.447243,135.702093 122.039679,135.051539 120.517192,134.58459 C118.506532,133.968276 116.36671,135.058983 115.735645,137.019079 C115.104072,138.980168 116.221275,141.069284 118.230409,141.685597 C122.118499,142.878031 124.73073,145.973991 124.73073,149.389025 L124.73073,157.344536 C124.73073,161.872607 120.270055,165.557092 114.787269,165.557092 C109.303974,165.557092 104.843299,161.872607 104.843299,157.344536 C104.843299,155.403792 105.686414,153.517137 107.217037,152.032426 C108.711048,150.583443 108.718168,148.226861 107.23331,146.768946 C105.748452,145.311032 103.334033,145.304084 101.840022,146.753067 C100.926225,147.639825 100.139555,148.60846 99.4856076,149.638131 C97.0772906,147.415034 95.6712525,144.490272 95.6712525,141.433018 C95.6712525,135.918944 100.105993,131.074776 106.455794,129.653086 C108.50866,129.19358 109.79113,127.196763 109.320247,125.193494 C108.849364,123.18973 106.802599,121.938742 104.750242,122.398248 C102.193947,122.970397 99.8405496,123.925634 97.7536128,125.1796 C96.40046,123.521209 95.6712525,121.578977 95.6712525,119.554867 C95.6732866,113.956931 101.111323,109.399582 107.815049,109.356411 Z" id="Fill-3"></path>
            </g>
        </g>
    </g>
</svg>