
<svg width="120px" height="120px" viewBox="0 0 120 120" version="1.1" >
    <g id="Page-1" stroke="none" stroke-width="1" fill="none" fill-rule="evenodd">
        <g id="Landing-page" transform="translate(-324.000000, -2083.000000)" fill="#DB8E53">
            <g id="Product_Development_Icon" transform="translate(324.000000, 2083.000000)">
                <path d="M13.5483871,10.6451613 C15.1507271,10.6451613 16.4516129,11.9461287 16.4516129,13.5483871 C16.4516129,15.1506455 15.1507271,16.4516129 13.5483871,16.4516129 C11.946047,16.4516129 10.6451613,15.1506455 10.6451613,13.5483871 C10.6451613,11.9461287 11.946047,10.6451613 13.5483871,10.6451613 Z" id="Fill-1" stroke="#FFFFFF"></path>
                <path d="M25.1612903,10.6451613 C26.7635487,10.6451613 28.0645161,11.9461287 28.0645161,13.5483871 C28.0645161,15.1506455 26.7635487,16.4516129 25.1612903,16.4516129 C23.5589503,16.4516129 22.2580645,15.1506455 22.2580645,13.5483871 C22.2580645,11.9461287 23.5589503,10.6451613 25.1612903,10.6451613 Z" id="Fill-2" stroke="#FFFFFF"></path>
                <path d="M34.8387097,10.6451613 C36.4409681,10.6451613 37.7419355,11.9461287 37.7419355,13.5483871 C37.7419355,15.1506455 36.4409681,16.4516129 34.8387097,16.4516129 C33.2364513,16.4516129 31.9354839,15.1506455 31.9354839,13.5483871 C31.9354839,11.9461287 33.2364513,10.6451613 34.8387097,10.6451613 Z" id="Fill-3" stroke="#FFFFFF"></path>
                <path d="M109.090839,0 L10.9091606,0 C4.89527714,0 0,4.89246464 0,10.9091606 L0,109.090839 C0,115.10728 4.89527714,120 10.9091606,120 L109.090839,120 C115.104723,120 120,115.107535 120,109.090839 L120,10.9091606 C120,4.89246464 115.104723,0 109.090839,0 Z M114.545292,109.090839 C114.545292,112.097653 112.10021,114.545292 109.090839,114.545292 L10.9091606,114.545292 C7.89953423,114.545292 5.45470816,112.097653 5.45470816,109.090839 L5.45470816,27.2727738 L114.545292,27.2727738 L114.545292,109.090839 Z M114.545292,21.8180656 L5.45445248,21.8180656 L5.45445248,10.9091606 C5.45445248,7.90234673 7.89953423,5.45470816 10.908905,5.45470816 L109.090584,5.45470816 C112.10021,5.45470816 114.545292,7.90234673 114.545292,10.9091606 L114.545292,21.8180656 L114.545292,21.8180656 Z" id="Fill-4"></path>
                <path d="M32.0671669,78.7440925 L37.29274,80.0518976 L34.5173414,84.6702521 C33.872774,85.7435982 34.0433121,87.1178802 34.927451,88.0020229 L42.645897,95.7151325 C43.5354052,96.6020877 44.9096813,96.7644447 45.9804661,96.1252438 L50.5934316,93.3554584 L51.8984186,98.5810537 C52.2021656,99.7929786 53.2939161,100.645161 54.5457218,100.645161 L65.4545338,100.645161 C66.7063396,100.645161 67.7983458,99.7929786 68.1018371,98.5810537 L69.4068241,93.3554584 L74.0197896,96.1252438 C75.0905744,96.7644447 76.4648505,96.6020877 77.3543587,95.7151325 L85.0674354,88.0020229 C85.9515743,87.1178802 86.1221124,85.7435982 85.477545,84.6702521 L82.7077714,80.0518976 L87.9333444,78.7440925 C89.147821,78.4403443 90,77.3511459 90,76.0993348 L90,65.1904764 C90,63.9386653 89.147821,62.8494669 87.9333444,62.5457187 L82.7077714,61.2379136 L85.477545,56.6195592 C86.1221124,55.546213 85.9515743,54.171931 85.0674354,53.2877883 L77.3543587,45.5746787 C76.4648505,44.6823543 75.0905744,44.5253665 74.0197896,45.1645674 L69.4068241,47.9343528 L68.1018371,42.7087575 C67.7983458,41.4973439 66.7063396,40.6451613 65.4545338,40.6451613 L54.5454662,40.6451613 C53.2936604,40.6451613 52.2016542,41.4973439 51.8981629,42.7092689 L50.5931759,47.9348642 L45.9802104,45.1650788 C44.9094256,44.5258779 43.5351495,44.6831213 42.6456413,45.5751901 L34.9271953,53.2882997 C34.0430564,54.1724424 33.8725183,55.5467243 34.5170858,56.6200705 L37.2922286,61.238425 L32.0666556,62.54623 C30.852179,62.8499783 30,63.9391767 30,65.1909877 L30,76.1001019 C30,77.3511459 30.8526904,78.4406 32.0671669,78.7440925 Z M35.4549174,67.3185041 L40.1371719,66.1467209 C41.0320494,65.9230006 41.7512752,65.265135 42.0547665,64.3942877 C42.2945937,63.6990928 42.5607558,63.0200058 42.8857241,62.3621402 C43.2853509,61.531179 43.2426524,60.5562697 42.768623,59.7654504 L40.2916022,55.6400477 L44.9950782,50.9365517 L49.1179065,53.4135831 C49.911535,53.8876145 50.88644,53.9303131 51.7173977,53.5281279 C52.3778173,53.2059706 53.0597139,52.9395517 53.7574626,52.6971667 C54.6257495,52.3934184 55.2807998,51.6744452 55.5045191,50.7849332 L56.6762973,46.1001019 L63.3239584,46.1001019 L64.4957365,50.7849332 C64.7194559,51.6744452 65.3747619,52.3936741 66.242793,52.6971667 C66.9405418,52.9395517 67.6224384,53.2059706 68.282858,53.5281279 C69.1084464,53.9277563 70.0887207,53.8822452 70.8823492,53.4135831 L75.0051775,50.9393642 L79.7032842,55.6400477 L77.2316326,59.7654504 C76.7576033,60.5565254 76.7149048,61.531179 77.1145315,62.3621402 C77.4394999,63.025375 77.7059177,63.7098314 77.9508584,64.4101399 C78.2546054,65.2730611 78.9735755,65.9255574 79.8630837,66.1467209 L84.5453383,67.3185041 L84.5453383,73.9715628 L79.8630837,75.143346 C78.9735755,75.3645095 78.2543497,76.0170058 77.9508584,76.879927 C77.7059177,77.5804912 77.4394999,78.2649475 77.1145315,78.9279267 C76.7149048,79.7588879 76.7576033,80.7337972 77.2316326,81.5246165 L79.7032842,85.6500192 L75.0051775,90.3507027 L70.8823492,87.8764838 C70.09409,87.39964 69.1138156,87.357197 68.282858,87.761939 C67.6224384,88.0840963 66.9405418,88.3505152 66.242793,88.5929002 C65.3745062,88.8966485 64.7194559,89.6156217 64.4957365,90.5051337 L63.3239584,95.189965 L56.6762973,95.189965 L55.5045191,90.5051337 C55.2807998,89.6156217 54.6254938,88.8963928 53.7574626,88.5929002 C53.0597139,88.3505152 52.3778173,88.0840963 51.7173977,87.761939 C50.8810708,87.3543845 49.911535,87.39964 49.1179065,87.8764838 L44.9950782,90.3535152 L40.2916022,85.6500192 L42.768623,81.5246165 C43.2426524,80.7335415 43.2853509,79.7588879 42.8857241,78.9279267 C42.5607558,78.2700611 42.294338,77.5909741 42.0547665,76.8957792 C41.7510195,76.0249319 41.0320494,75.3670663 40.1371719,75.143346 L35.4549174,73.9715628 L35.4549174,67.3185041 Z" id="Fill-5" stroke="#FFFFFF" stroke-width="2"></path>
                <path d="M60,84.1935484 C67.4729136,84.1935484 73.5483871,78.1153375 73.5483871,70.6452883 C73.5483871,63.1752391 67.4726596,57.0967742 60,57.0967742 C52.5273404,57.0967742 46.4516129,63.174985 46.4516129,70.6450343 C46.4516129,78.1150835 52.5270864,84.1935484 60,84.1935484 Z M60,62.5160274 C64.4826812,62.5160274 68.1290831,66.1623951 68.1290831,70.6450343 C68.1290831,75.1276735 64.4826812,78.7740411 60,78.7740411 C55.5173188,78.7740411 51.8709169,75.1276735 51.8709169,70.6450343 C51.8709169,66.1623951 55.5173188,62.5160274 60,62.5160274 Z" id="Fill-6" stroke="#FFFFFF" stroke-width="2"></path>
            </g>
        </g>
    </g>
</svg>