<?xml version="1.0" encoding="UTF-8"?>
<svg width="350px" height="350px" viewBox="0 0 350 350" version="1.1" xmlns="http://www.w3.org/2000/svg" xmlns:xlink="http://www.w3.org/1999/xlink">
    <!-- Generator: Sketch 58 (84663) - https://sketch.com -->
    <title>Group 11</title>
    <desc>Created with Sketch.</desc>
    <g id="Page-1" stroke="none" stroke-width="1" fill="none" fill-rule="evenodd">
        <g id="About-us" transform="translate(-145.000000, -2122.000000)">
            <g id="Group-11" transform="translate(145.000000, 2122.000000)">
                <rect id="Rectangle" fill="#DB8E53" x="0" y="0" width="350" height="350" rx="4"></rect>
                <g id="Group-7" transform="translate(50.000000, 59.000000)" fill="#FFFFFF" stroke="#DB8E53" stroke-width="3">
                    <path d="M193.31528,75.1759891 C191.220753,71.9351627 187.669229,70 183.815436,70 L64.5739672,70 C60.725997,70 57.1778686,71.9303017 55.082372,75.1628644 L27.9724007,116.982017 C25.2020174,121.254833 25.629947,126.896506 29.0131138,130.700722 L115.696515,228.20259 C117.841985,230.615588 120.921914,232 124.147397,232 L124.147882,232 C127.37288,232 130.453779,230.616074 132.599249,228.203076 L219.292353,130.695375 C222.670668,126.89602 223.101994,121.26018 220.341315,116.989795 L193.31528,75.1759891 Z M149.152367,129 L124.152367,210 L99.1523666,129 L149.152367,129 Z M102.152367,119 L124.652367,84 L147.152367,119 L102.152367,119 Z M133.152367,80 L178.152367,80 L155.659089,115 L133.152367,80 Z M93.6485153,115 L71.1523666,80 L116.152367,80 L93.6485153,115 Z M115.152367,213 L40.1523666,129 L89.2120698,129 L115.152367,213 Z M159.091784,129 L208.152367,129 L133.152367,213 L159.091784,129 Z M211.152367,119 L165.152367,119 L188.137183,84 L211.152367,119 Z M61.1995233,84 L84.1523666,119 L38.1523666,119 L61.1995233,84 Z" id="Fill-1"></path>
                    <path d="M15.0166235,119 L4.95058962,119 C2.21687403,119 -3.55271368e-14,121.01465 -3.55271368e-14,123.5 C-3.55271368e-14,125.98535 2.21687403,128 4.95058962,128 L15.0166235,128 C17.7503391,128 19.9672131,125.98535 19.9672131,123.5 C19.9672131,121.01465 17.7503391,119 15.0166235,119 Z" id="Fill-2"></path>
                    <path d="M244.164164,119 L234.098131,119 C231.364415,119 229.147541,121.01465 229.147541,123.5 C229.147541,125.98535 231.364415,128 234.098131,128 L244.164164,128 C246.89788,128 249.114754,125.98535 249.114754,123.5 C249.114754,121.01465 246.89788,119 244.164164,119 Z" id="Fill-3"></path>
                    <path d="M193.086659,61 C194.321603,61 195.555583,60.5226691 196.49771,59.5689844 L212.521597,43.3402218 C214.405369,41.4323639 214.405369,38.3387514 212.521597,36.4308935 C210.637342,34.5230355 207.583749,34.5230355 205.699011,36.4308935 L189.675125,52.659656 C187.791352,54.567514 187.791352,57.6611264 189.675125,59.5689844 C190.617735,60.5231577 191.852197,61 193.086659,61 Z" id="Fill-4"></path>
                    <path d="M53.5681912,59.5689844 C54.5103364,60.5231577 55.7448217,61 56.9793069,61 C58.2137922,61 59.4482774,60.5226691 60.3904226,59.5689844 C62.2742307,57.6611264 62.2742307,54.567514 60.3904226,52.659656 L44.3667174,36.4308935 C42.4833918,34.5230355 39.4297413,34.5230355 37.5440036,36.4308935 C35.6601955,38.3387514 35.6601955,41.4323639 37.5440036,43.3402218 L53.5681912,59.5689844 Z" id="Fill-5"></path>
                    <path d="M124.557377,41 C127.18259,41 129.311475,38.8447656 129.311475,36.1859853 L129.311475,4.81401465 C129.311475,2.15523436 127.18259,0 124.557377,0 C121.932164,0 119.803279,2.15523436 119.803279,4.81401465 L119.803279,36.1859853 C119.803279,38.8447656 121.931689,41 124.557377,41 Z" id="Fill-6"></path>
                </g>
            </g>
        </g>
    </g>
</svg>