<?xml version="1.0" encoding="UTF-8"?>
<svg width="66px" height="58px" viewBox="0 0 66 58" version="1.1" xmlns="http://www.w3.org/2000/svg" xmlns:xlink="http://www.w3.org/1999/xlink">
    <!-- Generator: Sketch 58 (84663) - https://sketch.com -->
    <title>Group 5</title>
    <desc>Created with Sketch.</desc>
    <g id="Page-1" stroke="none" stroke-width="1" fill="none" fill-rule="evenodd">
        <g id="Technology-Stack" transform="translate(-386.000000, -1936.000000)" fill="#3B3B3B">
            <g id="Group-9" transform="translate(386.000000, 1936.000000)">
                <g id="Group-5" transform="translate(0.000000, -0.000000)">
                    <path d="M31.2382,-2.77111667e-13 L3.4049,-2.77111667e-13 C1.5273,-2.77111667e-13 1.17239551e-13,1.6306 1.17239551e-13,3.635 L1.17239551e-13,53.7802 C1.17239551e-13,55.7845 1.5274,57.4152 3.405,57.4152 L31.2382,57.4152 C33.1157,57.4152 34.6431,55.7846 34.6431,53.7802 L34.6431,3.635 C34.6431,1.6306 33.1157,-2.77111667e-13 31.2382,-2.77111667e-13 Z M1.7062,9.1362 L32.9369,9.1362 L32.9369,47.1068 L1.7062,47.1068 L1.7062,9.1362 Z M3.4049,1.8215 L31.2382,1.8215 C32.1748,1.8215 32.9369,2.635 32.9369,3.635 L32.9369,7.9218 L1.7062,7.9218 L1.7062,3.635 C1.7062,2.635 2.4683,1.8215 3.4049,1.8215 Z M31.2382,55.5936 L3.4049,55.5936 C2.4683,55.5936 1.7061,54.7801 1.7061,53.7801 L1.7061,48.321 L32.9368,48.321 L32.9368,53.7801 C32.9368,54.7801 32.1748,55.5936 31.2382,55.5936 Z" id="Fill-1"></path>
                    <polygon id="Fill-2" points="1.2104 47.6474 33.4618 47.6474 33.4618 8.5811 1.2104 8.5811"></polygon>
                    <polygon id="Fill-3" fill-opacity="0.5976" points="38.7744 56.4909 64.6794 56.4909 64.6794 11.3213 38.7744 11.3213"></polygon>
                    <path d="M63.0219,10.404 L40.2427,10.404 C38.7061,10.404 37.4561,11.7385 37.4561,13.3789 L37.4561,54.4185 C37.4561,56.0588 38.7062,57.3935 40.2428,57.3935 L63.0219,57.3935 C64.5585,57.3935 65.8086,56.0589 65.8086,54.4185 L65.8086,13.3789 C65.8086,11.7385 64.5585,10.404 63.0219,10.404 Z M38.8525,13.3789 L64.4121,13.3789 L38.8525,13.3789 Z M40.2427,11.8947 L63.0219,11.8947 C63.7884,11.8947 64.4121,12.5605 64.4121,13.3789 L38.8525,13.3789 C38.8525,12.5605 39.4761,11.8947 40.2427,11.8947 Z M63.0219,55.9026 L40.2427,55.9026 C39.4761,55.9026 38.8524,55.2368 38.8524,54.4184 L38.8524,13.3789 L64.4121,13.3789 L64.4121,54.4184 C64.4121,55.2368 63.7884,55.9026 63.0219,55.9026 Z" id="Fill-4"></path>
                    <path d="M17.3216,49.1262 C15.7808,49.1262 14.5274,50.4643 14.5274,52.1092 C14.5274,53.754 15.7809,55.0921 17.3216,55.0921 C18.8622,55.0921 20.1157,53.7539 20.1157,52.1092 C20.1157,50.4645 18.8623,49.1262 17.3216,49.1262 Z M17.3216,53.8777 C16.4081,53.8777 15.6649,53.0843 15.6649,52.1092 C15.6649,51.1339 16.4081,50.3405 17.3216,50.3405 C18.2351,50.3405 18.9782,51.1339 18.9782,52.1092 C18.9782,53.0843 18.2351,53.8777 17.3216,53.8777 Z" id="Fill-5"></path>
                    <path d="M52.0566,49.7807 C50.7956,49.7807 49.7698,50.8759 49.7698,52.222 C49.7698,53.5682 50.7957,54.6633 52.0566,54.6633 C53.3174,54.6633 54.3434,53.5681 54.3434,52.222 C54.3434,50.876 53.3175,49.7807 52.0566,49.7807 Z" id="Fill-6"></path>
                    <path d="M13.4541,5.7857 L21.1891,5.7857 C21.5032,5.7857 21.7578,5.5138 21.7578,5.1785 C21.7578,4.8432 21.5032,4.5714 21.1891,4.5714 L13.4541,4.5714 C13.1399,4.5714 12.8853,4.8432 12.8853,5.1785 C12.8853,5.5138 13.1399,5.7857 13.4541,5.7857 Z" id="Fill-7"></path>
                    <path d="M11.4069,5.7857 C11.5559,5.7857 11.7027,5.7213 11.8085,5.6084 C11.9143,5.4942 11.9757,5.3388 11.9757,5.1785 C11.9757,5.0182 11.9143,4.8628 11.8085,4.7486 C11.7026,4.6357 11.5558,4.5714 11.4069,4.5714 C11.2568,4.5714 11.1111,4.6357 11.0043,4.7486 C10.8985,4.8616 10.8382,5.0182 10.8382,5.1785 C10.8382,5.3388 10.8985,5.4942 11.0043,5.6084 C11.11,5.7213 11.2568,5.7857 11.4069,5.7857 Z" id="Fill-8"></path>
                </g>
            </g>
        </g>
    </g>
</svg>