<?xml version="1.0" encoding="UTF-8"?>
<svg width="224px" height="224px" viewBox="0 0 224 224" version="1.1" xmlns="http://www.w3.org/2000/svg" xmlns:xlink="http://www.w3.org/1999/xlink">
    <!-- Generator: Sketch 58 (84663) - https://sketch.com -->
    <title>Group 10</title>
    <desc>Created with Sketch.</desc>
    <g id="Page-1" stroke="none" stroke-width="1" fill="none" fill-rule="evenodd">
        <g id="About-us" transform="translate(-205.000000, -918.000000)" fill="#FFFFFF">
            <g id="Group-10" transform="translate(207.000000, 919.000000)">
                <path d="M115.96835,104.31979 C114.20885,102.56007 111.36035,102.56007 109.60085,104.31979 C107.84585,106.075009 107.84585,108.923865 109.60085,110.683585 C111.36035,112.438805 114.20885,112.438805 115.96835,110.683585 C117.72335,108.923865 117.72335,106.075009 115.96835,104.31979 Z" id="Fill-1"></path>
                <path d="M170.981989,50.3024735 C162.578508,41.8993905 148.974673,41.8989605 140.570762,50.3024735 C132.189213,58.6840531 132.188783,72.3257846 140.572052,80.7142453 C148.95661,89.0936746 162.598291,89.0971151 170.981989,80.7133852 C179.384611,72.3107323 179.386331,58.7064166 170.981989,50.3024735 Z M164.900002,74.6309448 C159.871245,79.6601506 151.685377,79.6601506 146.654039,74.6318049 C141.624422,69.5991586 141.623992,61.4132596 146.653179,56.3844838 C151.694838,51.3428061 159.857483,51.3419459 164.900002,56.3844838 C169.941661,61.4257315 169.942521,69.588837 164.900002,74.6309448 Z" id="Fill-2" stroke="#DB8E53" stroke-width="2"></path>
                <path d="M219.024446,1.26041313 C218.179321,0.415719313 217.026095,-0.0421279737 215.827256,0.00305432432 C214.854329,0.0379092399 191.688686,0.969094886 164.151111,10.7022225 C142.084905,18.4933719 123.69224,29.6482358 109.483893,43.8569928 C106.300043,47.0408387 103.201823,50.4170321 100.23743,53.9244694 C86.1887269,45.6548179 74.9310031,48.2478515 67.8141353,52.0565041 C51.4275677,60.826173 41.2846004,84.6376743 41.2846004,101.669249 C41.2846004,103.409413 42.3345525,104.978745 43.9423561,105.644431 C44.4746474,105.865179 45.0340481,105.972325 45.5882851,105.972325 C46.7083774,105.972325 47.8086755,105.534702 48.6318552,104.711954 C57.2737353,96.0700866 67.9329004,96.610553 71.4149546,97.0684002 L72.921894,98.5753375 C69.9562097,105.632382 67.5671384,112.649838 65.8149233,119.474947 C65.1823702,121.944913 65.3958031,124.558601 66.3360266,126.94939 C62.193019,128.858665 58.1958858,131.662119 54.7155529,135.142447 C43.6389888,146.219425 41.3895956,173.214342 41.2992309,174.3581 C41.20026,175.613307 41.6555261,176.84915 42.5458338,177.739629 C43.3562763,178.549468 44.4522714,179 45.5882851,179 C45.7010258,179 45.8141969,178.995697 45.927368,178.98666 C47.0711272,178.896726 74.0669442,176.647336 85.1435082,165.570788 C88.6225503,162.091751 91.4255781,158.095054 93.3348557,153.952913 C95.8659286,154.948215 98.4710147,155.070853 100.813613,154.470573 C107.635719,152.718791 114.652325,150.330584 121.710241,147.364474 L123.21718,148.871411 C123.674598,152.35389 124.215065,163.01304 115.573615,171.654047 C114.343364,172.884727 113.97502,174.73548 114.641137,176.343109 C115.306824,177.95134 116.875728,179 118.616325,179 C135.647924,179 159.45903,168.856617 168.228712,152.470073 C172.03737,145.354077 174.630407,134.096369 166.360744,120.047256 C169.866465,117.084158 173.243093,113.985944 176.428235,110.800807 C190.637013,96.5920497 201.791462,78.199412 209.582623,56.1349595 C219.316195,28.5961337 220.246952,5.43009377 220.281807,4.4575986 C220.324838,3.26349501 219.869141,2.10553726 219.024446,1.26041313 Z M50.9056039,92.4137629 C53.5786786,79.4774256 61.3427299,65.2820081 71.8766753,59.644118 C78.9160876,55.8772052 86.610429,56.2464092 94.791449,60.7246204 C87.8217467,69.8910329 81.7625765,79.7665923 76.7120488,90.195097 C76.6479329,90.1555087 75.8733781,89.1817226 74.4344274,88.8572706 C73.8427536,88.723445 62.4572282,86.2745644 50.9056039,92.4137629 Z M79.0580893,159.484948 C73.1413512,165.401677 59.2617593,168.522268 50.4890655,169.796409 C51.7636385,161.023298 54.884664,147.144156 60.8009718,141.227857 C64.1143452,137.914489 67.956137,135.402353 71.8177231,133.987501 L86.2984555,148.468213 C84.8836021,152.329793 82.371893,156.171579 79.0580893,159.484948 Z M98.6758414,146.133794 C97.4305294,146.452652 95.9881362,145.984477 94.9158081,144.913872 C89.3489105,139.346983 87.1711206,137.169196 86.4877911,136.486298 C85.2347336,135.233242 82.1619025,132.160415 75.3746509,125.372743 C74.3014622,124.297405 73.8332868,122.855444 74.1512846,121.612285 C75.5295618,116.244628 77.332123,110.737551 79.5241131,105.177547 L115.108452,140.761834 C109.547579,142.954251 104.041355,144.756379 98.6758414,146.133794 Z M160.641947,148.409261 C155.004049,158.94276 140.809041,166.707231 127.873115,169.379871 C131.99762,161.618413 132.906861,151.73812 131.399921,145.746947 C131.050081,144.355333 130.14213,143.655653 130.091354,143.573464 C140.519013,138.522943 150.394157,132.463782 159.561443,125.49409 C164.039661,133.675959 164.408435,141.371149 160.641947,148.409261 Z M170.343677,104.715397 C166.466169,108.592468 162.290888,112.338296 157.933587,115.848315 C147.459024,124.282344 135.930206,131.426311 123.630276,137.113256 L83.1726966,96.6565959 C88.8596501,84.3558228 96.0036273,72.8270216 104.436808,62.3537649 C107.949844,57.993458 111.695247,53.8177531 115.571033,49.9424028 C128.318915,37.1941099 144.771319,27.0483173 164.4846,19.7451367 L200.540987,55.8014711 C193.238656,75.5142926 183.092849,91.9666733 170.343677,104.715397 Z M203.637054,46.7258535 L173.560231,16.6490735 C189.946798,11.5593952 204.202479,9.65356287 211.318056,8.96851317 C210.632575,16.0853706 208.72631,30.341031 203.637054,46.7258535 Z" id="Fill-3" stroke="#DB8E53" stroke-width="2"></path>
                <path d="M104.010425,178.273334 C102.311017,176.574976 99.5568185,176.575845 97.8587153,178.274204 L85.557906,190.576802 C83.8598028,192.275422 83.8602377,195.029047 85.5587759,196.726796 C87.2581841,198.424546 90.0123822,198.424546 91.7104855,196.725927 L104.011295,184.423329 C105.709398,182.724709 105.708963,179.971084 104.010425,178.273334 Z" id="Fill-4" stroke="#DB8E53" stroke-width="3"></path>
                <path d="M43.0114836,117.274345 C41.3137338,115.575363 38.5605437,115.575363 36.8614893,117.273475 L24.5588913,129.574348 C22.8602717,131.27246 22.8598369,134.026673 24.5575867,135.725655 C26.2549016,137.423767 29.0080917,137.425506 30.707581,135.726525 L43.010179,123.425652 C44.7089725,121.72754 44.7094074,118.973327 43.0114836,117.274345 Z" id="Fill-5" stroke="#DB8E53" stroke-width="3"></path>
                <path d="M73.0162288,184.268641 C71.3258606,182.577192 68.5830726,182.577192 66.8914052,184.268208 L37.5534051,213.605432 C35.8617377,215.296881 35.8617377,218.039585 37.552972,219.731034 C39.2433402,221.422483 41.9861281,221.42335 43.6779688,219.731467 L73.0157957,190.394243 C74.7074631,188.702794 74.7074631,185.96009 73.0162288,184.268641 Z" id="Fill-6" stroke="#DB8E53" stroke-width="3"></path>
                <path d="M39.016223,184.268641 C37.325414,182.577192 34.5826136,182.577192 32.8913715,184.268208 L3.55341089,213.605432 C1.86173575,215.296881 1.86173575,218.039585 3.55297779,219.731034 C5.24335365,221.422483 7.98615413,221.42335 9.67782927,219.731467 L39.0157899,190.394243 C40.707465,188.702794 40.707465,185.96009 39.016223,184.268641 Z" id="Fill-7" stroke="#DB8E53" stroke-width="3"></path>
                <path d="M37.0156453,147.268043 C35.3246436,145.577247 32.5815305,145.577247 30.8900956,147.268476 L1.55312237,176.60622 C-0.138312454,178.298055 -0.138312454,181.039969 1.55355552,182.731632 C3.24499034,184.422862 5.98767032,184.422862 7.67910514,182.731199 L37.0160784,153.393282 C38.7075132,151.70162 38.7075132,148.959706 37.0156453,147.268043 Z" id="Fill-8" stroke="#DB8E53" stroke-width="3"></path>
                <path d="M133.997822,86.2867782 C132.281679,84.5710739 129.500524,84.5710739 127.783941,86.2867782 L121.571379,92.499341 C119.855674,94.2150452 119.855674,96.9970783 121.571379,98.7132218 C123.287522,100.428926 126.069116,100.428926 127.785259,98.7132218 L133.997822,92.500659 C135.713526,90.7849548 135.713526,88.0029217 133.997822,86.2867782 Z" id="Fill-9" stroke="#DB8E53" stroke-width="4"></path>
            </g>
        </g>
    </g>
</svg>