<?xml version="1.0" encoding="UTF-8"?>
<svg width="350px" height="350px" viewBox="0 0 350 350" version="1.1" xmlns="http://www.w3.org/2000/svg" xmlns:xlink="http://www.w3.org/1999/xlink">
    <!-- Generator: Sketch 58 (84663) - https://sketch.com -->
    <title>Group 9</title>
    <desc>Created with Sketch.</desc>
    <g id="Page-1" stroke="none" stroke-width="1" fill="none" fill-rule="evenodd">
        <g id="About-us" transform="translate(-940.000000, -1452.000000)">
            <g id="Group-9" transform="translate(940.000000, 1439.000000)">
                <rect id="Rectangle" fill="#DB8E53" x="0" y="13" width="350" height="350" rx="4"></rect>
                <g id="Group-5" transform="translate(196.998521, 168.998521) rotate(45.000000) translate(-196.998521, -168.998521) translate(71.998521, 54.998521)" fill="#FFFFFF" stroke="#DB8E53" stroke-width="4">
                    <path d="M106.485975,1.465 C105.550975,0.535 104.265975,0 102.945975,0 C101.630975,0 100.340975,0.535 99.4109746,1.465 C98.4809746,2.395 97.9459746,3.685 97.9459746,5 C97.9459746,6.315 98.4809746,7.605 99.4109746,8.535 C100.340975,9.465 101.630975,10 102.945975,10 C104.265975,10 105.550975,9.465 106.485975,8.535 C107.415975,7.605 107.945975,6.315 107.945975,5 C107.945975,3.685 107.415975,2.395 106.485975,1.465 Z" id="Fill-1"></path>
                    <path d="M172.701223,80.6606476 L168.673199,60.28635 C167.030873,51.9762088 162.983888,44.4221081 156.970294,38.4411924 L150.083029,31.5902724 L150.083029,4.84952218 C150.083029,2.17113108 147.906389,0 145.221201,0 C142.536014,0 140.359374,2.17113108 140.359374,4.84952218 L140.359374,33.6028241 C140.359374,34.8913422 140.873755,36.1270004 141.788265,37.0367708 L150.104421,45.3086008 C154.743577,49.9234061 157.865842,55.7510769 159.133321,62.1621452 L163.161345,82.5364427 C163.318382,83.3317644 163.152107,84.1382399 162.692665,84.806989 C162.233222,85.4757381 161.538953,85.9218942 160.738696,86.0625303 C159.190204,86.3379832 157.679148,85.3540151 157.303815,83.8278705 L155.222467,75.3606048 C154.488817,72.3771787 151.737995,70.4776209 148.680392,70.8476394 C145.623274,71.2162031 143.404336,73.7132221 143.404336,76.7849094 L143.404336,116.231408 C143.404336,117.788104 142.134427,119.0548 140.57378,119.0548 C139.139055,119.0548 137.953255,117.984025 137.770451,116.602396 L137.770451,96.0040508 C137.770451,93.3256597 135.59381,91.1545286 132.908623,91.1545286 C132.903761,91.1545286 132.899386,91.1550136 132.89501,91.1550136 C132.890634,91.1550136 132.885772,91.1545286 132.881397,91.1545286 C130.196209,91.1545286 128.019569,93.3256597 128.019569,96.0040508 L128.019569,116.231408 C128.019569,116.495707 128.030752,116.757581 128.046796,117.017515 L128.046796,123.478049 C128.046796,125.034745 126.776886,126.301441 125.21624,126.301441 C123.655593,126.301441 122.385684,125.034745 122.385684,123.478049 L122.385684,117.014606 C122.401728,116.755156 122.41291,116.494737 122.41291,116.231408 L122.41291,96.0040508 C122.41291,93.3256597 120.23627,91.1545286 117.551082,91.1545286 C117.546707,91.1545286 117.541845,91.1550136 117.537469,91.1550136 C117.533094,91.1550136 117.528232,91.1545286 117.523856,91.1545286 C114.838669,91.1545286 112.662029,93.3256597 112.662029,96.0040508 L112.662029,116.600941 C112.47971,117.98354 111.293424,119.055285 109.858213,119.055285 C108.297566,119.055285 107.027657,117.788589 107.027657,116.231893 L107.027657,108.997376 C107.043701,108.737926 107.054883,108.477507 107.054883,108.214178 L107.054883,96.0040508 C107.054883,93.3256597 104.878243,91.1545286 102.193055,91.1545286 C102.18868,91.1545286 102.183818,91.1550136 102.179442,91.1550136 C102.175067,91.1550136 102.170205,91.1545286 102.165829,91.1545286 C99.4806417,91.1545286 97.3040016,93.3256597 97.3040016,96.0040508 L97.3040016,108.583226 C97.121683,109.965825 95.9353971,111.03757 94.5001856,111.03757 C92.939539,111.03757 91.6696296,109.770874 91.6696296,108.214178 L91.6696296,65.5732991 C91.6696296,56.8082727 95.0962457,48.5723292 101.318899,42.383369 L106.694135,37.0372557 C107.608645,36.1274854 108.123026,34.8918271 108.123026,33.6033091 L108.123026,22.1434032 C108.123026,19.4650121 105.946386,17.293881 103.261199,17.293881 C100.576011,17.293881 98.3993713,19.4650121 98.3993713,22.1434032 L98.3993713,31.5902724 L94.4530259,35.5149907 C86.3877402,43.5370703 81.9459746,54.2118385 81.9459746,65.5728141 L81.9459746,79.7159606 L81.9459746,91.2253316 L81.9459746,108.213693 C81.9459746,115.118442 87.5779156,120.736129 94.5001856,120.736129 C95.7034879,120.736129 96.8664371,120.563001 97.9690996,120.245842 C99.6508057,125.18702 104.342955,128.753359 109.857726,128.753359 C111.155834,128.753359 112.408241,128.555983 113.586748,128.18936 C115.457093,132.765369 119.963521,136 125.215267,136 C130.467013,136 134.9749,132.765854 136.845245,128.189845 C138.023752,128.556468 139.276159,128.753844 140.574267,128.753844 C147.496537,128.753844 153.128478,123.136157 153.128478,116.231408 L153.128478,93.6408786 C155.773798,95.4138639 159.077896,96.2028812 162.427695,95.6146341 C165.822223,95.017658 168.765087,93.1263443 170.713708,90.2898588 C172.662328,87.4533733 173.367779,84.0339752 172.701223,80.6606476 Z" id="Fill-2"></path>
                    <path d="M122.263351,178.516711 C121.666686,177.490374 120.937537,176.570443 120.102692,175.768526 C123.556045,171.854708 124.306626,166.035734 121.544918,161.28566 C120.896135,160.169844 120.098796,159.190906 119.191864,158.359486 C120.21131,157.058911 120.969196,155.557614 121.411459,153.91799 C122.280886,150.695329 121.834726,147.329988 120.154809,144.440573 C117.524611,139.916854 112.455148,137.647497 107.539113,138.316889 C107.262455,137.105792 106.801683,135.929519 106.158259,134.823377 C104.478829,131.934445 101.766315,129.867745 98.5214298,129.004402 C95.2760576,128.140577 91.8869987,128.583614 88.9772203,130.252258 L69.3276922,141.517301 C69.54444,138.354132 68.5771116,135.114543 66.386254,132.522098 C64.166172,129.89483 61.047439,128.302604 57.6043149,128.03804 C54.163139,127.776377 50.833016,128.870911 48.232432,131.127692 L32.5282011,144.758341 C26.1226946,150.318071 21.5792709,157.571112 19.3889004,165.734411 L16.8804707,175.084624 L3.38219672,182.823265 C1.05252311,184.158664 0.254209283,187.11676 1.5995069,189.430129 C2.50156743,190.981727 4.1386222,191.849422 5.82194898,191.848938 C6.64802601,191.848938 7.48579281,191.639995 8.25293392,191.200344 L23.502238,182.457614 C24.6229946,181.814823 25.4403043,180.75608 25.7734627,179.514512 L28.8025742,168.224319 C30.4922329,161.926516 33.9977025,156.330511 38.9395525,152.041369 L54.6438808,138.410721 C55.2571066,137.878205 56.0403211,137.619928 56.8537343,137.682321 C57.6656861,137.744714 58.4006804,138.120038 58.9242846,138.739613 C59.9388592,139.939586 59.8404703,141.729146 58.7012049,142.81304 L52.378988,148.828866 C50.1511128,150.948286 49.8783515,154.264778 51.7302058,156.715508 C53.5825471,159.166239 56.8659111,159.833213 59.5375105,158.300479 L93.8484446,138.629821 C94.5040458,138.253529 95.2682645,138.153894 96.0003363,138.348328 C96.731921,138.542761 97.3436856,139.009014 97.7226289,139.660511 C98.1010852,140.312008 98.2019095,141.070878 98.0061058,141.797343 C97.8346559,142.433363 97.4440228,142.967813 96.9111641,143.346039 L79.0764728,153.570718 C76.7467992,154.906117 75.9484853,157.864213 77.2937829,160.177583 C77.2962183,160.181452 77.2986537,160.184838 77.301089,160.188707 C77.3035244,160.192577 77.3049856,160.19693 77.307421,160.200799 C78.6522315,162.514169 81.6306873,163.306412 83.960848,161.971013 L101.555412,151.884178 C101.784337,151.753105 102.006442,151.612842 102.225138,151.469193 L107.844995,148.247501 C109.19906,147.471218 110.936939,147.933118 111.719179,149.278191 C112.500933,150.62278 112.03529,152.348497 110.681225,153.125263 L105.058933,156.348407 C104.825625,156.464003 104.593291,156.584435 104.364366,156.715508 L86.7698022,166.802343 C84.4401286,168.137742 83.6418147,171.095838 84.9871124,173.409208 C85.169765,173.722139 85.3928448,174.016691 85.6402782,174.282223 C86.5744856,175.2926 87.8808173,175.851717 89.2231925,175.851717 C90.0492695,175.851717 90.8870363,175.642773 91.6541774,175.203122 L109.569236,164.93201 C110.862904,164.399495 112.389393,164.886546 113.108801,166.123278 C113.890554,167.467866 113.424912,169.193583 112.070847,169.970349 L105.780777,173.576556 C105.546007,173.692636 105.312699,173.814036 105.083287,173.945109 L94.4626445,180.033968 C92.1329709,181.369368 91.3346571,184.327463 92.6799547,186.640833 C93.5469459,188.125201 95.1849748,189.083342 96.9160348,189.083342 C97.7421119,189.083342 98.5798787,188.874398 99.3470198,188.434747 L110.290105,182.161127 C110.863878,181.924131 111.495613,181.878667 112.105916,182.041178 C112.837501,182.236095 113.448778,182.701865 113.827722,183.353362 C114.609475,184.697951 114.143832,186.423667 112.789767,187.200434 L97.1795417,196.149688 L75.7000777,208.464284 C68.0759128,212.835165 59.1955847,213.98919 50.6956612,211.714997 L43.3529275,209.749866 C42.1026092,209.41517 40.7709497,209.588806 39.650193,210.231596 L24.400889,218.974326 C22.0712154,220.309725 21.2729015,223.267821 22.6181992,225.581191 C23.5202597,227.132788 25.1573145,228 26.8406412,228 C27.6667183,228 28.5044851,227.791056 29.2716262,227.351405 L42.7699002,219.612764 L48.1603451,221.055537 C59.177563,224.002992 70.6880891,222.507016 80.5703279,216.841847 L92.8713747,209.789527 C92.8713747,209.789527 92.8718617,209.789527 92.8718617,209.789043 L102.049792,204.527251 L102.883175,204.04939 L117.660018,195.577512 C123.666124,192.134301 125.730829,184.480785 122.263351,178.516711 Z" id="Fill-3"></path>
                    <path d="M247.514391,182.81561 L234.044253,175.075409 L232.609895,169.717255 C229.678476,158.765838 222.633059,149.614018 212.771906,143.947224 L191.337215,131.630146 L175.759529,122.679087 C172.855816,121.01059 169.473335,120.567464 166.2357,121.43098 C162.997579,122.294496 160.290719,124.361613 158.61479,127.251127 C158.014022,128.286379 157.58386,129.373393 157.307779,130.479275 C155.438884,130.10581 153.49465,130.159991 151.599508,130.666007 C148.361387,131.529523 145.654528,133.59664 143.978598,136.486154 C143.337001,137.592519 142.87719,138.76903 142.601109,139.979887 C137.695321,139.310844 132.636425,141.581141 130.011709,146.105289 C127.386994,150.62992 127.9411,156.125462 130.976535,160.019267 C130.060801,160.862949 129.266582,161.847406 128.624985,162.953771 C125.164735,168.919047 127.225622,176.574105 133.218723,180.018011 L152.827292,191.285808 C149.966838,192.681463 147.628897,195.134139 146.465759,198.314394 C145.287068,201.537704 145.457188,205.016441 146.945013,208.110586 C148.433324,211.204731 151.048804,213.518567 154.310256,214.626384 L174.00826,221.317787 C182.043292,224.047659 190.623196,224.327758 198.820085,222.129541 L208.209276,219.611073 L221.679413,227.351274 C222.444955,227.791014 223.280489,228 224.10533,228 C225.785148,228 227.418791,227.132613 228.318971,225.580703 C229.661464,223.266866 228.864815,220.308175 226.539997,218.972506 L211.32248,210.228014 C210.204059,209.585094 208.87469,209.411423 207.627464,209.746671 L196.290637,212.787118 C189.967017,214.483674 183.347387,214.266948 177.148198,212.16113 L157.449708,205.469726 C156.680763,205.208494 156.063955,204.66281 155.713021,203.933296 C155.362087,203.203782 155.32223,202.383321 155.600255,201.62333 C156.138322,200.150757 157.745231,199.341422 159.256873,199.77826 L167.646727,202.208199 C170.603421,203.065426 173.625732,201.640745 174.83456,198.821861 C176.042901,196.00346 174.985238,192.845942 172.318721,191.313866 L138.079307,171.639243 C136.728065,170.862805 136.263393,169.13674 137.043517,167.791396 C137.42167,167.139768 138.031673,166.673905 138.761733,166.478948 C139.37125,166.316404 140.001182,166.361878 140.573273,166.598438 L158.453418,176.872587 C159.21896,177.312327 160.054495,177.521796 160.879336,177.521312 C162.217455,177.521312 163.520091,176.96305 164.452351,175.954405 C164.700727,175.688336 164.923828,175.392757 165.107072,175.078311 C166.449566,172.764475 165.652916,169.805783 163.328098,168.470115 L145.770696,158.381247 C145.541276,158.249664 145.307968,158.128239 145.073202,158.011653 L139.466518,154.790278 C138.115275,154.013839 137.650604,152.287774 138.430727,150.94243 C138.808881,150.290802 139.418884,149.824939 140.14943,149.629983 C140.879976,149.43551 141.642115,149.535649 142.29635,149.911532 L147.904006,153.133875 C148.122246,153.278036 148.344375,153.417843 148.572823,153.549427 L166.130225,163.638295 C166.895767,164.078035 167.731302,164.287504 168.556143,164.28702 C169.894748,164.28702 171.197384,163.728275 172.129644,162.719146 C172.37802,162.45356 172.600149,162.157981 172.783879,161.844019 C174.126372,159.530183 173.329723,156.571491 171.004905,155.235823 L153.206904,145.008599 C152.675642,144.630297 152.286309,144.095739 152.11473,143.459591 C151.919335,142.73298 152.019463,141.973957 152.397616,141.322328 C152.77577,140.6707 153.385773,140.204353 154.116319,140.009881 C154.845893,139.815408 155.609004,139.915063 156.263725,140.29143 L162.543114,143.899815 C162.759896,144.043009 162.981053,144.182333 163.2095,144.313916 L173.808004,150.404003 C174.573546,150.843743 175.409081,151.053212 176.233922,151.052728 C177.572041,151.052728 178.875163,150.493983 179.806937,149.485338 C180.055313,149.218784 180.276956,148.923689 180.461172,148.609727 C181.803665,146.295891 181.007016,143.337199 178.682198,142.001531 L167.763382,135.727131 C166.654682,134.880546 166.317358,133.323798 167.034294,132.087301 C167.412447,131.435673 168.022451,130.969326 168.75251,130.774854 C169.483542,130.580865 170.245196,130.680036 170.899917,131.056403 L185.645957,139.529988 L186.477603,140.007946 L195.636402,145.270798 C195.636402,145.270798 195.636888,145.270798 195.636888,145.271282 L207.912294,152.325024 C215.520566,156.69727 220.955672,163.757784 223.217302,172.206697 L225.171257,179.504739 C225.503721,180.746557 226.319327,181.805997 227.437747,182.448434 L242.655264,191.192926 C243.420806,191.632666 244.256341,191.841651 245.081182,191.841651 C246.761,191.841651 248.394642,190.974265 249.294823,189.422355 C250.635858,187.110454 249.839208,184.151762 247.514391,182.81561 Z" id="Fill-4"></path>
                </g>
            </g>
        </g>
    </g>
</svg>