
<svg width="135px" height="130px" viewBox="0 0 135 130" version="1.1" >
  
    <defs>
        <path d="M109.091,0.521 L10.9092,0.521 C4.8953,0.521 0,5.414 0,11.43 L0,109.612 C0,115.6285 4.8953,120.5212 10.9092,120.5212 L109.091,120.5212 C115.105,120.5212 120,115.6287 120,109.612 L120,11.43 C120,5.414 115.105,0.521 109.091,0.521 Z M114.545,109.612 C114.545,112.6188 112.1,115.0665 109.091,115.0665 L10.9092,115.0665 C7.8995,115.0665 5.4547,112.6188 5.4547,109.612 L5.4547,27.794 L114.545,27.794 L114.545,109.612 Z M114.545,22.339 L5.4545,22.339 L5.4545,11.43 C5.4545,8.423 7.8995,5.976 10.9089,5.976 L109.091,5.976 C112.1,5.976 114.545,8.423 114.545,11.43 L114.545,22.339 Z" id="path-1"></path>
        <path d="M3.5484,0.166 C5.1507,0.166 6.4516,1.467 6.4516,3.07 C6.4516,4.672 5.1507,5.973 3.5484,5.973 C1.946,5.973 0.6452,4.672 0.6452,3.07 C0.6452,1.467 1.946,0.166 3.5484,0.166 Z" id="path-3"></path>
        <path d="M2.9131,0.196 C4.5154,0.196 5.8163,1.497 5.8163,3.099 C5.8163,4.701 4.5154,6.002 2.9131,6.002 C1.3108,6.002 0.0099,4.701 0.0099,3.099 C0.0099,1.497 1.3108,0.196 2.9131,0.196 Z" id="path-5"></path>
        <path d="M3.8387,0.166 C5.441,0.166 6.7419,1.467 6.7419,3.07 C6.7419,4.672 5.441,5.973 3.8387,5.973 C2.2365,5.973 0.9355,4.672 0.9355,3.07 C0.9355,1.467 2.2365,0.166 3.8387,0.166 Z" id="path-7"></path>
    </defs>
    <g id="Page-1" stroke="none" stroke-width="1" fill="none" fill-rule="evenodd">
        <g id="Landing-page" transform="translate(-657.000000, -2080.000000)">
            <g id="Product_Refinement" transform="translate(657.000000, 2079.000000)">
                <g id="Group-3" transform="translate(0.000000, 0.479000)">
                    <mask id="mask-2" fill="white">
                        <use xlink:href="#path-1"></use>
                    </mask>
                    <g id="Clip-2"></g>
                    <polygon id="Fill-1" fill="#8A8A8A" mask="url(#mask-2)" points="-5 125.5212 125 125.5212 125 -4.4788 -5 -4.4788"></polygon>
                </g>
                <path d="M71.4369,67.8771 L95.6514,67.8771 L95.6514,85.3197 L110.119,73.0239 L126.985,89.8355 C119.044,95.9924 118.839,99.5055 114.141,104.0552 L132.931,104.0552 L132.931,128.2158 L79.2563,128.2158 C79.2563,128.2158 73.3651,130.8323 71.4369,111.6858 C69.6837,94.2764 71.4369,91.6647 71.4369,91.6647 L71.4369,67.8771 Z" id="Fill-4" fill="#FFFFFF"></path>
                <g id="Group-7" transform="translate(10.000000, 11.479000)">
                    <mask id="mask-4" fill="white">
                        <use xlink:href="#path-3"></use>
                    </mask>
                    <g id="Clip-6"></g>
                    <polygon id="Fill-5" fill="#8A8A8A" mask="url(#mask-4)" points="-4.3548 10.973 11.4516 10.973 11.4516 -4.8334 -4.3548 -4.8334"></polygon>
                </g>
                <path d="M13.5484,11.645 C15.1507,11.645 16.4516,12.946 16.4516,14.549 C16.4516,16.151 15.1507,17.452 13.5484,17.452 C11.946,17.452 10.6452,16.151 10.6452,14.549 C10.6452,12.946 11.946,11.645 13.5484,11.645 Z" id="Stroke-8" stroke="#FFFFFF"></path>
                <g id="Group-11" transform="translate(21.000000, 11.479000)">
                    <mask id="mask-6" fill="white">
                        <use xlink:href="#path-5"></use>
                    </mask>
                    <g id="Clip-10"></g>
                    <polygon id="Fill-9" fill="#8A8A8A" mask="url(#mask-6)" points="-4.9901 11.002 10.8164 11.002 10.8164 -4.8044 -4.9901 -4.8044"></polygon>
                </g>
                <path d="M23.9131,11.675 C25.5153,11.675 26.8163,12.976 26.8163,14.578 C26.8163,16.18 25.5153,17.481 23.9131,17.481 C22.3107,17.481 21.0099,16.18 21.0099,14.578 C21.0099,12.976 22.3107,11.675 23.9131,11.675 Z" id="Stroke-12" stroke="#FFFFFF"></path>
                <g id="Group-15" transform="translate(31.000000, 11.479000)">
                    <mask id="mask-8" fill="white">
                        <use xlink:href="#path-7"></use>
                    </mask>
                    <g id="Clip-14"></g>
                    <polygon id="Fill-13" fill="#8A8A8A" mask="url(#mask-8)" points="-4.0645 10.973 11.742 10.973 11.742 -4.8334 -4.0645 -4.8334"></polygon>
                </g>
                <path d="M34.8387,11.645 C36.441,11.645 37.7419,12.946 37.7419,14.549 C37.7419,16.151 36.441,17.452 34.8387,17.452 C33.2364,17.452 31.9355,16.151 31.9355,14.549 C31.9355,12.946 33.2364,11.645 34.8387,11.645 Z" id="Stroke-16" stroke="#FFFFFF"></path>
                <path d="M58.3722,88.5025 L51.6784,88.5025 C50.6289,88.5025 49.7774,89.354 49.7774,90.4045 C49.7774,91.4549 50.6289,92.3054 51.6784,92.3054 L58.3722,92.3054 C59.4216,92.3054 60.2731,91.4549 60.2731,90.4045 C60.2731,89.354 59.4216,88.5025 58.3722,88.5025 Z" id="Fill-17" fill="#8A8A8A"></path>
                <path d="M58.3722,88.5025 L51.6784,88.5025 C50.6289,88.5025 49.7774,89.354 49.7774,90.4045 C49.7774,91.4549 50.6289,92.3054 51.6784,92.3054 L58.3722,92.3054 C59.4216,92.3054 60.2731,91.4549 60.2731,90.4045 C60.2731,89.354 59.4216,88.5025 58.3722,88.5025 Z" id="Stroke-18" stroke="#FFFFFF" stroke-linejoin="round"></path>
                <path d="M58.0128,100.6823 C59.0632,100.6823 59.9137,99.8318 59.9137,98.7813 C59.9137,97.7309 59.0632,96.8794 58.0128,96.8794 L51.6784,96.8794 C50.6289,96.8794 49.7774,97.7309 49.7774,98.7813 C49.7774,99.8318 50.6289,100.6823 51.6784,100.6823 L58.0128,100.6823 Z" id="Fill-19" fill="#8A8A8A"></path>
                <path d="M58.0128,100.6823 C59.0632,100.6823 59.9137,99.8318 59.9137,98.7813 C59.9137,97.7309 59.0632,96.8794 58.0128,96.8794 L51.6784,96.8794 C50.6289,96.8794 49.7774,97.7309 49.7774,98.7813 C49.7774,99.8318 50.6289,100.6823 51.6784,100.6823 L58.0128,100.6823 Z" id="Stroke-20" stroke="#FFFFFF" stroke-linejoin="round"></path>
                <path d="M38.7356,71.0244 L17.4602,71.0244 C14.3881,71.0244 11.8872,73.5253 11.8872,76.5984 L11.8872,95.4927 C11.8872,98.5659 14.3881,101.0658 17.4602,101.0658 L38.7356,101.0658 C41.8078,101.0658 44.3087,98.5659 44.3087,95.4927 L44.3087,76.5984 C44.3087,73.5253 41.8078,71.0244 38.7356,71.0244 Z M37.5802,74.8272 L28.0975,83.2199 L18.6156,74.8272 L37.5802,74.8272 Z M15.69,94.2017 L15.69,77.3162 L25.2292,85.7584 L15.69,94.2017 Z M17.9681,97.2629 L28.0984,88.298 L38.2277,97.2629 L17.9681,97.2629 Z M40.5059,94.2017 L30.9666,85.7584 L40.5059,77.3162 L40.5059,94.2017 Z" id="Fill-21" fill="#8A8A8A"></path>
                <path d="M38.7356,71.0244 L17.4602,71.0244 C14.3881,71.0244 11.8872,73.5253 11.8872,76.5984 L11.8872,95.4927 C11.8872,98.5659 14.3881,101.0658 17.4602,101.0658 L38.7356,101.0658 C41.8078,101.0658 44.3087,98.5659 44.3087,95.4927 L44.3087,76.5984 C44.3087,73.5253 41.8078,71.0244 38.7356,71.0244 Z M37.5802,74.8272 L28.0975,83.2199 L18.6156,74.8272 L37.5802,74.8272 Z M15.69,94.2017 L15.69,77.3162 L25.2292,85.7584 L15.69,94.2017 Z M17.9681,97.2629 L28.0984,88.298 L38.2277,97.2629 L17.9681,97.2629 Z M40.5059,94.2017 L30.9666,85.7584 L40.5059,77.3162 L40.5059,94.2017 Z" id="Stroke-22" stroke="#FFFFFF" stroke-linejoin="round"></path>
                <path d="M60.1543,72.419 L51.6784,72.419 C50.6289,72.419 49.7774,73.2705 49.7774,74.3209 C49.7774,75.3714 50.6289,76.2218 51.6784,76.2218 L60.1543,76.2218 C61.2047,76.2218 62.0552,75.3714 62.0552,74.3209 C62.0552,73.2705 61.2037,72.419 60.1543,72.419 Z" id="Fill-23" fill="#8A8A8A"></path>
                <path d="M60.1543,72.419 L51.6784,72.419 C50.6289,72.419 49.7774,73.2705 49.7774,74.3209 C49.7774,75.3714 50.6289,76.2218 51.6784,76.2218 L60.1543,76.2218 C61.2047,76.2218 62.0552,75.3714 62.0552,74.3209 C62.0552,73.2705 61.2037,72.419 60.1543,72.419 Z" id="Stroke-24" stroke="#FFFFFF" stroke-linejoin="round"></path>
                <path d="M103.077,68.591 L108.337,68.591 C109.387,68.591 110.237,67.7405 110.237,66.6901 C110.237,65.6396 109.387,64.7882 108.337,64.7882 L103.077,64.7882 C102.028,64.7882 101.176,65.6396 101.176,66.6901 C101.176,67.7405 102.028,68.591 103.077,68.591 Z" id="Fill-25" fill="#8A8A8A"></path>
                <path d="M103.077,68.591 L108.337,68.591 C109.387,68.591 110.237,67.7405 110.237,66.6901 C110.237,65.6396 109.387,64.7882 108.337,64.7882 L103.077,64.7882 C102.028,64.7882 101.176,65.6396 101.176,66.6901 C101.176,67.7405 102.028,68.591 103.077,68.591 Z" id="Stroke-26" stroke="#FFFFFF" stroke-linejoin="round"></path>
                <path d="M62.0552,82.6978 C62.0552,81.6474 61.2047,80.7959 60.1543,80.7959 L51.6784,80.7959 C50.6289,80.7959 49.7774,81.6474 49.7774,82.6978 C49.7774,83.7483 50.6289,84.5987 51.6784,84.5987 L60.1543,84.5987 C61.2037,84.5987 62.0552,83.7473 62.0552,82.6978 Z" id="Fill-27" fill="#8A8A8A"></path>
                <path d="M62.0552,82.6978 C62.0552,81.6474 61.2047,80.7959 60.1543,80.7959 L51.6784,80.7959 C50.6289,80.7959 49.7774,81.6474 49.7774,82.6978 C49.7774,83.7483 50.6289,84.5987 51.6784,84.5987 L60.1543,84.5987 C61.2037,84.5987 62.0552,83.7473 62.0552,82.6978 Z" id="Stroke-28" stroke="#FFFFFF" stroke-linejoin="round"></path>
                <path d="M52.4863,45.7775 L58.0128,45.7775 C59.0632,45.7775 59.9137,44.927 59.9137,43.8766 C59.9137,42.8261 59.0632,41.9757 58.0128,41.9757 L52.4863,41.9757 C51.4368,41.9757 50.5853,42.8261 50.5853,43.8766 C50.5853,44.927 51.4368,45.7775 52.4863,45.7775 Z" id="Fill-29" fill="#8A8A8A"></path>
                <path d="M52.4863,45.7775 L58.0128,45.7775 C59.0632,45.7775 59.9137,44.927 59.9137,43.8766 C59.9137,42.8261 59.0632,41.9757 58.0128,41.9757 L52.4863,41.9757 C51.4368,41.9757 50.5853,42.8261 50.5853,43.8766 C50.5853,44.927 51.4368,45.7775 52.4863,45.7775 Z" id="Stroke-30" stroke="#FFFFFF" stroke-linejoin="round"></path>
                <path d="M99.8161,43.8766 C99.8161,42.8261 98.9656,41.9757 97.9152,41.9757 L64.2006,41.9757 C63.1502,41.9757 62.2997,42.8261 62.2997,43.8766 C62.2997,44.927 63.1502,45.7775 64.2006,45.7775 L97.9152,45.7775 C98.9646,45.7775 99.8161,44.927 99.8161,43.8766 Z" id="Fill-31" fill="#8A8A8A"></path>
                <path d="M99.8161,43.8766 C99.8161,42.8261 98.9656,41.9757 97.9152,41.9757 L64.2006,41.9757 C63.1502,41.9757 62.2997,42.8261 62.2997,43.8766 C62.2997,44.927 63.1502,45.7775 64.2006,45.7775 L97.9152,45.7775 C98.9646,45.7775 99.8161,44.927 99.8161,43.8766 Z" id="Stroke-32" stroke="#FFFFFF" stroke-linejoin="round"></path>
                <path d="M80.4644,55.6217 L92.7936,55.6217 C93.844,55.6217 94.6955,54.7702 94.6955,53.7207 C94.6955,52.6703 93.844,51.8188 92.7936,51.8188 L80.4644,51.8188 C79.4139,51.8188 78.5634,52.6703 78.5634,53.7207 C78.5634,54.7702 79.4139,55.6217 80.4644,55.6217 Z" id="Fill-33" fill="#8A8A8A"></path>
                <path d="M80.4644,55.6217 L92.7936,55.6217 C93.844,55.6217 94.6955,54.7702 94.6955,53.7207 C94.6955,52.6703 93.844,51.8188 92.7936,51.8188 L80.4644,51.8188 C79.4139,51.8188 78.5634,52.6703 78.5634,53.7207 C78.5634,54.7702 79.4139,55.6217 80.4644,55.6217 Z" id="Stroke-34" stroke="#FFFFFF" stroke-linejoin="round"></path>
                <path d="M70.1727,51.8188 C69.1232,51.8188 68.2718,52.6703 68.2718,53.7207 C68.2718,54.7702 69.1232,55.6217 70.1727,55.6217 L74.0161,55.6217 C75.0666,55.6217 75.918,54.7702 75.918,53.7207 C75.918,52.6703 75.0666,51.8188 74.0161,51.8188 L70.1727,51.8188 Z" id="Fill-35" fill="#8A8A8A"></path>
                <path d="M70.1727,51.8188 C69.1232,51.8188 68.2718,52.6703 68.2718,53.7207 C68.2718,54.7702 69.1232,55.6217 70.1727,55.6217 L74.0161,55.6217 C75.0666,55.6217 75.918,54.7702 75.918,53.7207 C75.918,52.6703 75.0666,51.8188 74.0161,51.8188 L70.1727,51.8188 Z" id="Stroke-36" stroke="#FFFFFF" stroke-linejoin="round"></path>
                <path d="M65.8887,53.7207 C65.8887,52.6703 65.0382,51.8188 63.9878,51.8188 L52.4872,51.8188 C51.4368,51.8188 50.5853,52.6703 50.5853,53.7207 C50.5853,54.7702 51.4368,55.6217 52.4872,55.6217 L63.9878,55.6217 C65.0372,55.6217 65.8887,54.7702 65.8887,53.7207 Z" id="Fill-37" fill="#8A8A8A"></path>
                <path d="M65.8887,53.7207 C65.8887,52.6703 65.0382,51.8188 63.9878,51.8188 L52.4872,51.8188 C51.4368,51.8188 50.5853,52.6703 50.5853,53.7207 C50.5853,54.7702 51.4368,55.6217 52.4872,55.6217 L63.9878,55.6217 C65.0372,55.6217 65.8887,54.7702 65.8887,53.7207 Z" id="Stroke-38" stroke="#FFFFFF" stroke-linejoin="round"></path>
                <path d="M16.5223,46.9992 L16.5223,44.3152 C16.5223,43.4043 16.858,42.5172 17.6807,42.0509 C17.9876,41.8767 18.3153,41.7955 18.6519,41.7618 C19.6172,41.6648 20.3657,40.8797 20.3657,39.9094 L20.3657,39.8193 C20.3657,38.7936 19.5341,37.962 18.5074,37.962 L18.4034,37.962 C16.1184,38.0352 12.7195,39.7866 12.7195,44.3152 L12.7195,45.9854 L10.9057,47.2052 C10.0176,47.8012 9.5681,48.8833 9.8137,49.9694 C9.9632,50.6347 10.3909,51.206 10.9572,51.5862 L12.7195,52.7703 L12.7195,54.4415 C12.7195,58.9691 16.1184,60.7215 18.4034,60.7947 C18.4242,60.7957 18.445,60.7957 18.4658,60.7957 C19.4876,60.7957 20.3311,59.9839 20.3647,58.9552 C20.3984,57.9057 19.5747,57.0275 18.5252,56.9939 C18.5203,56.9939 17.9975,56.9454 17.5154,56.6583 C17.0896,56.4048 16.5223,55.8989 16.5223,54.4415 L16.5223,51.7575 C16.5223,51.1238 16.2075,50.5318 15.6818,50.1793 L14.4897,49.3783 L15.6818,48.5784 C16.2075,48.2239 16.5223,47.6319 16.5223,46.9992 Z" id="Fill-39" fill="#8A8A8A"></path>
                <path d="M16.5223,46.9992 L16.5223,44.3152 C16.5223,43.4043 16.858,42.5172 17.6807,42.0509 C17.9876,41.8767 18.3153,41.7955 18.6519,41.7618 C19.6172,41.6648 20.3657,40.8797 20.3657,39.9094 L20.3657,39.8193 C20.3657,38.7936 19.5341,37.962 18.5074,37.962 L18.4034,37.962 C16.1184,38.0352 12.7195,39.7866 12.7195,44.3152 L12.7195,45.9854 L10.9057,47.2052 C10.0176,47.8012 9.5681,48.8833 9.8137,49.9694 C9.9632,50.6347 10.3909,51.206 10.9572,51.5862 L12.7195,52.7703 L12.7195,54.4415 C12.7195,58.9691 16.1184,60.7215 18.4034,60.7947 C18.4242,60.7957 18.445,60.7957 18.4658,60.7957 C19.4876,60.7957 20.3311,59.9839 20.3647,58.9552 C20.3984,57.9057 19.5747,57.0275 18.5252,56.9939 C18.5203,56.9939 17.9975,56.9454 17.5154,56.6583 C17.0896,56.4048 16.5223,55.8989 16.5223,54.4415 L16.5223,51.7575 C16.5223,51.1238 16.2075,50.5318 15.6818,50.1793 L14.4897,49.3783 L15.6818,48.5784 C16.2075,48.2239 16.5223,47.6319 16.5223,46.9992 Z" id="Stroke-40" stroke="#FFFFFF" stroke-linejoin="round"></path>
                <path d="M21.93,56.4553 C21.4281,56.4553 20.939,56.2523 20.5835,55.8999 C20.2311,55.5454 20.0261,55.0553 20.0261,54.5534 C20.0261,54.1683 20.1341,53.8237 20.3479,53.499 C20.4162,53.395 20.4974,53.296 20.5835,53.2109 C20.939,52.8554 21.4281,52.6525 21.93,52.6525 C22.43,52.6525 22.9191,52.8554 23.2735,53.2109 C23.6181,53.5544 23.8319,54.0683 23.8319,54.5544 C23.8319,55.0553 23.629,55.5454 23.2735,55.8999 C22.9191,56.2523 22.43,56.4553 21.93,56.4553 Z" id="Fill-41" fill="#8A8A8A"></path>
                <path d="M21.93,56.4553 C21.4281,56.4553 20.939,56.2523 20.5835,55.8999 C20.2311,55.5454 20.0261,55.0553 20.0261,54.5534 C20.0261,54.1683 20.1341,53.8237 20.3479,53.499 C20.4162,53.395 20.4974,53.296 20.5835,53.2109 C20.939,52.8554 21.4281,52.6525 21.93,52.6525 C22.43,52.6525 22.9191,52.8554 23.2735,53.2109 C23.6181,53.5544 23.8319,54.0683 23.8319,54.5544 C23.8319,55.0553 23.629,55.5454 23.2735,55.8999 C22.9191,56.2523 22.43,56.4553 21.93,56.4553 Z" id="Stroke-42" stroke="#FFFFFF" stroke-linejoin="round"></path>
                <path d="M46.4112,47.2052 L44.5975,45.9854 L44.5975,44.3152 C44.5975,39.7866 41.1986,38.0342 38.9135,37.962 L38.8096,37.962 C37.7829,37.962 36.9512,38.7936 36.9512,39.8193 L36.9512,39.9094 C36.9512,40.8797 37.6997,41.6648 38.665,41.7618 C39.0016,41.7955 39.3293,41.8767 39.6363,42.0509 C40.459,42.5172 40.7946,43.4043 40.7946,44.3152 L40.7946,46.9992 C40.7946,47.6319 41.1095,48.2239 41.6352,48.5774 L42.8272,49.3783 L41.6352,50.1783 C41.1105,50.5318 40.7946,51.1238 40.7946,51.7565 L40.7946,54.4405 C40.7946,55.8979 40.2283,56.4038 39.8016,56.6573 C39.3194,56.9444 38.7967,56.9929 38.7917,56.9939 C37.7423,57.0275 36.9185,57.9047 36.9532,58.9552 C36.9859,59.9839 37.8304,60.7947 38.8521,60.7947 C38.8729,60.7947 38.8927,60.7947 38.9135,60.7937 C41.1986,60.7215 44.5975,58.9691 44.5975,54.4405 L44.5975,52.7703 L46.3608,51.5852 C46.9271,51.205 47.3538,50.6347 47.5033,49.9684 C47.7488,48.8833 47.2993,47.8002 46.4112,47.2052 Z" id="Fill-43" fill="#8A8A8A"></path>
                <path d="M46.4112,47.2052 L44.5975,45.9854 L44.5975,44.3152 C44.5975,39.7866 41.1986,38.0342 38.9135,37.962 L38.8096,37.962 C37.7829,37.962 36.9512,38.7936 36.9512,39.8193 L36.9512,39.9094 C36.9512,40.8797 37.6997,41.6648 38.665,41.7618 C39.0016,41.7955 39.3293,41.8767 39.6363,42.0509 C40.459,42.5172 40.7946,43.4043 40.7946,44.3152 L40.7946,46.9992 C40.7946,47.6319 41.1095,48.2239 41.6352,48.5774 L42.8272,49.3783 L41.6352,50.1783 C41.1105,50.5318 40.7946,51.1238 40.7946,51.7565 L40.7946,54.4405 C40.7946,55.8979 40.2283,56.4038 39.8016,56.6573 C39.3194,56.9444 38.7967,56.9929 38.7917,56.9939 C37.7423,57.0275 36.9185,57.9047 36.9532,58.9552 C36.9859,59.9839 37.8304,60.7947 38.8521,60.7947 C38.8729,60.7947 38.8927,60.7947 38.9135,60.7937 C41.1986,60.7215 44.5975,58.9691 44.5975,54.4405 L44.5975,52.7703 L46.3608,51.5852 C46.9271,51.205 47.3538,50.6347 47.5033,49.9684 C47.7488,48.8833 47.2993,47.8002 46.4112,47.2052 Z" id="Stroke-44" stroke="#FFFFFF" stroke-linejoin="round"></path>
                <path d="M30.0277,53.501 C29.7505,53.0911 29.3169,52.7931 28.8208,52.6901 C28.5743,52.6396 28.3209,52.6396 28.0773,52.6901 C27.9555,52.7139 27.8347,52.7515 27.7199,52.8 C27.3882,52.9396 27.0645,53.202 26.8684,53.499 C26.3853,54.2346 26.4764,55.2732 27.1041,55.8999 C27.308,56.1038 27.4605,56.2008 27.7199,56.3107 C28.0328,56.4424 28.3892,56.4662 28.7218,56.4187 C28.8981,56.3939 29.0723,56.3494 29.2367,56.2791 C30.0376,55.9355 30.4683,55.0247 30.3109,54.1841 C30.2663,53.9445 30.1644,53.7019 30.0277,53.501 Z" id="Fill-45" fill="#8A8A8A"></path>
                <path d="M30.0277,53.501 C29.7505,53.0911 29.3169,52.7931 28.8208,52.6901 C28.5743,52.6396 28.3209,52.6396 28.0773,52.6901 C27.9555,52.7139 27.8347,52.7515 27.7199,52.8 C27.3882,52.9396 27.0645,53.202 26.8684,53.499 C26.3853,54.2346 26.4764,55.2732 27.1041,55.8999 C27.308,56.1038 27.4605,56.2008 27.7199,56.3107 C28.0328,56.4424 28.3892,56.4662 28.7218,56.4187 C28.8981,56.3939 29.0723,56.3494 29.2367,56.2791 C30.0376,55.9355 30.4683,55.0247 30.3109,54.1841 C30.2663,53.9445 30.1644,53.7019 30.0277,53.501 Z" id="Stroke-46" stroke="#FFFFFF" stroke-linejoin="round"></path>
                <path d="M36.5384,53.5049 C36.1889,52.997 35.6018,52.6525 34.9681,52.6525 C34.4662,52.6525 33.9771,52.8554 33.6216,53.2099 C33.4345,53.398 33.3137,53.5811 33.2108,53.8267 C32.9237,54.5217 33.084,55.3652 33.6216,55.8999 C33.9761,56.2523 34.4662,56.4553 34.9681,56.4553 C35.4671,56.4553 35.9572,56.2523 36.3116,55.8999 C36.9582,55.2573 37.0473,54.2465 36.5384,53.5049 Z" id="Fill-47" fill="#8A8A8A"></path>
                <path d="M36.5384,53.5049 C36.1889,52.997 35.6018,52.6525 34.9681,52.6525 C34.4662,52.6525 33.9771,52.8554 33.6216,53.2099 C33.4345,53.398 33.3137,53.5811 33.2108,53.8267 C32.9237,54.5217 33.084,55.3652 33.6216,55.8999 C33.9761,56.2523 34.4662,56.4553 34.9681,56.4553 C35.4671,56.4553 35.9572,56.2523 36.3116,55.8999 C36.9582,55.2573 37.0473,54.2465 36.5384,53.5049 Z" id="Stroke-48" stroke="#FFFFFF" stroke-linejoin="round"></path>
                <path d="M130.806,102.5801 L116.961,102.5801 L126.964,92.5765 C128.305,91.236 128.305,89.0549 126.964,87.7143 L119.314,80.0642 L115.512,76.2613 L112.099,72.8476 C110.758,71.509 108.577,71.5081 107.236,72.8486 L97.2328,82.8522 L97.2328,69.0072 C97.2328,67.1112 95.6903,65.5687 93.7954,65.5687 L72.7714,65.5687 C70.8755,65.5687 69.333,67.1112 69.333,69.0072 L69.333,87.8143 C69.333,87.8272 69.3349,87.8391 69.3349,87.852 C69.3349,87.8648 69.333,87.8767 69.333,87.8896 L69.333,111.8312 L69.333,115.634 L69.333,116.0132 C69.333,119.82 70.2834,123.3347 72.9308,126.1841 C75.3773,128.8157 78.8346,130.3849 82.4285,130.475 C82.5413,130.477 82.6542,130.479 82.7671,130.479 L111.922,130.479 C111.935,130.479 111.947,130.477 111.96,130.477 C111.973,130.477 111.985,130.479 111.998,130.479 L130.805,130.479 C132.701,130.479 134.243,128.9365 134.243,127.0415 L134.243,106.0176 C134.244,104.1226 132.702,102.5801 130.806,102.5801 Z M73.1368,69.3715 L93.431,69.3715 L93.431,85.9134 L73.1368,85.9134 L73.1368,69.3715 Z M73.1368,89.7915 L90.2935,89.7915 L75.0743,105.0117 C74.506,105.4097 73.9744,105.8542 73.4754,106.3324 L73.1368,106.3324 L73.1368,89.7915 Z M89.6777,126.6772 L82.7671,126.6772 C77.4564,126.6772 73.1368,122.3565 73.1368,117.0459 L73.1368,116.0142 C73.1368,110.7035 77.4564,106.3829 82.7671,106.3829 L89.6777,106.3829 L89.6777,126.6772 Z M84.1809,102.5801 L83.5324,101.9306 L95.229,90.234 L107.574,102.5801 L84.1809,102.5801 Z M110.021,126.6772 L93.4805,126.6772 L93.4805,106.3829 L110.021,106.3829 L110.021,126.6772 Z M97.9714,87.4916 L109.668,75.795 L124.018,90.1449 L112.321,101.8415 L97.9714,87.4916 Z M130.441,126.6772 L113.901,126.6772 L113.901,106.3829 L130.441,106.3829 L130.441,126.6772 Z" id="Fill-49" fill="#8A8A8A"></path>
                <path d="M75.2822,116.53 C75.2822,119.7774 77.9247,122.4209 81.1721,122.4209 C84.4205,122.4209 87.063,119.7774 87.063,116.53 C87.063,113.2817 84.4205,110.6392 81.1721,110.6392 C77.9247,110.6392 75.2822,113.2817 75.2822,116.53 Z M83.2611,116.53 C83.2611,117.6815 82.3235,118.6181 81.1721,118.6181 C80.0207,118.6181 79.085,117.6815 79.085,116.53 C79.085,115.3786 80.0207,114.442 81.1721,114.442 C82.3235,114.442 83.2611,115.3786 83.2611,116.53 Z" id="Fill-50" fill="#8A8A8A"></path>
                <path d="M75.2822,116.53 C75.2822,119.7774 77.9247,122.4209 81.1721,122.4209 C84.4205,122.4209 87.063,119.7774 87.063,116.53 C87.063,113.2817 84.4205,110.6392 81.1721,110.6392 C77.9247,110.6392 75.2822,113.2817 75.2822,116.53 Z M83.2611,116.53 C83.2611,117.6815 82.3235,118.6181 81.1721,118.6181 C80.0207,118.6181 79.085,117.6815 79.085,116.53 C79.085,115.3786 80.0207,114.442 81.1721,114.442 C82.3235,114.442 83.2611,115.3786 83.2611,116.53 Z" id="Stroke-51" stroke="#FFFFFF" stroke-linejoin="round"></path>
            </g>
        </g>
    </g>
</svg>