<?xml version="1.0" encoding="UTF-8"?>
<svg width="250px" height="256px" viewBox="0 0 250 256" version="1.1" xmlns="http://www.w3.org/2000/svg" xmlns:xlink="http://www.w3.org/1999/xlink">
    <!-- Generator: Sketch 58 (84663) - https://sketch.com -->
    <title>Fill 1</title>
    <desc>Created with Sketch.</desc>
    <g id="Page-1" stroke="none" stroke-width="1" fill="none" fill-rule="evenodd">
        <g id="Products+Domains" transform="translate(-203.000000, -3308.000000)" fill="#FFFFFF" stroke="#DB8E53" stroke-width="2">
            <path d="M451.926122,3367.28756 C451.908151,3367.18019 451.912145,3367.06686 451.884191,3366.96148 C451.806818,3366.67169 451.692007,3366.39284 451.542752,3366.13238 C451.492834,3366.04291 451.416959,3365.97133 451.357058,3365.88783 C451.249734,3365.72032 451.128434,3365.56175 450.993656,3365.41462 C450.91179,3365.33112 450.807961,3365.27346 450.718109,3365.1979 C450.584828,3365.07563 450.442063,3364.96379 450.290812,3364.86388 L450.264855,3364.85394 L450.242891,3364.83803 L421.04892,3348.18246 C419.974188,3347.57007 418.649367,3347.57007 417.574635,3348.18246 L388.36469,3364.83604 L388.342726,3364.85195 L388.316769,3364.86189 C388.165019,3364.96279 388.021255,3365.07513 387.887475,3365.1979 C387.797623,3365.27147 387.687804,3365.33112 387.613925,3365.41264 C387.47765,3365.56175 387.354852,3365.72181 387.24653,3365.8918 C387.188625,3365.97531 387.114747,3366.0449 387.064829,3366.13238 C386.915574,3366.39334 386.800763,3366.67169 386.723391,3366.96148 C386.695437,3367.06288 386.69943,3367.17224 386.68146,3367.27563 C386.639529,3367.466 386.61407,3367.65986 386.605584,3367.85421 L386.605584,3374.94232 L360.626324,3358.74205 C360.664262,3358.56808 360.688223,3358.39113 360.698206,3358.21318 L360.698206,3329.13303 C360.688722,3328.94166 360.663763,3328.75178 360.622331,3328.56439 C360.604361,3328.45702 360.608354,3328.34369 360.5804,3328.23831 C360.503027,3327.94952 360.388216,3327.67116 360.238962,3327.4112 C360.169077,3327.30781 360.093701,3327.2084 360.013333,3327.11296 C359.916991,3326.96534 359.809668,3326.82516 359.691862,3326.69344 C359.586535,3326.60099 359.475717,3326.5145 359.360407,3326.43497 C359.242102,3326.3291 359.116808,3326.23167 358.985025,3326.1427 L358.965057,3326.1427 L358.95108,3326.11287 L329.739139,3309.45929 C328.664407,3308.8469 327.339586,3308.8469 326.264855,3309.45929 L297.052913,3326.11287 L297.028952,3326.13077 L297.008985,3326.13077 C296.876703,3326.22024 296.750411,3326.31866 296.631606,3326.42503 C296.516795,3326.50406 296.406976,3326.59005 296.302148,3326.68151 C296.182844,3326.81473 296.074023,3326.95738 295.976684,3327.107 C295.897813,3327.20045 295.823935,3327.29837 295.755048,3327.39927 C295.605794,3327.65973 295.490983,3327.93858 295.41361,3328.22837 C295.385656,3328.32977 295.389649,3328.43913 295.371679,3328.54252 C295.329748,3328.73289 295.30429,3328.92674 295.295804,3329.1211 L295.295804,3358.21318 C295.305787,3358.39212 295.329748,3358.56957 295.367685,3358.74404 L269.394416,3374.94232 L269.394416,3367.8562 C269.384931,3367.66483 269.359972,3367.47495 269.31854,3367.28756 C269.30057,3367.18019 269.304563,3367.06686 269.276609,3366.96148 C269.199237,3366.67169 269.084426,3366.39284 268.935171,3366.13238 C268.885253,3366.04291 268.809378,3365.97133 268.749477,3365.88783 C268.642153,3365.72032 268.520853,3365.56175 268.386075,3365.41462 C268.304209,3365.33112 268.20038,3365.27346 268.110528,3365.1979 C267.977247,3365.07563 267.834482,3364.96379 267.683231,3364.86388 L267.657274,3364.85394 L267.63531,3364.83803 L238.437345,3348.18246 C237.362513,3347.57007 236.037893,3347.57007 234.963061,3348.18246 L205.759106,3364.83604 L205.737142,3364.85195 L205.711185,3364.86189 C205.559385,3364.96279 205.415821,3365.07513 205.281891,3365.1979 C205.192039,3365.27147 205.08222,3365.33112 205.008341,3365.41264 C204.872065,3365.56175 204.749118,3365.72181 204.640946,3365.8918 C204.583041,3365.97531 204.509162,3366.0449 204.459244,3366.13238 C204.31009,3366.39334 204.195329,3366.67169 204.117806,3366.96148 C204.089852,3367.06288 204.093846,3367.17224 204.075875,3367.27563 C204.034044,3367.466 204.008686,3367.65986 204,3367.85421 L204,3396.93436 C204,3398.20535 204.69895,3399.37891 205.819007,3399.98831 L233.203955,3414.87832 L233.203955,3454.71889 L205.759106,3470.3704 L205.737142,3470.3863 L205.711185,3470.39625 C205.559385,3470.49715 205.415821,3470.60948 205.281891,3470.73226 C205.192039,3470.80582 205.08222,3470.86547 205.008341,3470.94699 C204.872065,3471.09611 204.749118,3471.25616 204.640946,3471.42616 C204.583041,3471.50967 204.509162,3471.57925 204.459244,3471.66674 C204.31009,3471.9277 204.195329,3472.20605 204.117806,3472.49584 C204.089852,3472.59724 204.093846,3472.70659 204.075875,3472.80998 C204.034044,3473.00036 204.008686,3473.19421 204,3473.38856 L204,3502.46872 C204,3503.7407 204.701396,3504.91476 205.823001,3505.52267 L235.024959,3521.39502 C235.189139,3521.47465 235.359359,3521.54111 235.534121,3521.59385 C235.627967,3521.62765 235.715822,3521.67735 235.811665,3521.70121 C236.392759,3521.85873 237.00565,3521.85873 237.586744,3521.70121 C237.682587,3521.67537 237.770442,3521.62566 237.864288,3521.59385 C238.03905,3521.54111 238.20927,3521.47465 238.37345,3521.39502 L263.168658,3507.91652 L295.315771,3529.22873 L295.315771,3543.64951 C295.315771,3544.9204 296.014621,3546.09417 297.134778,3546.70347 L326.336736,3562.57567 C326.500966,3562.6553 326.671186,3562.72176 326.845899,3562.7745 C326.939744,3562.8083 327.0276,3562.858 327.123442,3562.88186 C327.704486,3563.03938 328.317478,3563.03938 328.898522,3562.88186 C328.994364,3562.85601 329.08222,3562.80631 329.176065,3562.7745 C329.350778,3562.72176 329.520998,3562.6553 329.685228,3562.57567 L358.879199,3546.69949 C359.999356,3546.09019 360.698206,3544.91643 360.698206,3543.64554 L360.698206,3529.22475 L392.845319,3507.91255 L417.640527,3521.39105 C417.804757,3521.47068 417.974977,3521.53713 418.149689,3521.58987 C418.243535,3521.62367 418.33139,3521.67338 418.427233,3521.69724 C419.008277,3521.85476 419.621268,3521.85476 420.202312,3521.69724 C420.298155,3521.67139 420.38601,3521.62168 420.479856,3521.58987 C420.654568,3521.53713 420.824788,3521.47068 420.989018,3521.39105 L450.180993,3505.52267 C451.30115,3504.91327 452,3503.73971 452,3502.46872 L452,3473.39055 C451.990516,3473.19918 451.965557,3473.0093 451.924125,3472.82191 C451.906154,3472.71455 451.910148,3472.60122 451.882194,3472.49584 C451.804821,3472.20605 451.69001,3471.9272 451.540756,3471.66674 C451.490838,3471.57727 451.414962,3471.50569 451.355061,3471.42218 C451.247738,3471.25467 451.126437,3471.09611 450.991659,3470.94898 C450.909794,3470.86547 450.805964,3470.80781 450.716112,3470.73226 C450.582831,3470.60998 450.440066,3470.49814 450.288815,3470.39823 L450.262858,3470.38829 L450.240894,3470.37239 L422.796045,3454.72088 L422.796045,3414.87832 L450.178996,3399.99428 C451.299153,3399.38488 452,3398.21131 452,3396.94033 L452,3367.8562 C451.990016,3367.66532 451.966056,3367.47495 451.926122,3367.28756 Z M349.107246,3515.29467 L328,3527 L306.892754,3515.29467 L306,3514.79868 L328,3502 L350,3514.79058 L349.107246,3515.29467 Z M262,3395.0079 L240,3407 L240,3385.9921 L262,3374 L262,3395.0079 Z M237,3460 L259,3472.79861 L258.107246,3473.2946 L237,3485 L215.892754,3473.2946 L215,3472.79861 L237,3460 Z M265.823056,3469 L240,3454.48758 L240,3414.59933 L263.522353,3402 L296,3422.73544 L296,3448.15308 L265.823056,3469 Z M303,3356.00664 L303,3335 L325,3346.99928 L325,3368 L303,3356.00664 Z M354,3356.00521 L332,3368 L332,3346.99677 L354,3335 L354,3356.00521 Z M328,3408 L350,3420.79861 L349.107246,3421.2946 L328,3433 L306.892754,3421.2946 L306,3420.79861 L328,3408 Z M303,3427 L325,3438.9912 L325,3460 L303,3448.00485 L303,3427 Z M332,3438.9912 L354,3427 L354,3448.00485 L332,3460 L332,3438.9912 Z M360,3422.73895 L392.477647,3402 L416,3414.6038 L416,3454.4893 L390.176944,3469 L360,3448.15357 L360,3422.73895 Z M417,3385.9921 L417,3407 L395,3395.0079 L395,3374 L417,3385.9921 Z M395,3501.00862 L395,3480 L417,3491.99336 L417,3513 L395,3501.00862 Z M440.109239,3473.2946 L419.001993,3485 L397.892754,3473.2946 L397,3472.79861 L419,3460 L441,3472.79861 L440.109239,3473.2946 Z M419.000996,3355 L441,3367.79861 L440.107287,3368.2946 L419.000996,3380 L397.892713,3368.2946 L397,3367.79861 L419.000996,3355 Z M388,3398.01431 L357.946282,3417 L332,3402.5785 L332,3376.59425 L355.766041,3364 L387.874489,3383.51422 L387.874489,3397.13016 C387.876514,3397.4293 387.918519,3397.72647 388,3398.01431 Z M328,3316 L350,3328.80063 L328.96458,3340.46554 L328,3341 L327.03542,3340.46554 L306,3328.79861 L328,3316 Z M301.233959,3364 L325,3376.59565 L325,3402.57689 L299.053718,3417 L269,3398.0122 C269.080468,3397.72383 269.121968,3397.42663 269.123486,3397.12795 L269.123486,3383.51049 L301.233959,3364 Z M237,3355 L259,3367.79861 L258.107246,3368.2946 L237,3380 L215.892754,3368.2946 L215,3367.79861 L237,3355 Z M212,3374 L234,3385.99408 L234,3407 L212,3395.0079 L212,3374 Z M212,3480 L234,3491.99336 L234,3513 L212,3501.00664 L212,3480 Z M240,3491.99408 L262,3480 L262,3501.0079 L240,3513 L240,3491.99408 Z M269,3503.57861 C269.126358,3503.22696 269.194592,3502.85731 269.202173,3502.48415 L269.202173,3474.91269 L299.206722,3454 L325,3467.93379 L325,3495.87741 L297.201162,3511.62795 L297.178923,3511.64396 L297.152641,3511.65397 C296.998989,3511.75551 296.853424,3511.86855 296.717968,3511.99211 C296.62699,3512.06614 296.515795,3512.12616 296.440991,3512.2082 C296.303007,3512.35826 296.178671,3512.51932 296.068992,3512.6904 C296.010361,3512.77443 295.935557,3512.84446 295.885014,3512.9325 C295.733889,3513.19511 295.61764,3513.47532 295.539297,3513.76699 C295.510993,3513.86904 295.515037,3513.97908 295.496841,3514.08312 C295.454385,3514.2747 295.428608,3514.46949 295.420015,3514.66537 L295.420015,3521 L269,3503.57861 Z M303,3526.86661 L303,3520 L325,3531.99336 L325,3553 L303,3541.00862 L303,3526.86661 Z M332,3553 L332,3531.99408 L354,3520 L354,3541.00987 L332,3553 Z M361.564652,3514.66356 C361.55505,3514.47103 361.529781,3514.27961 361.487835,3514.09133 C361.469641,3513.98329 361.473684,3513.86925 361.445383,3513.76321 C361.367049,3513.4715 361.250812,3513.19084 361.099704,3512.92874 C361.049166,3512.8387 360.972349,3512.76667 360.911703,3512.68264 C360.803047,3512.51408 360.68024,3512.35451 360.543787,3512.20646 C360.460905,3512.12242 360.355787,3512.0644 360.264818,3511.98837 C360.129882,3511.86533 359.985344,3511.75278 359.832214,3511.65224 L359.805935,3511.64224 L359.783698,3511.62623 L332,3495.87616 L332,3467.93338 L357.790484,3454 L387.797849,3474.91207 L387.797849,3502.48471 C387.805429,3502.85785 387.873655,3503.22749 388,3503.57913 L361.570717,3521 L361.564652,3514.66356 Z M423,3513 L423,3491.99408 L445,3480 L445,3501.00987 L423,3513 Z M423,3407 L423,3385.99282 L445,3374 L445,3395.00916 L423,3407 Z" id="Fill-1"></path>
        </g>
    </g>
</svg>