<?xml version="1.0" encoding="UTF-8"?>
<svg width="96px" height="95px" viewBox="0 0 96 95" version="1.1" xmlns="http://www.w3.org/2000/svg" xmlns:xlink="http://www.w3.org/1999/xlink">
    <!-- Generator: Sketch 58 (84663) - https://sketch.com -->
    <title>SSUT_Logo</title>
    <desc>Created with Sketch.</desc>
    <g id="Page-1" stroke="none" stroke-width="1" fill="none" fill-rule="evenodd">
        <g id="Landing-page" transform="translate(-730.000000, -1066.000000)">
            <g id="SSUT_Logo" transform="translate(730.000000, 1066.000000)">
                <polygon id="Fill-1" fill="#E28E45" points="32 40 15.9477734 31 0 40 16.0522266 49"></polygon>
                <polygon id="Fill-2" fill="#E28E45" points="96 40 79.9440429 31 64 40 80.0522266 49"></polygon>
                <polygon id="Fill-3" fill="#E28E45" points="29 58 46.5571229 70 64 58 46.4428771 46"></polygon>
                <polygon id="Fill-4" fill="#F4C75E" points="32 95 48.9445092 85.3034056 49 66 32.0554908 75.700498"></polygon>
                <polygon id="Fill-5" fill="#F4C75E" points="62 38 78.9405594 28.3008075 79 9 62.0594406 18.6991925"></polygon>
                <polygon id="Fill-6" fill="#F4C75E" points="49 28 32.0554908 37.6965944 32 57 48.9445092 47.299502"></polygon>
                <polygon id="Fill-7" fill="#8C3C3F" points="47 85.3021002 63.9487952 95 64 75.6978998 47.0551437 66"></polygon>
                <polygon id="Fill-8" fill="#8C3C3F" points="17 28.3021002 33.948807 38 34 18.6978998 17.0590688 9"></polygon>
                <polygon id="Fill-9" fill="#8C3C3F" points="64 37.6978998 47.0512048 28 47 47.3021002 63.9448563 57"></polygon>
                <polygon id="Fill-10" fill="#E28E45" points="64.2234185 20 79.8973404 10.0020125 64.1244253 0 48.4505034 10.0020125 32.6739219 0 17 10.0020125 32.7765815 20 17.0989932 29.9979875 32.8719083 40 48.5494966 29.9979875 64.3224117 40 80 29.9979875"></polygon>
                <polygon id="Fill-11" fill="#8C3C3F" points="33.3501006 57.3085807 33.4042718 38.4666821 16.7582418 29 16.7040706 47.8457097 0.058040551 38.3752165 0 57.2209262 16.6537688 66.6876083 16.5957282 85.5295069 33.2417582 95 33.2959294 76.1504793 49.9458288 85.6209724 50 66.7752627"></polygon>
                <polygon id="Fill-12" fill="#F4C75E" points="79.6857521 47.8429867 79.7391914 29 63.4211264 38.4672287 63.3715042 57.3102154 47.0496222 66.7812554 47 85.6242421 63.318065 76.1570133 63.2608086 95 79.5788736 85.5365825 79.6284958 66.6897846 95.9503778 57.2225559 96 38.3757579"></polygon>
            </g>
        </g>
    </g>
</svg>