<?xml version="1.0" encoding="UTF-8"?>
<svg width="95px" height="91px" viewBox="0 0 95 91" version="1.1" xmlns="http://www.w3.org/2000/svg" xmlns:xlink="http://www.w3.org/1999/xlink">
    <!-- Generator: Sketch 53.2 (72643) - https://sketchapp.com -->
    <title>Group 2</title>
    <desc>Created with Sketch.</desc>
    <g id="Page-1" stroke="none" stroke-width="1" fill="none" fill-rule="evenodd">
        <g id="Landing-page" transform="translate(-778.000000, -948.000000)">
            <g id="Group-2" transform="translate(778.000000, 948.000000)">
                <polygon id="Fill-2" fill="#E28E45" points="31.6310974 36.4538749 15.8137108 27.3229456 0.0992492308 36.4538749 15.9166359 45.5848041"></polygon>
                <polygon id="Fill-3" fill="#E28E45" points="94.6323036 36.4428472 78.811241 27.3119179 63.1004554 36.4428472 78.9178421 45.5737764"></polygon>
                <polygon id="Fill-4" fill="#E28E45" points="31.6862359 54.7010297 47.5036226 63.831959 63.2180841 54.7010297 47.4006974 45.5701005"></polygon>
                <polygon id="Fill-5" fill="#F4C75E" points="31.575959 91.0483036 47.2904205 81.9173744 47.3418831 63.7400615 31.6274215 72.8746667"></polygon>
                <polygon id="Fill-6" fill="#F4C75E" points="63.1078072 36.4354954 78.8222687 27.3008903 78.8774072 9.12357744 63.1629456 18.2581826"></polygon>
                <polygon id="Fill-7" fill="#F4C75E" points="47.4484841 27.3964636 31.7340226 36.5273928 31.68256 54.7047056 47.3970215 45.5701005"></polygon>
                <polygon id="Fill-8" fill="#8C3C3F" points="47.2940964 81.9210503 63.1114831 91.0519795 63.1592697 72.8783426 47.345559 63.7474133"></polygon>
                <polygon id="Fill-9" fill="#8C3C3F" points="15.7622482 27.3082421 31.5833108 36.4391713 31.6310974 18.2655344 15.8173867 9.13460513"></polygon>
                <polygon id="Fill-10" fill="#8C3C3F" points="63.2621949 36.5310687 47.4448082 27.4001395 47.3970215 45.5737764 63.2107323 54.7047056"></polygon>
                <polygon id="Fill-11" fill="#E28E45" points="63.1592697 18.2655344 78.8737313 9.13460513 63.0600205 4.17443857e-14 47.345559 9.13460513 31.5281723 4.17443857e-14 15.8137108 9.13460513 31.6310974 18.2655344 15.91296 27.3964636 31.7266708 36.5310687 47.4448082 27.3964636 63.258519 36.5310687 78.9766564 27.3964636"></polygon>
                <polygon id="Fill-12" fill="#8C3C3F" points="31.68256 54.7010297 31.7340226 36.5273928 15.9203118 27.3964636 15.8688492 45.5737764 0.0551384615 36.4391713 -3.01980663e-14 54.6164841 15.8210626 63.7474133 15.7659241 81.9210503 31.5796349 91.0556554 31.6310974 72.8746667 47.4484841 82.0092718 47.4999467 63.831959"></polygon>
                <polygon id="Fill-13" fill="#F4C75E" points="78.9251938 45.5701005 78.9766564 27.3964636 63.2621949 36.5273928 63.2144082 54.7010297 47.4962708 63.8356349 47.4484841 82.0092718 63.1629456 72.8783426 63.1078072 91.0519795 78.8222687 81.9247262 78.8700554 63.7474133 94.5881928 54.6164841 94.6359795 36.4391713"></polygon>
            </g>
        </g>
    </g>
</svg>