<?xml version="1.0" encoding="UTF-8"?>
<svg width="112px" height="41px" viewBox="0 0 112 41" version="1.1" xmlns="http://www.w3.org/2000/svg" xmlns:xlink="http://www.w3.org/1999/xlink">
    <!-- Generator: Sketch 58 (84663) - https://sketch.com -->
    <title>SSUT - lOGO</title>
    <desc>Created with Sketch.</desc>
    <g id="Page-1" stroke="none" stroke-width="1" fill="none" fill-rule="evenodd">
        <g id="Landing-page" transform="translate(-170.000000, -78.000000)">
            <g id="Banner" transform="translate(146.000000, 55.000000)">
                <g id="SSUT---lOGO" transform="translate(24.000000, 23.000000)">
                    <polygon id="Fill-1" fill="#343534" points="44.85 0 45.85 0 45.85 41 44.85 41"></polygon>
                    <polyline id="Fill-3" fill="#D78749" points="12.85 15.4999101 6.83059451 12 0.85 15.4999101 6.86976832 19 12.85 15.4999101"></polyline>
                    <polyline id="Fill-4" fill="#D78749" points="38.85 15.4998956 32.8302288 12 26.85 15.5000812 32.8694026 19 38.85 15.4998956"></polyline>
                    <polyline id="Fill-5" fill="#D78749" points="13.85 23.5000899 19.8694026 27 25.85 23.4999101 19.8304131 20 13.85 23.5000899"></polyline>
                    <polyline id="Fill-6" fill="#EEC360" points="12.85 38 19.8270414 34.3213305 19.85 27 12.8729586 30.6786695 12.85 38"></polyline>
                    <polyline id="Fill-7" fill="#EEC360" points="25.85 16 32.8270414 12.3212836 32.85 5 25.8729586 8.67856401 25.85 16"></polyline>
                    <polyline id="Fill-8" fill="#EEC360" points="19.85 12 12.8727442 15.6786593 12.85 23 19.8270407 19.3213224 19.85 12"></polyline>
                    <polyline id="Fill-9" fill="#793839" points="19.85 34.3212633 26.8271904 38 26.85 30.6785417 19.872596 27 19.85 34.3212633"></polyline>
                    <polyline id="Fill-10" fill="#793839" points="6.85 12.3214746 13.8274033 16 13.85 8.67850712 6.87281031 5 6.85 12.3214746"></polyline>
                    <polyline id="Fill-11" fill="#793839" points="26.85 15.6786837 19.8728103 12 19.85 19.3213346 26.8274033 23 26.85 15.6786837"></polyline>
                    <polyline id="Fill-12" fill="#D78749" points="26.5895238 9.49928221 32.809443 5.74917501 26.5506979 2 20.3307787 5.75016935 14.0701109 2 7.85 5.75035579 14.1106678 9.50052514 7.89093435 13.2508188 14.1496855 17 20.3696046 13.249638 26.6302665 17 32.85 13.249638 26.5895238 9.49928221"></polyline>
                    <polyline id="Fill-13" fill="#793839" points="13.523047 23.7234895 13.5435378 16.5855135 7.21832209 13 7.19763756 20.1379878 0.870684527 16.5515412 0.85 23.6897014 7.17714674 27.2763382 7.15646221 34.4143141 13.4816779 38 13.5021687 30.8618398 19.8295092 34.4482865 19.85 27.3101263 13.523047 23.7234895"></polyline>
                    <polyline id="Fill-14" fill="#EEC360" points="32.5229587 20.1379708 32.5435834 13 26.2182907 16.5854932 26.197666 23.7236661 19.8706247 27.3101161 19.85 34.4484733 26.1770413 30.861833 26.1562217 38 32.4815143 34.4143107 32.502139 27.276328 38.8293753 23.6896878 38.85 16.5513306 32.5229587 20.1379708"></polyline>
                    <path d="M61.028585,28.9684347 L61.028585,27.1588623 L53.85,27.1588623 L53.85,28.9684347 L56.4679294,28.9684347 L56.4679294,36.8152031 L58.4225556,36.8152031 L58.4225556,28.9684347 L61.028585,28.9684347 Z M63.9047433,28.9684347 L68.7724176,28.9684347 L68.7724176,27.1588623 L61.9624335,27.1588623 L61.9624335,36.8152031 L68.7724176,36.8152031 L68.7724176,35.0054325 L63.9047433,35.0054325 L63.9047433,32.9445002 L68.2071105,32.9445002 L68.2071105,31.1218646 L63.9047433,31.1218646 L63.9047433,28.9684347 Z M78.6797205,34.3315928 L76.8731297,33.5789327 C76.3319795,34.4240904 75.4102094,35.1112043 74.4146001,35.1112043 C72.8167939,35.1112043 71.5256494,33.6448882 71.5256494,31.9933661 C71.5256494,30.3422532 72.8167939,28.889205 74.4146001,28.889205 C75.4102094,28.889205 76.3319795,29.5626354 76.8731297,30.3951391 L78.6797205,29.6424789 C77.8195326,28.0701801 76.2213694,27 74.4146001,27 C71.7474049,27 69.5716182,29.2459338 69.5716182,31.9933661 C69.5716182,34.75468 71.7474049,37 74.4146001,37 C76.2213694,37 77.8195326,35.9300245 78.6797205,34.3315928 L78.6797205,34.3315928 Z M87.85,27.1588623 L85.9198877,27.1588623 L85.9198877,31.2539802 L81.7037356,31.2539802 L81.7037356,27.1588623 L79.7738018,27.1588623 L79.7738018,36.8152031 L81.7037356,36.8152031 L81.7037356,33.0635462 L85.9198877,33.0635462 L85.9198877,36.8152031 L87.85,36.8152031 L87.85,27.1588623 L87.85,27.1588623 Z" id="Fill-15" fill="#343534"></path>
                    <path d="M54.9072346,21.9402604 L53.85,23.5156195 C54.7059117,24.2709918 56.0147237,25 58.0033432,25 C60.1799452,25 61.6653488,24.0236318 61.6653488,22.0443171 C61.6653488,19.4923817 59.2866929,19.2969492 57.7889845,18.9716885 C56.9587789,18.7891386 55.9643473,18.6327448 55.9643473,17.9558657 C55.9643473,17.2004935 56.9712054,17.0183407 57.5499555,17.0183407 C58.4433906,17.0183407 59.3623489,17.4088086 60.1548484,17.9949169 L61.2625203,16.4326357 C60.2556012,15.6641792 59.236682,15.1565577 57.6254287,15.1565577 C56.0022362,15.1565577 53.9760324,15.7684376 53.9760324,18.0341635 C53.9760324,20.3127657 56.4675632,20.7553691 57.6254287,20.9505999 C58.6950899,21.1458369 59.6767293,21.3414711 59.6767293,22.0964463 C59.6767293,22.6304191 59.0726997,23.1511123 57.9780636,23.1511123 C56.920829,23.1511123 55.5743108,22.512881 54.9072346,21.9402604 L54.9072346,21.9402604 Z M69.2786437,17.0833525 L69.2786437,15.2998736 L61.9291701,15.2998736 L61.9291701,17.0833525 L64.6099627,17.0833525 L64.6099627,24.8178535 L66.6106433,24.8178535 L66.6106433,17.0833525 L69.2786437,17.0833525 Z M67.969649,24.8178535 L70.1594695,24.8178535 L70.8644347,23.3594273 L75.1557495,23.3594273 L75.8855679,24.8178535 L78.0623526,24.8178535 L73.015879,15 L67.969649,24.8178535 Z M71.8456478,21.6019217 L73.015879,19.1147964 L74.1990241,21.6019217 L71.8456478,21.6019217 Z M80.5795894,24.8178535 L80.5795894,21.84908 L81.9388997,21.84908 C82.6938758,22.8908697 83.3858052,23.841479 84.1412077,24.8178535 L86.5194981,24.8178535 C85.7769486,23.8020307 84.9337072,22.6565877 84.1412077,21.6278823 C85.2863421,21.11987 86.0160386,19.9869063 86.0160386,18.6067842 C86.0160386,16.6538334 84.6695204,15.2998736 82.6938758,15.2998736 L78.603762,15.2998736 L78.603762,24.8178535 L80.5795894,24.8178535 Z M80.5795894,20.0654057 L80.5795894,17.0833525 L82.6938758,17.0833525 C83.8639852,17.0833525 84.040394,18.1120579 84.040394,18.6067842 C84.040394,19.5964384 83.310332,20.0654057 82.6938758,20.0654057 L80.5795894,20.0654057 Z M94.1457679,17.0833525 L94.1457679,15.2998736 L86.7962943,15.2998736 L86.7962943,17.0833525 L89.4769041,17.0833525 L89.4769041,24.8178535 L91.4780111,24.8178535 L91.4780111,17.0833525 L94.1457679,17.0833525 Z M99.2153891,24.986922 C101.707103,24.986922 103.318173,23.3984785 103.318173,20.9636841 L103.318173,15.3127562 L101.329493,15.3127562 L101.329493,20.9636841 C101.329493,22.7606444 99.9958276,23.2163257 99.2153891,23.2163257 C98.4100366,23.2163257 97.0757623,22.7606444 97.0757623,20.9636841 L97.0757623,15.3127562 L95.087691,15.3127562 L95.087691,20.9636841 C95.087691,23.3984785 96.7110054,24.986922 99.2153891,24.986922 L99.2153891,24.986922 Z M108.137618,15.2998736 L104.399956,15.2998736 L104.399956,24.8178535 L106.388637,24.8178535 L106.388637,22.0443171 L108.125191,22.0443171 C110.591808,22.0443171 111.85,20.5860989 111.85,18.7108409 C111.85,16.8231036 110.453288,15.2998736 108.137618,15.2998736 L108.137618,15.2998736 Z M108.414414,20.2608382 L106.388637,20.2608382 L106.388637,17.0833525 L108.213091,17.0833525 C109.282813,17.0833525 109.849259,17.9039382 109.849259,18.7108409 C109.849259,19.4923817 109.408663,20.2608382 108.414414,20.2608382 L108.414414,20.2608382 Z" id="Fill-16" fill="#343534"></path>
                    <path d="M54.904528,9.80385491 L53.85,11.36316 C54.7037205,12.1108131 56.009182,12.8322677 57.9927106,12.8322677 C60.1637406,12.8322677 61.6453415,11.8659826 61.6453415,9.90702679 C61.6453415,7.38118704 59.272775,7.18800487 57.7789007,6.86588903 C56.9508204,6.6851823 55.9589346,6.53061161 55.9589346,5.86074291 C55.9589346,5.11308985 56.9632152,4.93263263 57.5404836,4.93263263 C58.4316315,4.93263263 59.3482373,5.31930886 60.138708,5.8993544 L61.2435442,4.35296136 C60.2392029,3.59264573 59.2228921,3.09007267 57.6157636,3.09007267 C55.9967265,3.09007267 53.9757098,3.69563048 53.9757098,5.93802826 C53.9757098,8.19315098 56.4608622,8.63116365 57.6157636,8.8244082 C58.6826864,9.01783988 59.6618129,9.21145869 59.6618129,9.95861273 C59.6618129,10.4871347 59.0593296,11.0024327 57.9674958,11.0024327 C56.9129677,11.0024327 55.5698966,10.3708012 54.904528,9.80385491 L54.904528,9.80385491 Z M74.4610532,3.24483049 L72.3521794,3.24483049 L70.5447902,8.12877772 L68.1347355,3 L65.7246808,8.12877772 L63.9545368,3.24483049 L61.8209342,3.24483049 L65.4863852,13 L68.1347355,7.40707357 L70.7581748,13 L74.4610532,3.24483049 Z M75.6279848,12.6521848 L77.6113311,12.6521848 L77.6113311,3.23185603 L75.6279848,3.23185603 L75.6279848,12.6521848 Z M80.2348312,9.80385491 L79.1804854,11.36316 C80.0340236,12.1108131 81.3394244,12.8322677 83.3230137,12.8322677 C85.4940437,12.8322677 86.9756447,11.8659826 86.9756447,9.90702679 C86.9756447,7.38118704 84.6032604,7.18800487 83.1095684,6.86588903 C82.2808805,6.6851823 81.2891769,6.53061161 81.2891769,5.86074291 C81.2891769,5.11308985 82.2935183,4.93263263 82.870726,4.93263263 C83.7621169,4.93263263 84.6785404,5.31930886 85.4690111,5.8993544 L86.5736043,4.35296136 C85.5698706,3.59264573 84.5529521,3.09007267 82.946006,3.09007267 C81.3268473,3.09007267 79.3058306,3.69563048 79.3058306,5.93802826 C79.3058306,8.19315098 81.7911653,8.63116365 82.946006,8.8244082 C84.0129896,9.01783988 84.9922376,9.21145869 84.9922376,9.95861273 C84.9922376,10.4871347 84.3899973,11.0024327 83.2977989,11.0024327 C82.2432708,11.0024327 80.9001389,10.3708012 80.2348312,9.80385491 L80.2348312,9.80385491 Z M89.1091865,9.80385491 L88.0546585,11.36316 C88.9085613,12.1108131 90.2138405,12.8322677 92.1971868,12.8322677 C94.368399,12.8322677 95.85,11.8659826 95.85,9.90702679 C95.85,7.38118704 93.4774334,7.18800487 91.9835592,6.86588903 C91.1554788,6.6851823 90.163593,6.53061161 90.163593,5.86074291 C90.163593,5.11308985 91.1678736,4.93263263 91.7450813,4.93263263 C92.6364722,4.93263263 93.5528957,5.31930886 94.3433665,5.8993544 L95.4482027,4.35296136 C94.4438613,3.59264573 93.4273683,3.09007267 91.8203613,3.09007267 C90.2013849,3.09007267 88.1803682,3.69563048 88.1803682,5.93802826 C88.1803682,8.19315098 90.6655207,8.63116365 91.8203613,8.8244082 C92.8873449,9.01783988 93.8664714,9.21145869 93.8664714,9.95861273 C93.8664714,10.4871347 93.2638058,11.0024327 92.1721542,11.0024327 C91.1176262,11.0024327 89.7747373,10.3708012 89.1091865,9.80385491 L89.1091865,9.80385491 Z" id="Fill-17" fill="#343534"></path>
                </g>
            </g>
        </g>
    </g>
</svg>