<?xml version="1.0" encoding="UTF-8"?>
<svg width="112px" height="43px" viewBox="0 0 112 43" version="1.1" xmlns="http://www.w3.org/2000/svg" xmlns:xlink="http://www.w3.org/1999/xlink">
    <!-- Generator: Sketch 53.2 (72643) - https://sketchapp.com -->
    <title>Group 17</title>
    <desc>Created with Sketch.</desc>
    <g id="Page-1" stroke="none" stroke-width="1" fill="none" fill-rule="evenodd">
        <g id="Services" transform="translate(-134.000000, -633.000000)">
            <g id="Group-17" transform="translate(134.000000, 633.000000)">
                <polygon id="Fill-1" fill="#3D3D3C" points="44.8686933 42.4450133 45.70496 42.4450133 45.70496 -3.55271368e-15 44.8686933 -3.55271368e-15"></polygon>
                <polygon id="Fill-2" fill="#E28E45" points="12.8501333 17.4167467 6.42432 13.7073067 0.04032 17.4167467 6.46613333 21.1261867"></polygon>
                <polygon id="Fill-3" fill="#E28E45" points="38.4443733 17.4122667 32.0170667 13.7028267 25.63456 17.4122667 32.0603733 21.1217067"></polygon>
                <polygon id="Fill-4" fill="#E28E45" points="12.8725333 24.8296533 19.2983467 28.5390933 25.6823467 24.8296533 19.2565333 21.1202133"></polygon>
                <polygon id="Fill-5" fill="#F4C75E" points="12.8277333 39.5957333 19.2117333 35.8862933 19.23264 28.50176 12.84864 32.2126933"></polygon>
                <polygon id="Fill-6" fill="#F4C75E" points="25.6375467 17.40928 32.0215467 13.6983467 32.0439467 6.31381333 25.6599467 10.0247467"></polygon>
                <polygon id="Fill-7" fill="#F4C75E" points="19.2759467 13.7371733 12.8919467 17.4466133 12.87104 24.8311467 19.25504 21.1202133"></polygon>
                <polygon id="Fill-8" fill="#8C3C3F" points="19.2132267 35.8877867 25.63904 39.5972267 25.6584533 32.2141867 19.2341333 28.5047467"></polygon>
                <polygon id="Fill-9" fill="#8C3C3F" points="6.40341333 13.7013333 12.83072 17.4107733 12.8501333 10.0277333 6.42581333 6.31829333"></polygon>
                <polygon id="Fill-10" fill="#8C3C3F" points="25.7002667 17.4481067 19.2744533 13.7386667 19.25504 21.1217067 25.67936 24.8311467"></polygon>
                <polygon id="Fill-11" fill="#E28E45" points="25.6584533 10.0277333 32.0424533 6.31829333 25.6181333 2.60736 19.2341333 6.31829333 12.80832 2.60736 6.42432 6.31829333 12.8501333 10.0277333 6.46464 13.7371733 12.88896 17.4481067 19.2744533 13.7371733 25.6987733 17.4481067 32.0842667 13.7371733"></polygon>
                <polygon id="Fill-12" fill="#8C3C3F" points="12.87104 24.8296533 12.8919467 17.4466133 6.46762667 13.7371733 6.44672 21.1217067 0.0224 17.4107733 0 24.7953067 6.42730667 28.5047467 6.40490667 35.8877867 12.8292267 39.59872 12.8501333 32.2126933 19.2759467 35.9236267 19.2968533 28.5390933"></polygon>
                <polygon id="Fill-13" fill="#F4C75E" points="32.06336 21.1202133 32.0842667 13.7371733 25.7002667 17.4466133 25.6808533 24.8296533 19.29536 28.5405867 19.2759467 35.9236267 25.6599467 32.2141867 25.6375467 39.5972267 32.0215467 35.88928 32.04096 28.5047467 38.4264533 24.7953067 38.4458667 17.4107733"></polygon>
                <path d="M60.07232,30.9194667 L60.07232,29.1797333 L52.6549333,29.1797333 L52.6549333,30.9194667 L55.3608533,30.9194667 L55.3608533,38.46528 L57.37984,38.46528 L57.37984,30.9194667 L60.07232,30.9194667 Z M63.0440533,30.9194667 L68.0736,30.9194667 L68.0736,29.1797333 L61.0370133,29.1797333 L61.0370133,38.46528 L68.0736,38.46528 L68.0736,36.7255467 L63.0440533,36.7255467 L63.0440533,34.7438933 L67.4897067,34.7438933 L67.4897067,32.99072 L63.0440533,32.99072 L63.0440533,30.9194667 Z M78.3118933,36.0759467 L76.4452267,35.3531733 C75.8852267,36.1655467 74.93248,36.8256 73.9050667,36.8256 C72.25344,36.8256 70.9198933,35.4158933 70.9198933,33.82848 C70.9198933,32.2410667 72.25344,30.8433067 73.9050667,30.8433067 C74.93248,30.8433067 75.8852267,31.4914133 76.4452267,32.29184 L78.3118933,31.5690667 C77.4218667,30.05632 75.7717333,29.02592 73.9050667,29.02592 C71.1483733,29.02592 68.8994133,31.1867733 68.8994133,33.82848 C68.8994133,36.4836267 71.1483733,38.6414933 73.9050667,38.6414933 C75.7717333,38.6414933 77.4218667,37.6125867 78.3118933,36.0759467 Z M87.7870933,29.1797333 L85.7934933,29.1797333 L85.7934933,33.1176533 L81.4359467,33.1176533 L81.4359467,29.1797333 L79.4423467,29.1797333 L79.4423467,38.46528 L81.4359467,38.46528 L81.4359467,34.8573867 L85.7934933,34.8573867 L85.7934933,38.46528 L87.7870933,38.46528 L87.7870933,29.1797333 Z" id="Fill-14" fill="#3D3D3C"></path>
                <path d="M53.7346133,22.95552 L52.66688,24.49216 C53.53152,25.2283733 54.85312,25.9406933 56.86016,25.9406933 C59.05536,25.9406933 60.5546667,24.9879467 60.5546667,23.0570667 C60.5546667,20.56768 58.15488,20.3765333 56.6421333,20.06144 C55.8058667,19.88224 54.8023467,19.72992 54.8023467,19.0683733 C54.8023467,18.33216 55.8193067,18.1544533 56.4017067,18.1544533 C57.30368,18.1544533 58.23104,18.5352533 59.0314667,19.1072 L60.14848,17.5825067 C59.13152,16.8328533 58.1041067,16.33856 56.4778667,16.33856 C54.83968,16.33856 52.7953067,16.9358933 52.7953067,19.1460267 C52.7953067,21.3696 55.31008,21.8011733 56.4778667,21.9908267 C57.55904,22.18048 58.54912,22.3716267 58.54912,23.1093333 C58.54912,23.6290133 57.9383467,24.1367467 56.83328,24.1367467 C55.76704,24.1367467 54.4081067,23.5140267 53.7346133,22.95552 Z M68.23936,18.2186667 L68.23936,16.4789333 L60.8219733,16.4789333 L60.8219733,18.2186667 L63.5278933,18.2186667 L63.5278933,25.7629867 L65.54688,25.7629867 L65.54688,18.2186667 L68.23936,18.2186667 Z M66.91776,25.7629867 L69.1293867,25.7629867 L69.8402133,24.3413333 L74.17088,24.3413333 L74.9085867,25.7629867 L77.1037867,25.7629867 L72.01152,16.1892267 L66.91776,25.7629867 Z M70.8302933,22.6254933 L72.01152,20.1988267 L73.2046933,22.6254933 L70.8302933,22.6254933 Z M79.64544,25.7629867 L79.64544,22.86592 L81.0178133,22.86592 C81.7794133,23.88288 82.4782933,24.81024 83.2398933,25.7629867 L85.63968,25.7629867 C84.8900267,24.7729067 84.04032,23.6544 83.2398933,22.65088 C84.3957333,22.1565867 85.1319467,21.05152 85.1319467,19.7045333 C85.1319467,17.79904 83.7730133,16.4789333 81.7794133,16.4789333 L77.65184,16.4789333 L77.65184,25.7629867 L79.64544,25.7629867 Z M79.64544,21.1261867 L79.64544,18.2186667 L81.7794133,18.2186667 C82.9591467,18.2186667 83.1383467,19.2221867 83.1383467,19.7045333 C83.1383467,20.67072 82.40064,21.1261867 81.7794133,21.1261867 L79.64544,21.1261867 Z M93.3378133,18.2186667 L93.3378133,16.4789333 L85.9204267,16.4789333 L85.9204267,18.2186667 L88.6248533,18.2186667 L88.6248533,25.7629867 L90.6453333,25.7629867 L90.6453333,18.2186667 L93.3378133,18.2186667 Z M98.4539733,25.9272533 C100.968747,25.9272533 102.594987,24.3786667 102.594987,22.0027733 L102.594987,16.49088 L100.587947,16.49088 L100.587947,22.0027733 C100.587947,23.7559467 99.2424533,24.20096 98.4539733,24.20096 C97.6401067,24.20096 96.2946133,23.7559467 96.2946133,22.0027733 L96.2946133,16.49088 L94.2875733,16.49088 L94.2875733,22.0027733 C94.2875733,24.3786667 95.9272533,25.9272533 98.4539733,25.9272533 Z M107.460267,16.4789333 L103.686613,16.4789333 L103.686613,25.7629867 L105.693653,25.7629867 L105.693653,23.0570667 L107.446827,23.0570667 C109.936213,23.0570667 111.205547,21.6354133 111.205547,19.80608 C111.205547,17.9648 109.79584,16.4789333 107.460267,16.4789333 Z M107.738027,21.3173333 L105.693653,21.3173333 L105.693653,18.2186667 L107.534933,18.2186667 C108.614613,18.2186667 109.18656,19.0176 109.18656,19.80608 C109.18656,20.56768 108.741547,21.3173333 107.738027,21.3173333 Z" id="Fill-15" fill="#3D3D3C"></path>
                <path d="M53.7346133,10.25472 L52.66688,11.79136 C53.53152,12.5275733 54.85312,13.2384 56.86016,13.2384 C59.05536,13.2384 60.5546667,12.2856533 60.5546667,10.3562667 C60.5546667,7.86538667 58.15488,7.67573333 56.6421333,7.35914667 C55.8058667,7.17994667 54.8023467,7.02912 54.8023467,6.36757333 C54.8023467,5.63136 55.8193067,5.45365333 56.4017067,5.45365333 C57.30368,5.45365333 58.23104,5.83445333 59.0314667,6.4064 L60.14848,4.88170667 C59.13152,4.13205333 58.1041067,3.63626667 56.4778667,3.63626667 C54.83968,3.63626667 52.7953067,4.23509333 52.7953067,6.44373333 C52.7953067,8.66730667 55.31008,9.09888 56.4778667,9.29002667 C57.55904,9.47818667 58.54912,9.66933333 58.54912,10.40704 C58.54912,10.9282133 57.9383467,11.4359467 56.83328,11.4359467 C55.76704,11.4359467 54.4081067,10.8132267 53.7346133,10.25472 Z M73.5227733,3.79008 L71.3888,3.79008 L69.56096,8.60458667 L67.1223467,3.54816 L64.6837333,8.60458667 L62.8917333,3.79008 L60.7338667,3.79008 L64.4418133,13.40416 L67.1223467,7.89226667 L69.776,13.40416 L73.5227733,3.79008 Z M74.704,13.0621867 L76.71104,13.0621867 L76.71104,3.77664 L74.704,3.77664 L74.704,13.0621867 Z M79.3661867,10.25472 L78.2984533,11.79136 C79.1616,12.5275733 80.4832,13.2384 82.49024,13.2384 C84.6884267,13.2384 86.18624,12.2856533 86.18624,10.3562667 C86.18624,7.86538667 83.7864533,7.67573333 82.2737067,7.35914667 C81.4359467,7.17994667 80.4324267,7.02912 80.4324267,6.36757333 C80.4324267,5.63136 81.4493867,5.45365333 82.03328,5.45365333 C82.9352533,5.45365333 83.8626133,5.83445333 84.6615467,6.4064 L85.7800533,4.88170667 C84.7630933,4.13205333 83.73568,3.63626667 82.10944,3.63626667 C80.46976,3.63626667 78.4253867,4.23509333 78.4253867,6.44373333 C78.4253867,8.66730667 80.94016,9.09888 82.10944,9.29002667 C83.18912,9.47818667 84.1806933,9.66933333 84.1806933,10.40704 C84.1806933,10.9282133 83.56992,11.4359467 82.4648533,11.4359467 C81.39712,11.4359467 80.0381867,10.8132267 79.3661867,10.25472 Z M88.3456,10.25472 L87.2778667,11.79136 C88.1425067,12.5275733 89.4641067,13.2384 91.4711467,13.2384 C93.6663467,13.2384 95.1656533,12.2856533 95.1656533,10.3562667 C95.1656533,7.86538667 92.7658667,7.67573333 91.25312,7.35914667 C90.41536,7.17994667 89.4133333,7.02912 89.4133333,6.36757333 C89.4133333,5.63136 90.4288,5.45365333 91.0126933,5.45365333 C91.9146667,5.45365333 92.8405333,5.83445333 93.6424533,6.4064 L94.7594667,4.88170667 C93.744,4.13205333 92.7150933,3.63626667 91.0888533,3.63626667 C89.4506667,3.63626667 87.4062933,4.23509333 87.4062933,6.44373333 C87.4062933,8.66730667 89.9195733,9.09888 91.0888533,9.29002667 C92.1685333,9.47818667 93.1586133,9.66933333 93.1586133,10.40704 C93.1586133,10.9282133 92.5493333,11.4359467 91.4442667,11.4359467 C90.3780267,11.4359467 89.0190933,10.8132267 88.3456,10.25472 Z" id="Fill-16" fill="#3D3D3C"></path>
            </g>
        </g>
    </g>
</svg>