<?xml version="1.0" encoding="UTF-8"?>
<svg width="894px" height="342px" viewBox="0 0 894 342" version="1.1" xmlns="http://www.w3.org/2000/svg" xmlns:xlink="http://www.w3.org/1999/xlink">
    <!-- Generator: Sketch 53.2 (72643) - https://sketchapp.com -->
    <title>Group 17</title>
    <desc>Created with Sketch.</desc>
    <g id="Page-1" stroke="none" stroke-width="1" fill="none" fill-rule="evenodd">
        <g id="Services" transform="translate(-134.000000, -633.000000)">
            <g id="Group-17" transform="translate(134.000000, 633.000000)">
                <polygon id="Fill-1" fill="#3D3D3C" points="360.552 341.076 367.272 341.076 367.272 -3.55271368e-15 360.552 -3.55271368e-15"></polygon>
                <polygon id="Fill-2" fill="#E28E45" points="103.26 139.956 51.624 110.148 0.324 139.956 51.96 169.764"></polygon>
                <polygon id="Fill-3" fill="#E28E45" points="308.928 139.92 257.28 110.112 205.992 139.92 257.628 169.728"></polygon>
                <polygon id="Fill-4" fill="#E28E45" points="103.44 199.524 155.076 229.332 206.376 199.524 154.74 169.716"></polygon>
                <polygon id="Fill-5" fill="#F4C75E" points="103.08 318.18 154.38 288.372 154.548 229.032 103.248 258.852"></polygon>
                <polygon id="Fill-6" fill="#F4C75E" points="206.016 139.896 257.316 110.076 257.496 50.736 206.196 80.556"></polygon>
                <polygon id="Fill-7" fill="#F4C75E" points="154.896 110.388 103.596 140.196 103.428 199.536 154.728 169.716"></polygon>
                <polygon id="Fill-8" fill="#8C3C3F" points="154.392 288.384 206.028 318.192 206.184 258.864 154.56 229.056"></polygon>
                <polygon id="Fill-9" fill="#8C3C3F" points="51.456 110.1 103.104 139.908 103.26 80.58 51.636 50.772"></polygon>
                <polygon id="Fill-10" fill="#8C3C3F" points="206.52 140.208 154.884 110.4 154.728 169.728 206.352 199.536"></polygon>
                <polygon id="Fill-11" fill="#E28E45" points="206.184 80.58 257.484 50.772 205.86 20.952 154.56 50.772 102.924 20.952 51.624 50.772 103.26 80.58 51.948 110.388 103.572 140.208 154.884 110.388 206.508 140.208 257.82 110.388"></polygon>
                <polygon id="Fill-12" fill="#8C3C3F" points="103.428 199.524 103.596 140.196 51.972 110.388 51.804 169.728 0.18 139.908 0 199.248 51.648 229.056 51.468 288.384 103.092 318.204 103.26 258.852 154.896 288.672 155.064 229.332"></polygon>
                <polygon id="Fill-13" fill="#F4C75E" points="257.652 169.716 257.82 110.388 206.52 140.196 206.364 199.524 155.052 229.344 154.896 288.672 206.196 258.864 206.016 318.192 257.316 288.396 257.472 229.056 308.784 199.248 308.94 139.908"></polygon>
                <path d="M482.724,248.46 L482.724,234.48 L423.12,234.48 L423.12,248.46 L444.864,248.46 L444.864,309.096 L461.088,309.096 L461.088,248.46 L482.724,248.46 Z M506.604,248.46 L547.02,248.46 L547.02,234.48 L490.476,234.48 L490.476,309.096 L547.02,309.096 L547.02,295.116 L506.604,295.116 L506.604,279.192 L542.328,279.192 L542.328,265.104 L506.604,265.104 L506.604,248.46 Z M629.292,289.896 L614.292,284.088 C609.792,290.616 602.136,295.92 593.88,295.92 C580.608,295.92 569.892,284.592 569.892,271.836 C569.892,259.08 580.608,247.848 593.88,247.848 C602.136,247.848 609.792,253.056 614.292,259.488 L629.292,253.68 C622.14,241.524 608.88,233.244 593.88,233.244 C571.728,233.244 553.656,250.608 553.656,271.836 C553.656,293.172 571.728,310.512 593.88,310.512 C608.88,310.512 622.14,302.244 629.292,289.896 Z M705.432,234.48 L689.412,234.48 L689.412,266.124 L654.396,266.124 L654.396,234.48 L638.376,234.48 L638.376,309.096 L654.396,309.096 L654.396,280.104 L689.412,280.104 L689.412,309.096 L705.432,309.096 L705.432,234.48 Z" id="Fill-14" fill="#3D3D3C"></path>
                <path d="M431.796,184.464 L423.216,196.812 C430.164,202.728 440.784,208.452 456.912,208.452 C474.552,208.452 486.6,200.796 486.6,185.28 C486.6,165.276 467.316,163.74 455.16,161.208 C448.44,159.768 440.376,158.544 440.376,153.228 C440.376,147.312 448.548,145.884 453.228,145.884 C460.476,145.884 467.928,148.944 474.36,153.54 L483.336,141.288 C475.164,135.264 466.908,131.292 453.84,131.292 C440.676,131.292 424.248,136.092 424.248,153.852 C424.248,171.72 444.456,175.188 453.84,176.712 C462.528,178.236 470.484,179.772 470.484,185.7 C470.484,189.876 465.576,193.956 456.696,193.956 C448.128,193.956 437.208,188.952 431.796,184.464 Z M548.352,146.4 L548.352,132.42 L488.748,132.42 L488.748,146.4 L510.492,146.4 L510.492,207.024 L526.716,207.024 L526.716,146.4 L548.352,146.4 Z M537.732,207.024 L555.504,207.024 L561.216,195.6 L596.016,195.6 L601.944,207.024 L619.584,207.024 L578.664,130.092 L537.732,207.024 Z M569.172,181.812 L578.664,162.312 L588.252,181.812 L569.172,181.812 Z M640.008,207.024 L640.008,183.744 L651.036,183.744 C657.156,191.916 662.772,199.368 668.892,207.024 L688.176,207.024 C682.152,199.068 675.324,190.08 668.892,182.016 C678.18,178.044 684.096,169.164 684.096,158.34 C684.096,143.028 673.176,132.42 657.156,132.42 L623.988,132.42 L623.988,207.024 L640.008,207.024 Z M640.008,169.764 L640.008,146.4 L657.156,146.4 C666.636,146.4 668.076,154.464 668.076,158.34 C668.076,166.104 662.148,169.764 657.156,169.764 L640.008,169.764 Z M750.036,146.4 L750.036,132.42 L690.432,132.42 L690.432,146.4 L712.164,146.4 L712.164,207.024 L728.4,207.024 L728.4,146.4 L750.036,146.4 Z M791.148,208.344 C811.356,208.344 824.424,195.9 824.424,176.808 L824.424,132.516 L808.296,132.516 L808.296,176.808 C808.296,190.896 797.484,194.472 791.148,194.472 C784.608,194.472 773.796,190.896 773.796,176.808 L773.796,132.516 L757.668,132.516 L757.668,176.808 C757.668,195.9 770.844,208.344 791.148,208.344 Z M863.52,132.42 L833.196,132.42 L833.196,207.024 L849.324,207.024 L849.324,185.28 L863.412,185.28 C883.416,185.28 893.616,173.856 893.616,159.156 C893.616,144.36 882.288,132.42 863.52,132.42 Z M865.752,171.3 L849.324,171.3 L849.324,146.4 L864.12,146.4 C872.796,146.4 877.392,152.82 877.392,159.156 C877.392,165.276 873.816,171.3 865.752,171.3 Z" id="Fill-15" fill="#3D3D3C"></path>
                <path d="M431.796,82.404 L423.216,94.752 C430.164,100.668 440.784,106.38 456.912,106.38 C474.552,106.38 486.6,98.724 486.6,83.22 C486.6,63.204 467.316,61.68 455.16,59.136 C448.44,57.696 440.376,56.484 440.376,51.168 C440.376,45.252 448.548,43.824 453.228,43.824 C460.476,43.824 467.928,46.884 474.36,51.48 L483.336,39.228 C475.164,33.204 466.908,29.22 453.84,29.22 C440.676,29.22 424.248,34.032 424.248,51.78 C424.248,69.648 444.456,73.116 453.84,74.652 C462.528,76.164 470.484,77.7 470.484,83.628 C470.484,87.816 465.576,91.896 456.696,91.896 C448.128,91.896 437.208,86.892 431.796,82.404 Z M590.808,30.456 L573.66,30.456 L558.972,69.144 L539.376,28.512 L519.78,69.144 L505.38,30.456 L488.04,30.456 L517.836,107.712 L539.376,63.42 L560.7,107.712 L590.808,30.456 Z M600.3,104.964 L616.428,104.964 L616.428,30.348 L600.3,30.348 L600.3,104.964 Z M637.764,82.404 L629.184,94.752 C636.12,100.668 646.74,106.38 662.868,106.38 C680.532,106.38 692.568,98.724 692.568,83.22 C692.568,63.204 673.284,61.68 661.128,59.136 C654.396,57.696 646.332,56.484 646.332,51.168 C646.332,45.252 654.504,43.824 659.196,43.824 C666.444,43.824 673.896,46.884 680.316,51.48 L689.304,39.228 C681.132,33.204 672.876,29.22 659.808,29.22 C646.632,29.22 630.204,34.032 630.204,51.78 C630.204,69.648 650.412,73.116 659.808,74.652 C668.484,76.164 676.452,77.7 676.452,83.628 C676.452,87.816 671.544,91.896 662.664,91.896 C654.084,91.896 643.164,86.892 637.764,82.404 Z M709.92,82.404 L701.34,94.752 C708.288,100.668 718.908,106.38 735.036,106.38 C752.676,106.38 764.724,98.724 764.724,83.22 C764.724,63.204 745.44,61.68 733.284,59.136 C726.552,57.696 718.5,56.484 718.5,51.168 C718.5,45.252 726.66,43.824 731.352,43.824 C738.6,43.824 746.04,46.884 752.484,51.48 L761.46,39.228 C753.3,33.204 745.032,29.22 731.964,29.22 C718.8,29.22 702.372,34.032 702.372,51.78 C702.372,69.648 722.568,73.116 731.964,74.652 C740.64,76.164 748.596,77.7 748.596,83.628 C748.596,87.816 743.7,91.896 734.82,91.896 C726.252,91.896 715.332,86.892 709.92,82.404 Z" id="Fill-16" fill="#3D3D3C"></path>
            </g>
        </g>
    </g>
</svg>